G04 #@! TF.GenerationSoftware,KiCad,Pcbnew,(7.0.0-0)*
G04 #@! TF.CreationDate,2025-08-17T10:04:58+12:00*
G04 #@! TF.ProjectId,signal_panelized_X4,7369676e-616c-45f7-9061-6e656c697a65,rev?*
G04 #@! TF.SameCoordinates,Original*
G04 #@! TF.FileFunction,Profile,NP*
%FSLAX46Y46*%
G04 Gerber Fmt 4.6, Leading zero omitted, Abs format (unit mm)*
G04 Created by KiCad (PCBNEW (7.0.0-0)) date 2025-08-17 10:04:58*
%MOMM*%
%LPD*%
G01*
G04 APERTURE LIST*
G04 #@! TA.AperFunction,Profile*
%ADD10C,0.150000*%
G04 #@! TD*
G04 APERTURE END LIST*
D10*
X169250000Y-117650000D02*
X169250000Y-126850000D01*
X145850000Y-127850000D02*
X145850000Y-97450000D01*
X167250000Y-90450000D02*
X167250000Y-60050000D01*
X146850000Y-59050000D02*
G75*
G03*
X145850000Y-60050000I0J-1000000D01*
G01*
X181650000Y-70250000D02*
X180450000Y-70250000D01*
X149050000Y-80250000D02*
G75*
G03*
X150050000Y-79250000I0J1000000D01*
G01*
X168250000Y-96450000D02*
G75*
G03*
X167250000Y-97450000I0J-1000000D01*
G01*
X156050036Y-89450003D02*
X160250000Y-89450000D01*
X173450000Y-128850000D02*
X168250000Y-128850000D01*
X171450000Y-108650000D02*
X171450000Y-116650000D01*
X182650000Y-128850000D02*
G75*
G03*
X183650000Y-127850000I0J1000000D01*
G01*
X179475126Y-61050000D02*
X181650000Y-63224874D01*
X160250000Y-107650000D02*
X159050000Y-107650000D01*
X179450000Y-108650000D02*
X179450000Y-116650000D01*
X169250000Y-63224874D02*
X171424874Y-61050000D01*
X161250000Y-91450000D02*
X156050036Y-91450001D01*
X181650000Y-100624874D02*
X181650000Y-107650000D01*
X162250000Y-97450000D02*
G75*
G03*
X161250000Y-96450000I-1000000J0D01*
G01*
X180450000Y-107650000D02*
G75*
G03*
X179450000Y-108650000I0J-1000000D01*
G01*
X156050000Y-96450000D02*
X161250000Y-96450000D01*
X170450000Y-80250000D02*
G75*
G03*
X171450000Y-79250000I0J1000000D01*
G01*
X177450000Y-61049998D02*
X179475126Y-61050000D01*
X169250000Y-117650000D02*
X170450000Y-117650000D01*
X179450000Y-116650000D02*
G75*
G03*
X180450000Y-117650000I1000000J0D01*
G01*
X140850000Y-54050000D02*
X188650000Y-54050000D01*
X188650000Y-54050000D02*
X188650000Y-133850000D01*
X188650000Y-133850000D02*
X140850000Y-133850000D01*
X140850000Y-133850000D02*
X140850000Y-54050000D01*
X183650000Y-97450000D02*
X183650000Y-127850000D01*
X147850000Y-63224874D02*
X150024874Y-61050000D01*
X146850000Y-59050000D02*
X152049964Y-59049999D01*
X171450000Y-108650000D02*
G75*
G03*
X170450000Y-107650000I-1000000J0D01*
G01*
X147850000Y-117650000D02*
X149050000Y-117650000D01*
X169250000Y-107650000D02*
X170450000Y-107650000D01*
X159050000Y-107650000D02*
G75*
G03*
X158050000Y-108650000I0J-1000000D01*
G01*
X158050000Y-108650000D02*
X158050000Y-116650000D01*
X171424874Y-61050000D02*
X173449964Y-61049997D01*
X147850000Y-100624874D02*
X147850000Y-107650000D01*
X150050000Y-108650000D02*
X150050000Y-116650000D01*
X160250000Y-117650000D02*
X160250000Y-126850000D01*
X169250000Y-63224874D02*
X169250000Y-70250000D01*
X150050000Y-71250000D02*
X150050000Y-79250000D01*
X147850000Y-70250000D02*
X149050000Y-70250000D01*
X167250000Y-127850000D02*
X167250000Y-97450000D01*
X169250000Y-80250000D02*
X169250000Y-89450000D01*
X181650000Y-80250000D02*
X180450000Y-80250000D01*
X158075126Y-98450000D02*
X160250000Y-100624874D01*
X161250000Y-128850000D02*
X156050036Y-128850001D01*
X152050000Y-128850000D02*
X146850000Y-128850000D01*
X158050000Y-116650000D02*
G75*
G03*
X159050000Y-117650000I1000000J0D01*
G01*
X158050000Y-71250000D02*
X158050000Y-79250000D01*
X147850000Y-80250000D02*
X149050000Y-80250000D01*
X168250000Y-59050000D02*
G75*
G03*
X167250000Y-60050000I0J-1000000D01*
G01*
X146850000Y-96450000D02*
X152049964Y-96449999D01*
X181650000Y-117650000D02*
X181650000Y-126850000D01*
X181650000Y-80250000D02*
X181650000Y-89450000D01*
X152050000Y-126850002D02*
X147850000Y-126850000D01*
X167250000Y-90450000D02*
G75*
G03*
X168250000Y-91450000I1000000J0D01*
G01*
X177450000Y-98449998D02*
X179475126Y-98450000D01*
X162250000Y-60050000D02*
G75*
G03*
X161250000Y-59050000I-1000000J0D01*
G01*
X156050036Y-126850003D02*
X160250000Y-126850000D01*
X145850000Y-90450000D02*
G75*
G03*
X146850000Y-91450000I1000000J0D01*
G01*
X182650000Y-91450000D02*
X177450036Y-91450001D01*
X177450036Y-126850003D02*
X181650000Y-126850000D01*
X150050000Y-108650000D02*
G75*
G03*
X149050000Y-107650000I-1000000J0D01*
G01*
X168250000Y-96450000D02*
X173449964Y-96449999D01*
X156050000Y-61049998D02*
X158075126Y-61050000D01*
X182650000Y-128850000D02*
X177450036Y-128850001D01*
X145850000Y-127850000D02*
G75*
G03*
X146850000Y-128850000I1000000J0D01*
G01*
X158050000Y-79250000D02*
G75*
G03*
X159050000Y-80250000I1000000J0D01*
G01*
X147850000Y-107650000D02*
X149050000Y-107650000D01*
X167250000Y-127850000D02*
G75*
G03*
X168250000Y-128850000I1000000J0D01*
G01*
X160250000Y-100624874D02*
X160250000Y-107650000D01*
X146850000Y-96450000D02*
G75*
G03*
X145850000Y-97450000I0J-1000000D01*
G01*
X161250000Y-91450000D02*
G75*
G03*
X162250000Y-90450000I0J1000000D01*
G01*
X169250000Y-100624874D02*
X169250000Y-107650000D01*
X173450000Y-126850002D02*
X169250000Y-126850000D01*
X180450000Y-70250000D02*
G75*
G03*
X179450000Y-71250000I0J-1000000D01*
G01*
X150050000Y-71250000D02*
G75*
G03*
X149050000Y-70250000I-1000000J0D01*
G01*
X177450000Y-59050000D02*
X182650000Y-59050000D01*
X160250000Y-117650000D02*
X159050000Y-117650000D01*
X181650000Y-63224874D02*
X181650000Y-70250000D01*
X173450000Y-91450000D02*
X168250000Y-91450000D01*
X162250000Y-60050000D02*
X162250000Y-90450000D01*
X183650000Y-97450000D02*
G75*
G03*
X182650000Y-96450000I-1000000J0D01*
G01*
X150024874Y-61050000D02*
X152049964Y-61049997D01*
X158075126Y-61050000D02*
X160250000Y-63224874D01*
X179450000Y-71250000D02*
X179450000Y-79250000D01*
X147850000Y-117650000D02*
X147850000Y-126850000D01*
X147850000Y-63224874D02*
X147850000Y-70250000D01*
X160250000Y-80250000D02*
X159050000Y-80250000D01*
X179475126Y-98450000D02*
X181650000Y-100624874D01*
X181650000Y-107650000D02*
X180450000Y-107650000D01*
X171424874Y-98450000D02*
X173449964Y-98449997D01*
X160250000Y-63224874D02*
X160250000Y-70250000D01*
X156050000Y-98449998D02*
X158075126Y-98450000D01*
X170450000Y-117650000D02*
G75*
G03*
X171450000Y-116650000I0J1000000D01*
G01*
X162250000Y-97450000D02*
X162250000Y-127850000D01*
X156050000Y-59050000D02*
X161250000Y-59050000D01*
X152050000Y-89450002D02*
X147850000Y-89450000D01*
X177450036Y-89450003D02*
X181650000Y-89450000D01*
X152050000Y-91450000D02*
X146850000Y-91450000D01*
X145850000Y-90450000D02*
X145850000Y-60050000D01*
X169250000Y-100624874D02*
X171424874Y-98450000D01*
X161250000Y-128850000D02*
G75*
G03*
X162250000Y-127850000I0J1000000D01*
G01*
X183650000Y-60050000D02*
G75*
G03*
X182650000Y-59050000I-1000000J0D01*
G01*
X183650000Y-60050000D02*
X183650000Y-90450000D01*
X169250000Y-70250000D02*
X170450000Y-70250000D01*
X177450000Y-96450000D02*
X182650000Y-96450000D01*
X160250000Y-80250000D02*
X160250000Y-89450000D01*
X168250000Y-59050000D02*
X173449964Y-59049999D01*
X173450000Y-89450002D02*
X169250000Y-89450000D01*
X182650000Y-91450000D02*
G75*
G03*
X183650000Y-90450000I0J1000000D01*
G01*
X149050000Y-117650000D02*
G75*
G03*
X150050000Y-116650000I0J1000000D01*
G01*
X147850000Y-80250000D02*
X147850000Y-89450000D01*
X159050000Y-70250000D02*
G75*
G03*
X158050000Y-71250000I0J-1000000D01*
G01*
X160250000Y-70250000D02*
X159050000Y-70250000D01*
X181650000Y-117650000D02*
X180450000Y-117650000D01*
X150024874Y-98450000D02*
X152049964Y-98449997D01*
X171450000Y-71250000D02*
X171450000Y-79250000D01*
X169250000Y-80250000D02*
X170450000Y-80250000D01*
X179450000Y-79250000D02*
G75*
G03*
X180450000Y-80250000I1000000J0D01*
G01*
X171450000Y-71250000D02*
G75*
G03*
X170450000Y-70250000I-1000000J0D01*
G01*
X147850000Y-100624874D02*
X150024874Y-98450000D01*
X156050036Y-126850003D02*
G75*
G03*
X156050036Y-128850001I-19J-999999D01*
G01*
X152050000Y-128849998D02*
G75*
G03*
X152050000Y-126850002I20J999998D01*
G01*
X173449964Y-61049997D02*
G75*
G03*
X173449964Y-59049999I19J999999D01*
G01*
X177450000Y-59050002D02*
G75*
G03*
X177450000Y-61049998I-20J-999998D01*
G01*
X152049964Y-98449997D02*
G75*
G03*
X152049964Y-96449999I19J999999D01*
G01*
X156050000Y-96450002D02*
G75*
G03*
X156050000Y-98449998I-20J-999998D01*
G01*
X177450036Y-89450003D02*
G75*
G03*
X177450036Y-91450001I-19J-999999D01*
G01*
X173450000Y-91449998D02*
G75*
G03*
X173450000Y-89450002I20J999998D01*
G01*
X177450036Y-126850003D02*
G75*
G03*
X177450036Y-128850001I-19J-999999D01*
G01*
X173450000Y-128849998D02*
G75*
G03*
X173450000Y-126850002I20J999998D01*
G01*
X173449964Y-98449997D02*
G75*
G03*
X173449964Y-96449999I19J999999D01*
G01*
X177450000Y-96450002D02*
G75*
G03*
X177450000Y-98449998I-20J-999998D01*
G01*
X152049964Y-61049997D02*
G75*
G03*
X152049964Y-59049999I19J999999D01*
G01*
X156050000Y-59050002D02*
G75*
G03*
X156050000Y-61049998I-20J-999998D01*
G01*
X156050036Y-89450003D02*
G75*
G03*
X156050036Y-91450001I-19J-999999D01*
G01*
X152050000Y-91449998D02*
G75*
G03*
X152050000Y-89450002I20J999998D01*
G01*
M02*
