G04 #@! TF.GenerationSoftware,KiCad,Pcbnew,(7.0.0-0)*
G04 #@! TF.CreationDate,2025-08-17T10:04:58+12:00*
G04 #@! TF.ProjectId,signal_panelized_X4,7369676e-616c-45f7-9061-6e656c697a65,rev?*
G04 #@! TF.SameCoordinates,Original*
G04 #@! TF.FileFunction,Copper,L2,Bot*
G04 #@! TF.FilePolarity,Positive*
%FSLAX46Y46*%
G04 Gerber Fmt 4.6, Leading zero omitted, Abs format (unit mm)*
G04 Created by KiCad (PCBNEW (7.0.0-0)) date 2025-08-17 10:04:58*
%MOMM*%
%LPD*%
G01*
G04 APERTURE LIST*
G04 Aperture macros list*
%AMRoundRect*
0 Rectangle with rounded corners*
0 $1 Rounding radius*
0 $2 $3 $4 $5 $6 $7 $8 $9 X,Y pos of 4 corners*
0 Add a 4 corners polygon primitive as box body*
4,1,4,$2,$3,$4,$5,$6,$7,$8,$9,$2,$3,0*
0 Add four circle primitives for the rounded corners*
1,1,$1+$1,$2,$3*
1,1,$1+$1,$4,$5*
1,1,$1+$1,$6,$7*
1,1,$1+$1,$8,$9*
0 Add four rect primitives between the rounded corners*
20,1,$1+$1,$2,$3,$4,$5,0*
20,1,$1+$1,$4,$5,$6,$7,0*
20,1,$1+$1,$6,$7,$8,$9,0*
20,1,$1+$1,$8,$9,$2,$3,0*%
G04 Aperture macros list end*
G04 #@! TA.AperFunction,ComponentPad*
%ADD10C,1.800000*%
G04 #@! TD*
G04 #@! TA.AperFunction,SMDPad,CuDef*
%ADD11RoundRect,0.375000X-0.375000X-1.375000X0.375000X-1.375000X0.375000X1.375000X-0.375000X1.375000X0*%
G04 #@! TD*
G04 #@! TA.AperFunction,ViaPad*
%ADD12C,0.600000*%
G04 #@! TD*
G04 APERTURE END LIST*
D10*
X174120000Y-123850000D03*
X171580000Y-123850000D03*
X176780000Y-102250000D03*
X179320000Y-102250000D03*
D11*
X176700000Y-119200000D03*
X174200000Y-119200000D03*
D10*
X176780000Y-123850000D03*
X179320000Y-123850000D03*
X155380000Y-123850000D03*
X157920000Y-123850000D03*
X155380000Y-102250000D03*
X157920000Y-102250000D03*
X152720000Y-123850000D03*
X150180000Y-123850000D03*
D11*
X155300000Y-119200000D03*
X152800000Y-119200000D03*
X176700000Y-81800000D03*
X174200000Y-81800000D03*
D10*
X176780000Y-64850000D03*
X179320000Y-64850000D03*
X176780000Y-86450000D03*
X179320000Y-86450000D03*
X174120000Y-86450000D03*
X171580000Y-86450000D03*
D11*
X155300000Y-81800000D03*
X152800000Y-81800000D03*
D10*
X152720000Y-86450000D03*
X150180000Y-86450000D03*
X155380000Y-64850000D03*
X157920000Y-64850000D03*
X155380000Y-86450000D03*
X157920000Y-86450000D03*
D12*
X177100000Y-112650000D03*
X173800000Y-112650000D03*
X176300000Y-112650000D03*
X174600000Y-112650000D03*
X173000000Y-112650000D03*
X177900000Y-112650000D03*
X153200000Y-112650000D03*
X154900000Y-112650000D03*
X155700000Y-112650000D03*
X151600000Y-112650000D03*
X156500000Y-112650000D03*
X152400000Y-112650000D03*
X174600000Y-75250000D03*
X176300000Y-75250000D03*
X177100000Y-75250000D03*
X173000000Y-75250000D03*
X177900000Y-75250000D03*
X173800000Y-75250000D03*
X155700000Y-75250000D03*
X154900000Y-75250000D03*
X156500000Y-75250000D03*
X151600000Y-75250000D03*
X153200000Y-75250000D03*
X152400000Y-75250000D03*
G04 #@! TA.AperFunction,Conductor*
G36*
X157968242Y-61308034D02*
G01*
X158000360Y-61329494D01*
X159970504Y-63299638D01*
X159991964Y-63331756D01*
X159999500Y-63369642D01*
X159999500Y-69900500D01*
X159986237Y-69950000D01*
X159950000Y-69986237D01*
X159900500Y-69999500D01*
X159094170Y-69999500D01*
X159050000Y-69999500D01*
X158951583Y-69999500D01*
X158947739Y-70000108D01*
X158947736Y-70000109D01*
X158761020Y-70029681D01*
X158761009Y-70029683D01*
X158757174Y-70030291D01*
X158753479Y-70031491D01*
X158753473Y-70031493D01*
X158573674Y-70089913D01*
X158573661Y-70089918D01*
X158569975Y-70091116D01*
X158566513Y-70092879D01*
X158566508Y-70092882D01*
X158398061Y-70178709D01*
X158398051Y-70178714D01*
X158394595Y-70180476D01*
X158391451Y-70182759D01*
X158391448Y-70182762D01*
X158238493Y-70293891D01*
X158238490Y-70293893D01*
X158235354Y-70296172D01*
X158232616Y-70298909D01*
X158232610Y-70298915D01*
X158098915Y-70432610D01*
X158098909Y-70432616D01*
X158096172Y-70435354D01*
X158093893Y-70438490D01*
X158093891Y-70438493D01*
X158045275Y-70505408D01*
X157980476Y-70594595D01*
X157978714Y-70598051D01*
X157978709Y-70598061D01*
X157892882Y-70766508D01*
X157892879Y-70766513D01*
X157891116Y-70769975D01*
X157889918Y-70773661D01*
X157889913Y-70773674D01*
X157831493Y-70953473D01*
X157831491Y-70953479D01*
X157830291Y-70957174D01*
X157829683Y-70961009D01*
X157829681Y-70961020D01*
X157807071Y-71103780D01*
X157799500Y-71151583D01*
X157799500Y-71225326D01*
X157799500Y-79205830D01*
X157799500Y-79250000D01*
X157799500Y-79348417D01*
X157800108Y-79352261D01*
X157800109Y-79352263D01*
X157829681Y-79538979D01*
X157829683Y-79538987D01*
X157830291Y-79542826D01*
X157831492Y-79546523D01*
X157831493Y-79546526D01*
X157889913Y-79726325D01*
X157889916Y-79726333D01*
X157891116Y-79730025D01*
X157892881Y-79733490D01*
X157892882Y-79733491D01*
X157974653Y-79893978D01*
X157980476Y-79905405D01*
X158096172Y-80064646D01*
X158235354Y-80203828D01*
X158394595Y-80319524D01*
X158569975Y-80408884D01*
X158757174Y-80469709D01*
X158951583Y-80500500D01*
X159025326Y-80500500D01*
X159050000Y-80500500D01*
X159094170Y-80500500D01*
X159900500Y-80500500D01*
X159950000Y-80513763D01*
X159986237Y-80550000D01*
X159999500Y-80599500D01*
X159999500Y-89100500D01*
X159986237Y-89150000D01*
X159950000Y-89186236D01*
X159900500Y-89199500D01*
X156050063Y-89199502D01*
X156050045Y-89199500D01*
X156050045Y-89199499D01*
X156050041Y-89199498D01*
X156050034Y-89199498D01*
X156038008Y-89199498D01*
X156029481Y-89197321D01*
X156029320Y-89197304D01*
X156029306Y-89197301D01*
X156029311Y-89197277D01*
X155990566Y-89187386D01*
X155954733Y-89154023D01*
X155932143Y-89118872D01*
X155823373Y-89024623D01*
X155816926Y-89021678D01*
X155816925Y-89021678D01*
X155698902Y-88967778D01*
X155698899Y-88967777D01*
X155692457Y-88964835D01*
X155685446Y-88963827D01*
X155685443Y-88963826D01*
X155589308Y-88950004D01*
X155589300Y-88950003D01*
X155585799Y-88949500D01*
X155514201Y-88949500D01*
X155510700Y-88950003D01*
X155510691Y-88950004D01*
X155414556Y-88963826D01*
X155414551Y-88963827D01*
X155407543Y-88964835D01*
X155401102Y-88967776D01*
X155401097Y-88967778D01*
X155283070Y-89021680D01*
X155283067Y-89021681D01*
X155276627Y-89024623D01*
X155271279Y-89029256D01*
X155271274Y-89029260D01*
X155239827Y-89056509D01*
X155198337Y-89077898D01*
X155151657Y-89077897D01*
X155110167Y-89056507D01*
X155078728Y-89029265D01*
X155078727Y-89029264D01*
X155073373Y-89024625D01*
X155066926Y-89021680D01*
X155066925Y-89021680D01*
X154948902Y-88967780D01*
X154948899Y-88967779D01*
X154942457Y-88964837D01*
X154935446Y-88963829D01*
X154935443Y-88963828D01*
X154839308Y-88950006D01*
X154839300Y-88950005D01*
X154835799Y-88949502D01*
X154764201Y-88949502D01*
X154760700Y-88950005D01*
X154760691Y-88950006D01*
X154664556Y-88963828D01*
X154664551Y-88963829D01*
X154657543Y-88964837D01*
X154651102Y-88967778D01*
X154651097Y-88967780D01*
X154533067Y-89021683D01*
X154533062Y-89021686D01*
X154526627Y-89024625D01*
X154521279Y-89029258D01*
X154521274Y-89029262D01*
X154489839Y-89056500D01*
X154448349Y-89077889D01*
X154401669Y-89077889D01*
X154360179Y-89056500D01*
X154328746Y-89029264D01*
X154328741Y-89029260D01*
X154323391Y-89024625D01*
X154316949Y-89021683D01*
X154316946Y-89021681D01*
X154257873Y-88994703D01*
X154215716Y-88958173D01*
X154200000Y-88904650D01*
X154200000Y-87749000D01*
X154213263Y-87699500D01*
X154249500Y-87663263D01*
X154299000Y-87650000D01*
X155263359Y-87650000D01*
X155266976Y-87650167D01*
X155268757Y-87650500D01*
X155486668Y-87650500D01*
X155491243Y-87650500D01*
X155493023Y-87650167D01*
X155496641Y-87650000D01*
X157803359Y-87650000D01*
X157806976Y-87650167D01*
X157808757Y-87650500D01*
X158026660Y-87650500D01*
X158031243Y-87650500D01*
X158249940Y-87609618D01*
X158457401Y-87529247D01*
X158646562Y-87412124D01*
X158810981Y-87262236D01*
X158945058Y-87084689D01*
X159044229Y-86885528D01*
X159105115Y-86671536D01*
X159125643Y-86450000D01*
X159105115Y-86228464D01*
X159044229Y-86014472D01*
X158945058Y-85815311D01*
X158810981Y-85637764D01*
X158646562Y-85487876D01*
X158457401Y-85370753D01*
X158453138Y-85369101D01*
X158453133Y-85369099D01*
X158254209Y-85292035D01*
X158254201Y-85292032D01*
X158249940Y-85290382D01*
X158245436Y-85289540D01*
X158035749Y-85250342D01*
X158035745Y-85250341D01*
X158031243Y-85249500D01*
X157808757Y-85249500D01*
X157806976Y-85249832D01*
X157803359Y-85250000D01*
X155496641Y-85250000D01*
X155493023Y-85249832D01*
X155491243Y-85249500D01*
X155268757Y-85249500D01*
X155266976Y-85249832D01*
X155263359Y-85250000D01*
X154299000Y-85250000D01*
X154249500Y-85236737D01*
X154213263Y-85200500D01*
X154200000Y-85151000D01*
X154200000Y-83949000D01*
X154213263Y-83899500D01*
X154249500Y-83863263D01*
X154299000Y-83850000D01*
X154986967Y-83850000D01*
X154997245Y-83847245D01*
X155000000Y-83836967D01*
X155000000Y-83836966D01*
X155600000Y-83836966D01*
X155602754Y-83847244D01*
X155613033Y-83849999D01*
X155727327Y-83849999D01*
X155731779Y-83849797D01*
X155792353Y-83844293D01*
X155802564Y-83842262D01*
X155948340Y-83796837D01*
X155959193Y-83791952D01*
X156089218Y-83713349D01*
X156098573Y-83706021D01*
X156206021Y-83598573D01*
X156213349Y-83589218D01*
X156291952Y-83459193D01*
X156296837Y-83448340D01*
X156342261Y-83302567D01*
X156344293Y-83292352D01*
X156349796Y-83231798D01*
X156350000Y-83227307D01*
X156350000Y-82113033D01*
X156347245Y-82102754D01*
X156336967Y-82100000D01*
X155613033Y-82100000D01*
X155602754Y-82102754D01*
X155600000Y-82113033D01*
X155600000Y-83836966D01*
X155000000Y-83836966D01*
X155000000Y-81486967D01*
X155600000Y-81486967D01*
X155602754Y-81497245D01*
X155613033Y-81500000D01*
X156336966Y-81500000D01*
X156347244Y-81497245D01*
X156349999Y-81486967D01*
X156349999Y-80372673D01*
X156349797Y-80368220D01*
X156344293Y-80307646D01*
X156342262Y-80297435D01*
X156296837Y-80151659D01*
X156291952Y-80140806D01*
X156213349Y-80010781D01*
X156206021Y-80001426D01*
X156098573Y-79893978D01*
X156089218Y-79886650D01*
X155959193Y-79808047D01*
X155948340Y-79803162D01*
X155802567Y-79757738D01*
X155792352Y-79755706D01*
X155731798Y-79750203D01*
X155727307Y-79750000D01*
X155613033Y-79750000D01*
X155602754Y-79752754D01*
X155600000Y-79763033D01*
X155600000Y-81486967D01*
X155000000Y-81486967D01*
X155000000Y-79763034D01*
X154997245Y-79752755D01*
X154986967Y-79750001D01*
X154950004Y-79750001D01*
X154950000Y-79750001D01*
X154950000Y-79750000D01*
X154299000Y-79750000D01*
X154249500Y-79736737D01*
X154213263Y-79700500D01*
X154200000Y-79651000D01*
X154200000Y-66149000D01*
X154213263Y-66099500D01*
X154249500Y-66063263D01*
X154299000Y-66050000D01*
X155263359Y-66050000D01*
X155266976Y-66050167D01*
X155268757Y-66050500D01*
X155486668Y-66050500D01*
X155491243Y-66050500D01*
X155493023Y-66050167D01*
X155496641Y-66050000D01*
X157803359Y-66050000D01*
X157806976Y-66050167D01*
X157808757Y-66050500D01*
X158026660Y-66050500D01*
X158031243Y-66050500D01*
X158249940Y-66009618D01*
X158457401Y-65929247D01*
X158646562Y-65812124D01*
X158810981Y-65662236D01*
X158945058Y-65484689D01*
X159044229Y-65285528D01*
X159105115Y-65071536D01*
X159125643Y-64850000D01*
X159105115Y-64628464D01*
X159044229Y-64414472D01*
X158945058Y-64215311D01*
X158810981Y-64037764D01*
X158646562Y-63887876D01*
X158457401Y-63770753D01*
X158453138Y-63769101D01*
X158453133Y-63769099D01*
X158254209Y-63692035D01*
X158254201Y-63692032D01*
X158249940Y-63690382D01*
X158245436Y-63689540D01*
X158035749Y-63650342D01*
X158035745Y-63650341D01*
X158031243Y-63649500D01*
X157808757Y-63649500D01*
X157806976Y-63649832D01*
X157803359Y-63650000D01*
X155496641Y-63650000D01*
X155493023Y-63649832D01*
X155491243Y-63649500D01*
X155268757Y-63649500D01*
X155266976Y-63649832D01*
X155263359Y-63650000D01*
X154299000Y-63650000D01*
X154249500Y-63636737D01*
X154213263Y-63600500D01*
X154200000Y-63551000D01*
X154200000Y-61595333D01*
X154215716Y-61541810D01*
X154257873Y-61505280D01*
X154259123Y-61504708D01*
X154323355Y-61475375D01*
X154360162Y-61443481D01*
X154401651Y-61422093D01*
X154448331Y-61422093D01*
X154489819Y-61443481D01*
X154526627Y-61475375D01*
X154657543Y-61535163D01*
X154764201Y-61550498D01*
X154832256Y-61550498D01*
X154835799Y-61550498D01*
X154942457Y-61535163D01*
X155073373Y-61475375D01*
X155110169Y-61443490D01*
X155151660Y-61422101D01*
X155198340Y-61422101D01*
X155239830Y-61443490D01*
X155276627Y-61475375D01*
X155407543Y-61535163D01*
X155514201Y-61550498D01*
X155582256Y-61550498D01*
X155585799Y-61550498D01*
X155692457Y-61535163D01*
X155823373Y-61475375D01*
X155932143Y-61381126D01*
X155954732Y-61345975D01*
X155990569Y-61312608D01*
X156038015Y-61300498D01*
X157930360Y-61300498D01*
X157968242Y-61308034D01*
G37*
G04 #@! TD.AperFunction*
G04 #@! TA.AperFunction,Conductor*
G36*
X152049955Y-61300499D02*
G01*
X152049955Y-61300501D01*
X152061983Y-61300501D01*
X152074662Y-61303737D01*
X152075446Y-61303840D01*
X152075461Y-61303844D01*
X152075436Y-61303934D01*
X152109427Y-61312610D01*
X152145265Y-61345976D01*
X152164026Y-61375168D01*
X152164028Y-61375171D01*
X152167857Y-61381128D01*
X152276627Y-61475377D01*
X152407543Y-61535165D01*
X152514201Y-61550500D01*
X152582256Y-61550500D01*
X152585799Y-61550500D01*
X152692457Y-61535165D01*
X152823373Y-61475377D01*
X152860170Y-61443491D01*
X152901661Y-61422102D01*
X152948341Y-61422102D01*
X152989831Y-61443491D01*
X153026627Y-61475375D01*
X153157543Y-61535163D01*
X153264201Y-61550498D01*
X153332256Y-61550498D01*
X153335799Y-61550498D01*
X153442457Y-61535163D01*
X153573373Y-61475375D01*
X153610160Y-61443498D01*
X153651651Y-61422109D01*
X153698331Y-61422109D01*
X153739821Y-61443498D01*
X153776609Y-61475375D01*
X153783050Y-61478316D01*
X153783051Y-61478317D01*
X153842127Y-61505297D01*
X153884284Y-61541827D01*
X153900000Y-61595350D01*
X153900000Y-79651000D01*
X153886737Y-79700500D01*
X153850500Y-79736737D01*
X153801000Y-79750000D01*
X153113033Y-79750000D01*
X153102754Y-79752754D01*
X153100000Y-79763033D01*
X153100000Y-83836966D01*
X153102754Y-83847244D01*
X153113033Y-83849999D01*
X153149996Y-83849999D01*
X153150000Y-83850000D01*
X153150004Y-83850000D01*
X153801000Y-83850000D01*
X153850500Y-83863263D01*
X153886737Y-83899500D01*
X153900000Y-83949000D01*
X153900000Y-85151000D01*
X153886737Y-85200500D01*
X153850500Y-85236737D01*
X153801000Y-85250000D01*
X152836641Y-85250000D01*
X152833023Y-85249832D01*
X152831243Y-85249500D01*
X152608757Y-85249500D01*
X152606976Y-85249832D01*
X152603359Y-85250000D01*
X150296641Y-85250000D01*
X150293023Y-85249832D01*
X150291243Y-85249500D01*
X150068757Y-85249500D01*
X150064255Y-85250341D01*
X150064250Y-85250342D01*
X149854563Y-85289540D01*
X149854560Y-85289540D01*
X149850060Y-85290382D01*
X149845801Y-85292031D01*
X149845790Y-85292035D01*
X149646866Y-85369099D01*
X149646857Y-85369103D01*
X149642599Y-85370753D01*
X149638713Y-85373158D01*
X149638709Y-85373161D01*
X149457326Y-85485468D01*
X149457321Y-85485471D01*
X149453438Y-85487876D01*
X149450063Y-85490952D01*
X149450056Y-85490958D01*
X149292395Y-85634686D01*
X149289019Y-85637764D01*
X149286268Y-85641406D01*
X149286266Y-85641409D01*
X149157697Y-85811661D01*
X149157690Y-85811670D01*
X149154942Y-85815311D01*
X149152904Y-85819403D01*
X149152902Y-85819407D01*
X149057813Y-86010370D01*
X149057811Y-86010375D01*
X149055771Y-86014472D01*
X149054520Y-86018866D01*
X149054517Y-86018876D01*
X148996135Y-86224068D01*
X148996133Y-86224075D01*
X148994885Y-86228464D01*
X148974357Y-86450000D01*
X148994885Y-86671536D01*
X148996134Y-86675926D01*
X148996135Y-86675931D01*
X149054517Y-86881123D01*
X149054519Y-86881129D01*
X149055771Y-86885528D01*
X149154942Y-87084689D01*
X149157694Y-87088333D01*
X149157697Y-87088338D01*
X149235480Y-87191339D01*
X149289019Y-87262236D01*
X149453438Y-87412124D01*
X149642599Y-87529247D01*
X149646866Y-87530900D01*
X149845790Y-87607964D01*
X149845792Y-87607964D01*
X149850060Y-87609618D01*
X150068757Y-87650500D01*
X150286668Y-87650500D01*
X150291243Y-87650500D01*
X150293023Y-87650167D01*
X150296641Y-87650000D01*
X152603359Y-87650000D01*
X152606976Y-87650167D01*
X152608757Y-87650500D01*
X152826668Y-87650500D01*
X152831243Y-87650500D01*
X152833023Y-87650167D01*
X152836641Y-87650000D01*
X153801000Y-87650000D01*
X153850500Y-87663263D01*
X153886737Y-87699500D01*
X153900000Y-87749000D01*
X153900000Y-88904667D01*
X153884284Y-88958190D01*
X153842127Y-88994720D01*
X153783083Y-89021684D01*
X153783078Y-89021686D01*
X153776645Y-89024625D01*
X153771298Y-89029258D01*
X153771292Y-89029262D01*
X153739839Y-89056516D01*
X153698349Y-89077905D01*
X153651669Y-89077905D01*
X153610179Y-89056516D01*
X153578725Y-89029262D01*
X153578722Y-89029260D01*
X153573373Y-89024625D01*
X153566934Y-89021684D01*
X153566932Y-89021683D01*
X153448902Y-88967780D01*
X153448899Y-88967779D01*
X153442457Y-88964837D01*
X153435446Y-88963829D01*
X153435443Y-88963828D01*
X153339308Y-88950006D01*
X153339300Y-88950005D01*
X153335799Y-88949502D01*
X153264201Y-88949502D01*
X153260700Y-88950005D01*
X153260691Y-88950006D01*
X153164556Y-88963828D01*
X153164551Y-88963829D01*
X153157543Y-88964837D01*
X153151102Y-88967778D01*
X153151097Y-88967780D01*
X153033067Y-89021683D01*
X153033062Y-89021686D01*
X153026627Y-89024625D01*
X153021279Y-89029258D01*
X153021274Y-89029262D01*
X152989830Y-89056508D01*
X152948340Y-89077897D01*
X152901660Y-89077897D01*
X152860170Y-89056508D01*
X152828725Y-89029262D01*
X152828722Y-89029260D01*
X152823373Y-89024625D01*
X152816934Y-89021684D01*
X152816932Y-89021683D01*
X152698902Y-88967780D01*
X152698899Y-88967779D01*
X152692457Y-88964837D01*
X152685446Y-88963829D01*
X152685443Y-88963828D01*
X152589308Y-88950006D01*
X152589300Y-88950005D01*
X152585799Y-88949502D01*
X152514201Y-88949502D01*
X152510700Y-88950005D01*
X152510691Y-88950006D01*
X152414556Y-88963828D01*
X152414551Y-88963829D01*
X152407543Y-88964837D01*
X152401102Y-88967778D01*
X152401097Y-88967780D01*
X152283074Y-89021680D01*
X152283070Y-89021682D01*
X152276627Y-89024625D01*
X152271275Y-89029262D01*
X152271271Y-89029265D01*
X152174991Y-89112692D01*
X152167857Y-89118874D01*
X152164032Y-89124825D01*
X152164030Y-89124828D01*
X152145267Y-89154025D01*
X152109428Y-89187391D01*
X152061983Y-89199501D01*
X148199500Y-89199500D01*
X148150000Y-89186237D01*
X148113763Y-89150000D01*
X148100500Y-89100500D01*
X148100500Y-83227327D01*
X151750001Y-83227327D01*
X151750202Y-83231779D01*
X151755706Y-83292353D01*
X151757737Y-83302564D01*
X151803162Y-83448340D01*
X151808047Y-83459193D01*
X151886650Y-83589218D01*
X151893978Y-83598573D01*
X152001426Y-83706021D01*
X152010781Y-83713349D01*
X152140806Y-83791952D01*
X152151659Y-83796837D01*
X152297432Y-83842261D01*
X152307647Y-83844293D01*
X152368201Y-83849796D01*
X152372693Y-83850000D01*
X152486967Y-83850000D01*
X152497245Y-83847245D01*
X152500000Y-83836967D01*
X152500000Y-82113033D01*
X152497245Y-82102754D01*
X152486967Y-82100000D01*
X151763034Y-82100000D01*
X151752755Y-82102754D01*
X151750001Y-82113033D01*
X151750001Y-83227327D01*
X148100500Y-83227327D01*
X148100500Y-81486967D01*
X151750000Y-81486967D01*
X151752754Y-81497245D01*
X151763033Y-81500000D01*
X152486967Y-81500000D01*
X152497245Y-81497245D01*
X152500000Y-81486967D01*
X152500000Y-79763034D01*
X152497245Y-79752755D01*
X152486967Y-79750001D01*
X152372673Y-79750001D01*
X152368220Y-79750202D01*
X152307646Y-79755706D01*
X152297435Y-79757737D01*
X152151659Y-79803162D01*
X152140806Y-79808047D01*
X152010781Y-79886650D01*
X152001426Y-79893978D01*
X151893978Y-80001426D01*
X151886650Y-80010781D01*
X151808047Y-80140806D01*
X151803162Y-80151659D01*
X151757738Y-80297432D01*
X151755706Y-80307647D01*
X151750203Y-80368201D01*
X151750000Y-80372693D01*
X151750000Y-81486967D01*
X148100500Y-81486967D01*
X148100500Y-80599500D01*
X148113763Y-80550000D01*
X148150000Y-80513763D01*
X148199500Y-80500500D01*
X149144524Y-80500500D01*
X149148417Y-80500500D01*
X149342826Y-80469709D01*
X149530025Y-80408884D01*
X149705405Y-80319524D01*
X149864646Y-80203828D01*
X150003828Y-80064646D01*
X150119524Y-79905405D01*
X150208884Y-79730025D01*
X150269709Y-79542826D01*
X150300500Y-79348417D01*
X150300500Y-79250000D01*
X150300500Y-79205830D01*
X150300500Y-71225326D01*
X150300500Y-71151583D01*
X150269709Y-70957174D01*
X150208884Y-70769975D01*
X150119524Y-70594595D01*
X150003828Y-70435354D01*
X149864646Y-70296172D01*
X149705405Y-70180476D01*
X149701942Y-70178711D01*
X149701938Y-70178709D01*
X149533491Y-70092882D01*
X149533490Y-70092881D01*
X149530025Y-70091116D01*
X149526333Y-70089916D01*
X149526325Y-70089913D01*
X149346526Y-70031493D01*
X149346523Y-70031492D01*
X149342826Y-70030291D01*
X149338987Y-70029683D01*
X149338979Y-70029681D01*
X149152263Y-70000109D01*
X149152261Y-70000108D01*
X149148417Y-69999500D01*
X149144524Y-69999500D01*
X148199500Y-69999500D01*
X148150000Y-69986237D01*
X148113763Y-69950000D01*
X148100500Y-69900500D01*
X148100500Y-63369642D01*
X148108036Y-63331756D01*
X148129496Y-63299638D01*
X148398840Y-63030294D01*
X150099641Y-61329491D01*
X150131756Y-61308034D01*
X150169637Y-61300498D01*
X152049937Y-61300497D01*
X152049955Y-61300499D01*
G37*
G04 #@! TD.AperFunction*
G04 #@! TA.AperFunction,Conductor*
G36*
X173449955Y-61300499D02*
G01*
X173449955Y-61300501D01*
X173461983Y-61300501D01*
X173474662Y-61303737D01*
X173475446Y-61303840D01*
X173475461Y-61303844D01*
X173475436Y-61303934D01*
X173509427Y-61312610D01*
X173545265Y-61345976D01*
X173564026Y-61375168D01*
X173564028Y-61375171D01*
X173567857Y-61381128D01*
X173676627Y-61475377D01*
X173807543Y-61535165D01*
X173914201Y-61550500D01*
X173982256Y-61550500D01*
X173985799Y-61550500D01*
X174092457Y-61535165D01*
X174223373Y-61475377D01*
X174260170Y-61443491D01*
X174301661Y-61422102D01*
X174348341Y-61422102D01*
X174389831Y-61443491D01*
X174426627Y-61475375D01*
X174557543Y-61535163D01*
X174664201Y-61550498D01*
X174732256Y-61550498D01*
X174735799Y-61550498D01*
X174842457Y-61535163D01*
X174973373Y-61475375D01*
X175010160Y-61443498D01*
X175051651Y-61422109D01*
X175098331Y-61422109D01*
X175139821Y-61443498D01*
X175176609Y-61475375D01*
X175183050Y-61478316D01*
X175183051Y-61478317D01*
X175242127Y-61505297D01*
X175284284Y-61541827D01*
X175300000Y-61595350D01*
X175300000Y-79651000D01*
X175286737Y-79700500D01*
X175250500Y-79736737D01*
X175201000Y-79750000D01*
X174513033Y-79750000D01*
X174502754Y-79752754D01*
X174500000Y-79763033D01*
X174500000Y-83836966D01*
X174502754Y-83847244D01*
X174513033Y-83849999D01*
X174549996Y-83849999D01*
X174550000Y-83850000D01*
X174550004Y-83850000D01*
X175201000Y-83850000D01*
X175250500Y-83863263D01*
X175286737Y-83899500D01*
X175300000Y-83949000D01*
X175300000Y-85151000D01*
X175286737Y-85200500D01*
X175250500Y-85236737D01*
X175201000Y-85250000D01*
X174236641Y-85250000D01*
X174233023Y-85249832D01*
X174231243Y-85249500D01*
X174008757Y-85249500D01*
X174006976Y-85249832D01*
X174003359Y-85250000D01*
X171696641Y-85250000D01*
X171693023Y-85249832D01*
X171691243Y-85249500D01*
X171468757Y-85249500D01*
X171464255Y-85250341D01*
X171464250Y-85250342D01*
X171254563Y-85289540D01*
X171254560Y-85289540D01*
X171250060Y-85290382D01*
X171245801Y-85292031D01*
X171245790Y-85292035D01*
X171046866Y-85369099D01*
X171046857Y-85369103D01*
X171042599Y-85370753D01*
X171038713Y-85373158D01*
X171038709Y-85373161D01*
X170857326Y-85485468D01*
X170857321Y-85485471D01*
X170853438Y-85487876D01*
X170850063Y-85490952D01*
X170850056Y-85490958D01*
X170692395Y-85634686D01*
X170689019Y-85637764D01*
X170686268Y-85641406D01*
X170686266Y-85641409D01*
X170557697Y-85811661D01*
X170557690Y-85811670D01*
X170554942Y-85815311D01*
X170552904Y-85819403D01*
X170552902Y-85819407D01*
X170457813Y-86010370D01*
X170457811Y-86010375D01*
X170455771Y-86014472D01*
X170454520Y-86018866D01*
X170454517Y-86018876D01*
X170396135Y-86224068D01*
X170396133Y-86224075D01*
X170394885Y-86228464D01*
X170374357Y-86450000D01*
X170394885Y-86671536D01*
X170396134Y-86675926D01*
X170396135Y-86675931D01*
X170454517Y-86881123D01*
X170454519Y-86881129D01*
X170455771Y-86885528D01*
X170554942Y-87084689D01*
X170557694Y-87088333D01*
X170557697Y-87088338D01*
X170635480Y-87191339D01*
X170689019Y-87262236D01*
X170853438Y-87412124D01*
X171042599Y-87529247D01*
X171046866Y-87530900D01*
X171245790Y-87607964D01*
X171245792Y-87607964D01*
X171250060Y-87609618D01*
X171468757Y-87650500D01*
X171686668Y-87650500D01*
X171691243Y-87650500D01*
X171693023Y-87650167D01*
X171696641Y-87650000D01*
X174003359Y-87650000D01*
X174006976Y-87650167D01*
X174008757Y-87650500D01*
X174226668Y-87650500D01*
X174231243Y-87650500D01*
X174233023Y-87650167D01*
X174236641Y-87650000D01*
X175201000Y-87650000D01*
X175250500Y-87663263D01*
X175286737Y-87699500D01*
X175300000Y-87749000D01*
X175300000Y-88904667D01*
X175284284Y-88958190D01*
X175242127Y-88994720D01*
X175183083Y-89021684D01*
X175183078Y-89021686D01*
X175176645Y-89024625D01*
X175171298Y-89029258D01*
X175171292Y-89029262D01*
X175139839Y-89056516D01*
X175098349Y-89077905D01*
X175051669Y-89077905D01*
X175010179Y-89056516D01*
X174978725Y-89029262D01*
X174978722Y-89029260D01*
X174973373Y-89024625D01*
X174966934Y-89021684D01*
X174966932Y-89021683D01*
X174848902Y-88967780D01*
X174848899Y-88967779D01*
X174842457Y-88964837D01*
X174835446Y-88963829D01*
X174835443Y-88963828D01*
X174739308Y-88950006D01*
X174739300Y-88950005D01*
X174735799Y-88949502D01*
X174664201Y-88949502D01*
X174660700Y-88950005D01*
X174660691Y-88950006D01*
X174564556Y-88963828D01*
X174564551Y-88963829D01*
X174557543Y-88964837D01*
X174551102Y-88967778D01*
X174551097Y-88967780D01*
X174433067Y-89021683D01*
X174433062Y-89021686D01*
X174426627Y-89024625D01*
X174421279Y-89029258D01*
X174421274Y-89029262D01*
X174389830Y-89056508D01*
X174348340Y-89077897D01*
X174301660Y-89077897D01*
X174260170Y-89056508D01*
X174228725Y-89029262D01*
X174228722Y-89029260D01*
X174223373Y-89024625D01*
X174216934Y-89021684D01*
X174216932Y-89021683D01*
X174098902Y-88967780D01*
X174098899Y-88967779D01*
X174092457Y-88964837D01*
X174085446Y-88963829D01*
X174085443Y-88963828D01*
X173989308Y-88950006D01*
X173989300Y-88950005D01*
X173985799Y-88949502D01*
X173914201Y-88949502D01*
X173910700Y-88950005D01*
X173910691Y-88950006D01*
X173814556Y-88963828D01*
X173814551Y-88963829D01*
X173807543Y-88964837D01*
X173801102Y-88967778D01*
X173801097Y-88967780D01*
X173683074Y-89021680D01*
X173683070Y-89021682D01*
X173676627Y-89024625D01*
X173671275Y-89029262D01*
X173671271Y-89029265D01*
X173574991Y-89112692D01*
X173567857Y-89118874D01*
X173564032Y-89124825D01*
X173564030Y-89124828D01*
X173545267Y-89154025D01*
X173509428Y-89187391D01*
X173461983Y-89199501D01*
X169599500Y-89199500D01*
X169550000Y-89186237D01*
X169513763Y-89150000D01*
X169500500Y-89100500D01*
X169500500Y-83227327D01*
X173150001Y-83227327D01*
X173150202Y-83231779D01*
X173155706Y-83292353D01*
X173157737Y-83302564D01*
X173203162Y-83448340D01*
X173208047Y-83459193D01*
X173286650Y-83589218D01*
X173293978Y-83598573D01*
X173401426Y-83706021D01*
X173410781Y-83713349D01*
X173540806Y-83791952D01*
X173551659Y-83796837D01*
X173697432Y-83842261D01*
X173707647Y-83844293D01*
X173768201Y-83849796D01*
X173772693Y-83850000D01*
X173886967Y-83850000D01*
X173897245Y-83847245D01*
X173900000Y-83836967D01*
X173900000Y-82113033D01*
X173897245Y-82102754D01*
X173886967Y-82100000D01*
X173163034Y-82100000D01*
X173152755Y-82102754D01*
X173150001Y-82113033D01*
X173150001Y-83227327D01*
X169500500Y-83227327D01*
X169500500Y-81486967D01*
X173150000Y-81486967D01*
X173152754Y-81497245D01*
X173163033Y-81500000D01*
X173886967Y-81500000D01*
X173897245Y-81497245D01*
X173900000Y-81486967D01*
X173900000Y-79763034D01*
X173897245Y-79752755D01*
X173886967Y-79750001D01*
X173772673Y-79750001D01*
X173768220Y-79750202D01*
X173707646Y-79755706D01*
X173697435Y-79757737D01*
X173551659Y-79803162D01*
X173540806Y-79808047D01*
X173410781Y-79886650D01*
X173401426Y-79893978D01*
X173293978Y-80001426D01*
X173286650Y-80010781D01*
X173208047Y-80140806D01*
X173203162Y-80151659D01*
X173157738Y-80297432D01*
X173155706Y-80307647D01*
X173150203Y-80368201D01*
X173150000Y-80372693D01*
X173150000Y-81486967D01*
X169500500Y-81486967D01*
X169500500Y-80599500D01*
X169513763Y-80550000D01*
X169550000Y-80513763D01*
X169599500Y-80500500D01*
X170544524Y-80500500D01*
X170548417Y-80500500D01*
X170742826Y-80469709D01*
X170930025Y-80408884D01*
X171105405Y-80319524D01*
X171264646Y-80203828D01*
X171403828Y-80064646D01*
X171519524Y-79905405D01*
X171608884Y-79730025D01*
X171669709Y-79542826D01*
X171700500Y-79348417D01*
X171700500Y-79250000D01*
X171700500Y-79205830D01*
X171700500Y-71225326D01*
X171700500Y-71151583D01*
X171669709Y-70957174D01*
X171608884Y-70769975D01*
X171519524Y-70594595D01*
X171403828Y-70435354D01*
X171264646Y-70296172D01*
X171105405Y-70180476D01*
X171101942Y-70178711D01*
X171101938Y-70178709D01*
X170933491Y-70092882D01*
X170933490Y-70092881D01*
X170930025Y-70091116D01*
X170926333Y-70089916D01*
X170926325Y-70089913D01*
X170746526Y-70031493D01*
X170746523Y-70031492D01*
X170742826Y-70030291D01*
X170738987Y-70029683D01*
X170738979Y-70029681D01*
X170552263Y-70000109D01*
X170552261Y-70000108D01*
X170548417Y-69999500D01*
X170544524Y-69999500D01*
X169599500Y-69999500D01*
X169550000Y-69986237D01*
X169513763Y-69950000D01*
X169500500Y-69900500D01*
X169500500Y-63369642D01*
X169508036Y-63331756D01*
X169529496Y-63299638D01*
X169798840Y-63030294D01*
X171499641Y-61329491D01*
X171531756Y-61308034D01*
X171569637Y-61300498D01*
X173449937Y-61300497D01*
X173449955Y-61300499D01*
G37*
G04 #@! TD.AperFunction*
G04 #@! TA.AperFunction,Conductor*
G36*
X179368242Y-61308034D02*
G01*
X179400360Y-61329494D01*
X181370504Y-63299638D01*
X181391964Y-63331756D01*
X181399500Y-63369642D01*
X181399500Y-69900500D01*
X181386237Y-69950000D01*
X181350000Y-69986237D01*
X181300500Y-69999500D01*
X180494170Y-69999500D01*
X180450000Y-69999500D01*
X180351583Y-69999500D01*
X180347739Y-70000108D01*
X180347736Y-70000109D01*
X180161020Y-70029681D01*
X180161009Y-70029683D01*
X180157174Y-70030291D01*
X180153479Y-70031491D01*
X180153473Y-70031493D01*
X179973674Y-70089913D01*
X179973661Y-70089918D01*
X179969975Y-70091116D01*
X179966513Y-70092879D01*
X179966508Y-70092882D01*
X179798061Y-70178709D01*
X179798051Y-70178714D01*
X179794595Y-70180476D01*
X179791451Y-70182759D01*
X179791448Y-70182762D01*
X179638493Y-70293891D01*
X179638490Y-70293893D01*
X179635354Y-70296172D01*
X179632616Y-70298909D01*
X179632610Y-70298915D01*
X179498915Y-70432610D01*
X179498909Y-70432616D01*
X179496172Y-70435354D01*
X179493893Y-70438490D01*
X179493891Y-70438493D01*
X179445275Y-70505408D01*
X179380476Y-70594595D01*
X179378714Y-70598051D01*
X179378709Y-70598061D01*
X179292882Y-70766508D01*
X179292879Y-70766513D01*
X179291116Y-70769975D01*
X179289918Y-70773661D01*
X179289913Y-70773674D01*
X179231493Y-70953473D01*
X179231491Y-70953479D01*
X179230291Y-70957174D01*
X179229683Y-70961009D01*
X179229681Y-70961020D01*
X179207071Y-71103780D01*
X179199500Y-71151583D01*
X179199500Y-71225326D01*
X179199500Y-79205830D01*
X179199500Y-79250000D01*
X179199500Y-79348417D01*
X179200108Y-79352261D01*
X179200109Y-79352263D01*
X179229681Y-79538979D01*
X179229683Y-79538987D01*
X179230291Y-79542826D01*
X179231492Y-79546523D01*
X179231493Y-79546526D01*
X179289913Y-79726325D01*
X179289916Y-79726333D01*
X179291116Y-79730025D01*
X179292881Y-79733490D01*
X179292882Y-79733491D01*
X179374653Y-79893978D01*
X179380476Y-79905405D01*
X179496172Y-80064646D01*
X179635354Y-80203828D01*
X179794595Y-80319524D01*
X179969975Y-80408884D01*
X180157174Y-80469709D01*
X180351583Y-80500500D01*
X180425326Y-80500500D01*
X180450000Y-80500500D01*
X180494170Y-80500500D01*
X181300500Y-80500500D01*
X181350000Y-80513763D01*
X181386237Y-80550000D01*
X181399500Y-80599500D01*
X181399500Y-89100500D01*
X181386237Y-89150000D01*
X181350000Y-89186236D01*
X181300500Y-89199500D01*
X177450063Y-89199502D01*
X177450045Y-89199500D01*
X177450045Y-89199499D01*
X177450041Y-89199498D01*
X177450034Y-89199498D01*
X177438008Y-89199498D01*
X177429481Y-89197321D01*
X177429320Y-89197304D01*
X177429306Y-89197301D01*
X177429311Y-89197277D01*
X177390566Y-89187386D01*
X177354733Y-89154023D01*
X177332143Y-89118872D01*
X177223373Y-89024623D01*
X177216926Y-89021678D01*
X177216925Y-89021678D01*
X177098902Y-88967778D01*
X177098899Y-88967777D01*
X177092457Y-88964835D01*
X177085446Y-88963827D01*
X177085443Y-88963826D01*
X176989308Y-88950004D01*
X176989300Y-88950003D01*
X176985799Y-88949500D01*
X176914201Y-88949500D01*
X176910700Y-88950003D01*
X176910691Y-88950004D01*
X176814556Y-88963826D01*
X176814551Y-88963827D01*
X176807543Y-88964835D01*
X176801102Y-88967776D01*
X176801097Y-88967778D01*
X176683070Y-89021680D01*
X176683067Y-89021681D01*
X176676627Y-89024623D01*
X176671279Y-89029256D01*
X176671274Y-89029260D01*
X176639827Y-89056509D01*
X176598337Y-89077898D01*
X176551657Y-89077897D01*
X176510167Y-89056507D01*
X176478728Y-89029265D01*
X176478727Y-89029264D01*
X176473373Y-89024625D01*
X176466926Y-89021680D01*
X176466925Y-89021680D01*
X176348902Y-88967780D01*
X176348899Y-88967779D01*
X176342457Y-88964837D01*
X176335446Y-88963829D01*
X176335443Y-88963828D01*
X176239308Y-88950006D01*
X176239300Y-88950005D01*
X176235799Y-88949502D01*
X176164201Y-88949502D01*
X176160700Y-88950005D01*
X176160691Y-88950006D01*
X176064556Y-88963828D01*
X176064551Y-88963829D01*
X176057543Y-88964837D01*
X176051102Y-88967778D01*
X176051097Y-88967780D01*
X175933067Y-89021683D01*
X175933062Y-89021686D01*
X175926627Y-89024625D01*
X175921279Y-89029258D01*
X175921274Y-89029262D01*
X175889839Y-89056500D01*
X175848349Y-89077889D01*
X175801669Y-89077889D01*
X175760179Y-89056500D01*
X175728746Y-89029264D01*
X175728741Y-89029260D01*
X175723391Y-89024625D01*
X175716949Y-89021683D01*
X175716946Y-89021681D01*
X175657873Y-88994703D01*
X175615716Y-88958173D01*
X175600000Y-88904650D01*
X175600000Y-87749000D01*
X175613263Y-87699500D01*
X175649500Y-87663263D01*
X175699000Y-87650000D01*
X176663359Y-87650000D01*
X176666976Y-87650167D01*
X176668757Y-87650500D01*
X176886668Y-87650500D01*
X176891243Y-87650500D01*
X176893023Y-87650167D01*
X176896641Y-87650000D01*
X179203359Y-87650000D01*
X179206976Y-87650167D01*
X179208757Y-87650500D01*
X179426660Y-87650500D01*
X179431243Y-87650500D01*
X179649940Y-87609618D01*
X179857401Y-87529247D01*
X180046562Y-87412124D01*
X180210981Y-87262236D01*
X180345058Y-87084689D01*
X180444229Y-86885528D01*
X180505115Y-86671536D01*
X180525643Y-86450000D01*
X180505115Y-86228464D01*
X180444229Y-86014472D01*
X180345058Y-85815311D01*
X180210981Y-85637764D01*
X180046562Y-85487876D01*
X179857401Y-85370753D01*
X179853138Y-85369101D01*
X179853133Y-85369099D01*
X179654209Y-85292035D01*
X179654201Y-85292032D01*
X179649940Y-85290382D01*
X179645436Y-85289540D01*
X179435749Y-85250342D01*
X179435745Y-85250341D01*
X179431243Y-85249500D01*
X179208757Y-85249500D01*
X179206976Y-85249832D01*
X179203359Y-85250000D01*
X176896641Y-85250000D01*
X176893023Y-85249832D01*
X176891243Y-85249500D01*
X176668757Y-85249500D01*
X176666976Y-85249832D01*
X176663359Y-85250000D01*
X175699000Y-85250000D01*
X175649500Y-85236737D01*
X175613263Y-85200500D01*
X175600000Y-85151000D01*
X175600000Y-83949000D01*
X175613263Y-83899500D01*
X175649500Y-83863263D01*
X175699000Y-83850000D01*
X176386967Y-83850000D01*
X176397245Y-83847245D01*
X176400000Y-83836967D01*
X176400000Y-83836966D01*
X177000000Y-83836966D01*
X177002754Y-83847244D01*
X177013033Y-83849999D01*
X177127327Y-83849999D01*
X177131779Y-83849797D01*
X177192353Y-83844293D01*
X177202564Y-83842262D01*
X177348340Y-83796837D01*
X177359193Y-83791952D01*
X177489218Y-83713349D01*
X177498573Y-83706021D01*
X177606021Y-83598573D01*
X177613349Y-83589218D01*
X177691952Y-83459193D01*
X177696837Y-83448340D01*
X177742261Y-83302567D01*
X177744293Y-83292352D01*
X177749796Y-83231798D01*
X177750000Y-83227307D01*
X177750000Y-82113033D01*
X177747245Y-82102754D01*
X177736967Y-82100000D01*
X177013033Y-82100000D01*
X177002754Y-82102754D01*
X177000000Y-82113033D01*
X177000000Y-83836966D01*
X176400000Y-83836966D01*
X176400000Y-81486967D01*
X177000000Y-81486967D01*
X177002754Y-81497245D01*
X177013033Y-81500000D01*
X177736966Y-81500000D01*
X177747244Y-81497245D01*
X177749999Y-81486967D01*
X177749999Y-80372673D01*
X177749797Y-80368220D01*
X177744293Y-80307646D01*
X177742262Y-80297435D01*
X177696837Y-80151659D01*
X177691952Y-80140806D01*
X177613349Y-80010781D01*
X177606021Y-80001426D01*
X177498573Y-79893978D01*
X177489218Y-79886650D01*
X177359193Y-79808047D01*
X177348340Y-79803162D01*
X177202567Y-79757738D01*
X177192352Y-79755706D01*
X177131798Y-79750203D01*
X177127307Y-79750000D01*
X177013033Y-79750000D01*
X177002754Y-79752754D01*
X177000000Y-79763033D01*
X177000000Y-81486967D01*
X176400000Y-81486967D01*
X176400000Y-79763034D01*
X176397245Y-79752755D01*
X176386967Y-79750001D01*
X176350004Y-79750001D01*
X176350000Y-79750001D01*
X176350000Y-79750000D01*
X175699000Y-79750000D01*
X175649500Y-79736737D01*
X175613263Y-79700500D01*
X175600000Y-79651000D01*
X175600000Y-66149000D01*
X175613263Y-66099500D01*
X175649500Y-66063263D01*
X175699000Y-66050000D01*
X176663359Y-66050000D01*
X176666976Y-66050167D01*
X176668757Y-66050500D01*
X176886668Y-66050500D01*
X176891243Y-66050500D01*
X176893023Y-66050167D01*
X176896641Y-66050000D01*
X179203359Y-66050000D01*
X179206976Y-66050167D01*
X179208757Y-66050500D01*
X179426660Y-66050500D01*
X179431243Y-66050500D01*
X179649940Y-66009618D01*
X179857401Y-65929247D01*
X180046562Y-65812124D01*
X180210981Y-65662236D01*
X180345058Y-65484689D01*
X180444229Y-65285528D01*
X180505115Y-65071536D01*
X180525643Y-64850000D01*
X180505115Y-64628464D01*
X180444229Y-64414472D01*
X180345058Y-64215311D01*
X180210981Y-64037764D01*
X180046562Y-63887876D01*
X179857401Y-63770753D01*
X179853138Y-63769101D01*
X179853133Y-63769099D01*
X179654209Y-63692035D01*
X179654201Y-63692032D01*
X179649940Y-63690382D01*
X179645436Y-63689540D01*
X179435749Y-63650342D01*
X179435745Y-63650341D01*
X179431243Y-63649500D01*
X179208757Y-63649500D01*
X179206976Y-63649832D01*
X179203359Y-63650000D01*
X176896641Y-63650000D01*
X176893023Y-63649832D01*
X176891243Y-63649500D01*
X176668757Y-63649500D01*
X176666976Y-63649832D01*
X176663359Y-63650000D01*
X175699000Y-63650000D01*
X175649500Y-63636737D01*
X175613263Y-63600500D01*
X175600000Y-63551000D01*
X175600000Y-61595333D01*
X175615716Y-61541810D01*
X175657873Y-61505280D01*
X175659123Y-61504708D01*
X175723355Y-61475375D01*
X175760162Y-61443481D01*
X175801651Y-61422093D01*
X175848331Y-61422093D01*
X175889819Y-61443481D01*
X175926627Y-61475375D01*
X176057543Y-61535163D01*
X176164201Y-61550498D01*
X176232256Y-61550498D01*
X176235799Y-61550498D01*
X176342457Y-61535163D01*
X176473373Y-61475375D01*
X176510169Y-61443490D01*
X176551660Y-61422101D01*
X176598340Y-61422101D01*
X176639830Y-61443490D01*
X176676627Y-61475375D01*
X176807543Y-61535163D01*
X176914201Y-61550498D01*
X176982256Y-61550498D01*
X176985799Y-61550498D01*
X177092457Y-61535163D01*
X177223373Y-61475375D01*
X177332143Y-61381126D01*
X177354732Y-61345975D01*
X177390569Y-61312608D01*
X177438015Y-61300498D01*
X179330360Y-61300498D01*
X179368242Y-61308034D01*
G37*
G04 #@! TD.AperFunction*
G04 #@! TA.AperFunction,Conductor*
G36*
X152049955Y-98700499D02*
G01*
X152049955Y-98700501D01*
X152061983Y-98700501D01*
X152074662Y-98703737D01*
X152075446Y-98703840D01*
X152075461Y-98703844D01*
X152075436Y-98703934D01*
X152109427Y-98712610D01*
X152145265Y-98745976D01*
X152164026Y-98775168D01*
X152164028Y-98775171D01*
X152167857Y-98781128D01*
X152276627Y-98875377D01*
X152407543Y-98935165D01*
X152514201Y-98950500D01*
X152582256Y-98950500D01*
X152585799Y-98950500D01*
X152692457Y-98935165D01*
X152823373Y-98875377D01*
X152860170Y-98843491D01*
X152901661Y-98822102D01*
X152948341Y-98822102D01*
X152989831Y-98843491D01*
X153026627Y-98875375D01*
X153157543Y-98935163D01*
X153264201Y-98950498D01*
X153332256Y-98950498D01*
X153335799Y-98950498D01*
X153442457Y-98935163D01*
X153573373Y-98875375D01*
X153610160Y-98843498D01*
X153651651Y-98822109D01*
X153698331Y-98822109D01*
X153739821Y-98843498D01*
X153776609Y-98875375D01*
X153783050Y-98878316D01*
X153783051Y-98878317D01*
X153842127Y-98905297D01*
X153884284Y-98941827D01*
X153900000Y-98995350D01*
X153900000Y-117051000D01*
X153886737Y-117100500D01*
X153850500Y-117136737D01*
X153801000Y-117150000D01*
X153113033Y-117150000D01*
X153102754Y-117152754D01*
X153100000Y-117163033D01*
X153100000Y-121236966D01*
X153102754Y-121247244D01*
X153113033Y-121249999D01*
X153149996Y-121249999D01*
X153150000Y-121250000D01*
X153150004Y-121250000D01*
X153801000Y-121250000D01*
X153850500Y-121263263D01*
X153886737Y-121299500D01*
X153900000Y-121349000D01*
X153900000Y-122551000D01*
X153886737Y-122600500D01*
X153850500Y-122636737D01*
X153801000Y-122650000D01*
X152836641Y-122650000D01*
X152833023Y-122649832D01*
X152831243Y-122649500D01*
X152608757Y-122649500D01*
X152606976Y-122649832D01*
X152603359Y-122650000D01*
X150296641Y-122650000D01*
X150293023Y-122649832D01*
X150291243Y-122649500D01*
X150068757Y-122649500D01*
X150064255Y-122650341D01*
X150064250Y-122650342D01*
X149854563Y-122689540D01*
X149854560Y-122689540D01*
X149850060Y-122690382D01*
X149845801Y-122692031D01*
X149845790Y-122692035D01*
X149646866Y-122769099D01*
X149646857Y-122769103D01*
X149642599Y-122770753D01*
X149638713Y-122773158D01*
X149638709Y-122773161D01*
X149457326Y-122885468D01*
X149457321Y-122885471D01*
X149453438Y-122887876D01*
X149450063Y-122890952D01*
X149450056Y-122890958D01*
X149292395Y-123034686D01*
X149289019Y-123037764D01*
X149286268Y-123041406D01*
X149286266Y-123041409D01*
X149157697Y-123211661D01*
X149157690Y-123211670D01*
X149154942Y-123215311D01*
X149152904Y-123219403D01*
X149152902Y-123219407D01*
X149057813Y-123410370D01*
X149057811Y-123410375D01*
X149055771Y-123414472D01*
X149054520Y-123418866D01*
X149054517Y-123418876D01*
X148996135Y-123624068D01*
X148996133Y-123624075D01*
X148994885Y-123628464D01*
X148974357Y-123850000D01*
X148994885Y-124071536D01*
X148996134Y-124075926D01*
X148996135Y-124075931D01*
X149054517Y-124281123D01*
X149054519Y-124281129D01*
X149055771Y-124285528D01*
X149154942Y-124484689D01*
X149157694Y-124488333D01*
X149157697Y-124488338D01*
X149235480Y-124591339D01*
X149289019Y-124662236D01*
X149453438Y-124812124D01*
X149642599Y-124929247D01*
X149646866Y-124930900D01*
X149845790Y-125007964D01*
X149845792Y-125007964D01*
X149850060Y-125009618D01*
X150068757Y-125050500D01*
X150286668Y-125050500D01*
X150291243Y-125050500D01*
X150293023Y-125050167D01*
X150296641Y-125050000D01*
X152603359Y-125050000D01*
X152606976Y-125050167D01*
X152608757Y-125050500D01*
X152826668Y-125050500D01*
X152831243Y-125050500D01*
X152833023Y-125050167D01*
X152836641Y-125050000D01*
X153801000Y-125050000D01*
X153850500Y-125063263D01*
X153886737Y-125099500D01*
X153900000Y-125149000D01*
X153900000Y-126304667D01*
X153884284Y-126358190D01*
X153842127Y-126394720D01*
X153783083Y-126421684D01*
X153783078Y-126421686D01*
X153776645Y-126424625D01*
X153771298Y-126429258D01*
X153771292Y-126429262D01*
X153739839Y-126456516D01*
X153698349Y-126477905D01*
X153651669Y-126477905D01*
X153610179Y-126456516D01*
X153578725Y-126429262D01*
X153578722Y-126429260D01*
X153573373Y-126424625D01*
X153566934Y-126421684D01*
X153566932Y-126421683D01*
X153448902Y-126367780D01*
X153448899Y-126367779D01*
X153442457Y-126364837D01*
X153435446Y-126363829D01*
X153435443Y-126363828D01*
X153339308Y-126350006D01*
X153339300Y-126350005D01*
X153335799Y-126349502D01*
X153264201Y-126349502D01*
X153260700Y-126350005D01*
X153260691Y-126350006D01*
X153164556Y-126363828D01*
X153164551Y-126363829D01*
X153157543Y-126364837D01*
X153151102Y-126367778D01*
X153151097Y-126367780D01*
X153033067Y-126421683D01*
X153033062Y-126421686D01*
X153026627Y-126424625D01*
X153021279Y-126429258D01*
X153021274Y-126429262D01*
X152989830Y-126456508D01*
X152948340Y-126477897D01*
X152901660Y-126477897D01*
X152860170Y-126456508D01*
X152828725Y-126429262D01*
X152828722Y-126429260D01*
X152823373Y-126424625D01*
X152816934Y-126421684D01*
X152816932Y-126421683D01*
X152698902Y-126367780D01*
X152698899Y-126367779D01*
X152692457Y-126364837D01*
X152685446Y-126363829D01*
X152685443Y-126363828D01*
X152589308Y-126350006D01*
X152589300Y-126350005D01*
X152585799Y-126349502D01*
X152514201Y-126349502D01*
X152510700Y-126350005D01*
X152510691Y-126350006D01*
X152414556Y-126363828D01*
X152414551Y-126363829D01*
X152407543Y-126364837D01*
X152401102Y-126367778D01*
X152401097Y-126367780D01*
X152283074Y-126421680D01*
X152283070Y-126421682D01*
X152276627Y-126424625D01*
X152271275Y-126429262D01*
X152271271Y-126429265D01*
X152174991Y-126512692D01*
X152167857Y-126518874D01*
X152164032Y-126524825D01*
X152164030Y-126524828D01*
X152145267Y-126554025D01*
X152109428Y-126587391D01*
X152061983Y-126599501D01*
X148199500Y-126599500D01*
X148150000Y-126586237D01*
X148113763Y-126550000D01*
X148100500Y-126500500D01*
X148100500Y-120627327D01*
X151750001Y-120627327D01*
X151750202Y-120631779D01*
X151755706Y-120692353D01*
X151757737Y-120702564D01*
X151803162Y-120848340D01*
X151808047Y-120859193D01*
X151886650Y-120989218D01*
X151893978Y-120998573D01*
X152001426Y-121106021D01*
X152010781Y-121113349D01*
X152140806Y-121191952D01*
X152151659Y-121196837D01*
X152297432Y-121242261D01*
X152307647Y-121244293D01*
X152368201Y-121249796D01*
X152372693Y-121250000D01*
X152486967Y-121250000D01*
X152497245Y-121247245D01*
X152500000Y-121236967D01*
X152500000Y-119513033D01*
X152497245Y-119502754D01*
X152486967Y-119500000D01*
X151763034Y-119500000D01*
X151752755Y-119502754D01*
X151750001Y-119513033D01*
X151750001Y-120627327D01*
X148100500Y-120627327D01*
X148100500Y-118886967D01*
X151750000Y-118886967D01*
X151752754Y-118897245D01*
X151763033Y-118900000D01*
X152486967Y-118900000D01*
X152497245Y-118897245D01*
X152500000Y-118886967D01*
X152500000Y-117163034D01*
X152497245Y-117152755D01*
X152486967Y-117150001D01*
X152372673Y-117150001D01*
X152368220Y-117150202D01*
X152307646Y-117155706D01*
X152297435Y-117157737D01*
X152151659Y-117203162D01*
X152140806Y-117208047D01*
X152010781Y-117286650D01*
X152001426Y-117293978D01*
X151893978Y-117401426D01*
X151886650Y-117410781D01*
X151808047Y-117540806D01*
X151803162Y-117551659D01*
X151757738Y-117697432D01*
X151755706Y-117707647D01*
X151750203Y-117768201D01*
X151750000Y-117772693D01*
X151750000Y-118886967D01*
X148100500Y-118886967D01*
X148100500Y-117999500D01*
X148113763Y-117950000D01*
X148150000Y-117913763D01*
X148199500Y-117900500D01*
X149144524Y-117900500D01*
X149148417Y-117900500D01*
X149342826Y-117869709D01*
X149530025Y-117808884D01*
X149705405Y-117719524D01*
X149864646Y-117603828D01*
X150003828Y-117464646D01*
X150119524Y-117305405D01*
X150208884Y-117130025D01*
X150269709Y-116942826D01*
X150300500Y-116748417D01*
X150300500Y-116650000D01*
X150300500Y-116605830D01*
X150300500Y-108625326D01*
X150300500Y-108551583D01*
X150269709Y-108357174D01*
X150208884Y-108169975D01*
X150119524Y-107994595D01*
X150003828Y-107835354D01*
X149864646Y-107696172D01*
X149705405Y-107580476D01*
X149701942Y-107578711D01*
X149701938Y-107578709D01*
X149533491Y-107492882D01*
X149533490Y-107492881D01*
X149530025Y-107491116D01*
X149526333Y-107489916D01*
X149526325Y-107489913D01*
X149346526Y-107431493D01*
X149346523Y-107431492D01*
X149342826Y-107430291D01*
X149338987Y-107429683D01*
X149338979Y-107429681D01*
X149152263Y-107400109D01*
X149152261Y-107400108D01*
X149148417Y-107399500D01*
X149144524Y-107399500D01*
X148199500Y-107399500D01*
X148150000Y-107386237D01*
X148113763Y-107350000D01*
X148100500Y-107300500D01*
X148100500Y-100769642D01*
X148108036Y-100731756D01*
X148129496Y-100699638D01*
X148398840Y-100430294D01*
X150099641Y-98729491D01*
X150131756Y-98708034D01*
X150169637Y-98700498D01*
X152049937Y-98700497D01*
X152049955Y-98700499D01*
G37*
G04 #@! TD.AperFunction*
G04 #@! TA.AperFunction,Conductor*
G36*
X157968242Y-98708034D02*
G01*
X158000360Y-98729494D01*
X159970504Y-100699638D01*
X159991964Y-100731756D01*
X159999500Y-100769642D01*
X159999500Y-107300500D01*
X159986237Y-107350000D01*
X159950000Y-107386237D01*
X159900500Y-107399500D01*
X159094170Y-107399500D01*
X159050000Y-107399500D01*
X158951583Y-107399500D01*
X158947739Y-107400108D01*
X158947736Y-107400109D01*
X158761020Y-107429681D01*
X158761009Y-107429683D01*
X158757174Y-107430291D01*
X158753479Y-107431491D01*
X158753473Y-107431493D01*
X158573674Y-107489913D01*
X158573661Y-107489918D01*
X158569975Y-107491116D01*
X158566513Y-107492879D01*
X158566508Y-107492882D01*
X158398061Y-107578709D01*
X158398051Y-107578714D01*
X158394595Y-107580476D01*
X158391451Y-107582759D01*
X158391448Y-107582762D01*
X158238493Y-107693891D01*
X158238490Y-107693893D01*
X158235354Y-107696172D01*
X158232616Y-107698909D01*
X158232610Y-107698915D01*
X158098915Y-107832610D01*
X158098909Y-107832616D01*
X158096172Y-107835354D01*
X158093893Y-107838490D01*
X158093891Y-107838493D01*
X158045275Y-107905408D01*
X157980476Y-107994595D01*
X157978714Y-107998051D01*
X157978709Y-107998061D01*
X157892882Y-108166508D01*
X157892879Y-108166513D01*
X157891116Y-108169975D01*
X157889918Y-108173661D01*
X157889913Y-108173674D01*
X157831493Y-108353473D01*
X157831491Y-108353479D01*
X157830291Y-108357174D01*
X157829683Y-108361009D01*
X157829681Y-108361020D01*
X157807071Y-108503780D01*
X157799500Y-108551583D01*
X157799500Y-108625326D01*
X157799500Y-116605830D01*
X157799500Y-116650000D01*
X157799500Y-116748417D01*
X157800108Y-116752261D01*
X157800109Y-116752263D01*
X157829681Y-116938979D01*
X157829683Y-116938987D01*
X157830291Y-116942826D01*
X157831492Y-116946523D01*
X157831493Y-116946526D01*
X157889913Y-117126325D01*
X157889916Y-117126333D01*
X157891116Y-117130025D01*
X157892881Y-117133490D01*
X157892882Y-117133491D01*
X157974653Y-117293978D01*
X157980476Y-117305405D01*
X158096172Y-117464646D01*
X158235354Y-117603828D01*
X158394595Y-117719524D01*
X158569975Y-117808884D01*
X158757174Y-117869709D01*
X158951583Y-117900500D01*
X159025326Y-117900500D01*
X159050000Y-117900500D01*
X159094170Y-117900500D01*
X159900500Y-117900500D01*
X159950000Y-117913763D01*
X159986237Y-117950000D01*
X159999500Y-117999500D01*
X159999500Y-126500500D01*
X159986237Y-126550000D01*
X159950000Y-126586236D01*
X159900500Y-126599500D01*
X156050063Y-126599502D01*
X156050045Y-126599500D01*
X156050045Y-126599499D01*
X156050041Y-126599498D01*
X156050034Y-126599498D01*
X156038008Y-126599498D01*
X156029481Y-126597321D01*
X156029320Y-126597304D01*
X156029306Y-126597301D01*
X156029311Y-126597277D01*
X155990566Y-126587386D01*
X155954733Y-126554023D01*
X155932143Y-126518872D01*
X155823373Y-126424623D01*
X155816926Y-126421678D01*
X155816925Y-126421678D01*
X155698902Y-126367778D01*
X155698899Y-126367777D01*
X155692457Y-126364835D01*
X155685446Y-126363827D01*
X155685443Y-126363826D01*
X155589308Y-126350004D01*
X155589300Y-126350003D01*
X155585799Y-126349500D01*
X155514201Y-126349500D01*
X155510700Y-126350003D01*
X155510691Y-126350004D01*
X155414556Y-126363826D01*
X155414551Y-126363827D01*
X155407543Y-126364835D01*
X155401102Y-126367776D01*
X155401097Y-126367778D01*
X155283070Y-126421680D01*
X155283067Y-126421681D01*
X155276627Y-126424623D01*
X155271279Y-126429256D01*
X155271274Y-126429260D01*
X155239827Y-126456509D01*
X155198337Y-126477898D01*
X155151657Y-126477897D01*
X155110167Y-126456507D01*
X155078728Y-126429265D01*
X155078727Y-126429264D01*
X155073373Y-126424625D01*
X155066926Y-126421680D01*
X155066925Y-126421680D01*
X154948902Y-126367780D01*
X154948899Y-126367779D01*
X154942457Y-126364837D01*
X154935446Y-126363829D01*
X154935443Y-126363828D01*
X154839308Y-126350006D01*
X154839300Y-126350005D01*
X154835799Y-126349502D01*
X154764201Y-126349502D01*
X154760700Y-126350005D01*
X154760691Y-126350006D01*
X154664556Y-126363828D01*
X154664551Y-126363829D01*
X154657543Y-126364837D01*
X154651102Y-126367778D01*
X154651097Y-126367780D01*
X154533067Y-126421683D01*
X154533062Y-126421686D01*
X154526627Y-126424625D01*
X154521279Y-126429258D01*
X154521274Y-126429262D01*
X154489839Y-126456500D01*
X154448349Y-126477889D01*
X154401669Y-126477889D01*
X154360179Y-126456500D01*
X154328746Y-126429264D01*
X154328741Y-126429260D01*
X154323391Y-126424625D01*
X154316949Y-126421683D01*
X154316946Y-126421681D01*
X154257873Y-126394703D01*
X154215716Y-126358173D01*
X154200000Y-126304650D01*
X154200000Y-125149000D01*
X154213263Y-125099500D01*
X154249500Y-125063263D01*
X154299000Y-125050000D01*
X155263359Y-125050000D01*
X155266976Y-125050167D01*
X155268757Y-125050500D01*
X155486668Y-125050500D01*
X155491243Y-125050500D01*
X155493023Y-125050167D01*
X155496641Y-125050000D01*
X157803359Y-125050000D01*
X157806976Y-125050167D01*
X157808757Y-125050500D01*
X158026660Y-125050500D01*
X158031243Y-125050500D01*
X158249940Y-125009618D01*
X158457401Y-124929247D01*
X158646562Y-124812124D01*
X158810981Y-124662236D01*
X158945058Y-124484689D01*
X159044229Y-124285528D01*
X159105115Y-124071536D01*
X159125643Y-123850000D01*
X159105115Y-123628464D01*
X159044229Y-123414472D01*
X158945058Y-123215311D01*
X158810981Y-123037764D01*
X158646562Y-122887876D01*
X158457401Y-122770753D01*
X158453138Y-122769101D01*
X158453133Y-122769099D01*
X158254209Y-122692035D01*
X158254201Y-122692032D01*
X158249940Y-122690382D01*
X158245436Y-122689540D01*
X158035749Y-122650342D01*
X158035745Y-122650341D01*
X158031243Y-122649500D01*
X157808757Y-122649500D01*
X157806976Y-122649832D01*
X157803359Y-122650000D01*
X155496641Y-122650000D01*
X155493023Y-122649832D01*
X155491243Y-122649500D01*
X155268757Y-122649500D01*
X155266976Y-122649832D01*
X155263359Y-122650000D01*
X154299000Y-122650000D01*
X154249500Y-122636737D01*
X154213263Y-122600500D01*
X154200000Y-122551000D01*
X154200000Y-121349000D01*
X154213263Y-121299500D01*
X154249500Y-121263263D01*
X154299000Y-121250000D01*
X154986967Y-121250000D01*
X154997245Y-121247245D01*
X155000000Y-121236967D01*
X155000000Y-121236966D01*
X155600000Y-121236966D01*
X155602754Y-121247244D01*
X155613033Y-121249999D01*
X155727327Y-121249999D01*
X155731779Y-121249797D01*
X155792353Y-121244293D01*
X155802564Y-121242262D01*
X155948340Y-121196837D01*
X155959193Y-121191952D01*
X156089218Y-121113349D01*
X156098573Y-121106021D01*
X156206021Y-120998573D01*
X156213349Y-120989218D01*
X156291952Y-120859193D01*
X156296837Y-120848340D01*
X156342261Y-120702567D01*
X156344293Y-120692352D01*
X156349796Y-120631798D01*
X156350000Y-120627307D01*
X156350000Y-119513033D01*
X156347245Y-119502754D01*
X156336967Y-119500000D01*
X155613033Y-119500000D01*
X155602754Y-119502754D01*
X155600000Y-119513033D01*
X155600000Y-121236966D01*
X155000000Y-121236966D01*
X155000000Y-118886967D01*
X155600000Y-118886967D01*
X155602754Y-118897245D01*
X155613033Y-118900000D01*
X156336966Y-118900000D01*
X156347244Y-118897245D01*
X156349999Y-118886967D01*
X156349999Y-117772673D01*
X156349797Y-117768220D01*
X156344293Y-117707646D01*
X156342262Y-117697435D01*
X156296837Y-117551659D01*
X156291952Y-117540806D01*
X156213349Y-117410781D01*
X156206021Y-117401426D01*
X156098573Y-117293978D01*
X156089218Y-117286650D01*
X155959193Y-117208047D01*
X155948340Y-117203162D01*
X155802567Y-117157738D01*
X155792352Y-117155706D01*
X155731798Y-117150203D01*
X155727307Y-117150000D01*
X155613033Y-117150000D01*
X155602754Y-117152754D01*
X155600000Y-117163033D01*
X155600000Y-118886967D01*
X155000000Y-118886967D01*
X155000000Y-117163034D01*
X154997245Y-117152755D01*
X154986967Y-117150001D01*
X154950004Y-117150001D01*
X154950000Y-117150001D01*
X154950000Y-117150000D01*
X154299000Y-117150000D01*
X154249500Y-117136737D01*
X154213263Y-117100500D01*
X154200000Y-117051000D01*
X154200000Y-103549000D01*
X154213263Y-103499500D01*
X154249500Y-103463263D01*
X154299000Y-103450000D01*
X155263359Y-103450000D01*
X155266976Y-103450167D01*
X155268757Y-103450500D01*
X155486668Y-103450500D01*
X155491243Y-103450500D01*
X155493023Y-103450167D01*
X155496641Y-103450000D01*
X157803359Y-103450000D01*
X157806976Y-103450167D01*
X157808757Y-103450500D01*
X158026660Y-103450500D01*
X158031243Y-103450500D01*
X158249940Y-103409618D01*
X158457401Y-103329247D01*
X158646562Y-103212124D01*
X158810981Y-103062236D01*
X158945058Y-102884689D01*
X159044229Y-102685528D01*
X159105115Y-102471536D01*
X159125643Y-102250000D01*
X159105115Y-102028464D01*
X159044229Y-101814472D01*
X158945058Y-101615311D01*
X158810981Y-101437764D01*
X158646562Y-101287876D01*
X158457401Y-101170753D01*
X158453138Y-101169101D01*
X158453133Y-101169099D01*
X158254209Y-101092035D01*
X158254201Y-101092032D01*
X158249940Y-101090382D01*
X158245436Y-101089540D01*
X158035749Y-101050342D01*
X158035745Y-101050341D01*
X158031243Y-101049500D01*
X157808757Y-101049500D01*
X157806976Y-101049832D01*
X157803359Y-101050000D01*
X155496641Y-101050000D01*
X155493023Y-101049832D01*
X155491243Y-101049500D01*
X155268757Y-101049500D01*
X155266976Y-101049832D01*
X155263359Y-101050000D01*
X154299000Y-101050000D01*
X154249500Y-101036737D01*
X154213263Y-101000500D01*
X154200000Y-100951000D01*
X154200000Y-98995333D01*
X154215716Y-98941810D01*
X154257873Y-98905280D01*
X154259123Y-98904708D01*
X154323355Y-98875375D01*
X154360162Y-98843481D01*
X154401651Y-98822093D01*
X154448331Y-98822093D01*
X154489819Y-98843481D01*
X154526627Y-98875375D01*
X154657543Y-98935163D01*
X154764201Y-98950498D01*
X154832256Y-98950498D01*
X154835799Y-98950498D01*
X154942457Y-98935163D01*
X155073373Y-98875375D01*
X155110169Y-98843490D01*
X155151660Y-98822101D01*
X155198340Y-98822101D01*
X155239830Y-98843490D01*
X155276627Y-98875375D01*
X155407543Y-98935163D01*
X155514201Y-98950498D01*
X155582256Y-98950498D01*
X155585799Y-98950498D01*
X155692457Y-98935163D01*
X155823373Y-98875375D01*
X155932143Y-98781126D01*
X155954732Y-98745975D01*
X155990569Y-98712608D01*
X156038015Y-98700498D01*
X157930360Y-98700498D01*
X157968242Y-98708034D01*
G37*
G04 #@! TD.AperFunction*
G04 #@! TA.AperFunction,Conductor*
G36*
X173449955Y-98700499D02*
G01*
X173449955Y-98700501D01*
X173461983Y-98700501D01*
X173474662Y-98703737D01*
X173475446Y-98703840D01*
X173475461Y-98703844D01*
X173475436Y-98703934D01*
X173509427Y-98712610D01*
X173545265Y-98745976D01*
X173564026Y-98775168D01*
X173564028Y-98775171D01*
X173567857Y-98781128D01*
X173676627Y-98875377D01*
X173807543Y-98935165D01*
X173914201Y-98950500D01*
X173982256Y-98950500D01*
X173985799Y-98950500D01*
X174092457Y-98935165D01*
X174223373Y-98875377D01*
X174260170Y-98843491D01*
X174301661Y-98822102D01*
X174348341Y-98822102D01*
X174389831Y-98843491D01*
X174426627Y-98875375D01*
X174557543Y-98935163D01*
X174664201Y-98950498D01*
X174732256Y-98950498D01*
X174735799Y-98950498D01*
X174842457Y-98935163D01*
X174973373Y-98875375D01*
X175010160Y-98843498D01*
X175051651Y-98822109D01*
X175098331Y-98822109D01*
X175139821Y-98843498D01*
X175176609Y-98875375D01*
X175183050Y-98878316D01*
X175183051Y-98878317D01*
X175242127Y-98905297D01*
X175284284Y-98941827D01*
X175300000Y-98995350D01*
X175300000Y-117051000D01*
X175286737Y-117100500D01*
X175250500Y-117136737D01*
X175201000Y-117150000D01*
X174513033Y-117150000D01*
X174502754Y-117152754D01*
X174500000Y-117163033D01*
X174500000Y-121236966D01*
X174502754Y-121247244D01*
X174513033Y-121249999D01*
X174549996Y-121249999D01*
X174550000Y-121250000D01*
X174550004Y-121250000D01*
X175201000Y-121250000D01*
X175250500Y-121263263D01*
X175286737Y-121299500D01*
X175300000Y-121349000D01*
X175300000Y-122551000D01*
X175286737Y-122600500D01*
X175250500Y-122636737D01*
X175201000Y-122650000D01*
X174236641Y-122650000D01*
X174233023Y-122649832D01*
X174231243Y-122649500D01*
X174008757Y-122649500D01*
X174006976Y-122649832D01*
X174003359Y-122650000D01*
X171696641Y-122650000D01*
X171693023Y-122649832D01*
X171691243Y-122649500D01*
X171468757Y-122649500D01*
X171464255Y-122650341D01*
X171464250Y-122650342D01*
X171254563Y-122689540D01*
X171254560Y-122689540D01*
X171250060Y-122690382D01*
X171245801Y-122692031D01*
X171245790Y-122692035D01*
X171046866Y-122769099D01*
X171046857Y-122769103D01*
X171042599Y-122770753D01*
X171038713Y-122773158D01*
X171038709Y-122773161D01*
X170857326Y-122885468D01*
X170857321Y-122885471D01*
X170853438Y-122887876D01*
X170850063Y-122890952D01*
X170850056Y-122890958D01*
X170692395Y-123034686D01*
X170689019Y-123037764D01*
X170686268Y-123041406D01*
X170686266Y-123041409D01*
X170557697Y-123211661D01*
X170557690Y-123211670D01*
X170554942Y-123215311D01*
X170552904Y-123219403D01*
X170552902Y-123219407D01*
X170457813Y-123410370D01*
X170457811Y-123410375D01*
X170455771Y-123414472D01*
X170454520Y-123418866D01*
X170454517Y-123418876D01*
X170396135Y-123624068D01*
X170396133Y-123624075D01*
X170394885Y-123628464D01*
X170374357Y-123850000D01*
X170394885Y-124071536D01*
X170396134Y-124075926D01*
X170396135Y-124075931D01*
X170454517Y-124281123D01*
X170454519Y-124281129D01*
X170455771Y-124285528D01*
X170554942Y-124484689D01*
X170557694Y-124488333D01*
X170557697Y-124488338D01*
X170635480Y-124591339D01*
X170689019Y-124662236D01*
X170853438Y-124812124D01*
X171042599Y-124929247D01*
X171046866Y-124930900D01*
X171245790Y-125007964D01*
X171245792Y-125007964D01*
X171250060Y-125009618D01*
X171468757Y-125050500D01*
X171686668Y-125050500D01*
X171691243Y-125050500D01*
X171693023Y-125050167D01*
X171696641Y-125050000D01*
X174003359Y-125050000D01*
X174006976Y-125050167D01*
X174008757Y-125050500D01*
X174226668Y-125050500D01*
X174231243Y-125050500D01*
X174233023Y-125050167D01*
X174236641Y-125050000D01*
X175201000Y-125050000D01*
X175250500Y-125063263D01*
X175286737Y-125099500D01*
X175300000Y-125149000D01*
X175300000Y-126304667D01*
X175284284Y-126358190D01*
X175242127Y-126394720D01*
X175183083Y-126421684D01*
X175183078Y-126421686D01*
X175176645Y-126424625D01*
X175171298Y-126429258D01*
X175171292Y-126429262D01*
X175139839Y-126456516D01*
X175098349Y-126477905D01*
X175051669Y-126477905D01*
X175010179Y-126456516D01*
X174978725Y-126429262D01*
X174978722Y-126429260D01*
X174973373Y-126424625D01*
X174966934Y-126421684D01*
X174966932Y-126421683D01*
X174848902Y-126367780D01*
X174848899Y-126367779D01*
X174842457Y-126364837D01*
X174835446Y-126363829D01*
X174835443Y-126363828D01*
X174739308Y-126350006D01*
X174739300Y-126350005D01*
X174735799Y-126349502D01*
X174664201Y-126349502D01*
X174660700Y-126350005D01*
X174660691Y-126350006D01*
X174564556Y-126363828D01*
X174564551Y-126363829D01*
X174557543Y-126364837D01*
X174551102Y-126367778D01*
X174551097Y-126367780D01*
X174433067Y-126421683D01*
X174433062Y-126421686D01*
X174426627Y-126424625D01*
X174421279Y-126429258D01*
X174421274Y-126429262D01*
X174389830Y-126456508D01*
X174348340Y-126477897D01*
X174301660Y-126477897D01*
X174260170Y-126456508D01*
X174228725Y-126429262D01*
X174228722Y-126429260D01*
X174223373Y-126424625D01*
X174216934Y-126421684D01*
X174216932Y-126421683D01*
X174098902Y-126367780D01*
X174098899Y-126367779D01*
X174092457Y-126364837D01*
X174085446Y-126363829D01*
X174085443Y-126363828D01*
X173989308Y-126350006D01*
X173989300Y-126350005D01*
X173985799Y-126349502D01*
X173914201Y-126349502D01*
X173910700Y-126350005D01*
X173910691Y-126350006D01*
X173814556Y-126363828D01*
X173814551Y-126363829D01*
X173807543Y-126364837D01*
X173801102Y-126367778D01*
X173801097Y-126367780D01*
X173683074Y-126421680D01*
X173683070Y-126421682D01*
X173676627Y-126424625D01*
X173671275Y-126429262D01*
X173671271Y-126429265D01*
X173574991Y-126512692D01*
X173567857Y-126518874D01*
X173564032Y-126524825D01*
X173564030Y-126524828D01*
X173545267Y-126554025D01*
X173509428Y-126587391D01*
X173461983Y-126599501D01*
X169599500Y-126599500D01*
X169550000Y-126586237D01*
X169513763Y-126550000D01*
X169500500Y-126500500D01*
X169500500Y-120627327D01*
X173150001Y-120627327D01*
X173150202Y-120631779D01*
X173155706Y-120692353D01*
X173157737Y-120702564D01*
X173203162Y-120848340D01*
X173208047Y-120859193D01*
X173286650Y-120989218D01*
X173293978Y-120998573D01*
X173401426Y-121106021D01*
X173410781Y-121113349D01*
X173540806Y-121191952D01*
X173551659Y-121196837D01*
X173697432Y-121242261D01*
X173707647Y-121244293D01*
X173768201Y-121249796D01*
X173772693Y-121250000D01*
X173886967Y-121250000D01*
X173897245Y-121247245D01*
X173900000Y-121236967D01*
X173900000Y-119513033D01*
X173897245Y-119502754D01*
X173886967Y-119500000D01*
X173163034Y-119500000D01*
X173152755Y-119502754D01*
X173150001Y-119513033D01*
X173150001Y-120627327D01*
X169500500Y-120627327D01*
X169500500Y-118886967D01*
X173150000Y-118886967D01*
X173152754Y-118897245D01*
X173163033Y-118900000D01*
X173886967Y-118900000D01*
X173897245Y-118897245D01*
X173900000Y-118886967D01*
X173900000Y-117163034D01*
X173897245Y-117152755D01*
X173886967Y-117150001D01*
X173772673Y-117150001D01*
X173768220Y-117150202D01*
X173707646Y-117155706D01*
X173697435Y-117157737D01*
X173551659Y-117203162D01*
X173540806Y-117208047D01*
X173410781Y-117286650D01*
X173401426Y-117293978D01*
X173293978Y-117401426D01*
X173286650Y-117410781D01*
X173208047Y-117540806D01*
X173203162Y-117551659D01*
X173157738Y-117697432D01*
X173155706Y-117707647D01*
X173150203Y-117768201D01*
X173150000Y-117772693D01*
X173150000Y-118886967D01*
X169500500Y-118886967D01*
X169500500Y-117999500D01*
X169513763Y-117950000D01*
X169550000Y-117913763D01*
X169599500Y-117900500D01*
X170544524Y-117900500D01*
X170548417Y-117900500D01*
X170742826Y-117869709D01*
X170930025Y-117808884D01*
X171105405Y-117719524D01*
X171264646Y-117603828D01*
X171403828Y-117464646D01*
X171519524Y-117305405D01*
X171608884Y-117130025D01*
X171669709Y-116942826D01*
X171700500Y-116748417D01*
X171700500Y-116650000D01*
X171700500Y-116605830D01*
X171700500Y-108625326D01*
X171700500Y-108551583D01*
X171669709Y-108357174D01*
X171608884Y-108169975D01*
X171519524Y-107994595D01*
X171403828Y-107835354D01*
X171264646Y-107696172D01*
X171105405Y-107580476D01*
X171101942Y-107578711D01*
X171101938Y-107578709D01*
X170933491Y-107492882D01*
X170933490Y-107492881D01*
X170930025Y-107491116D01*
X170926333Y-107489916D01*
X170926325Y-107489913D01*
X170746526Y-107431493D01*
X170746523Y-107431492D01*
X170742826Y-107430291D01*
X170738987Y-107429683D01*
X170738979Y-107429681D01*
X170552263Y-107400109D01*
X170552261Y-107400108D01*
X170548417Y-107399500D01*
X170544524Y-107399500D01*
X169599500Y-107399500D01*
X169550000Y-107386237D01*
X169513763Y-107350000D01*
X169500500Y-107300500D01*
X169500500Y-100769642D01*
X169508036Y-100731756D01*
X169529496Y-100699638D01*
X169798840Y-100430294D01*
X171499641Y-98729491D01*
X171531756Y-98708034D01*
X171569637Y-98700498D01*
X173449937Y-98700497D01*
X173449955Y-98700499D01*
G37*
G04 #@! TD.AperFunction*
G04 #@! TA.AperFunction,Conductor*
G36*
X179368242Y-98708034D02*
G01*
X179400360Y-98729494D01*
X181370504Y-100699638D01*
X181391964Y-100731756D01*
X181399500Y-100769642D01*
X181399500Y-107300500D01*
X181386237Y-107350000D01*
X181350000Y-107386237D01*
X181300500Y-107399500D01*
X180494170Y-107399500D01*
X180450000Y-107399500D01*
X180351583Y-107399500D01*
X180347739Y-107400108D01*
X180347736Y-107400109D01*
X180161020Y-107429681D01*
X180161009Y-107429683D01*
X180157174Y-107430291D01*
X180153479Y-107431491D01*
X180153473Y-107431493D01*
X179973674Y-107489913D01*
X179973661Y-107489918D01*
X179969975Y-107491116D01*
X179966513Y-107492879D01*
X179966508Y-107492882D01*
X179798061Y-107578709D01*
X179798051Y-107578714D01*
X179794595Y-107580476D01*
X179791451Y-107582759D01*
X179791448Y-107582762D01*
X179638493Y-107693891D01*
X179638490Y-107693893D01*
X179635354Y-107696172D01*
X179632616Y-107698909D01*
X179632610Y-107698915D01*
X179498915Y-107832610D01*
X179498909Y-107832616D01*
X179496172Y-107835354D01*
X179493893Y-107838490D01*
X179493891Y-107838493D01*
X179427994Y-107929193D01*
X179380476Y-107994595D01*
X179378714Y-107998051D01*
X179378709Y-107998061D01*
X179292882Y-108166508D01*
X179292879Y-108166513D01*
X179291116Y-108169975D01*
X179289918Y-108173661D01*
X179289913Y-108173674D01*
X179231493Y-108353473D01*
X179231491Y-108353479D01*
X179230291Y-108357174D01*
X179229683Y-108361009D01*
X179229681Y-108361020D01*
X179218960Y-108428713D01*
X179199500Y-108551583D01*
X179199500Y-108625326D01*
X179199500Y-116605830D01*
X179199500Y-116650000D01*
X179199500Y-116748417D01*
X179200108Y-116752261D01*
X179200109Y-116752263D01*
X179229681Y-116938979D01*
X179229683Y-116938987D01*
X179230291Y-116942826D01*
X179231492Y-116946523D01*
X179231493Y-116946526D01*
X179289913Y-117126325D01*
X179289916Y-117126333D01*
X179291116Y-117130025D01*
X179292881Y-117133490D01*
X179292882Y-117133491D01*
X179374653Y-117293978D01*
X179380476Y-117305405D01*
X179496172Y-117464646D01*
X179635354Y-117603828D01*
X179794595Y-117719524D01*
X179969975Y-117808884D01*
X180157174Y-117869709D01*
X180351583Y-117900500D01*
X180425326Y-117900500D01*
X180450000Y-117900500D01*
X180494170Y-117900500D01*
X181300500Y-117900500D01*
X181350000Y-117913763D01*
X181386237Y-117950000D01*
X181399500Y-117999500D01*
X181399500Y-126500500D01*
X181386237Y-126550000D01*
X181350000Y-126586236D01*
X181300500Y-126599500D01*
X177450063Y-126599502D01*
X177450045Y-126599500D01*
X177450045Y-126599499D01*
X177450041Y-126599498D01*
X177450034Y-126599498D01*
X177438008Y-126599498D01*
X177429481Y-126597321D01*
X177429320Y-126597304D01*
X177429306Y-126597301D01*
X177429311Y-126597277D01*
X177390566Y-126587386D01*
X177354733Y-126554023D01*
X177332143Y-126518872D01*
X177223373Y-126424623D01*
X177216926Y-126421678D01*
X177216925Y-126421678D01*
X177098902Y-126367778D01*
X177098899Y-126367777D01*
X177092457Y-126364835D01*
X177085446Y-126363827D01*
X177085443Y-126363826D01*
X176989308Y-126350004D01*
X176989300Y-126350003D01*
X176985799Y-126349500D01*
X176914201Y-126349500D01*
X176910700Y-126350003D01*
X176910691Y-126350004D01*
X176814556Y-126363826D01*
X176814551Y-126363827D01*
X176807543Y-126364835D01*
X176801102Y-126367776D01*
X176801097Y-126367778D01*
X176683070Y-126421680D01*
X176683067Y-126421681D01*
X176676627Y-126424623D01*
X176671279Y-126429256D01*
X176671274Y-126429260D01*
X176639827Y-126456509D01*
X176598337Y-126477898D01*
X176551657Y-126477897D01*
X176510167Y-126456507D01*
X176478728Y-126429265D01*
X176478727Y-126429264D01*
X176473373Y-126424625D01*
X176466926Y-126421680D01*
X176466925Y-126421680D01*
X176348902Y-126367780D01*
X176348899Y-126367779D01*
X176342457Y-126364837D01*
X176335446Y-126363829D01*
X176335443Y-126363828D01*
X176239308Y-126350006D01*
X176239300Y-126350005D01*
X176235799Y-126349502D01*
X176164201Y-126349502D01*
X176160700Y-126350005D01*
X176160691Y-126350006D01*
X176064556Y-126363828D01*
X176064551Y-126363829D01*
X176057543Y-126364837D01*
X176051102Y-126367778D01*
X176051097Y-126367780D01*
X175933067Y-126421683D01*
X175933062Y-126421686D01*
X175926627Y-126424625D01*
X175921279Y-126429258D01*
X175921274Y-126429262D01*
X175889839Y-126456500D01*
X175848349Y-126477889D01*
X175801669Y-126477889D01*
X175760179Y-126456500D01*
X175728744Y-126429262D01*
X175728738Y-126429258D01*
X175723391Y-126424625D01*
X175716952Y-126421684D01*
X175716950Y-126421683D01*
X175663200Y-126397136D01*
X175619183Y-126357596D01*
X175606680Y-126304667D01*
X175605500Y-126304667D01*
X175605500Y-125149000D01*
X175618763Y-125099500D01*
X175655000Y-125063263D01*
X175704500Y-125050000D01*
X176663359Y-125050000D01*
X176666976Y-125050167D01*
X176668757Y-125050500D01*
X176886668Y-125050500D01*
X176891243Y-125050500D01*
X176893023Y-125050167D01*
X176896641Y-125050000D01*
X179203359Y-125050000D01*
X179206976Y-125050167D01*
X179208757Y-125050500D01*
X179426660Y-125050500D01*
X179431243Y-125050500D01*
X179649940Y-125009618D01*
X179857401Y-124929247D01*
X180046562Y-124812124D01*
X180210981Y-124662236D01*
X180345058Y-124484689D01*
X180444229Y-124285528D01*
X180505115Y-124071536D01*
X180525643Y-123850000D01*
X180505115Y-123628464D01*
X180444229Y-123414472D01*
X180345058Y-123215311D01*
X180210981Y-123037764D01*
X180046562Y-122887876D01*
X179857401Y-122770753D01*
X179853138Y-122769101D01*
X179853133Y-122769099D01*
X179654209Y-122692035D01*
X179654201Y-122692032D01*
X179649940Y-122690382D01*
X179645436Y-122689540D01*
X179435749Y-122650342D01*
X179435745Y-122650341D01*
X179431243Y-122649500D01*
X179208757Y-122649500D01*
X179206976Y-122649832D01*
X179203359Y-122650000D01*
X176896641Y-122650000D01*
X176893023Y-122649832D01*
X176891243Y-122649500D01*
X176668757Y-122649500D01*
X176666976Y-122649832D01*
X176663359Y-122650000D01*
X175704500Y-122650000D01*
X175655000Y-122636737D01*
X175618763Y-122600500D01*
X175605500Y-122551000D01*
X175605500Y-121349000D01*
X175618763Y-121299500D01*
X175655000Y-121263263D01*
X175704500Y-121250000D01*
X176386967Y-121250000D01*
X176397245Y-121247245D01*
X176400000Y-121236967D01*
X176400000Y-121236966D01*
X177000000Y-121236966D01*
X177002754Y-121247244D01*
X177013033Y-121249999D01*
X177127327Y-121249999D01*
X177131779Y-121249797D01*
X177192353Y-121244293D01*
X177202564Y-121242262D01*
X177348340Y-121196837D01*
X177359193Y-121191952D01*
X177489218Y-121113349D01*
X177498573Y-121106021D01*
X177606021Y-120998573D01*
X177613349Y-120989218D01*
X177691952Y-120859193D01*
X177696837Y-120848340D01*
X177742261Y-120702567D01*
X177744293Y-120692352D01*
X177749796Y-120631798D01*
X177750000Y-120627307D01*
X177750000Y-119513033D01*
X177747245Y-119502754D01*
X177736967Y-119500000D01*
X177013033Y-119500000D01*
X177002754Y-119502754D01*
X177000000Y-119513033D01*
X177000000Y-121236966D01*
X176400000Y-121236966D01*
X176400000Y-118886967D01*
X177000000Y-118886967D01*
X177002754Y-118897245D01*
X177013033Y-118900000D01*
X177736966Y-118900000D01*
X177747244Y-118897245D01*
X177749999Y-118886967D01*
X177749999Y-117772673D01*
X177749797Y-117768220D01*
X177744293Y-117707646D01*
X177742262Y-117697435D01*
X177696837Y-117551659D01*
X177691952Y-117540806D01*
X177613349Y-117410781D01*
X177606021Y-117401426D01*
X177498573Y-117293978D01*
X177489218Y-117286650D01*
X177359193Y-117208047D01*
X177348340Y-117203162D01*
X177202567Y-117157738D01*
X177192352Y-117155706D01*
X177131798Y-117150203D01*
X177127307Y-117150000D01*
X177013033Y-117150000D01*
X177002754Y-117152754D01*
X177000000Y-117163033D01*
X177000000Y-118886967D01*
X176400000Y-118886967D01*
X176400000Y-117163034D01*
X176397245Y-117152755D01*
X176386967Y-117150001D01*
X176350004Y-117150001D01*
X176350000Y-117150001D01*
X176350000Y-117150000D01*
X176349996Y-117150000D01*
X175704500Y-117150000D01*
X175655000Y-117136737D01*
X175618763Y-117100500D01*
X175605500Y-117051000D01*
X175605500Y-103549000D01*
X175618763Y-103499500D01*
X175655000Y-103463263D01*
X175704500Y-103450000D01*
X176663359Y-103450000D01*
X176666976Y-103450167D01*
X176668757Y-103450500D01*
X176886668Y-103450500D01*
X176891243Y-103450500D01*
X176893023Y-103450167D01*
X176896641Y-103450000D01*
X179203359Y-103450000D01*
X179206976Y-103450167D01*
X179208757Y-103450500D01*
X179426660Y-103450500D01*
X179431243Y-103450500D01*
X179649940Y-103409618D01*
X179857401Y-103329247D01*
X180046562Y-103212124D01*
X180210981Y-103062236D01*
X180345058Y-102884689D01*
X180444229Y-102685528D01*
X180505115Y-102471536D01*
X180525643Y-102250000D01*
X180505115Y-102028464D01*
X180444229Y-101814472D01*
X180345058Y-101615311D01*
X180210981Y-101437764D01*
X180046562Y-101287876D01*
X179857401Y-101170753D01*
X179853138Y-101169101D01*
X179853133Y-101169099D01*
X179654209Y-101092035D01*
X179654201Y-101092032D01*
X179649940Y-101090382D01*
X179645436Y-101089540D01*
X179435749Y-101050342D01*
X179435745Y-101050341D01*
X179431243Y-101049500D01*
X179208757Y-101049500D01*
X179206976Y-101049832D01*
X179203359Y-101050000D01*
X176896641Y-101050000D01*
X176893023Y-101049832D01*
X176891243Y-101049500D01*
X176668757Y-101049500D01*
X176666976Y-101049832D01*
X176663359Y-101050000D01*
X175704500Y-101050000D01*
X175655000Y-101036737D01*
X175618763Y-101000500D01*
X175605500Y-100951000D01*
X175605500Y-98995350D01*
X175606676Y-98995350D01*
X175619174Y-98942398D01*
X175663198Y-98902847D01*
X175723355Y-98875375D01*
X175760162Y-98843481D01*
X175801651Y-98822093D01*
X175848331Y-98822093D01*
X175889819Y-98843481D01*
X175926627Y-98875375D01*
X176057543Y-98935163D01*
X176164201Y-98950498D01*
X176232256Y-98950498D01*
X176235799Y-98950498D01*
X176342457Y-98935163D01*
X176473373Y-98875375D01*
X176510169Y-98843490D01*
X176551660Y-98822101D01*
X176598340Y-98822101D01*
X176639830Y-98843490D01*
X176676627Y-98875375D01*
X176807543Y-98935163D01*
X176914201Y-98950498D01*
X176982256Y-98950498D01*
X176985799Y-98950498D01*
X177092457Y-98935163D01*
X177223373Y-98875375D01*
X177332143Y-98781126D01*
X177354732Y-98745975D01*
X177390569Y-98712608D01*
X177438015Y-98700498D01*
X179330360Y-98700498D01*
X179368242Y-98708034D01*
G37*
G04 #@! TD.AperFunction*
M02*
