%TF.GenerationSoftware,KiCad,Pcbnew,(7.0.0-0)*%
%TF.CreationDate,2025-08-17T10:05:12+12:00*%
%TF.ProjectId,signal_panelized_X4,7369676e-616c-45f7-9061-6e656c697a65,rev?*%
%TF.SameCoordinates,Original*%
%TF.FileFunction,Drillmap*%
%TF.FilePolarity,Positive*%
%FSLAX45Y45*%
G04 Gerber Fmt 4.5, Leading zero omitted, Abs format (unit mm)*
G04 Created by KiCad (PCBNEW (7.0.0-0)) date 2025-08-17 10:05:12*
%MOMM*%
%LPD*%
G01*
G04 APERTURE LIST*
%ADD10C,0.150000*%
%ADD11C,0.200000*%
%ADD12C,0.030000*%
%ADD13C,0.090000*%
G04 APERTURE END LIST*
D10*
X16925000Y-11765000D02*
X16925000Y-12685000D01*
X14585000Y-12785000D02*
X14585000Y-9745000D01*
X16725000Y-9045000D02*
X16725000Y-6005000D01*
X14685000Y-5905000D02*
G75*
G03*
X14585000Y-6005000I0J-100000D01*
G01*
X18165000Y-7025000D02*
X18045000Y-7025000D01*
X14905000Y-8025000D02*
G75*
G03*
X15005000Y-7925000I0J100000D01*
G01*
X16825000Y-9645000D02*
G75*
G03*
X16725000Y-9745000I0J-100000D01*
G01*
X15605004Y-8945000D02*
X16025000Y-8945000D01*
X17345000Y-12885000D02*
X16825000Y-12885000D01*
X17145000Y-10865000D02*
X17145000Y-11665000D01*
X18265000Y-12885000D02*
G75*
G03*
X18365000Y-12785000I0J100000D01*
G01*
X17947513Y-6105000D02*
X18165000Y-6322487D01*
X16025000Y-10765000D02*
X15905000Y-10765000D01*
X17945000Y-10865000D02*
X17945000Y-11665000D01*
X16925000Y-6322487D02*
X17142487Y-6105000D01*
X16125000Y-9145000D02*
X15605004Y-9145000D01*
X18165000Y-10062487D02*
X18165000Y-10765000D01*
X16225000Y-9745000D02*
G75*
G03*
X16125000Y-9645000I-100000J0D01*
G01*
X18045000Y-10765000D02*
G75*
G03*
X17945000Y-10865000I0J-100000D01*
G01*
X15605000Y-9645000D02*
X16125000Y-9645000D01*
X17045000Y-8025000D02*
G75*
G03*
X17145000Y-7925000I0J100000D01*
G01*
X17745000Y-6105000D02*
X17947513Y-6105000D01*
X16925000Y-11765000D02*
X17045000Y-11765000D01*
X17945000Y-11665000D02*
G75*
G03*
X18045000Y-11765000I100000J0D01*
G01*
X14085000Y-5405000D02*
X18865000Y-5405000D01*
X18865000Y-5405000D02*
X18865000Y-13385000D01*
X18865000Y-13385000D02*
X14085000Y-13385000D01*
X14085000Y-13385000D02*
X14085000Y-5405000D01*
X18365000Y-9745000D02*
X18365000Y-12785000D01*
X14785000Y-6322487D02*
X15002487Y-6105000D01*
X14685000Y-5905000D02*
X15204996Y-5905000D01*
X17145000Y-10865000D02*
G75*
G03*
X17045000Y-10765000I-100000J0D01*
G01*
X14785000Y-11765000D02*
X14905000Y-11765000D01*
X16925000Y-10765000D02*
X17045000Y-10765000D01*
X15905000Y-10765000D02*
G75*
G03*
X15805000Y-10865000I0J-100000D01*
G01*
X15805000Y-10865000D02*
X15805000Y-11665000D01*
X17142487Y-6105000D02*
X17344996Y-6105000D01*
X14785000Y-10062487D02*
X14785000Y-10765000D01*
X15005000Y-10865000D02*
X15005000Y-11665000D01*
X16025000Y-11765000D02*
X16025000Y-12685000D01*
X16925000Y-6322487D02*
X16925000Y-7025000D01*
X15005000Y-7125000D02*
X15005000Y-7925000D01*
X14785000Y-7025000D02*
X14905000Y-7025000D01*
X16725000Y-12785000D02*
X16725000Y-9745000D01*
X16925000Y-8025000D02*
X16925000Y-8945000D01*
X18165000Y-8025000D02*
X18045000Y-8025000D01*
X15807513Y-9845000D02*
X16025000Y-10062487D01*
X16125000Y-12885000D02*
X15605004Y-12885000D01*
X15205000Y-12885000D02*
X14685000Y-12885000D01*
X15805000Y-11665000D02*
G75*
G03*
X15905000Y-11765000I100000J0D01*
G01*
X15805000Y-7125000D02*
X15805000Y-7925000D01*
X14785000Y-8025000D02*
X14905000Y-8025000D01*
X16825000Y-5905000D02*
G75*
G03*
X16725000Y-6005000I0J-100000D01*
G01*
X14685000Y-9645000D02*
X15204996Y-9645000D01*
X18165000Y-11765000D02*
X18165000Y-12685000D01*
X18165000Y-8025000D02*
X18165000Y-8945000D01*
X15205000Y-12685000D02*
X14785000Y-12685000D01*
X16725000Y-9045000D02*
G75*
G03*
X16825000Y-9145000I100000J0D01*
G01*
X17745000Y-9845000D02*
X17947513Y-9845000D01*
X16225000Y-6005000D02*
G75*
G03*
X16125000Y-5905000I-100000J0D01*
G01*
X15605004Y-12685000D02*
X16025000Y-12685000D01*
X14585000Y-9045000D02*
G75*
G03*
X14685000Y-9145000I100000J0D01*
G01*
X18265000Y-9145000D02*
X17745004Y-9145000D01*
X17745004Y-12685000D02*
X18165000Y-12685000D01*
X15005000Y-10865000D02*
G75*
G03*
X14905000Y-10765000I-100000J0D01*
G01*
X16825000Y-9645000D02*
X17344996Y-9645000D01*
X15605000Y-6105000D02*
X15807513Y-6105000D01*
X18265000Y-12885000D02*
X17745004Y-12885000D01*
X14585000Y-12785000D02*
G75*
G03*
X14685000Y-12885000I100000J0D01*
G01*
X15805000Y-7925000D02*
G75*
G03*
X15905000Y-8025000I100000J0D01*
G01*
X14785000Y-10765000D02*
X14905000Y-10765000D01*
X16725000Y-12785000D02*
G75*
G03*
X16825000Y-12885000I100000J0D01*
G01*
X16025000Y-10062487D02*
X16025000Y-10765000D01*
X14685000Y-9645000D02*
G75*
G03*
X14585000Y-9745000I0J-100000D01*
G01*
X16125000Y-9145000D02*
G75*
G03*
X16225000Y-9045000I0J100000D01*
G01*
X16925000Y-10062487D02*
X16925000Y-10765000D01*
X17345000Y-12685000D02*
X16925000Y-12685000D01*
X18045000Y-7025000D02*
G75*
G03*
X17945000Y-7125000I0J-100000D01*
G01*
X15005000Y-7125000D02*
G75*
G03*
X14905000Y-7025000I-100000J0D01*
G01*
X17745000Y-5905000D02*
X18265000Y-5905000D01*
X16025000Y-11765000D02*
X15905000Y-11765000D01*
X18165000Y-6322487D02*
X18165000Y-7025000D01*
X17345000Y-9145000D02*
X16825000Y-9145000D01*
X16225000Y-6005000D02*
X16225000Y-9045000D01*
X18365000Y-9745000D02*
G75*
G03*
X18265000Y-9645000I-100000J0D01*
G01*
X15002487Y-6105000D02*
X15204996Y-6105000D01*
X15807513Y-6105000D02*
X16025000Y-6322487D01*
X17945000Y-7125000D02*
X17945000Y-7925000D01*
X14785000Y-11765000D02*
X14785000Y-12685000D01*
X14785000Y-6322487D02*
X14785000Y-7025000D01*
X16025000Y-8025000D02*
X15905000Y-8025000D01*
X17947513Y-9845000D02*
X18165000Y-10062487D01*
X18165000Y-10765000D02*
X18045000Y-10765000D01*
X17142487Y-9845000D02*
X17344996Y-9845000D01*
X16025000Y-6322487D02*
X16025000Y-7025000D01*
X15605000Y-9845000D02*
X15807513Y-9845000D01*
X17045000Y-11765000D02*
G75*
G03*
X17145000Y-11665000I0J100000D01*
G01*
X16225000Y-9745000D02*
X16225000Y-12785000D01*
X15605000Y-5905000D02*
X16125000Y-5905000D01*
X15205000Y-8945000D02*
X14785000Y-8945000D01*
X17745004Y-8945000D02*
X18165000Y-8945000D01*
X15205000Y-9145000D02*
X14685000Y-9145000D01*
X14585000Y-9045000D02*
X14585000Y-6005000D01*
X16925000Y-10062487D02*
X17142487Y-9845000D01*
X16125000Y-12885000D02*
G75*
G03*
X16225000Y-12785000I0J100000D01*
G01*
X18365000Y-6005000D02*
G75*
G03*
X18265000Y-5905000I-100000J0D01*
G01*
X18365000Y-6005000D02*
X18365000Y-9045000D01*
X16925000Y-7025000D02*
X17045000Y-7025000D01*
X17745000Y-9645000D02*
X18265000Y-9645000D01*
X16025000Y-8025000D02*
X16025000Y-8945000D01*
X16825000Y-5905000D02*
X17344996Y-5905000D01*
X17345000Y-8945000D02*
X16925000Y-8945000D01*
X18265000Y-9145000D02*
G75*
G03*
X18365000Y-9045000I0J100000D01*
G01*
X14905000Y-11765000D02*
G75*
G03*
X15005000Y-11665000I0J100000D01*
G01*
X14785000Y-8025000D02*
X14785000Y-8945000D01*
X15905000Y-7025000D02*
G75*
G03*
X15805000Y-7125000I0J-100000D01*
G01*
X16025000Y-7025000D02*
X15905000Y-7025000D01*
X18165000Y-11765000D02*
X18045000Y-11765000D01*
X15002487Y-9845000D02*
X15204996Y-9845000D01*
X17145000Y-7125000D02*
X17145000Y-7925000D01*
X16925000Y-8025000D02*
X17045000Y-8025000D01*
X17945000Y-7925000D02*
G75*
G03*
X18045000Y-8025000I100000J0D01*
G01*
X17145000Y-7125000D02*
G75*
G03*
X17045000Y-7025000I-100000J0D01*
G01*
X14785000Y-10062487D02*
X15002487Y-9845000D01*
D11*
D12*
X15145000Y-7510000D02*
X15175000Y-7540000D01*
X15175000Y-7510000D02*
X15145000Y-7540000D01*
X15145000Y-11250000D02*
X15175000Y-11280000D01*
X15175000Y-11250000D02*
X15145000Y-11280000D01*
X15225000Y-7510000D02*
X15255000Y-7540000D01*
X15255000Y-7510000D02*
X15225000Y-7540000D01*
X15225000Y-11250000D02*
X15255000Y-11280000D01*
X15255000Y-11250000D02*
X15225000Y-11280000D01*
X15305000Y-7510000D02*
X15335000Y-7540000D01*
X15335000Y-7510000D02*
X15305000Y-7540000D01*
X15305000Y-11250000D02*
X15335000Y-11280000D01*
X15335000Y-11250000D02*
X15305000Y-11280000D01*
X15475000Y-7510000D02*
X15505000Y-7540000D01*
X15505000Y-7510000D02*
X15475000Y-7540000D01*
X15475000Y-11250000D02*
X15505000Y-11280000D01*
X15505000Y-11250000D02*
X15475000Y-11280000D01*
X15555000Y-7510000D02*
X15585000Y-7540000D01*
X15585000Y-7510000D02*
X15555000Y-7540000D01*
X15555000Y-11250000D02*
X15585000Y-11280000D01*
X15585000Y-11250000D02*
X15555000Y-11280000D01*
X15635000Y-7510000D02*
X15665000Y-7540000D01*
X15665000Y-7510000D02*
X15635000Y-7540000D01*
X15635000Y-11250000D02*
X15665000Y-11280000D01*
X15665000Y-11250000D02*
X15635000Y-11280000D01*
X17285000Y-7510000D02*
X17315000Y-7540000D01*
X17315000Y-7510000D02*
X17285000Y-7540000D01*
X17285000Y-11250000D02*
X17315000Y-11280000D01*
X17315000Y-11250000D02*
X17285000Y-11280000D01*
X17365000Y-7510000D02*
X17395000Y-7540000D01*
X17395000Y-7510000D02*
X17365000Y-7540000D01*
X17365000Y-11250000D02*
X17395000Y-11280000D01*
X17395000Y-11250000D02*
X17365000Y-11280000D01*
X17445000Y-7510000D02*
X17475000Y-7540000D01*
X17475000Y-7510000D02*
X17445000Y-7540000D01*
X17445000Y-11250000D02*
X17475000Y-11280000D01*
X17475000Y-11250000D02*
X17445000Y-11280000D01*
X17615000Y-7510000D02*
X17645000Y-7540000D01*
X17645000Y-7510000D02*
X17615000Y-7540000D01*
X17615000Y-11250000D02*
X17645000Y-11280000D01*
X17645000Y-11250000D02*
X17615000Y-11280000D01*
X17695000Y-7510000D02*
X17725000Y-7540000D01*
X17725000Y-7510000D02*
X17695000Y-7540000D01*
X17695000Y-11250000D02*
X17725000Y-11280000D01*
X17725000Y-11250000D02*
X17695000Y-11280000D01*
X17775000Y-7510000D02*
X17805000Y-7540000D01*
X17805000Y-7510000D02*
X17775000Y-7540000D01*
X17775000Y-11250000D02*
X17805000Y-11280000D01*
X17805000Y-11250000D02*
X17775000Y-11280000D01*
D13*
X15063000Y-8645000D02*
G75*
G03*
X15063000Y-8645000I-45000J0D01*
G01*
X15063000Y-12385000D02*
G75*
G03*
X15063000Y-12385000I-45000J0D01*
G01*
X15317000Y-8645000D02*
G75*
G03*
X15317000Y-8645000I-45000J0D01*
G01*
X15317000Y-12385000D02*
G75*
G03*
X15317000Y-12385000I-45000J0D01*
G01*
X15583000Y-6485000D02*
G75*
G03*
X15583000Y-6485000I-45000J0D01*
G01*
X15583000Y-8645000D02*
G75*
G03*
X15583000Y-8645000I-45000J0D01*
G01*
X15583000Y-10225000D02*
G75*
G03*
X15583000Y-10225000I-45000J0D01*
G01*
X15583000Y-12385000D02*
G75*
G03*
X15583000Y-12385000I-45000J0D01*
G01*
X15837000Y-6485000D02*
G75*
G03*
X15837000Y-6485000I-45000J0D01*
G01*
X15837000Y-8645000D02*
G75*
G03*
X15837000Y-8645000I-45000J0D01*
G01*
X15837000Y-10225000D02*
G75*
G03*
X15837000Y-10225000I-45000J0D01*
G01*
X15837000Y-12385000D02*
G75*
G03*
X15837000Y-12385000I-45000J0D01*
G01*
X17203000Y-8645000D02*
G75*
G03*
X17203000Y-8645000I-45000J0D01*
G01*
X17203000Y-12385000D02*
G75*
G03*
X17203000Y-12385000I-45000J0D01*
G01*
X17457000Y-8645000D02*
G75*
G03*
X17457000Y-8645000I-45000J0D01*
G01*
X17457000Y-12385000D02*
G75*
G03*
X17457000Y-12385000I-45000J0D01*
G01*
X17723000Y-6485000D02*
G75*
G03*
X17723000Y-6485000I-45000J0D01*
G01*
X17723000Y-8645000D02*
G75*
G03*
X17723000Y-8645000I-45000J0D01*
G01*
X17723000Y-10225000D02*
G75*
G03*
X17723000Y-10225000I-45000J0D01*
G01*
X17723000Y-12385000D02*
G75*
G03*
X17723000Y-12385000I-45000J0D01*
G01*
X17977000Y-6485000D02*
G75*
G03*
X17977000Y-6485000I-45000J0D01*
G01*
X17977000Y-8645000D02*
G75*
G03*
X17977000Y-8645000I-45000J0D01*
G01*
X17977000Y-10225000D02*
G75*
G03*
X17977000Y-10225000I-45000J0D01*
G01*
X17977000Y-12385000D02*
G75*
G03*
X17977000Y-12385000I-45000J0D01*
G01*
D11*
X14325119Y-13685976D02*
X14325119Y-13485976D01*
X14325119Y-13485976D02*
X14372738Y-13485976D01*
X14372738Y-13485976D02*
X14401309Y-13495500D01*
X14401309Y-13495500D02*
X14420357Y-13514548D01*
X14420357Y-13514548D02*
X14429881Y-13533595D01*
X14429881Y-13533595D02*
X14439405Y-13571690D01*
X14439405Y-13571690D02*
X14439405Y-13600262D01*
X14439405Y-13600262D02*
X14429881Y-13638357D01*
X14429881Y-13638357D02*
X14420357Y-13657405D01*
X14420357Y-13657405D02*
X14401309Y-13676452D01*
X14401309Y-13676452D02*
X14372738Y-13685976D01*
X14372738Y-13685976D02*
X14325119Y-13685976D01*
X14525119Y-13685976D02*
X14525119Y-13552643D01*
X14525119Y-13590738D02*
X14534643Y-13571690D01*
X14534643Y-13571690D02*
X14544167Y-13562167D01*
X14544167Y-13562167D02*
X14563214Y-13552643D01*
X14563214Y-13552643D02*
X14582262Y-13552643D01*
X14648928Y-13685976D02*
X14648928Y-13552643D01*
X14648928Y-13485976D02*
X14639405Y-13495500D01*
X14639405Y-13495500D02*
X14648928Y-13505024D01*
X14648928Y-13505024D02*
X14658452Y-13495500D01*
X14658452Y-13495500D02*
X14648928Y-13485976D01*
X14648928Y-13485976D02*
X14648928Y-13505024D01*
X14772738Y-13685976D02*
X14753690Y-13676452D01*
X14753690Y-13676452D02*
X14744167Y-13657405D01*
X14744167Y-13657405D02*
X14744167Y-13485976D01*
X14877500Y-13685976D02*
X14858452Y-13676452D01*
X14858452Y-13676452D02*
X14848928Y-13657405D01*
X14848928Y-13657405D02*
X14848928Y-13485976D01*
X15073690Y-13685976D02*
X15073690Y-13485976D01*
X15073690Y-13485976D02*
X15140357Y-13628833D01*
X15140357Y-13628833D02*
X15207024Y-13485976D01*
X15207024Y-13485976D02*
X15207024Y-13685976D01*
X15387976Y-13685976D02*
X15387976Y-13581214D01*
X15387976Y-13581214D02*
X15378452Y-13562167D01*
X15378452Y-13562167D02*
X15359405Y-13552643D01*
X15359405Y-13552643D02*
X15321309Y-13552643D01*
X15321309Y-13552643D02*
X15302262Y-13562167D01*
X15387976Y-13676452D02*
X15368928Y-13685976D01*
X15368928Y-13685976D02*
X15321309Y-13685976D01*
X15321309Y-13685976D02*
X15302262Y-13676452D01*
X15302262Y-13676452D02*
X15292738Y-13657405D01*
X15292738Y-13657405D02*
X15292738Y-13638357D01*
X15292738Y-13638357D02*
X15302262Y-13619309D01*
X15302262Y-13619309D02*
X15321309Y-13609786D01*
X15321309Y-13609786D02*
X15368928Y-13609786D01*
X15368928Y-13609786D02*
X15387976Y-13600262D01*
X15483214Y-13552643D02*
X15483214Y-13752643D01*
X15483214Y-13562167D02*
X15502262Y-13552643D01*
X15502262Y-13552643D02*
X15540357Y-13552643D01*
X15540357Y-13552643D02*
X15559405Y-13562167D01*
X15559405Y-13562167D02*
X15568928Y-13571690D01*
X15568928Y-13571690D02*
X15578452Y-13590738D01*
X15578452Y-13590738D02*
X15578452Y-13647881D01*
X15578452Y-13647881D02*
X15568928Y-13666928D01*
X15568928Y-13666928D02*
X15559405Y-13676452D01*
X15559405Y-13676452D02*
X15540357Y-13685976D01*
X15540357Y-13685976D02*
X15502262Y-13685976D01*
X15502262Y-13685976D02*
X15483214Y-13676452D01*
X15664167Y-13666928D02*
X15673690Y-13676452D01*
X15673690Y-13676452D02*
X15664167Y-13685976D01*
X15664167Y-13685976D02*
X15654643Y-13676452D01*
X15654643Y-13676452D02*
X15664167Y-13666928D01*
X15664167Y-13666928D02*
X15664167Y-13685976D01*
X15664167Y-13562167D02*
X15673690Y-13571690D01*
X15673690Y-13571690D02*
X15664167Y-13581214D01*
X15664167Y-13581214D02*
X15654643Y-13571690D01*
X15654643Y-13571690D02*
X15664167Y-13562167D01*
X15664167Y-13562167D02*
X15664167Y-13581214D01*
D12*
X14047500Y-14017500D02*
X14077500Y-14047500D01*
X14077500Y-14017500D02*
X14047500Y-14047500D01*
D11*
X14363214Y-13905976D02*
X14382262Y-13905976D01*
X14382262Y-13905976D02*
X14401309Y-13915500D01*
X14401309Y-13915500D02*
X14410833Y-13925024D01*
X14410833Y-13925024D02*
X14420357Y-13944071D01*
X14420357Y-13944071D02*
X14429881Y-13982167D01*
X14429881Y-13982167D02*
X14429881Y-14029786D01*
X14429881Y-14029786D02*
X14420357Y-14067881D01*
X14420357Y-14067881D02*
X14410833Y-14086928D01*
X14410833Y-14086928D02*
X14401309Y-14096452D01*
X14401309Y-14096452D02*
X14382262Y-14105976D01*
X14382262Y-14105976D02*
X14363214Y-14105976D01*
X14363214Y-14105976D02*
X14344167Y-14096452D01*
X14344167Y-14096452D02*
X14334643Y-14086928D01*
X14334643Y-14086928D02*
X14325119Y-14067881D01*
X14325119Y-14067881D02*
X14315595Y-14029786D01*
X14315595Y-14029786D02*
X14315595Y-13982167D01*
X14315595Y-13982167D02*
X14325119Y-13944071D01*
X14325119Y-13944071D02*
X14334643Y-13925024D01*
X14334643Y-13925024D02*
X14344167Y-13915500D01*
X14344167Y-13915500D02*
X14363214Y-13905976D01*
X14515595Y-14086928D02*
X14525119Y-14096452D01*
X14525119Y-14096452D02*
X14515595Y-14105976D01*
X14515595Y-14105976D02*
X14506071Y-14096452D01*
X14506071Y-14096452D02*
X14515595Y-14086928D01*
X14515595Y-14086928D02*
X14515595Y-14105976D01*
X14591786Y-13905976D02*
X14715595Y-13905976D01*
X14715595Y-13905976D02*
X14648928Y-13982167D01*
X14648928Y-13982167D02*
X14677500Y-13982167D01*
X14677500Y-13982167D02*
X14696548Y-13991690D01*
X14696548Y-13991690D02*
X14706071Y-14001214D01*
X14706071Y-14001214D02*
X14715595Y-14020262D01*
X14715595Y-14020262D02*
X14715595Y-14067881D01*
X14715595Y-14067881D02*
X14706071Y-14086928D01*
X14706071Y-14086928D02*
X14696548Y-14096452D01*
X14696548Y-14096452D02*
X14677500Y-14105976D01*
X14677500Y-14105976D02*
X14620357Y-14105976D01*
X14620357Y-14105976D02*
X14601309Y-14096452D01*
X14601309Y-14096452D02*
X14591786Y-14086928D01*
X14839405Y-13905976D02*
X14858452Y-13905976D01*
X14858452Y-13905976D02*
X14877500Y-13915500D01*
X14877500Y-13915500D02*
X14887024Y-13925024D01*
X14887024Y-13925024D02*
X14896548Y-13944071D01*
X14896548Y-13944071D02*
X14906071Y-13982167D01*
X14906071Y-13982167D02*
X14906071Y-14029786D01*
X14906071Y-14029786D02*
X14896548Y-14067881D01*
X14896548Y-14067881D02*
X14887024Y-14086928D01*
X14887024Y-14086928D02*
X14877500Y-14096452D01*
X14877500Y-14096452D02*
X14858452Y-14105976D01*
X14858452Y-14105976D02*
X14839405Y-14105976D01*
X14839405Y-14105976D02*
X14820357Y-14096452D01*
X14820357Y-14096452D02*
X14810833Y-14086928D01*
X14810833Y-14086928D02*
X14801309Y-14067881D01*
X14801309Y-14067881D02*
X14791786Y-14029786D01*
X14791786Y-14029786D02*
X14791786Y-13982167D01*
X14791786Y-13982167D02*
X14801309Y-13944071D01*
X14801309Y-13944071D02*
X14810833Y-13925024D01*
X14810833Y-13925024D02*
X14820357Y-13915500D01*
X14820357Y-13915500D02*
X14839405Y-13905976D01*
X15029881Y-13905976D02*
X15048929Y-13905976D01*
X15048929Y-13905976D02*
X15067976Y-13915500D01*
X15067976Y-13915500D02*
X15077500Y-13925024D01*
X15077500Y-13925024D02*
X15087024Y-13944071D01*
X15087024Y-13944071D02*
X15096548Y-13982167D01*
X15096548Y-13982167D02*
X15096548Y-14029786D01*
X15096548Y-14029786D02*
X15087024Y-14067881D01*
X15087024Y-14067881D02*
X15077500Y-14086928D01*
X15077500Y-14086928D02*
X15067976Y-14096452D01*
X15067976Y-14096452D02*
X15048929Y-14105976D01*
X15048929Y-14105976D02*
X15029881Y-14105976D01*
X15029881Y-14105976D02*
X15010833Y-14096452D01*
X15010833Y-14096452D02*
X15001309Y-14086928D01*
X15001309Y-14086928D02*
X14991786Y-14067881D01*
X14991786Y-14067881D02*
X14982262Y-14029786D01*
X14982262Y-14029786D02*
X14982262Y-13982167D01*
X14982262Y-13982167D02*
X14991786Y-13944071D01*
X14991786Y-13944071D02*
X15001309Y-13925024D01*
X15001309Y-13925024D02*
X15010833Y-13915500D01*
X15010833Y-13915500D02*
X15029881Y-13905976D01*
X15182262Y-14105976D02*
X15182262Y-13972643D01*
X15182262Y-13991690D02*
X15191786Y-13982167D01*
X15191786Y-13982167D02*
X15210833Y-13972643D01*
X15210833Y-13972643D02*
X15239405Y-13972643D01*
X15239405Y-13972643D02*
X15258452Y-13982167D01*
X15258452Y-13982167D02*
X15267976Y-14001214D01*
X15267976Y-14001214D02*
X15267976Y-14105976D01*
X15267976Y-14001214D02*
X15277500Y-13982167D01*
X15277500Y-13982167D02*
X15296548Y-13972643D01*
X15296548Y-13972643D02*
X15325119Y-13972643D01*
X15325119Y-13972643D02*
X15344167Y-13982167D01*
X15344167Y-13982167D02*
X15353690Y-14001214D01*
X15353690Y-14001214D02*
X15353690Y-14105976D01*
X15448929Y-14105976D02*
X15448929Y-13972643D01*
X15448929Y-13991690D02*
X15458452Y-13982167D01*
X15458452Y-13982167D02*
X15477500Y-13972643D01*
X15477500Y-13972643D02*
X15506071Y-13972643D01*
X15506071Y-13972643D02*
X15525119Y-13982167D01*
X15525119Y-13982167D02*
X15534643Y-14001214D01*
X15534643Y-14001214D02*
X15534643Y-14105976D01*
X15534643Y-14001214D02*
X15544167Y-13982167D01*
X15544167Y-13982167D02*
X15563214Y-13972643D01*
X15563214Y-13972643D02*
X15591786Y-13972643D01*
X15591786Y-13972643D02*
X15610833Y-13982167D01*
X15610833Y-13982167D02*
X15620357Y-14001214D01*
X15620357Y-14001214D02*
X15620357Y-14105976D01*
X15978452Y-13896452D02*
X15807024Y-14153595D01*
X16203214Y-13905976D02*
X16222262Y-13905976D01*
X16222262Y-13905976D02*
X16241310Y-13915500D01*
X16241310Y-13915500D02*
X16250833Y-13925024D01*
X16250833Y-13925024D02*
X16260357Y-13944071D01*
X16260357Y-13944071D02*
X16269881Y-13982167D01*
X16269881Y-13982167D02*
X16269881Y-14029786D01*
X16269881Y-14029786D02*
X16260357Y-14067881D01*
X16260357Y-14067881D02*
X16250833Y-14086928D01*
X16250833Y-14086928D02*
X16241310Y-14096452D01*
X16241310Y-14096452D02*
X16222262Y-14105976D01*
X16222262Y-14105976D02*
X16203214Y-14105976D01*
X16203214Y-14105976D02*
X16184167Y-14096452D01*
X16184167Y-14096452D02*
X16174643Y-14086928D01*
X16174643Y-14086928D02*
X16165119Y-14067881D01*
X16165119Y-14067881D02*
X16155595Y-14029786D01*
X16155595Y-14029786D02*
X16155595Y-13982167D01*
X16155595Y-13982167D02*
X16165119Y-13944071D01*
X16165119Y-13944071D02*
X16174643Y-13925024D01*
X16174643Y-13925024D02*
X16184167Y-13915500D01*
X16184167Y-13915500D02*
X16203214Y-13905976D01*
X16355595Y-14086928D02*
X16365119Y-14096452D01*
X16365119Y-14096452D02*
X16355595Y-14105976D01*
X16355595Y-14105976D02*
X16346071Y-14096452D01*
X16346071Y-14096452D02*
X16355595Y-14086928D01*
X16355595Y-14086928D02*
X16355595Y-14105976D01*
X16488929Y-13905976D02*
X16507976Y-13905976D01*
X16507976Y-13905976D02*
X16527024Y-13915500D01*
X16527024Y-13915500D02*
X16536548Y-13925024D01*
X16536548Y-13925024D02*
X16546071Y-13944071D01*
X16546071Y-13944071D02*
X16555595Y-13982167D01*
X16555595Y-13982167D02*
X16555595Y-14029786D01*
X16555595Y-14029786D02*
X16546071Y-14067881D01*
X16546071Y-14067881D02*
X16536548Y-14086928D01*
X16536548Y-14086928D02*
X16527024Y-14096452D01*
X16527024Y-14096452D02*
X16507976Y-14105976D01*
X16507976Y-14105976D02*
X16488929Y-14105976D01*
X16488929Y-14105976D02*
X16469881Y-14096452D01*
X16469881Y-14096452D02*
X16460357Y-14086928D01*
X16460357Y-14086928D02*
X16450833Y-14067881D01*
X16450833Y-14067881D02*
X16441310Y-14029786D01*
X16441310Y-14029786D02*
X16441310Y-13982167D01*
X16441310Y-13982167D02*
X16450833Y-13944071D01*
X16450833Y-13944071D02*
X16460357Y-13925024D01*
X16460357Y-13925024D02*
X16469881Y-13915500D01*
X16469881Y-13915500D02*
X16488929Y-13905976D01*
X16746071Y-14105976D02*
X16631786Y-14105976D01*
X16688929Y-14105976D02*
X16688929Y-13905976D01*
X16688929Y-13905976D02*
X16669881Y-13934548D01*
X16669881Y-13934548D02*
X16650833Y-13953595D01*
X16650833Y-13953595D02*
X16631786Y-13963119D01*
X16936548Y-14105976D02*
X16822262Y-14105976D01*
X16879405Y-14105976D02*
X16879405Y-13905976D01*
X16879405Y-13905976D02*
X16860357Y-13934548D01*
X16860357Y-13934548D02*
X16841310Y-13953595D01*
X16841310Y-13953595D02*
X16822262Y-13963119D01*
X17050833Y-13991690D02*
X17031786Y-13982167D01*
X17031786Y-13982167D02*
X17022262Y-13972643D01*
X17022262Y-13972643D02*
X17012738Y-13953595D01*
X17012738Y-13953595D02*
X17012738Y-13944071D01*
X17012738Y-13944071D02*
X17022262Y-13925024D01*
X17022262Y-13925024D02*
X17031786Y-13915500D01*
X17031786Y-13915500D02*
X17050833Y-13905976D01*
X17050833Y-13905976D02*
X17088929Y-13905976D01*
X17088929Y-13905976D02*
X17107976Y-13915500D01*
X17107976Y-13915500D02*
X17117500Y-13925024D01*
X17117500Y-13925024D02*
X17127024Y-13944071D01*
X17127024Y-13944071D02*
X17127024Y-13953595D01*
X17127024Y-13953595D02*
X17117500Y-13972643D01*
X17117500Y-13972643D02*
X17107976Y-13982167D01*
X17107976Y-13982167D02*
X17088929Y-13991690D01*
X17088929Y-13991690D02*
X17050833Y-13991690D01*
X17050833Y-13991690D02*
X17031786Y-14001214D01*
X17031786Y-14001214D02*
X17022262Y-14010738D01*
X17022262Y-14010738D02*
X17012738Y-14029786D01*
X17012738Y-14029786D02*
X17012738Y-14067881D01*
X17012738Y-14067881D02*
X17022262Y-14086928D01*
X17022262Y-14086928D02*
X17031786Y-14096452D01*
X17031786Y-14096452D02*
X17050833Y-14105976D01*
X17050833Y-14105976D02*
X17088929Y-14105976D01*
X17088929Y-14105976D02*
X17107976Y-14096452D01*
X17107976Y-14096452D02*
X17117500Y-14086928D01*
X17117500Y-14086928D02*
X17127024Y-14067881D01*
X17127024Y-14067881D02*
X17127024Y-14029786D01*
X17127024Y-14029786D02*
X17117500Y-14010738D01*
X17117500Y-14010738D02*
X17107976Y-14001214D01*
X17107976Y-14001214D02*
X17088929Y-13991690D01*
X17203214Y-13905976D02*
X17203214Y-13944071D01*
X17279405Y-13905976D02*
X17279405Y-13944071D01*
X17542262Y-14182167D02*
X17532738Y-14172643D01*
X17532738Y-14172643D02*
X17513691Y-14144071D01*
X17513691Y-14144071D02*
X17504167Y-14125024D01*
X17504167Y-14125024D02*
X17494643Y-14096452D01*
X17494643Y-14096452D02*
X17485119Y-14048833D01*
X17485119Y-14048833D02*
X17485119Y-14010738D01*
X17485119Y-14010738D02*
X17494643Y-13963119D01*
X17494643Y-13963119D02*
X17504167Y-13934548D01*
X17504167Y-13934548D02*
X17513691Y-13915500D01*
X17513691Y-13915500D02*
X17532738Y-13886928D01*
X17532738Y-13886928D02*
X17542262Y-13877405D01*
X17608929Y-13925024D02*
X17618453Y-13915500D01*
X17618453Y-13915500D02*
X17637500Y-13905976D01*
X17637500Y-13905976D02*
X17685119Y-13905976D01*
X17685119Y-13905976D02*
X17704167Y-13915500D01*
X17704167Y-13915500D02*
X17713691Y-13925024D01*
X17713691Y-13925024D02*
X17723214Y-13944071D01*
X17723214Y-13944071D02*
X17723214Y-13963119D01*
X17723214Y-13963119D02*
X17713691Y-13991690D01*
X17713691Y-13991690D02*
X17599405Y-14105976D01*
X17599405Y-14105976D02*
X17723214Y-14105976D01*
X17894643Y-13972643D02*
X17894643Y-14105976D01*
X17847024Y-13896452D02*
X17799405Y-14039309D01*
X17799405Y-14039309D02*
X17923214Y-14039309D01*
X18119405Y-14105976D02*
X18119405Y-13905976D01*
X18205119Y-14105976D02*
X18205119Y-14001214D01*
X18205119Y-14001214D02*
X18195595Y-13982167D01*
X18195595Y-13982167D02*
X18176548Y-13972643D01*
X18176548Y-13972643D02*
X18147976Y-13972643D01*
X18147976Y-13972643D02*
X18128929Y-13982167D01*
X18128929Y-13982167D02*
X18119405Y-13991690D01*
X18328929Y-14105976D02*
X18309881Y-14096452D01*
X18309881Y-14096452D02*
X18300357Y-14086928D01*
X18300357Y-14086928D02*
X18290834Y-14067881D01*
X18290834Y-14067881D02*
X18290834Y-14010738D01*
X18290834Y-14010738D02*
X18300357Y-13991690D01*
X18300357Y-13991690D02*
X18309881Y-13982167D01*
X18309881Y-13982167D02*
X18328929Y-13972643D01*
X18328929Y-13972643D02*
X18357500Y-13972643D01*
X18357500Y-13972643D02*
X18376548Y-13982167D01*
X18376548Y-13982167D02*
X18386072Y-13991690D01*
X18386072Y-13991690D02*
X18395595Y-14010738D01*
X18395595Y-14010738D02*
X18395595Y-14067881D01*
X18395595Y-14067881D02*
X18386072Y-14086928D01*
X18386072Y-14086928D02*
X18376548Y-14096452D01*
X18376548Y-14096452D02*
X18357500Y-14105976D01*
X18357500Y-14105976D02*
X18328929Y-14105976D01*
X18509881Y-14105976D02*
X18490834Y-14096452D01*
X18490834Y-14096452D02*
X18481310Y-14077405D01*
X18481310Y-14077405D02*
X18481310Y-13905976D01*
X18662262Y-14096452D02*
X18643215Y-14105976D01*
X18643215Y-14105976D02*
X18605119Y-14105976D01*
X18605119Y-14105976D02*
X18586072Y-14096452D01*
X18586072Y-14096452D02*
X18576548Y-14077405D01*
X18576548Y-14077405D02*
X18576548Y-14001214D01*
X18576548Y-14001214D02*
X18586072Y-13982167D01*
X18586072Y-13982167D02*
X18605119Y-13972643D01*
X18605119Y-13972643D02*
X18643215Y-13972643D01*
X18643215Y-13972643D02*
X18662262Y-13982167D01*
X18662262Y-13982167D02*
X18671786Y-14001214D01*
X18671786Y-14001214D02*
X18671786Y-14020262D01*
X18671786Y-14020262D02*
X18576548Y-14039309D01*
X18747976Y-14096452D02*
X18767024Y-14105976D01*
X18767024Y-14105976D02*
X18805119Y-14105976D01*
X18805119Y-14105976D02*
X18824167Y-14096452D01*
X18824167Y-14096452D02*
X18833691Y-14077405D01*
X18833691Y-14077405D02*
X18833691Y-14067881D01*
X18833691Y-14067881D02*
X18824167Y-14048833D01*
X18824167Y-14048833D02*
X18805119Y-14039309D01*
X18805119Y-14039309D02*
X18776548Y-14039309D01*
X18776548Y-14039309D02*
X18757500Y-14029786D01*
X18757500Y-14029786D02*
X18747976Y-14010738D01*
X18747976Y-14010738D02*
X18747976Y-14001214D01*
X18747976Y-14001214D02*
X18757500Y-13982167D01*
X18757500Y-13982167D02*
X18776548Y-13972643D01*
X18776548Y-13972643D02*
X18805119Y-13972643D01*
X18805119Y-13972643D02*
X18824167Y-13982167D01*
X18900357Y-14182167D02*
X18909881Y-14172643D01*
X18909881Y-14172643D02*
X18928929Y-14144071D01*
X18928929Y-14144071D02*
X18938453Y-14125024D01*
X18938453Y-14125024D02*
X18947976Y-14096452D01*
X18947976Y-14096452D02*
X18957500Y-14048833D01*
X18957500Y-14048833D02*
X18957500Y-14010738D01*
X18957500Y-14010738D02*
X18947976Y-13963119D01*
X18947976Y-13963119D02*
X18938453Y-13934548D01*
X18938453Y-13934548D02*
X18928929Y-13915500D01*
X18928929Y-13915500D02*
X18909881Y-13886928D01*
X18909881Y-13886928D02*
X18900357Y-13877405D01*
D13*
X14077500Y-14296500D02*
G75*
G03*
X14077500Y-14296500I-45000J0D01*
G01*
D11*
X14363214Y-14169976D02*
X14382262Y-14169976D01*
X14382262Y-14169976D02*
X14401309Y-14179500D01*
X14401309Y-14179500D02*
X14410833Y-14189024D01*
X14410833Y-14189024D02*
X14420357Y-14208071D01*
X14420357Y-14208071D02*
X14429881Y-14246167D01*
X14429881Y-14246167D02*
X14429881Y-14293786D01*
X14429881Y-14293786D02*
X14420357Y-14331881D01*
X14420357Y-14331881D02*
X14410833Y-14350928D01*
X14410833Y-14350928D02*
X14401309Y-14360452D01*
X14401309Y-14360452D02*
X14382262Y-14369976D01*
X14382262Y-14369976D02*
X14363214Y-14369976D01*
X14363214Y-14369976D02*
X14344167Y-14360452D01*
X14344167Y-14360452D02*
X14334643Y-14350928D01*
X14334643Y-14350928D02*
X14325119Y-14331881D01*
X14325119Y-14331881D02*
X14315595Y-14293786D01*
X14315595Y-14293786D02*
X14315595Y-14246167D01*
X14315595Y-14246167D02*
X14325119Y-14208071D01*
X14325119Y-14208071D02*
X14334643Y-14189024D01*
X14334643Y-14189024D02*
X14344167Y-14179500D01*
X14344167Y-14179500D02*
X14363214Y-14169976D01*
X14515595Y-14350928D02*
X14525119Y-14360452D01*
X14525119Y-14360452D02*
X14515595Y-14369976D01*
X14515595Y-14369976D02*
X14506071Y-14360452D01*
X14506071Y-14360452D02*
X14515595Y-14350928D01*
X14515595Y-14350928D02*
X14515595Y-14369976D01*
X14620357Y-14369976D02*
X14658452Y-14369976D01*
X14658452Y-14369976D02*
X14677500Y-14360452D01*
X14677500Y-14360452D02*
X14687024Y-14350928D01*
X14687024Y-14350928D02*
X14706071Y-14322357D01*
X14706071Y-14322357D02*
X14715595Y-14284262D01*
X14715595Y-14284262D02*
X14715595Y-14208071D01*
X14715595Y-14208071D02*
X14706071Y-14189024D01*
X14706071Y-14189024D02*
X14696548Y-14179500D01*
X14696548Y-14179500D02*
X14677500Y-14169976D01*
X14677500Y-14169976D02*
X14639405Y-14169976D01*
X14639405Y-14169976D02*
X14620357Y-14179500D01*
X14620357Y-14179500D02*
X14610833Y-14189024D01*
X14610833Y-14189024D02*
X14601309Y-14208071D01*
X14601309Y-14208071D02*
X14601309Y-14255690D01*
X14601309Y-14255690D02*
X14610833Y-14274738D01*
X14610833Y-14274738D02*
X14620357Y-14284262D01*
X14620357Y-14284262D02*
X14639405Y-14293786D01*
X14639405Y-14293786D02*
X14677500Y-14293786D01*
X14677500Y-14293786D02*
X14696548Y-14284262D01*
X14696548Y-14284262D02*
X14706071Y-14274738D01*
X14706071Y-14274738D02*
X14715595Y-14255690D01*
X14839405Y-14169976D02*
X14858452Y-14169976D01*
X14858452Y-14169976D02*
X14877500Y-14179500D01*
X14877500Y-14179500D02*
X14887024Y-14189024D01*
X14887024Y-14189024D02*
X14896548Y-14208071D01*
X14896548Y-14208071D02*
X14906071Y-14246167D01*
X14906071Y-14246167D02*
X14906071Y-14293786D01*
X14906071Y-14293786D02*
X14896548Y-14331881D01*
X14896548Y-14331881D02*
X14887024Y-14350928D01*
X14887024Y-14350928D02*
X14877500Y-14360452D01*
X14877500Y-14360452D02*
X14858452Y-14369976D01*
X14858452Y-14369976D02*
X14839405Y-14369976D01*
X14839405Y-14369976D02*
X14820357Y-14360452D01*
X14820357Y-14360452D02*
X14810833Y-14350928D01*
X14810833Y-14350928D02*
X14801309Y-14331881D01*
X14801309Y-14331881D02*
X14791786Y-14293786D01*
X14791786Y-14293786D02*
X14791786Y-14246167D01*
X14791786Y-14246167D02*
X14801309Y-14208071D01*
X14801309Y-14208071D02*
X14810833Y-14189024D01*
X14810833Y-14189024D02*
X14820357Y-14179500D01*
X14820357Y-14179500D02*
X14839405Y-14169976D01*
X15029881Y-14169976D02*
X15048929Y-14169976D01*
X15048929Y-14169976D02*
X15067976Y-14179500D01*
X15067976Y-14179500D02*
X15077500Y-14189024D01*
X15077500Y-14189024D02*
X15087024Y-14208071D01*
X15087024Y-14208071D02*
X15096548Y-14246167D01*
X15096548Y-14246167D02*
X15096548Y-14293786D01*
X15096548Y-14293786D02*
X15087024Y-14331881D01*
X15087024Y-14331881D02*
X15077500Y-14350928D01*
X15077500Y-14350928D02*
X15067976Y-14360452D01*
X15067976Y-14360452D02*
X15048929Y-14369976D01*
X15048929Y-14369976D02*
X15029881Y-14369976D01*
X15029881Y-14369976D02*
X15010833Y-14360452D01*
X15010833Y-14360452D02*
X15001309Y-14350928D01*
X15001309Y-14350928D02*
X14991786Y-14331881D01*
X14991786Y-14331881D02*
X14982262Y-14293786D01*
X14982262Y-14293786D02*
X14982262Y-14246167D01*
X14982262Y-14246167D02*
X14991786Y-14208071D01*
X14991786Y-14208071D02*
X15001309Y-14189024D01*
X15001309Y-14189024D02*
X15010833Y-14179500D01*
X15010833Y-14179500D02*
X15029881Y-14169976D01*
X15182262Y-14369976D02*
X15182262Y-14236643D01*
X15182262Y-14255690D02*
X15191786Y-14246167D01*
X15191786Y-14246167D02*
X15210833Y-14236643D01*
X15210833Y-14236643D02*
X15239405Y-14236643D01*
X15239405Y-14236643D02*
X15258452Y-14246167D01*
X15258452Y-14246167D02*
X15267976Y-14265214D01*
X15267976Y-14265214D02*
X15267976Y-14369976D01*
X15267976Y-14265214D02*
X15277500Y-14246167D01*
X15277500Y-14246167D02*
X15296548Y-14236643D01*
X15296548Y-14236643D02*
X15325119Y-14236643D01*
X15325119Y-14236643D02*
X15344167Y-14246167D01*
X15344167Y-14246167D02*
X15353690Y-14265214D01*
X15353690Y-14265214D02*
X15353690Y-14369976D01*
X15448929Y-14369976D02*
X15448929Y-14236643D01*
X15448929Y-14255690D02*
X15458452Y-14246167D01*
X15458452Y-14246167D02*
X15477500Y-14236643D01*
X15477500Y-14236643D02*
X15506071Y-14236643D01*
X15506071Y-14236643D02*
X15525119Y-14246167D01*
X15525119Y-14246167D02*
X15534643Y-14265214D01*
X15534643Y-14265214D02*
X15534643Y-14369976D01*
X15534643Y-14265214D02*
X15544167Y-14246167D01*
X15544167Y-14246167D02*
X15563214Y-14236643D01*
X15563214Y-14236643D02*
X15591786Y-14236643D01*
X15591786Y-14236643D02*
X15610833Y-14246167D01*
X15610833Y-14246167D02*
X15620357Y-14265214D01*
X15620357Y-14265214D02*
X15620357Y-14369976D01*
X15978452Y-14160452D02*
X15807024Y-14417595D01*
X16203214Y-14169976D02*
X16222262Y-14169976D01*
X16222262Y-14169976D02*
X16241310Y-14179500D01*
X16241310Y-14179500D02*
X16250833Y-14189024D01*
X16250833Y-14189024D02*
X16260357Y-14208071D01*
X16260357Y-14208071D02*
X16269881Y-14246167D01*
X16269881Y-14246167D02*
X16269881Y-14293786D01*
X16269881Y-14293786D02*
X16260357Y-14331881D01*
X16260357Y-14331881D02*
X16250833Y-14350928D01*
X16250833Y-14350928D02*
X16241310Y-14360452D01*
X16241310Y-14360452D02*
X16222262Y-14369976D01*
X16222262Y-14369976D02*
X16203214Y-14369976D01*
X16203214Y-14369976D02*
X16184167Y-14360452D01*
X16184167Y-14360452D02*
X16174643Y-14350928D01*
X16174643Y-14350928D02*
X16165119Y-14331881D01*
X16165119Y-14331881D02*
X16155595Y-14293786D01*
X16155595Y-14293786D02*
X16155595Y-14246167D01*
X16155595Y-14246167D02*
X16165119Y-14208071D01*
X16165119Y-14208071D02*
X16174643Y-14189024D01*
X16174643Y-14189024D02*
X16184167Y-14179500D01*
X16184167Y-14179500D02*
X16203214Y-14169976D01*
X16355595Y-14350928D02*
X16365119Y-14360452D01*
X16365119Y-14360452D02*
X16355595Y-14369976D01*
X16355595Y-14369976D02*
X16346071Y-14360452D01*
X16346071Y-14360452D02*
X16355595Y-14350928D01*
X16355595Y-14350928D02*
X16355595Y-14369976D01*
X16488929Y-14169976D02*
X16507976Y-14169976D01*
X16507976Y-14169976D02*
X16527024Y-14179500D01*
X16527024Y-14179500D02*
X16536548Y-14189024D01*
X16536548Y-14189024D02*
X16546071Y-14208071D01*
X16546071Y-14208071D02*
X16555595Y-14246167D01*
X16555595Y-14246167D02*
X16555595Y-14293786D01*
X16555595Y-14293786D02*
X16546071Y-14331881D01*
X16546071Y-14331881D02*
X16536548Y-14350928D01*
X16536548Y-14350928D02*
X16527024Y-14360452D01*
X16527024Y-14360452D02*
X16507976Y-14369976D01*
X16507976Y-14369976D02*
X16488929Y-14369976D01*
X16488929Y-14369976D02*
X16469881Y-14360452D01*
X16469881Y-14360452D02*
X16460357Y-14350928D01*
X16460357Y-14350928D02*
X16450833Y-14331881D01*
X16450833Y-14331881D02*
X16441310Y-14293786D01*
X16441310Y-14293786D02*
X16441310Y-14246167D01*
X16441310Y-14246167D02*
X16450833Y-14208071D01*
X16450833Y-14208071D02*
X16460357Y-14189024D01*
X16460357Y-14189024D02*
X16469881Y-14179500D01*
X16469881Y-14179500D02*
X16488929Y-14169976D01*
X16622262Y-14169976D02*
X16746071Y-14169976D01*
X16746071Y-14169976D02*
X16679405Y-14246167D01*
X16679405Y-14246167D02*
X16707976Y-14246167D01*
X16707976Y-14246167D02*
X16727024Y-14255690D01*
X16727024Y-14255690D02*
X16736548Y-14265214D01*
X16736548Y-14265214D02*
X16746071Y-14284262D01*
X16746071Y-14284262D02*
X16746071Y-14331881D01*
X16746071Y-14331881D02*
X16736548Y-14350928D01*
X16736548Y-14350928D02*
X16727024Y-14360452D01*
X16727024Y-14360452D02*
X16707976Y-14369976D01*
X16707976Y-14369976D02*
X16650833Y-14369976D01*
X16650833Y-14369976D02*
X16631786Y-14360452D01*
X16631786Y-14360452D02*
X16622262Y-14350928D01*
X16927024Y-14169976D02*
X16831786Y-14169976D01*
X16831786Y-14169976D02*
X16822262Y-14265214D01*
X16822262Y-14265214D02*
X16831786Y-14255690D01*
X16831786Y-14255690D02*
X16850833Y-14246167D01*
X16850833Y-14246167D02*
X16898453Y-14246167D01*
X16898453Y-14246167D02*
X16917500Y-14255690D01*
X16917500Y-14255690D02*
X16927024Y-14265214D01*
X16927024Y-14265214D02*
X16936548Y-14284262D01*
X16936548Y-14284262D02*
X16936548Y-14331881D01*
X16936548Y-14331881D02*
X16927024Y-14350928D01*
X16927024Y-14350928D02*
X16917500Y-14360452D01*
X16917500Y-14360452D02*
X16898453Y-14369976D01*
X16898453Y-14369976D02*
X16850833Y-14369976D01*
X16850833Y-14369976D02*
X16831786Y-14360452D01*
X16831786Y-14360452D02*
X16822262Y-14350928D01*
X17107976Y-14236643D02*
X17107976Y-14369976D01*
X17060357Y-14160452D02*
X17012738Y-14303309D01*
X17012738Y-14303309D02*
X17136548Y-14303309D01*
X17203214Y-14169976D02*
X17203214Y-14208071D01*
X17279405Y-14169976D02*
X17279405Y-14208071D01*
X17542262Y-14446167D02*
X17532738Y-14436643D01*
X17532738Y-14436643D02*
X17513691Y-14408071D01*
X17513691Y-14408071D02*
X17504167Y-14389024D01*
X17504167Y-14389024D02*
X17494643Y-14360452D01*
X17494643Y-14360452D02*
X17485119Y-14312833D01*
X17485119Y-14312833D02*
X17485119Y-14274738D01*
X17485119Y-14274738D02*
X17494643Y-14227119D01*
X17494643Y-14227119D02*
X17504167Y-14198548D01*
X17504167Y-14198548D02*
X17513691Y-14179500D01*
X17513691Y-14179500D02*
X17532738Y-14150928D01*
X17532738Y-14150928D02*
X17542262Y-14141405D01*
X17608929Y-14189024D02*
X17618453Y-14179500D01*
X17618453Y-14179500D02*
X17637500Y-14169976D01*
X17637500Y-14169976D02*
X17685119Y-14169976D01*
X17685119Y-14169976D02*
X17704167Y-14179500D01*
X17704167Y-14179500D02*
X17713691Y-14189024D01*
X17713691Y-14189024D02*
X17723214Y-14208071D01*
X17723214Y-14208071D02*
X17723214Y-14227119D01*
X17723214Y-14227119D02*
X17713691Y-14255690D01*
X17713691Y-14255690D02*
X17599405Y-14369976D01*
X17599405Y-14369976D02*
X17723214Y-14369976D01*
X17894643Y-14236643D02*
X17894643Y-14369976D01*
X17847024Y-14160452D02*
X17799405Y-14303309D01*
X17799405Y-14303309D02*
X17923214Y-14303309D01*
X18119405Y-14369976D02*
X18119405Y-14169976D01*
X18205119Y-14369976D02*
X18205119Y-14265214D01*
X18205119Y-14265214D02*
X18195595Y-14246167D01*
X18195595Y-14246167D02*
X18176548Y-14236643D01*
X18176548Y-14236643D02*
X18147976Y-14236643D01*
X18147976Y-14236643D02*
X18128929Y-14246167D01*
X18128929Y-14246167D02*
X18119405Y-14255690D01*
X18328929Y-14369976D02*
X18309881Y-14360452D01*
X18309881Y-14360452D02*
X18300357Y-14350928D01*
X18300357Y-14350928D02*
X18290834Y-14331881D01*
X18290834Y-14331881D02*
X18290834Y-14274738D01*
X18290834Y-14274738D02*
X18300357Y-14255690D01*
X18300357Y-14255690D02*
X18309881Y-14246167D01*
X18309881Y-14246167D02*
X18328929Y-14236643D01*
X18328929Y-14236643D02*
X18357500Y-14236643D01*
X18357500Y-14236643D02*
X18376548Y-14246167D01*
X18376548Y-14246167D02*
X18386072Y-14255690D01*
X18386072Y-14255690D02*
X18395595Y-14274738D01*
X18395595Y-14274738D02*
X18395595Y-14331881D01*
X18395595Y-14331881D02*
X18386072Y-14350928D01*
X18386072Y-14350928D02*
X18376548Y-14360452D01*
X18376548Y-14360452D02*
X18357500Y-14369976D01*
X18357500Y-14369976D02*
X18328929Y-14369976D01*
X18509881Y-14369976D02*
X18490834Y-14360452D01*
X18490834Y-14360452D02*
X18481310Y-14341405D01*
X18481310Y-14341405D02*
X18481310Y-14169976D01*
X18662262Y-14360452D02*
X18643215Y-14369976D01*
X18643215Y-14369976D02*
X18605119Y-14369976D01*
X18605119Y-14369976D02*
X18586072Y-14360452D01*
X18586072Y-14360452D02*
X18576548Y-14341405D01*
X18576548Y-14341405D02*
X18576548Y-14265214D01*
X18576548Y-14265214D02*
X18586072Y-14246167D01*
X18586072Y-14246167D02*
X18605119Y-14236643D01*
X18605119Y-14236643D02*
X18643215Y-14236643D01*
X18643215Y-14236643D02*
X18662262Y-14246167D01*
X18662262Y-14246167D02*
X18671786Y-14265214D01*
X18671786Y-14265214D02*
X18671786Y-14284262D01*
X18671786Y-14284262D02*
X18576548Y-14303309D01*
X18747976Y-14360452D02*
X18767024Y-14369976D01*
X18767024Y-14369976D02*
X18805119Y-14369976D01*
X18805119Y-14369976D02*
X18824167Y-14360452D01*
X18824167Y-14360452D02*
X18833691Y-14341405D01*
X18833691Y-14341405D02*
X18833691Y-14331881D01*
X18833691Y-14331881D02*
X18824167Y-14312833D01*
X18824167Y-14312833D02*
X18805119Y-14303309D01*
X18805119Y-14303309D02*
X18776548Y-14303309D01*
X18776548Y-14303309D02*
X18757500Y-14293786D01*
X18757500Y-14293786D02*
X18747976Y-14274738D01*
X18747976Y-14274738D02*
X18747976Y-14265214D01*
X18747976Y-14265214D02*
X18757500Y-14246167D01*
X18757500Y-14246167D02*
X18776548Y-14236643D01*
X18776548Y-14236643D02*
X18805119Y-14236643D01*
X18805119Y-14236643D02*
X18824167Y-14246167D01*
X18900357Y-14446167D02*
X18909881Y-14436643D01*
X18909881Y-14436643D02*
X18928929Y-14408071D01*
X18928929Y-14408071D02*
X18938453Y-14389024D01*
X18938453Y-14389024D02*
X18947976Y-14360452D01*
X18947976Y-14360452D02*
X18957500Y-14312833D01*
X18957500Y-14312833D02*
X18957500Y-14274738D01*
X18957500Y-14274738D02*
X18947976Y-14227119D01*
X18947976Y-14227119D02*
X18938453Y-14198548D01*
X18938453Y-14198548D02*
X18928929Y-14179500D01*
X18928929Y-14179500D02*
X18909881Y-14150928D01*
X18909881Y-14150928D02*
X18900357Y-14141405D01*
M02*
