G04 #@! TF.GenerationSoftware,KiCad,Pcbnew,(7.0.0-0)*
G04 #@! TF.CreationDate,2025-08-17T10:04:58+12:00*
G04 #@! TF.ProjectId,signal_panelized_X4,7369676e-616c-45f7-9061-6e656c697a65,rev?*
G04 #@! TF.SameCoordinates,Original*
G04 #@! TF.FileFunction,Soldermask,Bot*
G04 #@! TF.FilePolarity,Negative*
%FSLAX46Y46*%
G04 Gerber Fmt 4.6, Leading zero omitted, Abs format (unit mm)*
G04 Created by KiCad (PCBNEW (7.0.0-0)) date 2025-08-17 10:04:58*
%MOMM*%
%LPD*%
G01*
G04 APERTURE LIST*
G04 Aperture macros list*
%AMRoundRect*
0 Rectangle with rounded corners*
0 $1 Rounding radius*
0 $2 $3 $4 $5 $6 $7 $8 $9 X,Y pos of 4 corners*
0 Add a 4 corners polygon primitive as box body*
4,1,4,$2,$3,$4,$5,$6,$7,$8,$9,$2,$3,0*
0 Add four circle primitives for the rounded corners*
1,1,$1+$1,$2,$3*
1,1,$1+$1,$4,$5*
1,1,$1+$1,$6,$7*
1,1,$1+$1,$8,$9*
0 Add four rect primitives between the rounded corners*
20,1,$1+$1,$2,$3,$4,$5,0*
20,1,$1+$1,$4,$5,$6,$7,0*
20,1,$1+$1,$6,$7,$8,$9,0*
20,1,$1+$1,$8,$9,$2,$3,0*%
G04 Aperture macros list end*
G04 #@! TA.AperFunction,Profile*
%ADD10C,0.150000*%
G04 #@! TD*
%ADD11C,1.900000*%
%ADD12RoundRect,0.425000X-0.375000X-1.375000X0.375000X-1.375000X0.375000X1.375000X-0.375000X1.375000X0*%
%ADD13C,0.600000*%
%ADD14C,1.252000*%
G04 APERTURE END LIST*
D10*
X156050036Y-126850003D02*
G75*
G03*
X156050036Y-128850001I-19J-999999D01*
G01*
X152050000Y-128849998D02*
G75*
G03*
X152050000Y-126850002I20J999998D01*
G01*
X173449964Y-61049997D02*
G75*
G03*
X173449964Y-59049999I19J999999D01*
G01*
X177450000Y-59050002D02*
G75*
G03*
X177450000Y-61049998I-20J-999998D01*
G01*
X152049964Y-98449997D02*
G75*
G03*
X152049964Y-96449999I19J999999D01*
G01*
X156050000Y-96450002D02*
G75*
G03*
X156050000Y-98449998I-20J-999998D01*
G01*
X177450036Y-89450003D02*
G75*
G03*
X177450036Y-91450001I-19J-999999D01*
G01*
X173450000Y-91449998D02*
G75*
G03*
X173450000Y-89450002I20J999998D01*
G01*
X177450036Y-126850003D02*
G75*
G03*
X177450036Y-128850001I-19J-999999D01*
G01*
X173450000Y-128849998D02*
G75*
G03*
X173450000Y-126850002I20J999998D01*
G01*
X173449964Y-98449997D02*
G75*
G03*
X173449964Y-96449999I19J999999D01*
G01*
X177450000Y-96450002D02*
G75*
G03*
X177450000Y-98449998I-20J-999998D01*
G01*
X152049964Y-61049997D02*
G75*
G03*
X152049964Y-59049999I19J999999D01*
G01*
X156050000Y-59050002D02*
G75*
G03*
X156050000Y-61049998I-20J-999998D01*
G01*
X156050036Y-89450003D02*
G75*
G03*
X156050036Y-91450001I-19J-999999D01*
G01*
X152050000Y-91449998D02*
G75*
G03*
X152050000Y-89450002I20J999998D01*
G01*
D11*
X174120000Y-123850000D03*
X171580000Y-123850000D03*
X176780000Y-102250000D03*
X179320000Y-102250000D03*
D12*
X176700000Y-119200000D03*
X174200000Y-119200000D03*
D11*
X176780000Y-123850000D03*
X179320000Y-123850000D03*
X155380000Y-123850000D03*
X157920000Y-123850000D03*
X155380000Y-102250000D03*
X157920000Y-102250000D03*
X152720000Y-123850000D03*
X150180000Y-123850000D03*
D12*
X155300000Y-119200000D03*
X152800000Y-119200000D03*
D13*
X141100000Y-61050000D03*
X141850000Y-61050000D03*
X142600000Y-61050000D03*
X143350000Y-61050000D03*
X144100000Y-61050000D03*
X144850000Y-61050000D03*
X145600000Y-61050000D03*
X155550000Y-126850000D03*
X154800000Y-126850002D03*
X154050018Y-126850002D03*
X153300000Y-126850002D03*
X152550000Y-126850002D03*
D14*
X143350000Y-131350000D03*
D13*
X183900000Y-126850000D03*
X184650000Y-126850000D03*
X185400000Y-126850000D03*
X186150000Y-126850000D03*
X186900000Y-126850000D03*
X187650000Y-126850000D03*
X188400000Y-126850000D03*
D14*
X143350000Y-56550000D03*
D13*
X173950000Y-61050000D03*
X174700000Y-61049998D03*
X175449982Y-61049998D03*
X176200000Y-61049998D03*
X176950000Y-61049998D03*
X152550000Y-98450000D03*
X153300000Y-98449998D03*
X154049982Y-98449998D03*
X154800000Y-98449998D03*
X155550000Y-98449998D03*
D14*
X186150000Y-93950000D03*
D13*
X176950000Y-89450000D03*
X176200000Y-89450002D03*
X175450018Y-89450002D03*
X174700000Y-89450002D03*
X173950000Y-89450002D03*
X176950000Y-126850000D03*
X176200000Y-126850002D03*
X175450018Y-126850002D03*
X174700000Y-126850002D03*
X173950000Y-126850002D03*
X173950000Y-98450000D03*
X174700000Y-98449998D03*
X175449982Y-98449998D03*
X176200000Y-98449998D03*
X176950000Y-98449998D03*
X141100000Y-126850000D03*
X141850000Y-126850000D03*
X142600000Y-126850000D03*
X143350000Y-126850000D03*
X144100000Y-126850000D03*
X144850000Y-126850000D03*
X145600000Y-126850000D03*
X152550000Y-61050000D03*
X153300000Y-61049998D03*
X154049982Y-61049998D03*
X154800000Y-61049998D03*
X155550000Y-61049998D03*
X183900000Y-61050000D03*
X184650000Y-61050000D03*
X185400000Y-61050000D03*
X186150000Y-61050000D03*
X186900000Y-61050000D03*
X187650000Y-61050000D03*
X188400000Y-61050000D03*
X155550000Y-89450000D03*
X154800000Y-89450002D03*
X154050018Y-89450002D03*
X153300000Y-89450002D03*
X152550000Y-89450002D03*
D12*
X176700000Y-81800000D03*
X174200000Y-81800000D03*
D11*
X176780000Y-64850000D03*
X179320000Y-64850000D03*
X176780000Y-86450000D03*
X179320000Y-86450000D03*
X174120000Y-86450000D03*
X171580000Y-86450000D03*
D12*
X155300000Y-81800000D03*
X152800000Y-81800000D03*
D11*
X152720000Y-86450000D03*
X150180000Y-86450000D03*
X155380000Y-64850000D03*
X157920000Y-64850000D03*
X155380000Y-86450000D03*
X157920000Y-86450000D03*
G36*
X175210615Y-126675990D02*
G01*
X175210555Y-126677878D01*
X175170018Y-126748089D01*
X175152049Y-126850002D01*
X175170018Y-126951914D01*
X175210555Y-127022124D01*
X175210615Y-127024012D01*
X175209076Y-127025108D01*
X175207312Y-127024434D01*
X175197229Y-127012798D01*
X175196921Y-127012319D01*
X175188831Y-126994603D01*
X175142543Y-126941184D01*
X175075009Y-126921354D01*
X175007474Y-126941184D01*
X174961186Y-126994603D01*
X174953096Y-127012319D01*
X174952788Y-127012798D01*
X174942707Y-127024431D01*
X174940943Y-127025105D01*
X174939404Y-127024009D01*
X174939464Y-127022121D01*
X174979999Y-126951914D01*
X174997968Y-126850002D01*
X174979999Y-126748089D01*
X174939464Y-126677882D01*
X174939404Y-126675994D01*
X174940943Y-126674898D01*
X174942708Y-126675572D01*
X174952788Y-126687205D01*
X174953095Y-126687684D01*
X174961186Y-126705400D01*
X175007475Y-126758819D01*
X175075009Y-126778648D01*
X175142542Y-126758819D01*
X175188831Y-126705400D01*
X175196922Y-126687684D01*
X175197229Y-126687205D01*
X175207311Y-126675568D01*
X175209076Y-126674894D01*
X175210615Y-126675990D01*
G37*
G36*
X153810615Y-126675990D02*
G01*
X153810555Y-126677878D01*
X153770018Y-126748089D01*
X153752049Y-126850002D01*
X153770018Y-126951914D01*
X153810555Y-127022124D01*
X153810615Y-127024012D01*
X153809076Y-127025108D01*
X153807312Y-127024434D01*
X153797229Y-127012798D01*
X153796921Y-127012319D01*
X153788831Y-126994603D01*
X153742543Y-126941184D01*
X153675009Y-126921354D01*
X153607474Y-126941184D01*
X153561186Y-126994603D01*
X153553096Y-127012319D01*
X153552788Y-127012798D01*
X153542707Y-127024431D01*
X153540943Y-127025105D01*
X153539404Y-127024009D01*
X153539464Y-127022121D01*
X153579999Y-126951914D01*
X153597968Y-126850002D01*
X153579999Y-126748089D01*
X153539464Y-126677882D01*
X153539404Y-126675994D01*
X153540943Y-126674898D01*
X153542708Y-126675572D01*
X153552788Y-126687205D01*
X153553095Y-126687684D01*
X153561186Y-126705400D01*
X153607475Y-126758819D01*
X153675009Y-126778648D01*
X153742542Y-126758819D01*
X153788831Y-126705400D01*
X153796922Y-126687684D01*
X153797229Y-126687205D01*
X153807311Y-126675568D01*
X153809076Y-126674894D01*
X153810615Y-126675990D01*
G37*
G36*
X175960597Y-126675990D02*
G01*
X175960537Y-126677878D01*
X175920000Y-126748089D01*
X175902031Y-126850002D01*
X175920000Y-126951914D01*
X175960536Y-127022122D01*
X175960596Y-127024010D01*
X175959057Y-127025106D01*
X175957293Y-127024432D01*
X175947211Y-127012797D01*
X175946903Y-127012318D01*
X175938807Y-126994591D01*
X175904101Y-126949582D01*
X175853309Y-126924609D01*
X175796709Y-126924609D01*
X175745916Y-126949582D01*
X175711210Y-126994591D01*
X175703114Y-127012318D01*
X175702806Y-127012797D01*
X175692726Y-127024428D01*
X175690962Y-127025102D01*
X175689423Y-127024006D01*
X175689483Y-127022118D01*
X175730017Y-126951914D01*
X175747986Y-126850002D01*
X175730017Y-126748089D01*
X175689482Y-126677882D01*
X175689422Y-126675994D01*
X175690961Y-126674898D01*
X175692725Y-126675572D01*
X175702806Y-126687206D01*
X175703114Y-126687685D01*
X175711186Y-126705360D01*
X175757475Y-126758780D01*
X175825009Y-126778609D01*
X175892542Y-126758780D01*
X175938831Y-126705360D01*
X175946903Y-126687685D01*
X175947210Y-126687206D01*
X175957293Y-126675568D01*
X175959058Y-126674894D01*
X175960597Y-126675990D01*
G37*
G36*
X174460598Y-126675990D02*
G01*
X174460538Y-126677878D01*
X174420000Y-126748089D01*
X174402031Y-126850002D01*
X174420000Y-126951914D01*
X174460536Y-127022122D01*
X174460596Y-127024010D01*
X174459057Y-127025106D01*
X174457293Y-127024432D01*
X174447211Y-127012797D01*
X174446903Y-127012318D01*
X174438823Y-126994625D01*
X174392532Y-126941203D01*
X174325000Y-126921374D01*
X174257467Y-126941203D01*
X174211176Y-126994625D01*
X174203096Y-127012318D01*
X174202788Y-127012797D01*
X174192708Y-127024428D01*
X174190944Y-127025102D01*
X174189405Y-127024006D01*
X174189465Y-127022118D01*
X174229999Y-126951914D01*
X174247968Y-126850002D01*
X174229999Y-126748089D01*
X174189463Y-126677881D01*
X174189403Y-126675993D01*
X174190942Y-126674897D01*
X174192706Y-126675571D01*
X174202789Y-126687207D01*
X174203097Y-126687686D01*
X174211178Y-126705380D01*
X174257466Y-126758799D01*
X174324999Y-126778628D01*
X174392533Y-126758799D01*
X174438821Y-126705380D01*
X174446902Y-126687686D01*
X174447209Y-126687207D01*
X174457294Y-126675568D01*
X174459059Y-126674894D01*
X174460598Y-126675990D01*
G37*
G36*
X154560597Y-126675990D02*
G01*
X154560537Y-126677878D01*
X154520000Y-126748089D01*
X154502031Y-126850002D01*
X154520000Y-126951914D01*
X154560536Y-127022122D01*
X154560596Y-127024010D01*
X154559057Y-127025106D01*
X154557293Y-127024432D01*
X154547211Y-127012797D01*
X154546903Y-127012318D01*
X154538807Y-126994591D01*
X154504101Y-126949582D01*
X154453309Y-126924609D01*
X154396709Y-126924609D01*
X154345916Y-126949582D01*
X154311210Y-126994591D01*
X154303114Y-127012318D01*
X154302806Y-127012797D01*
X154292726Y-127024428D01*
X154290962Y-127025102D01*
X154289423Y-127024006D01*
X154289483Y-127022118D01*
X154330017Y-126951914D01*
X154347986Y-126850002D01*
X154330017Y-126748089D01*
X154289482Y-126677882D01*
X154289422Y-126675994D01*
X154290961Y-126674898D01*
X154292725Y-126675572D01*
X154302806Y-126687206D01*
X154303114Y-126687685D01*
X154311186Y-126705360D01*
X154357475Y-126758780D01*
X154425009Y-126778609D01*
X154492542Y-126758780D01*
X154538831Y-126705360D01*
X154546903Y-126687685D01*
X154547210Y-126687206D01*
X154557293Y-126675568D01*
X154559058Y-126674894D01*
X154560597Y-126675990D01*
G37*
G36*
X153060598Y-126675990D02*
G01*
X153060538Y-126677878D01*
X153020000Y-126748089D01*
X153002031Y-126850002D01*
X153020000Y-126951914D01*
X153060536Y-127022122D01*
X153060596Y-127024010D01*
X153059057Y-127025106D01*
X153057293Y-127024432D01*
X153047211Y-127012797D01*
X153046903Y-127012318D01*
X153038823Y-126994625D01*
X152992532Y-126941203D01*
X152925000Y-126921374D01*
X152857467Y-126941203D01*
X152811176Y-126994625D01*
X152803096Y-127012318D01*
X152802788Y-127012797D01*
X152792708Y-127024428D01*
X152790944Y-127025102D01*
X152789405Y-127024006D01*
X152789465Y-127022118D01*
X152829999Y-126951914D01*
X152847968Y-126850002D01*
X152829999Y-126748089D01*
X152789463Y-126677881D01*
X152789403Y-126675993D01*
X152790942Y-126674897D01*
X152792706Y-126675571D01*
X152802789Y-126687207D01*
X152803097Y-126687686D01*
X152811178Y-126705380D01*
X152857466Y-126758799D01*
X152924999Y-126778628D01*
X152992533Y-126758799D01*
X153038821Y-126705380D01*
X153046902Y-126687686D01*
X153047209Y-126687207D01*
X153057294Y-126675568D01*
X153059059Y-126674894D01*
X153060598Y-126675990D01*
G37*
G36*
X188160598Y-126675988D02*
G01*
X188160538Y-126677876D01*
X188120000Y-126748087D01*
X188102031Y-126849999D01*
X188120000Y-126951912D01*
X188160536Y-127022120D01*
X188160596Y-127024008D01*
X188159057Y-127025104D01*
X188157293Y-127024430D01*
X188147211Y-127012795D01*
X188146903Y-127012316D01*
X188138823Y-126994623D01*
X188092532Y-126941201D01*
X188025000Y-126921372D01*
X187957467Y-126941201D01*
X187911176Y-126994623D01*
X187903096Y-127012316D01*
X187902788Y-127012795D01*
X187892708Y-127024426D01*
X187890944Y-127025100D01*
X187889405Y-127024004D01*
X187889465Y-127022116D01*
X187929999Y-126951912D01*
X187947968Y-126849999D01*
X187929999Y-126748087D01*
X187889463Y-126677879D01*
X187889403Y-126675991D01*
X187890942Y-126674895D01*
X187892706Y-126675569D01*
X187902789Y-126687205D01*
X187903097Y-126687684D01*
X187911178Y-126705378D01*
X187957466Y-126758797D01*
X188024999Y-126778626D01*
X188092533Y-126758797D01*
X188138821Y-126705378D01*
X188146902Y-126687684D01*
X188147209Y-126687205D01*
X188157294Y-126675566D01*
X188159059Y-126674892D01*
X188160598Y-126675988D01*
G37*
G36*
X187410598Y-126675988D02*
G01*
X187410538Y-126677876D01*
X187370000Y-126748087D01*
X187352031Y-126849999D01*
X187370000Y-126951912D01*
X187410536Y-127022120D01*
X187410596Y-127024008D01*
X187409057Y-127025104D01*
X187407293Y-127024430D01*
X187397211Y-127012795D01*
X187396903Y-127012316D01*
X187388823Y-126994623D01*
X187342532Y-126941201D01*
X187275000Y-126921372D01*
X187207467Y-126941201D01*
X187161176Y-126994623D01*
X187153096Y-127012316D01*
X187152788Y-127012795D01*
X187142708Y-127024426D01*
X187140944Y-127025100D01*
X187139405Y-127024004D01*
X187139465Y-127022116D01*
X187179999Y-126951912D01*
X187197968Y-126849999D01*
X187179999Y-126748087D01*
X187139463Y-126677879D01*
X187139403Y-126675991D01*
X187140942Y-126674895D01*
X187142706Y-126675569D01*
X187152789Y-126687205D01*
X187153097Y-126687684D01*
X187161178Y-126705378D01*
X187207466Y-126758797D01*
X187274999Y-126778626D01*
X187342533Y-126758797D01*
X187388821Y-126705378D01*
X187396902Y-126687684D01*
X187397209Y-126687205D01*
X187407294Y-126675566D01*
X187409059Y-126674892D01*
X187410598Y-126675988D01*
G37*
G36*
X186660598Y-126675988D02*
G01*
X186660538Y-126677876D01*
X186620000Y-126748087D01*
X186602031Y-126849999D01*
X186620000Y-126951912D01*
X186660536Y-127022120D01*
X186660596Y-127024008D01*
X186659057Y-127025104D01*
X186657293Y-127024430D01*
X186647211Y-127012795D01*
X186646903Y-127012316D01*
X186638823Y-126994623D01*
X186592532Y-126941201D01*
X186525000Y-126921372D01*
X186457467Y-126941201D01*
X186411176Y-126994623D01*
X186403096Y-127012316D01*
X186402788Y-127012795D01*
X186392708Y-127024426D01*
X186390944Y-127025100D01*
X186389405Y-127024004D01*
X186389465Y-127022116D01*
X186429999Y-126951912D01*
X186447968Y-126849999D01*
X186429999Y-126748087D01*
X186389463Y-126677879D01*
X186389403Y-126675991D01*
X186390942Y-126674895D01*
X186392706Y-126675569D01*
X186402789Y-126687205D01*
X186403097Y-126687684D01*
X186411178Y-126705378D01*
X186457466Y-126758797D01*
X186524999Y-126778626D01*
X186592533Y-126758797D01*
X186638821Y-126705378D01*
X186646902Y-126687684D01*
X186647209Y-126687205D01*
X186657294Y-126675566D01*
X186659059Y-126674892D01*
X186660598Y-126675988D01*
G37*
G36*
X185910598Y-126675988D02*
G01*
X185910538Y-126677876D01*
X185870000Y-126748087D01*
X185852031Y-126849999D01*
X185870000Y-126951912D01*
X185910536Y-127022120D01*
X185910596Y-127024008D01*
X185909057Y-127025104D01*
X185907293Y-127024430D01*
X185897211Y-127012795D01*
X185896903Y-127012316D01*
X185888823Y-126994623D01*
X185842532Y-126941201D01*
X185775000Y-126921372D01*
X185707467Y-126941201D01*
X185661176Y-126994623D01*
X185653096Y-127012316D01*
X185652788Y-127012795D01*
X185642708Y-127024426D01*
X185640944Y-127025100D01*
X185639405Y-127024004D01*
X185639465Y-127022116D01*
X185679999Y-126951912D01*
X185697968Y-126849999D01*
X185679999Y-126748087D01*
X185639463Y-126677879D01*
X185639403Y-126675991D01*
X185640942Y-126674895D01*
X185642706Y-126675569D01*
X185652789Y-126687205D01*
X185653097Y-126687684D01*
X185661178Y-126705378D01*
X185707466Y-126758797D01*
X185774999Y-126778626D01*
X185842533Y-126758797D01*
X185888821Y-126705378D01*
X185896902Y-126687684D01*
X185897209Y-126687205D01*
X185907294Y-126675566D01*
X185909059Y-126674892D01*
X185910598Y-126675988D01*
G37*
G36*
X185160598Y-126675988D02*
G01*
X185160538Y-126677876D01*
X185120000Y-126748087D01*
X185102031Y-126849999D01*
X185120000Y-126951912D01*
X185160536Y-127022120D01*
X185160596Y-127024008D01*
X185159057Y-127025104D01*
X185157293Y-127024430D01*
X185147211Y-127012795D01*
X185146903Y-127012316D01*
X185138823Y-126994623D01*
X185092532Y-126941201D01*
X185025000Y-126921372D01*
X184957467Y-126941201D01*
X184911176Y-126994623D01*
X184903096Y-127012316D01*
X184902788Y-127012795D01*
X184892708Y-127024426D01*
X184890944Y-127025100D01*
X184889405Y-127024004D01*
X184889465Y-127022116D01*
X184929999Y-126951912D01*
X184947968Y-126849999D01*
X184929999Y-126748087D01*
X184889463Y-126677879D01*
X184889403Y-126675991D01*
X184890942Y-126674895D01*
X184892706Y-126675569D01*
X184902789Y-126687205D01*
X184903097Y-126687684D01*
X184911178Y-126705378D01*
X184957466Y-126758797D01*
X185024999Y-126778626D01*
X185092533Y-126758797D01*
X185138821Y-126705378D01*
X185146902Y-126687684D01*
X185147209Y-126687205D01*
X185157294Y-126675566D01*
X185159059Y-126674892D01*
X185160598Y-126675988D01*
G37*
G36*
X184410598Y-126675988D02*
G01*
X184410538Y-126677876D01*
X184370000Y-126748087D01*
X184352031Y-126849999D01*
X184370000Y-126951912D01*
X184410536Y-127022120D01*
X184410596Y-127024008D01*
X184409057Y-127025104D01*
X184407293Y-127024430D01*
X184397211Y-127012795D01*
X184396903Y-127012316D01*
X184388823Y-126994623D01*
X184342532Y-126941201D01*
X184275000Y-126921372D01*
X184207467Y-126941201D01*
X184161176Y-126994623D01*
X184153096Y-127012316D01*
X184152788Y-127012795D01*
X184142708Y-127024426D01*
X184140944Y-127025100D01*
X184139405Y-127024004D01*
X184139465Y-127022116D01*
X184179999Y-126951912D01*
X184197968Y-126849999D01*
X184179999Y-126748087D01*
X184139463Y-126677879D01*
X184139403Y-126675991D01*
X184140942Y-126674895D01*
X184142706Y-126675569D01*
X184152789Y-126687205D01*
X184153097Y-126687684D01*
X184161178Y-126705378D01*
X184207466Y-126758797D01*
X184274999Y-126778626D01*
X184342533Y-126758797D01*
X184388821Y-126705378D01*
X184396902Y-126687684D01*
X184397209Y-126687205D01*
X184407294Y-126675566D01*
X184409059Y-126674892D01*
X184410598Y-126675988D01*
G37*
G36*
X176710597Y-126675988D02*
G01*
X176710537Y-126677876D01*
X176670000Y-126748087D01*
X176652031Y-126849999D01*
X176670000Y-126951912D01*
X176710536Y-127022120D01*
X176710596Y-127024008D01*
X176709057Y-127025104D01*
X176707293Y-127024430D01*
X176697210Y-127012794D01*
X176696902Y-127012315D01*
X176688821Y-126994621D01*
X176642532Y-126941202D01*
X176574999Y-126921373D01*
X176507466Y-126941203D01*
X176461175Y-126994625D01*
X176453094Y-127012320D01*
X176452786Y-127012799D01*
X176442709Y-127024428D01*
X176440945Y-127025102D01*
X176439406Y-127024006D01*
X176439466Y-127022118D01*
X176479999Y-126951914D01*
X176497968Y-126850002D01*
X176479999Y-126748089D01*
X176439462Y-126677879D01*
X176439402Y-126675991D01*
X176440941Y-126674895D01*
X176442705Y-126675569D01*
X176452788Y-126687205D01*
X176453096Y-126687684D01*
X176461176Y-126705378D01*
X176507464Y-126758797D01*
X176574997Y-126778627D01*
X176642531Y-126758799D01*
X176688820Y-126705381D01*
X176696903Y-126687683D01*
X176697210Y-126687204D01*
X176707293Y-126675566D01*
X176709058Y-126674892D01*
X176710597Y-126675988D01*
G37*
G36*
X155310597Y-126675988D02*
G01*
X155310537Y-126677876D01*
X155270000Y-126748087D01*
X155252031Y-126849999D01*
X155270000Y-126951912D01*
X155310536Y-127022120D01*
X155310596Y-127024008D01*
X155309057Y-127025104D01*
X155307293Y-127024430D01*
X155297210Y-127012794D01*
X155296902Y-127012315D01*
X155288821Y-126994621D01*
X155242532Y-126941202D01*
X155174999Y-126921373D01*
X155107466Y-126941203D01*
X155061175Y-126994625D01*
X155053094Y-127012320D01*
X155052786Y-127012799D01*
X155042709Y-127024428D01*
X155040945Y-127025102D01*
X155039406Y-127024006D01*
X155039466Y-127022118D01*
X155079999Y-126951914D01*
X155097968Y-126850002D01*
X155079999Y-126748089D01*
X155039462Y-126677879D01*
X155039402Y-126675991D01*
X155040941Y-126674895D01*
X155042705Y-126675569D01*
X155052788Y-126687205D01*
X155053096Y-126687684D01*
X155061176Y-126705378D01*
X155107464Y-126758797D01*
X155174997Y-126778627D01*
X155242531Y-126758799D01*
X155288820Y-126705381D01*
X155296903Y-126687683D01*
X155297210Y-126687204D01*
X155307293Y-126675566D01*
X155309058Y-126674892D01*
X155310597Y-126675988D01*
G37*
G36*
X145360598Y-126675988D02*
G01*
X145360538Y-126677876D01*
X145320000Y-126748087D01*
X145302031Y-126849999D01*
X145320000Y-126951912D01*
X145360536Y-127022120D01*
X145360596Y-127024008D01*
X145359057Y-127025104D01*
X145357293Y-127024430D01*
X145347211Y-127012795D01*
X145346903Y-127012316D01*
X145338823Y-126994623D01*
X145292532Y-126941201D01*
X145225000Y-126921372D01*
X145157467Y-126941201D01*
X145111176Y-126994623D01*
X145103096Y-127012316D01*
X145102788Y-127012795D01*
X145092708Y-127024426D01*
X145090944Y-127025100D01*
X145089405Y-127024004D01*
X145089465Y-127022116D01*
X145129999Y-126951912D01*
X145147968Y-126849999D01*
X145129999Y-126748087D01*
X145089463Y-126677879D01*
X145089403Y-126675991D01*
X145090942Y-126674895D01*
X145092706Y-126675569D01*
X145102789Y-126687205D01*
X145103097Y-126687684D01*
X145111178Y-126705378D01*
X145157466Y-126758797D01*
X145224999Y-126778626D01*
X145292533Y-126758797D01*
X145338821Y-126705378D01*
X145346902Y-126687684D01*
X145347209Y-126687205D01*
X145357294Y-126675566D01*
X145359059Y-126674892D01*
X145360598Y-126675988D01*
G37*
G36*
X144610598Y-126675988D02*
G01*
X144610538Y-126677876D01*
X144570000Y-126748087D01*
X144552031Y-126849999D01*
X144570000Y-126951912D01*
X144610536Y-127022120D01*
X144610596Y-127024008D01*
X144609057Y-127025104D01*
X144607293Y-127024430D01*
X144597211Y-127012795D01*
X144596903Y-127012316D01*
X144588823Y-126994623D01*
X144542532Y-126941201D01*
X144475000Y-126921372D01*
X144407467Y-126941201D01*
X144361176Y-126994623D01*
X144353096Y-127012316D01*
X144352788Y-127012795D01*
X144342708Y-127024426D01*
X144340944Y-127025100D01*
X144339405Y-127024004D01*
X144339465Y-127022116D01*
X144379999Y-126951912D01*
X144397968Y-126849999D01*
X144379999Y-126748087D01*
X144339463Y-126677879D01*
X144339403Y-126675991D01*
X144340942Y-126674895D01*
X144342706Y-126675569D01*
X144352789Y-126687205D01*
X144353097Y-126687684D01*
X144361178Y-126705378D01*
X144407466Y-126758797D01*
X144474999Y-126778626D01*
X144542533Y-126758797D01*
X144588821Y-126705378D01*
X144596902Y-126687684D01*
X144597209Y-126687205D01*
X144607294Y-126675566D01*
X144609059Y-126674892D01*
X144610598Y-126675988D01*
G37*
G36*
X143860598Y-126675988D02*
G01*
X143860538Y-126677876D01*
X143820000Y-126748087D01*
X143802031Y-126849999D01*
X143820000Y-126951912D01*
X143860536Y-127022120D01*
X143860596Y-127024008D01*
X143859057Y-127025104D01*
X143857293Y-127024430D01*
X143847211Y-127012795D01*
X143846903Y-127012316D01*
X143838823Y-126994623D01*
X143792532Y-126941201D01*
X143725000Y-126921372D01*
X143657467Y-126941201D01*
X143611176Y-126994623D01*
X143603096Y-127012316D01*
X143602788Y-127012795D01*
X143592708Y-127024426D01*
X143590944Y-127025100D01*
X143589405Y-127024004D01*
X143589465Y-127022116D01*
X143629999Y-126951912D01*
X143647968Y-126849999D01*
X143629999Y-126748087D01*
X143589463Y-126677879D01*
X143589403Y-126675991D01*
X143590942Y-126674895D01*
X143592706Y-126675569D01*
X143602789Y-126687205D01*
X143603097Y-126687684D01*
X143611178Y-126705378D01*
X143657466Y-126758797D01*
X143724999Y-126778626D01*
X143792533Y-126758797D01*
X143838821Y-126705378D01*
X143846902Y-126687684D01*
X143847209Y-126687205D01*
X143857294Y-126675566D01*
X143859059Y-126674892D01*
X143860598Y-126675988D01*
G37*
G36*
X143110598Y-126675988D02*
G01*
X143110538Y-126677876D01*
X143070000Y-126748087D01*
X143052031Y-126849999D01*
X143070000Y-126951912D01*
X143110536Y-127022120D01*
X143110596Y-127024008D01*
X143109057Y-127025104D01*
X143107293Y-127024430D01*
X143097211Y-127012795D01*
X143096903Y-127012316D01*
X143088823Y-126994623D01*
X143042532Y-126941201D01*
X142975000Y-126921372D01*
X142907467Y-126941201D01*
X142861176Y-126994623D01*
X142853096Y-127012316D01*
X142852788Y-127012795D01*
X142842708Y-127024426D01*
X142840944Y-127025100D01*
X142839405Y-127024004D01*
X142839465Y-127022116D01*
X142879999Y-126951912D01*
X142897968Y-126849999D01*
X142879999Y-126748087D01*
X142839463Y-126677879D01*
X142839403Y-126675991D01*
X142840942Y-126674895D01*
X142842706Y-126675569D01*
X142852789Y-126687205D01*
X142853097Y-126687684D01*
X142861178Y-126705378D01*
X142907466Y-126758797D01*
X142974999Y-126778626D01*
X143042533Y-126758797D01*
X143088821Y-126705378D01*
X143096902Y-126687684D01*
X143097209Y-126687205D01*
X143107294Y-126675566D01*
X143109059Y-126674892D01*
X143110598Y-126675988D01*
G37*
G36*
X142360598Y-126675988D02*
G01*
X142360538Y-126677876D01*
X142320000Y-126748087D01*
X142302031Y-126849999D01*
X142320000Y-126951912D01*
X142360536Y-127022120D01*
X142360596Y-127024008D01*
X142359057Y-127025104D01*
X142357293Y-127024430D01*
X142347211Y-127012795D01*
X142346903Y-127012316D01*
X142338823Y-126994623D01*
X142292532Y-126941201D01*
X142225000Y-126921372D01*
X142157467Y-126941201D01*
X142111176Y-126994623D01*
X142103096Y-127012316D01*
X142102788Y-127012795D01*
X142092708Y-127024426D01*
X142090944Y-127025100D01*
X142089405Y-127024004D01*
X142089465Y-127022116D01*
X142129999Y-126951912D01*
X142147968Y-126849999D01*
X142129999Y-126748087D01*
X142089463Y-126677879D01*
X142089403Y-126675991D01*
X142090942Y-126674895D01*
X142092706Y-126675569D01*
X142102789Y-126687205D01*
X142103097Y-126687684D01*
X142111178Y-126705378D01*
X142157466Y-126758797D01*
X142224999Y-126778626D01*
X142292533Y-126758797D01*
X142338821Y-126705378D01*
X142346902Y-126687684D01*
X142347209Y-126687205D01*
X142357294Y-126675566D01*
X142359059Y-126674892D01*
X142360598Y-126675988D01*
G37*
G36*
X141610598Y-126675988D02*
G01*
X141610538Y-126677876D01*
X141570000Y-126748087D01*
X141552031Y-126849999D01*
X141570000Y-126951912D01*
X141610536Y-127022120D01*
X141610596Y-127024008D01*
X141609057Y-127025104D01*
X141607293Y-127024430D01*
X141597211Y-127012795D01*
X141596903Y-127012316D01*
X141588823Y-126994623D01*
X141542532Y-126941201D01*
X141475000Y-126921372D01*
X141407467Y-126941201D01*
X141361176Y-126994623D01*
X141353096Y-127012316D01*
X141352788Y-127012795D01*
X141342708Y-127024426D01*
X141340944Y-127025100D01*
X141339405Y-127024004D01*
X141339465Y-127022116D01*
X141379999Y-126951912D01*
X141397968Y-126849999D01*
X141379999Y-126748087D01*
X141339463Y-126677879D01*
X141339403Y-126675991D01*
X141340942Y-126674895D01*
X141342706Y-126675569D01*
X141352789Y-126687205D01*
X141353097Y-126687684D01*
X141361178Y-126705378D01*
X141407466Y-126758797D01*
X141474999Y-126778626D01*
X141542533Y-126758797D01*
X141588821Y-126705378D01*
X141596902Y-126687684D01*
X141597209Y-126687205D01*
X141607294Y-126675566D01*
X141609059Y-126674892D01*
X141610598Y-126675988D01*
G37*
G36*
X175960597Y-98275986D02*
G01*
X175960537Y-98277874D01*
X175920000Y-98348085D01*
X175902031Y-98449997D01*
X175920000Y-98551910D01*
X175960537Y-98622120D01*
X175960597Y-98624008D01*
X175959058Y-98625104D01*
X175957294Y-98624430D01*
X175947211Y-98612794D01*
X175946903Y-98612315D01*
X175938813Y-98594599D01*
X175892525Y-98541180D01*
X175824991Y-98521350D01*
X175757456Y-98541180D01*
X175711168Y-98594599D01*
X175703078Y-98612315D01*
X175702770Y-98612794D01*
X175692689Y-98624427D01*
X175690925Y-98625101D01*
X175689386Y-98624005D01*
X175689446Y-98622117D01*
X175729981Y-98551910D01*
X175747950Y-98449997D01*
X175729981Y-98348085D01*
X175689446Y-98277878D01*
X175689386Y-98275990D01*
X175690925Y-98274894D01*
X175692690Y-98275568D01*
X175702770Y-98287201D01*
X175703077Y-98287680D01*
X175711168Y-98305396D01*
X175757457Y-98358815D01*
X175824991Y-98378644D01*
X175892524Y-98358815D01*
X175938813Y-98305396D01*
X175946904Y-98287680D01*
X175947211Y-98287201D01*
X175957293Y-98275564D01*
X175959058Y-98274890D01*
X175960597Y-98275986D01*
G37*
G36*
X154560597Y-98275986D02*
G01*
X154560537Y-98277874D01*
X154520000Y-98348085D01*
X154502031Y-98449997D01*
X154520000Y-98551910D01*
X154560537Y-98622120D01*
X154560597Y-98624008D01*
X154559058Y-98625104D01*
X154557294Y-98624430D01*
X154547211Y-98612794D01*
X154546903Y-98612315D01*
X154538813Y-98594599D01*
X154492525Y-98541180D01*
X154424991Y-98521350D01*
X154357456Y-98541180D01*
X154311168Y-98594599D01*
X154303078Y-98612315D01*
X154302770Y-98612794D01*
X154292689Y-98624427D01*
X154290925Y-98625101D01*
X154289386Y-98624005D01*
X154289446Y-98622117D01*
X154329981Y-98551910D01*
X154347950Y-98449997D01*
X154329981Y-98348085D01*
X154289446Y-98277878D01*
X154289386Y-98275990D01*
X154290925Y-98274894D01*
X154292690Y-98275568D01*
X154302770Y-98287201D01*
X154303077Y-98287680D01*
X154311168Y-98305396D01*
X154357457Y-98358815D01*
X154424991Y-98378644D01*
X154492524Y-98358815D01*
X154538813Y-98305396D01*
X154546904Y-98287680D01*
X154547211Y-98287201D01*
X154557293Y-98275564D01*
X154559058Y-98274890D01*
X154560597Y-98275986D01*
G37*
G36*
X176710598Y-98275986D02*
G01*
X176710538Y-98277874D01*
X176670000Y-98348085D01*
X176652031Y-98449997D01*
X176670000Y-98551910D01*
X176710536Y-98622118D01*
X176710596Y-98624006D01*
X176709057Y-98625102D01*
X176707293Y-98624428D01*
X176697211Y-98612793D01*
X176696903Y-98612314D01*
X176688823Y-98594621D01*
X176642532Y-98541199D01*
X176575000Y-98521370D01*
X176507467Y-98541199D01*
X176461176Y-98594621D01*
X176453096Y-98612314D01*
X176452788Y-98612793D01*
X176442708Y-98624424D01*
X176440944Y-98625098D01*
X176439405Y-98624002D01*
X176439465Y-98622114D01*
X176479999Y-98551910D01*
X176497968Y-98449997D01*
X176479999Y-98348085D01*
X176439463Y-98277877D01*
X176439403Y-98275989D01*
X176440942Y-98274893D01*
X176442706Y-98275567D01*
X176452789Y-98287203D01*
X176453097Y-98287682D01*
X176461178Y-98305376D01*
X176507466Y-98358795D01*
X176575000Y-98378624D01*
X176642533Y-98358795D01*
X176688821Y-98305376D01*
X176696902Y-98287682D01*
X176697209Y-98287203D01*
X176707294Y-98275564D01*
X176709059Y-98274890D01*
X176710598Y-98275986D01*
G37*
G36*
X175210579Y-98275986D02*
G01*
X175210519Y-98277874D01*
X175169982Y-98348085D01*
X175152013Y-98449997D01*
X175169982Y-98551910D01*
X175210518Y-98622118D01*
X175210578Y-98624006D01*
X175209039Y-98625102D01*
X175207275Y-98624428D01*
X175197193Y-98612793D01*
X175196885Y-98612314D01*
X175188789Y-98594587D01*
X175154083Y-98549578D01*
X175103291Y-98524605D01*
X175046691Y-98524605D01*
X174995898Y-98549578D01*
X174961192Y-98594587D01*
X174953096Y-98612314D01*
X174952788Y-98612793D01*
X174942708Y-98624424D01*
X174940944Y-98625098D01*
X174939405Y-98624002D01*
X174939465Y-98622114D01*
X174979999Y-98551910D01*
X174997968Y-98449997D01*
X174979999Y-98348085D01*
X174939464Y-98277878D01*
X174939404Y-98275990D01*
X174940943Y-98274894D01*
X174942707Y-98275568D01*
X174952788Y-98287202D01*
X174953096Y-98287681D01*
X174961168Y-98305356D01*
X175007457Y-98358776D01*
X175074991Y-98378605D01*
X175142524Y-98358776D01*
X175188813Y-98305356D01*
X175196885Y-98287681D01*
X175197192Y-98287202D01*
X175207275Y-98275564D01*
X175209040Y-98274890D01*
X175210579Y-98275986D01*
G37*
G36*
X174460597Y-98275986D02*
G01*
X174460537Y-98277874D01*
X174420000Y-98348085D01*
X174402031Y-98449997D01*
X174420000Y-98551910D01*
X174460536Y-98622118D01*
X174460596Y-98624006D01*
X174459057Y-98625102D01*
X174457293Y-98624428D01*
X174447210Y-98612792D01*
X174446902Y-98612313D01*
X174438821Y-98594619D01*
X174392532Y-98541200D01*
X174324999Y-98521371D01*
X174257466Y-98541201D01*
X174211175Y-98594623D01*
X174203094Y-98612318D01*
X174202786Y-98612797D01*
X174192709Y-98624426D01*
X174190945Y-98625100D01*
X174189406Y-98624004D01*
X174189466Y-98622116D01*
X174229999Y-98551912D01*
X174247968Y-98450000D01*
X174229999Y-98348087D01*
X174189462Y-98277877D01*
X174189402Y-98275989D01*
X174190941Y-98274893D01*
X174192705Y-98275567D01*
X174202788Y-98287203D01*
X174203096Y-98287682D01*
X174211176Y-98305376D01*
X174257464Y-98358795D01*
X174324997Y-98378625D01*
X174392531Y-98358797D01*
X174438820Y-98305379D01*
X174446903Y-98287681D01*
X174447210Y-98287202D01*
X174457293Y-98275564D01*
X174459058Y-98274890D01*
X174460597Y-98275986D01*
G37*
G36*
X155310598Y-98275986D02*
G01*
X155310538Y-98277874D01*
X155270000Y-98348085D01*
X155252031Y-98449997D01*
X155270000Y-98551910D01*
X155310536Y-98622118D01*
X155310596Y-98624006D01*
X155309057Y-98625102D01*
X155307293Y-98624428D01*
X155297211Y-98612793D01*
X155296903Y-98612314D01*
X155288823Y-98594621D01*
X155242532Y-98541199D01*
X155175000Y-98521370D01*
X155107467Y-98541199D01*
X155061176Y-98594621D01*
X155053096Y-98612314D01*
X155052788Y-98612793D01*
X155042708Y-98624424D01*
X155040944Y-98625098D01*
X155039405Y-98624002D01*
X155039465Y-98622114D01*
X155079999Y-98551910D01*
X155097968Y-98449997D01*
X155079999Y-98348085D01*
X155039463Y-98277877D01*
X155039403Y-98275989D01*
X155040942Y-98274893D01*
X155042706Y-98275567D01*
X155052789Y-98287203D01*
X155053097Y-98287682D01*
X155061178Y-98305376D01*
X155107466Y-98358795D01*
X155175000Y-98378624D01*
X155242533Y-98358795D01*
X155288821Y-98305376D01*
X155296902Y-98287682D01*
X155297209Y-98287203D01*
X155307294Y-98275564D01*
X155309059Y-98274890D01*
X155310598Y-98275986D01*
G37*
G36*
X153810579Y-98275986D02*
G01*
X153810519Y-98277874D01*
X153769982Y-98348085D01*
X153752013Y-98449997D01*
X153769982Y-98551910D01*
X153810518Y-98622118D01*
X153810578Y-98624006D01*
X153809039Y-98625102D01*
X153807275Y-98624428D01*
X153797193Y-98612793D01*
X153796885Y-98612314D01*
X153788789Y-98594587D01*
X153754083Y-98549578D01*
X153703291Y-98524605D01*
X153646691Y-98524605D01*
X153595898Y-98549578D01*
X153561192Y-98594587D01*
X153553096Y-98612314D01*
X153552788Y-98612793D01*
X153542708Y-98624424D01*
X153540944Y-98625098D01*
X153539405Y-98624002D01*
X153539465Y-98622114D01*
X153579999Y-98551910D01*
X153597968Y-98449997D01*
X153579999Y-98348085D01*
X153539464Y-98277878D01*
X153539404Y-98275990D01*
X153540943Y-98274894D01*
X153542707Y-98275568D01*
X153552788Y-98287202D01*
X153553096Y-98287681D01*
X153561168Y-98305356D01*
X153607457Y-98358776D01*
X153674991Y-98378605D01*
X153742524Y-98358776D01*
X153788813Y-98305356D01*
X153796885Y-98287681D01*
X153797192Y-98287202D01*
X153807275Y-98275564D01*
X153809040Y-98274890D01*
X153810579Y-98275986D01*
G37*
G36*
X153060597Y-98275986D02*
G01*
X153060537Y-98277874D01*
X153020000Y-98348085D01*
X153002031Y-98449997D01*
X153020000Y-98551910D01*
X153060536Y-98622118D01*
X153060596Y-98624006D01*
X153059057Y-98625102D01*
X153057293Y-98624428D01*
X153047210Y-98612792D01*
X153046902Y-98612313D01*
X153038821Y-98594619D01*
X152992532Y-98541200D01*
X152924999Y-98521371D01*
X152857466Y-98541201D01*
X152811175Y-98594623D01*
X152803094Y-98612318D01*
X152802786Y-98612797D01*
X152792709Y-98624426D01*
X152790945Y-98625100D01*
X152789406Y-98624004D01*
X152789466Y-98622116D01*
X152829999Y-98551912D01*
X152847968Y-98450000D01*
X152829999Y-98348087D01*
X152789462Y-98277877D01*
X152789402Y-98275989D01*
X152790941Y-98274893D01*
X152792705Y-98275567D01*
X152802788Y-98287203D01*
X152803096Y-98287682D01*
X152811176Y-98305376D01*
X152857464Y-98358795D01*
X152924997Y-98378625D01*
X152992531Y-98358797D01*
X153038820Y-98305379D01*
X153046903Y-98287681D01*
X153047210Y-98287202D01*
X153057293Y-98275564D01*
X153059058Y-98274890D01*
X153060597Y-98275986D01*
G37*
G36*
X175210615Y-89275990D02*
G01*
X175210555Y-89277878D01*
X175170018Y-89348089D01*
X175152049Y-89450002D01*
X175170018Y-89551914D01*
X175210555Y-89622124D01*
X175210615Y-89624012D01*
X175209076Y-89625108D01*
X175207312Y-89624434D01*
X175197229Y-89612798D01*
X175196921Y-89612319D01*
X175188831Y-89594603D01*
X175142543Y-89541184D01*
X175075009Y-89521354D01*
X175007474Y-89541184D01*
X174961186Y-89594603D01*
X174953096Y-89612319D01*
X174952788Y-89612798D01*
X174942707Y-89624431D01*
X174940943Y-89625105D01*
X174939404Y-89624009D01*
X174939464Y-89622121D01*
X174979999Y-89551914D01*
X174997968Y-89450002D01*
X174979999Y-89348089D01*
X174939464Y-89277882D01*
X174939404Y-89275994D01*
X174940943Y-89274898D01*
X174942708Y-89275572D01*
X174952788Y-89287205D01*
X174953095Y-89287684D01*
X174961186Y-89305400D01*
X175007475Y-89358819D01*
X175075009Y-89378648D01*
X175142542Y-89358819D01*
X175188831Y-89305400D01*
X175196922Y-89287684D01*
X175197229Y-89287205D01*
X175207311Y-89275568D01*
X175209076Y-89274894D01*
X175210615Y-89275990D01*
G37*
G36*
X153810615Y-89275990D02*
G01*
X153810555Y-89277878D01*
X153770018Y-89348089D01*
X153752049Y-89450002D01*
X153770018Y-89551914D01*
X153810555Y-89622124D01*
X153810615Y-89624012D01*
X153809076Y-89625108D01*
X153807312Y-89624434D01*
X153797229Y-89612798D01*
X153796921Y-89612319D01*
X153788831Y-89594603D01*
X153742543Y-89541184D01*
X153675009Y-89521354D01*
X153607474Y-89541184D01*
X153561186Y-89594603D01*
X153553096Y-89612319D01*
X153552788Y-89612798D01*
X153542707Y-89624431D01*
X153540943Y-89625105D01*
X153539404Y-89624009D01*
X153539464Y-89622121D01*
X153579999Y-89551914D01*
X153597968Y-89450002D01*
X153579999Y-89348089D01*
X153539464Y-89277882D01*
X153539404Y-89275994D01*
X153540943Y-89274898D01*
X153542708Y-89275572D01*
X153552788Y-89287205D01*
X153553095Y-89287684D01*
X153561186Y-89305400D01*
X153607475Y-89358819D01*
X153675009Y-89378648D01*
X153742542Y-89358819D01*
X153788831Y-89305400D01*
X153796922Y-89287684D01*
X153797229Y-89287205D01*
X153807311Y-89275568D01*
X153809076Y-89274894D01*
X153810615Y-89275990D01*
G37*
G36*
X175960597Y-89275990D02*
G01*
X175960537Y-89277878D01*
X175920000Y-89348089D01*
X175902031Y-89450002D01*
X175920000Y-89551914D01*
X175960536Y-89622122D01*
X175960596Y-89624010D01*
X175959057Y-89625106D01*
X175957293Y-89624432D01*
X175947211Y-89612797D01*
X175946903Y-89612318D01*
X175938807Y-89594591D01*
X175904101Y-89549582D01*
X175853309Y-89524609D01*
X175796709Y-89524609D01*
X175745916Y-89549582D01*
X175711210Y-89594591D01*
X175703114Y-89612318D01*
X175702806Y-89612797D01*
X175692726Y-89624428D01*
X175690962Y-89625102D01*
X175689423Y-89624006D01*
X175689483Y-89622118D01*
X175730017Y-89551914D01*
X175747986Y-89450002D01*
X175730017Y-89348089D01*
X175689482Y-89277882D01*
X175689422Y-89275994D01*
X175690961Y-89274898D01*
X175692725Y-89275572D01*
X175702806Y-89287206D01*
X175703114Y-89287685D01*
X175711186Y-89305360D01*
X175757475Y-89358780D01*
X175825009Y-89378609D01*
X175892542Y-89358780D01*
X175938831Y-89305360D01*
X175946903Y-89287685D01*
X175947210Y-89287206D01*
X175957293Y-89275568D01*
X175959058Y-89274894D01*
X175960597Y-89275990D01*
G37*
G36*
X174460598Y-89275990D02*
G01*
X174460538Y-89277878D01*
X174420000Y-89348089D01*
X174402031Y-89450002D01*
X174420000Y-89551914D01*
X174460536Y-89622122D01*
X174460596Y-89624010D01*
X174459057Y-89625106D01*
X174457293Y-89624432D01*
X174447211Y-89612797D01*
X174446903Y-89612318D01*
X174438823Y-89594625D01*
X174392532Y-89541203D01*
X174325000Y-89521374D01*
X174257467Y-89541203D01*
X174211176Y-89594625D01*
X174203096Y-89612318D01*
X174202788Y-89612797D01*
X174192708Y-89624428D01*
X174190944Y-89625102D01*
X174189405Y-89624006D01*
X174189465Y-89622118D01*
X174229999Y-89551914D01*
X174247968Y-89450002D01*
X174229999Y-89348089D01*
X174189463Y-89277881D01*
X174189403Y-89275993D01*
X174190942Y-89274897D01*
X174192706Y-89275571D01*
X174202789Y-89287207D01*
X174203097Y-89287686D01*
X174211178Y-89305380D01*
X174257466Y-89358799D01*
X174325000Y-89378628D01*
X174392533Y-89358799D01*
X174438821Y-89305380D01*
X174446902Y-89287686D01*
X174447209Y-89287207D01*
X174457294Y-89275568D01*
X174459059Y-89274894D01*
X174460598Y-89275990D01*
G37*
G36*
X154560597Y-89275990D02*
G01*
X154560537Y-89277878D01*
X154520000Y-89348089D01*
X154502031Y-89450002D01*
X154520000Y-89551914D01*
X154560536Y-89622122D01*
X154560596Y-89624010D01*
X154559057Y-89625106D01*
X154557293Y-89624432D01*
X154547211Y-89612797D01*
X154546903Y-89612318D01*
X154538807Y-89594591D01*
X154504101Y-89549582D01*
X154453309Y-89524609D01*
X154396709Y-89524609D01*
X154345916Y-89549582D01*
X154311210Y-89594591D01*
X154303114Y-89612318D01*
X154302806Y-89612797D01*
X154292726Y-89624428D01*
X154290962Y-89625102D01*
X154289423Y-89624006D01*
X154289483Y-89622118D01*
X154330017Y-89551914D01*
X154347986Y-89450002D01*
X154330017Y-89348089D01*
X154289482Y-89277882D01*
X154289422Y-89275994D01*
X154290961Y-89274898D01*
X154292725Y-89275572D01*
X154302806Y-89287206D01*
X154303114Y-89287685D01*
X154311186Y-89305360D01*
X154357475Y-89358780D01*
X154425009Y-89378609D01*
X154492542Y-89358780D01*
X154538831Y-89305360D01*
X154546903Y-89287685D01*
X154547210Y-89287206D01*
X154557293Y-89275568D01*
X154559058Y-89274894D01*
X154560597Y-89275990D01*
G37*
G36*
X153060598Y-89275990D02*
G01*
X153060538Y-89277878D01*
X153020000Y-89348089D01*
X153002031Y-89450002D01*
X153020000Y-89551914D01*
X153060536Y-89622122D01*
X153060596Y-89624010D01*
X153059057Y-89625106D01*
X153057293Y-89624432D01*
X153047211Y-89612797D01*
X153046903Y-89612318D01*
X153038823Y-89594625D01*
X152992532Y-89541203D01*
X152925000Y-89521374D01*
X152857467Y-89541203D01*
X152811176Y-89594625D01*
X152803096Y-89612318D01*
X152802788Y-89612797D01*
X152792708Y-89624428D01*
X152790944Y-89625102D01*
X152789405Y-89624006D01*
X152789465Y-89622118D01*
X152829999Y-89551914D01*
X152847968Y-89450002D01*
X152829999Y-89348089D01*
X152789463Y-89277881D01*
X152789403Y-89275993D01*
X152790942Y-89274897D01*
X152792706Y-89275571D01*
X152802789Y-89287207D01*
X152803097Y-89287686D01*
X152811178Y-89305380D01*
X152857466Y-89358799D01*
X152925000Y-89378628D01*
X152992533Y-89358799D01*
X153038821Y-89305380D01*
X153046902Y-89287686D01*
X153047209Y-89287207D01*
X153057294Y-89275568D01*
X153059059Y-89274894D01*
X153060598Y-89275990D01*
G37*
G36*
X176710597Y-89275988D02*
G01*
X176710537Y-89277876D01*
X176670000Y-89348087D01*
X176652031Y-89449999D01*
X176670000Y-89551912D01*
X176710536Y-89622120D01*
X176710596Y-89624008D01*
X176709057Y-89625104D01*
X176707293Y-89624430D01*
X176697210Y-89612794D01*
X176696902Y-89612315D01*
X176688821Y-89594621D01*
X176642532Y-89541202D01*
X176574999Y-89521373D01*
X176507466Y-89541203D01*
X176461175Y-89594625D01*
X176453094Y-89612320D01*
X176452786Y-89612799D01*
X176442709Y-89624428D01*
X176440945Y-89625102D01*
X176439406Y-89624006D01*
X176439466Y-89622118D01*
X176479999Y-89551914D01*
X176497968Y-89450002D01*
X176479999Y-89348089D01*
X176439462Y-89277879D01*
X176439402Y-89275991D01*
X176440941Y-89274895D01*
X176442705Y-89275569D01*
X176452788Y-89287205D01*
X176453096Y-89287684D01*
X176461176Y-89305378D01*
X176507464Y-89358797D01*
X176574997Y-89378627D01*
X176642531Y-89358799D01*
X176688820Y-89305381D01*
X176696903Y-89287683D01*
X176697210Y-89287204D01*
X176707293Y-89275566D01*
X176709058Y-89274892D01*
X176710597Y-89275988D01*
G37*
G36*
X155310597Y-89275988D02*
G01*
X155310537Y-89277876D01*
X155270000Y-89348087D01*
X155252031Y-89449999D01*
X155270000Y-89551912D01*
X155310536Y-89622120D01*
X155310596Y-89624008D01*
X155309057Y-89625104D01*
X155307293Y-89624430D01*
X155297210Y-89612794D01*
X155296902Y-89612315D01*
X155288821Y-89594621D01*
X155242532Y-89541202D01*
X155174999Y-89521373D01*
X155107466Y-89541203D01*
X155061175Y-89594625D01*
X155053094Y-89612320D01*
X155052786Y-89612799D01*
X155042709Y-89624428D01*
X155040945Y-89625102D01*
X155039406Y-89624006D01*
X155039466Y-89622118D01*
X155079999Y-89551914D01*
X155097968Y-89450002D01*
X155079999Y-89348089D01*
X155039462Y-89277879D01*
X155039402Y-89275991D01*
X155040941Y-89274895D01*
X155042705Y-89275569D01*
X155052788Y-89287205D01*
X155053096Y-89287684D01*
X155061176Y-89305378D01*
X155107464Y-89358797D01*
X155174997Y-89378627D01*
X155242531Y-89358799D01*
X155288820Y-89305381D01*
X155296903Y-89287683D01*
X155297210Y-89287204D01*
X155307293Y-89275566D01*
X155309058Y-89274892D01*
X155310597Y-89275988D01*
G37*
G36*
X188160598Y-60875988D02*
G01*
X188160538Y-60877876D01*
X188120000Y-60948087D01*
X188102031Y-61049999D01*
X188120000Y-61151912D01*
X188160536Y-61222120D01*
X188160596Y-61224008D01*
X188159057Y-61225104D01*
X188157293Y-61224430D01*
X188147211Y-61212795D01*
X188146903Y-61212316D01*
X188138823Y-61194623D01*
X188092532Y-61141201D01*
X188025000Y-61121372D01*
X187957467Y-61141201D01*
X187911176Y-61194623D01*
X187903096Y-61212316D01*
X187902788Y-61212795D01*
X187892708Y-61224426D01*
X187890944Y-61225100D01*
X187889405Y-61224004D01*
X187889465Y-61222116D01*
X187929999Y-61151912D01*
X187947968Y-61049999D01*
X187929999Y-60948087D01*
X187889463Y-60877879D01*
X187889403Y-60875991D01*
X187890942Y-60874895D01*
X187892706Y-60875569D01*
X187902789Y-60887205D01*
X187903097Y-60887684D01*
X187911178Y-60905378D01*
X187957466Y-60958797D01*
X188025000Y-60978626D01*
X188092533Y-60958797D01*
X188138821Y-60905378D01*
X188146902Y-60887684D01*
X188147209Y-60887205D01*
X188157294Y-60875566D01*
X188159059Y-60874892D01*
X188160598Y-60875988D01*
G37*
G36*
X187410598Y-60875988D02*
G01*
X187410538Y-60877876D01*
X187370000Y-60948087D01*
X187352031Y-61049999D01*
X187370000Y-61151912D01*
X187410536Y-61222120D01*
X187410596Y-61224008D01*
X187409057Y-61225104D01*
X187407293Y-61224430D01*
X187397211Y-61212795D01*
X187396903Y-61212316D01*
X187388823Y-61194623D01*
X187342532Y-61141201D01*
X187275000Y-61121372D01*
X187207467Y-61141201D01*
X187161176Y-61194623D01*
X187153096Y-61212316D01*
X187152788Y-61212795D01*
X187142708Y-61224426D01*
X187140944Y-61225100D01*
X187139405Y-61224004D01*
X187139465Y-61222116D01*
X187179999Y-61151912D01*
X187197968Y-61049999D01*
X187179999Y-60948087D01*
X187139463Y-60877879D01*
X187139403Y-60875991D01*
X187140942Y-60874895D01*
X187142706Y-60875569D01*
X187152789Y-60887205D01*
X187153097Y-60887684D01*
X187161178Y-60905378D01*
X187207466Y-60958797D01*
X187275000Y-60978626D01*
X187342533Y-60958797D01*
X187388821Y-60905378D01*
X187396902Y-60887684D01*
X187397209Y-60887205D01*
X187407294Y-60875566D01*
X187409059Y-60874892D01*
X187410598Y-60875988D01*
G37*
G36*
X186660598Y-60875988D02*
G01*
X186660538Y-60877876D01*
X186620000Y-60948087D01*
X186602031Y-61049999D01*
X186620000Y-61151912D01*
X186660536Y-61222120D01*
X186660596Y-61224008D01*
X186659057Y-61225104D01*
X186657293Y-61224430D01*
X186647211Y-61212795D01*
X186646903Y-61212316D01*
X186638823Y-61194623D01*
X186592532Y-61141201D01*
X186525000Y-61121372D01*
X186457467Y-61141201D01*
X186411176Y-61194623D01*
X186403096Y-61212316D01*
X186402788Y-61212795D01*
X186392708Y-61224426D01*
X186390944Y-61225100D01*
X186389405Y-61224004D01*
X186389465Y-61222116D01*
X186429999Y-61151912D01*
X186447968Y-61049999D01*
X186429999Y-60948087D01*
X186389463Y-60877879D01*
X186389403Y-60875991D01*
X186390942Y-60874895D01*
X186392706Y-60875569D01*
X186402789Y-60887205D01*
X186403097Y-60887684D01*
X186411178Y-60905378D01*
X186457466Y-60958797D01*
X186525000Y-60978626D01*
X186592533Y-60958797D01*
X186638821Y-60905378D01*
X186646902Y-60887684D01*
X186647209Y-60887205D01*
X186657294Y-60875566D01*
X186659059Y-60874892D01*
X186660598Y-60875988D01*
G37*
G36*
X185910598Y-60875988D02*
G01*
X185910538Y-60877876D01*
X185870000Y-60948087D01*
X185852031Y-61049999D01*
X185870000Y-61151912D01*
X185910536Y-61222120D01*
X185910596Y-61224008D01*
X185909057Y-61225104D01*
X185907293Y-61224430D01*
X185897211Y-61212795D01*
X185896903Y-61212316D01*
X185888823Y-61194623D01*
X185842532Y-61141201D01*
X185775000Y-61121372D01*
X185707467Y-61141201D01*
X185661176Y-61194623D01*
X185653096Y-61212316D01*
X185652788Y-61212795D01*
X185642708Y-61224426D01*
X185640944Y-61225100D01*
X185639405Y-61224004D01*
X185639465Y-61222116D01*
X185679999Y-61151912D01*
X185697968Y-61049999D01*
X185679999Y-60948087D01*
X185639463Y-60877879D01*
X185639403Y-60875991D01*
X185640942Y-60874895D01*
X185642706Y-60875569D01*
X185652789Y-60887205D01*
X185653097Y-60887684D01*
X185661178Y-60905378D01*
X185707466Y-60958797D01*
X185775000Y-60978626D01*
X185842533Y-60958797D01*
X185888821Y-60905378D01*
X185896902Y-60887684D01*
X185897209Y-60887205D01*
X185907294Y-60875566D01*
X185909059Y-60874892D01*
X185910598Y-60875988D01*
G37*
G36*
X185160598Y-60875988D02*
G01*
X185160538Y-60877876D01*
X185120000Y-60948087D01*
X185102031Y-61049999D01*
X185120000Y-61151912D01*
X185160536Y-61222120D01*
X185160596Y-61224008D01*
X185159057Y-61225104D01*
X185157293Y-61224430D01*
X185147211Y-61212795D01*
X185146903Y-61212316D01*
X185138823Y-61194623D01*
X185092532Y-61141201D01*
X185025000Y-61121372D01*
X184957467Y-61141201D01*
X184911176Y-61194623D01*
X184903096Y-61212316D01*
X184902788Y-61212795D01*
X184892708Y-61224426D01*
X184890944Y-61225100D01*
X184889405Y-61224004D01*
X184889465Y-61222116D01*
X184929999Y-61151912D01*
X184947968Y-61049999D01*
X184929999Y-60948087D01*
X184889463Y-60877879D01*
X184889403Y-60875991D01*
X184890942Y-60874895D01*
X184892706Y-60875569D01*
X184902789Y-60887205D01*
X184903097Y-60887684D01*
X184911178Y-60905378D01*
X184957466Y-60958797D01*
X185025000Y-60978626D01*
X185092533Y-60958797D01*
X185138821Y-60905378D01*
X185146902Y-60887684D01*
X185147209Y-60887205D01*
X185157294Y-60875566D01*
X185159059Y-60874892D01*
X185160598Y-60875988D01*
G37*
G36*
X184410598Y-60875988D02*
G01*
X184410538Y-60877876D01*
X184370000Y-60948087D01*
X184352031Y-61049999D01*
X184370000Y-61151912D01*
X184410536Y-61222120D01*
X184410596Y-61224008D01*
X184409057Y-61225104D01*
X184407293Y-61224430D01*
X184397211Y-61212795D01*
X184396903Y-61212316D01*
X184388823Y-61194623D01*
X184342532Y-61141201D01*
X184275000Y-61121372D01*
X184207467Y-61141201D01*
X184161176Y-61194623D01*
X184153096Y-61212316D01*
X184152788Y-61212795D01*
X184142708Y-61224426D01*
X184140944Y-61225100D01*
X184139405Y-61224004D01*
X184139465Y-61222116D01*
X184179999Y-61151912D01*
X184197968Y-61049999D01*
X184179999Y-60948087D01*
X184139463Y-60877879D01*
X184139403Y-60875991D01*
X184140942Y-60874895D01*
X184142706Y-60875569D01*
X184152789Y-60887205D01*
X184153097Y-60887684D01*
X184161178Y-60905378D01*
X184207466Y-60958797D01*
X184275000Y-60978626D01*
X184342533Y-60958797D01*
X184388821Y-60905378D01*
X184396902Y-60887684D01*
X184397209Y-60887205D01*
X184407294Y-60875566D01*
X184409059Y-60874892D01*
X184410598Y-60875988D01*
G37*
G36*
X175960597Y-60875986D02*
G01*
X175960537Y-60877874D01*
X175920000Y-60948085D01*
X175902031Y-61049997D01*
X175920000Y-61151910D01*
X175960537Y-61222120D01*
X175960597Y-61224008D01*
X175959058Y-61225104D01*
X175957294Y-61224430D01*
X175947211Y-61212794D01*
X175946903Y-61212315D01*
X175938813Y-61194599D01*
X175892525Y-61141180D01*
X175824991Y-61121350D01*
X175757456Y-61141180D01*
X175711168Y-61194599D01*
X175703078Y-61212315D01*
X175702770Y-61212794D01*
X175692689Y-61224427D01*
X175690925Y-61225101D01*
X175689386Y-61224005D01*
X175689446Y-61222117D01*
X175729981Y-61151910D01*
X175747950Y-61049997D01*
X175729981Y-60948085D01*
X175689446Y-60877878D01*
X175689386Y-60875990D01*
X175690925Y-60874894D01*
X175692690Y-60875568D01*
X175702770Y-60887201D01*
X175703077Y-60887680D01*
X175711168Y-60905396D01*
X175757457Y-60958815D01*
X175824991Y-60978644D01*
X175892524Y-60958815D01*
X175938813Y-60905396D01*
X175946904Y-60887680D01*
X175947211Y-60887201D01*
X175957293Y-60875564D01*
X175959058Y-60874890D01*
X175960597Y-60875986D01*
G37*
G36*
X154560597Y-60875986D02*
G01*
X154560537Y-60877874D01*
X154520000Y-60948085D01*
X154502031Y-61049997D01*
X154520000Y-61151910D01*
X154560537Y-61222120D01*
X154560597Y-61224008D01*
X154559058Y-61225104D01*
X154557294Y-61224430D01*
X154547211Y-61212794D01*
X154546903Y-61212315D01*
X154538813Y-61194599D01*
X154492525Y-61141180D01*
X154424991Y-61121350D01*
X154357456Y-61141180D01*
X154311168Y-61194599D01*
X154303078Y-61212315D01*
X154302770Y-61212794D01*
X154292689Y-61224427D01*
X154290925Y-61225101D01*
X154289386Y-61224005D01*
X154289446Y-61222117D01*
X154329981Y-61151910D01*
X154347950Y-61049997D01*
X154329981Y-60948085D01*
X154289446Y-60877878D01*
X154289386Y-60875990D01*
X154290925Y-60874894D01*
X154292690Y-60875568D01*
X154302770Y-60887201D01*
X154303077Y-60887680D01*
X154311168Y-60905396D01*
X154357457Y-60958815D01*
X154424991Y-60978644D01*
X154492524Y-60958815D01*
X154538813Y-60905396D01*
X154546904Y-60887680D01*
X154547211Y-60887201D01*
X154557293Y-60875564D01*
X154559058Y-60874890D01*
X154560597Y-60875986D01*
G37*
G36*
X145360598Y-60875988D02*
G01*
X145360538Y-60877876D01*
X145320000Y-60948087D01*
X145302031Y-61049999D01*
X145320000Y-61151912D01*
X145360536Y-61222120D01*
X145360596Y-61224008D01*
X145359057Y-61225104D01*
X145357293Y-61224430D01*
X145347211Y-61212795D01*
X145346903Y-61212316D01*
X145338823Y-61194623D01*
X145292532Y-61141201D01*
X145225000Y-61121372D01*
X145157467Y-61141201D01*
X145111176Y-61194623D01*
X145103096Y-61212316D01*
X145102788Y-61212795D01*
X145092708Y-61224426D01*
X145090944Y-61225100D01*
X145089405Y-61224004D01*
X145089465Y-61222116D01*
X145129999Y-61151912D01*
X145147968Y-61049999D01*
X145129999Y-60948087D01*
X145089463Y-60877879D01*
X145089403Y-60875991D01*
X145090942Y-60874895D01*
X145092706Y-60875569D01*
X145102789Y-60887205D01*
X145103097Y-60887684D01*
X145111178Y-60905378D01*
X145157466Y-60958797D01*
X145225000Y-60978626D01*
X145292533Y-60958797D01*
X145338821Y-60905378D01*
X145346902Y-60887684D01*
X145347209Y-60887205D01*
X145357294Y-60875566D01*
X145359059Y-60874892D01*
X145360598Y-60875988D01*
G37*
G36*
X144610598Y-60875988D02*
G01*
X144610538Y-60877876D01*
X144570000Y-60948087D01*
X144552031Y-61049999D01*
X144570000Y-61151912D01*
X144610536Y-61222120D01*
X144610596Y-61224008D01*
X144609057Y-61225104D01*
X144607293Y-61224430D01*
X144597211Y-61212795D01*
X144596903Y-61212316D01*
X144588823Y-61194623D01*
X144542532Y-61141201D01*
X144475000Y-61121372D01*
X144407467Y-61141201D01*
X144361176Y-61194623D01*
X144353096Y-61212316D01*
X144352788Y-61212795D01*
X144342708Y-61224426D01*
X144340944Y-61225100D01*
X144339405Y-61224004D01*
X144339465Y-61222116D01*
X144379999Y-61151912D01*
X144397968Y-61050000D01*
X144379999Y-60948087D01*
X144339463Y-60877879D01*
X144339403Y-60875991D01*
X144340942Y-60874895D01*
X144342706Y-60875569D01*
X144352789Y-60887205D01*
X144353097Y-60887684D01*
X144361178Y-60905378D01*
X144407466Y-60958797D01*
X144475000Y-60978626D01*
X144542533Y-60958797D01*
X144588821Y-60905378D01*
X144596902Y-60887684D01*
X144597209Y-60887205D01*
X144607294Y-60875566D01*
X144609059Y-60874892D01*
X144610598Y-60875988D01*
G37*
G36*
X143860598Y-60875988D02*
G01*
X143860538Y-60877876D01*
X143820000Y-60948087D01*
X143802031Y-61049999D01*
X143820000Y-61151912D01*
X143860536Y-61222120D01*
X143860596Y-61224008D01*
X143859057Y-61225104D01*
X143857293Y-61224430D01*
X143847211Y-61212795D01*
X143846903Y-61212316D01*
X143838823Y-61194623D01*
X143792532Y-61141201D01*
X143725000Y-61121372D01*
X143657467Y-61141201D01*
X143611176Y-61194623D01*
X143603096Y-61212316D01*
X143602788Y-61212795D01*
X143592708Y-61224426D01*
X143590944Y-61225100D01*
X143589405Y-61224004D01*
X143589465Y-61222116D01*
X143629999Y-61151912D01*
X143647968Y-61050000D01*
X143629999Y-60948087D01*
X143589463Y-60877879D01*
X143589403Y-60875991D01*
X143590942Y-60874895D01*
X143592706Y-60875569D01*
X143602789Y-60887205D01*
X143603097Y-60887684D01*
X143611178Y-60905378D01*
X143657466Y-60958797D01*
X143725000Y-60978626D01*
X143792533Y-60958797D01*
X143838821Y-60905378D01*
X143846902Y-60887684D01*
X143847209Y-60887205D01*
X143857294Y-60875566D01*
X143859059Y-60874892D01*
X143860598Y-60875988D01*
G37*
G36*
X143110598Y-60875988D02*
G01*
X143110538Y-60877876D01*
X143070000Y-60948087D01*
X143052031Y-61049999D01*
X143070000Y-61151912D01*
X143110536Y-61222120D01*
X143110596Y-61224008D01*
X143109057Y-61225104D01*
X143107293Y-61224430D01*
X143097211Y-61212795D01*
X143096903Y-61212316D01*
X143088823Y-61194623D01*
X143042532Y-61141201D01*
X142975000Y-61121372D01*
X142907467Y-61141201D01*
X142861176Y-61194623D01*
X142853096Y-61212316D01*
X142852788Y-61212795D01*
X142842708Y-61224426D01*
X142840944Y-61225100D01*
X142839405Y-61224004D01*
X142839465Y-61222116D01*
X142879999Y-61151912D01*
X142897968Y-61050000D01*
X142879999Y-60948087D01*
X142839463Y-60877879D01*
X142839403Y-60875991D01*
X142840942Y-60874895D01*
X142842706Y-60875569D01*
X142852789Y-60887205D01*
X142853097Y-60887684D01*
X142861178Y-60905378D01*
X142907466Y-60958797D01*
X142975000Y-60978626D01*
X143042533Y-60958797D01*
X143088821Y-60905378D01*
X143096902Y-60887684D01*
X143097209Y-60887205D01*
X143107294Y-60875566D01*
X143109059Y-60874892D01*
X143110598Y-60875988D01*
G37*
G36*
X142360598Y-60875988D02*
G01*
X142360538Y-60877876D01*
X142320000Y-60948087D01*
X142302031Y-61049999D01*
X142320000Y-61151912D01*
X142360536Y-61222120D01*
X142360596Y-61224008D01*
X142359057Y-61225104D01*
X142357293Y-61224430D01*
X142347211Y-61212795D01*
X142346903Y-61212316D01*
X142338823Y-61194623D01*
X142292532Y-61141201D01*
X142225000Y-61121372D01*
X142157467Y-61141201D01*
X142111176Y-61194623D01*
X142103096Y-61212316D01*
X142102788Y-61212795D01*
X142092708Y-61224426D01*
X142090944Y-61225100D01*
X142089405Y-61224004D01*
X142089465Y-61222116D01*
X142129999Y-61151912D01*
X142147968Y-61050000D01*
X142129999Y-60948087D01*
X142089463Y-60877879D01*
X142089403Y-60875991D01*
X142090942Y-60874895D01*
X142092706Y-60875569D01*
X142102789Y-60887205D01*
X142103097Y-60887684D01*
X142111178Y-60905378D01*
X142157466Y-60958797D01*
X142225000Y-60978626D01*
X142292533Y-60958797D01*
X142338821Y-60905378D01*
X142346902Y-60887684D01*
X142347209Y-60887205D01*
X142357294Y-60875566D01*
X142359059Y-60874892D01*
X142360598Y-60875988D01*
G37*
G36*
X141610598Y-60875988D02*
G01*
X141610538Y-60877876D01*
X141570000Y-60948087D01*
X141552031Y-61049999D01*
X141570000Y-61151912D01*
X141610536Y-61222120D01*
X141610596Y-61224008D01*
X141609057Y-61225104D01*
X141607293Y-61224430D01*
X141597211Y-61212795D01*
X141596903Y-61212316D01*
X141588823Y-61194623D01*
X141542532Y-61141201D01*
X141475000Y-61121372D01*
X141407467Y-61141201D01*
X141361176Y-61194623D01*
X141353096Y-61212316D01*
X141352788Y-61212795D01*
X141342708Y-61224426D01*
X141340944Y-61225100D01*
X141339405Y-61224004D01*
X141339465Y-61222116D01*
X141379999Y-61151912D01*
X141397968Y-61050000D01*
X141379999Y-60948087D01*
X141339463Y-60877879D01*
X141339403Y-60875991D01*
X141340942Y-60874895D01*
X141342706Y-60875569D01*
X141352789Y-60887205D01*
X141353097Y-60887684D01*
X141361178Y-60905378D01*
X141407466Y-60958797D01*
X141475000Y-60978626D01*
X141542533Y-60958797D01*
X141588821Y-60905378D01*
X141596902Y-60887684D01*
X141597209Y-60887205D01*
X141607294Y-60875566D01*
X141609059Y-60874892D01*
X141610598Y-60875988D01*
G37*
G36*
X176710598Y-60875986D02*
G01*
X176710538Y-60877874D01*
X176670000Y-60948085D01*
X176652031Y-61049997D01*
X176670000Y-61151910D01*
X176710536Y-61222118D01*
X176710596Y-61224006D01*
X176709057Y-61225102D01*
X176707293Y-61224428D01*
X176697211Y-61212793D01*
X176696903Y-61212314D01*
X176688823Y-61194621D01*
X176642532Y-61141199D01*
X176574999Y-61121370D01*
X176507467Y-61141199D01*
X176461176Y-61194621D01*
X176453096Y-61212314D01*
X176452788Y-61212793D01*
X176442708Y-61224424D01*
X176440944Y-61225098D01*
X176439405Y-61224002D01*
X176439465Y-61222114D01*
X176479999Y-61151910D01*
X176497968Y-61049997D01*
X176479999Y-60948085D01*
X176439463Y-60877877D01*
X176439403Y-60875989D01*
X176440942Y-60874893D01*
X176442706Y-60875567D01*
X176452789Y-60887203D01*
X176453097Y-60887682D01*
X176461178Y-60905376D01*
X176507466Y-60958795D01*
X176575000Y-60978624D01*
X176642533Y-60958795D01*
X176688821Y-60905376D01*
X176696902Y-60887682D01*
X176697209Y-60887203D01*
X176707294Y-60875564D01*
X176709059Y-60874890D01*
X176710598Y-60875986D01*
G37*
G36*
X175210579Y-60875986D02*
G01*
X175210519Y-60877874D01*
X175169982Y-60948085D01*
X175152013Y-61049997D01*
X175169982Y-61151910D01*
X175210518Y-61222118D01*
X175210578Y-61224006D01*
X175209039Y-61225102D01*
X175207275Y-61224428D01*
X175197193Y-61212793D01*
X175196885Y-61212314D01*
X175188789Y-61194587D01*
X175154083Y-61149578D01*
X175103291Y-61124605D01*
X175046691Y-61124605D01*
X174995898Y-61149578D01*
X174961192Y-61194587D01*
X174953096Y-61212314D01*
X174952788Y-61212793D01*
X174942708Y-61224424D01*
X174940944Y-61225098D01*
X174939405Y-61224002D01*
X174939465Y-61222114D01*
X174979999Y-61151910D01*
X174997968Y-61049997D01*
X174979999Y-60948085D01*
X174939464Y-60877878D01*
X174939404Y-60875990D01*
X174940943Y-60874894D01*
X174942707Y-60875568D01*
X174952788Y-60887202D01*
X174953096Y-60887681D01*
X174961168Y-60905356D01*
X175007457Y-60958776D01*
X175074991Y-60978605D01*
X175142524Y-60958776D01*
X175188813Y-60905356D01*
X175196885Y-60887681D01*
X175197192Y-60887202D01*
X175207275Y-60875564D01*
X175209040Y-60874890D01*
X175210579Y-60875986D01*
G37*
G36*
X174460597Y-60875986D02*
G01*
X174460537Y-60877874D01*
X174420000Y-60948085D01*
X174402031Y-61049997D01*
X174420000Y-61151910D01*
X174460536Y-61222118D01*
X174460596Y-61224006D01*
X174459057Y-61225102D01*
X174457293Y-61224428D01*
X174447210Y-61212792D01*
X174446902Y-61212313D01*
X174438821Y-61194619D01*
X174392532Y-61141200D01*
X174324999Y-61121371D01*
X174257466Y-61141201D01*
X174211175Y-61194623D01*
X174203094Y-61212318D01*
X174202786Y-61212797D01*
X174192709Y-61224426D01*
X174190945Y-61225100D01*
X174189406Y-61224004D01*
X174189466Y-61222116D01*
X174229999Y-61151912D01*
X174247968Y-61049999D01*
X174229999Y-60948087D01*
X174189462Y-60877877D01*
X174189402Y-60875989D01*
X174190941Y-60874893D01*
X174192705Y-60875567D01*
X174202788Y-60887203D01*
X174203096Y-60887682D01*
X174211176Y-60905376D01*
X174257464Y-60958795D01*
X174324997Y-60978625D01*
X174392531Y-60958797D01*
X174438820Y-60905379D01*
X174446903Y-60887681D01*
X174447210Y-60887202D01*
X174457293Y-60875564D01*
X174459058Y-60874890D01*
X174460597Y-60875986D01*
G37*
G36*
X155310598Y-60875986D02*
G01*
X155310538Y-60877874D01*
X155270000Y-60948085D01*
X155252031Y-61049997D01*
X155270000Y-61151910D01*
X155310536Y-61222118D01*
X155310596Y-61224006D01*
X155309057Y-61225102D01*
X155307293Y-61224428D01*
X155297211Y-61212793D01*
X155296903Y-61212314D01*
X155288823Y-61194621D01*
X155242532Y-61141199D01*
X155174999Y-61121370D01*
X155107467Y-61141199D01*
X155061176Y-61194621D01*
X155053096Y-61212314D01*
X155052788Y-61212793D01*
X155042708Y-61224424D01*
X155040944Y-61225098D01*
X155039405Y-61224002D01*
X155039465Y-61222114D01*
X155079999Y-61151910D01*
X155097968Y-61049997D01*
X155079999Y-60948085D01*
X155039463Y-60877877D01*
X155039403Y-60875989D01*
X155040942Y-60874893D01*
X155042706Y-60875567D01*
X155052789Y-60887203D01*
X155053097Y-60887682D01*
X155061178Y-60905376D01*
X155107466Y-60958795D01*
X155175000Y-60978624D01*
X155242533Y-60958795D01*
X155288821Y-60905376D01*
X155296902Y-60887682D01*
X155297209Y-60887203D01*
X155307294Y-60875564D01*
X155309059Y-60874890D01*
X155310598Y-60875986D01*
G37*
G36*
X153810579Y-60875986D02*
G01*
X153810519Y-60877874D01*
X153769982Y-60948085D01*
X153752013Y-61049997D01*
X153769982Y-61151910D01*
X153810518Y-61222118D01*
X153810578Y-61224006D01*
X153809039Y-61225102D01*
X153807275Y-61224428D01*
X153797193Y-61212793D01*
X153796885Y-61212314D01*
X153788789Y-61194587D01*
X153754083Y-61149578D01*
X153703291Y-61124605D01*
X153646691Y-61124605D01*
X153595898Y-61149578D01*
X153561192Y-61194587D01*
X153553096Y-61212314D01*
X153552788Y-61212793D01*
X153542708Y-61224424D01*
X153540944Y-61225098D01*
X153539405Y-61224002D01*
X153539465Y-61222114D01*
X153579999Y-61151910D01*
X153597968Y-61049997D01*
X153579999Y-60948085D01*
X153539464Y-60877878D01*
X153539404Y-60875990D01*
X153540943Y-60874894D01*
X153542707Y-60875568D01*
X153552788Y-60887202D01*
X153553096Y-60887681D01*
X153561168Y-60905356D01*
X153607457Y-60958776D01*
X153674991Y-60978605D01*
X153742524Y-60958776D01*
X153788813Y-60905356D01*
X153796885Y-60887681D01*
X153797192Y-60887202D01*
X153807275Y-60875564D01*
X153809040Y-60874890D01*
X153810579Y-60875986D01*
G37*
G36*
X153060597Y-60875986D02*
G01*
X153060537Y-60877874D01*
X153020000Y-60948085D01*
X153002031Y-61049997D01*
X153020000Y-61151910D01*
X153060536Y-61222118D01*
X153060596Y-61224006D01*
X153059057Y-61225102D01*
X153057293Y-61224428D01*
X153047210Y-61212792D01*
X153046902Y-61212313D01*
X153038821Y-61194619D01*
X152992532Y-61141200D01*
X152924999Y-61121371D01*
X152857466Y-61141201D01*
X152811175Y-61194623D01*
X152803094Y-61212318D01*
X152802786Y-61212797D01*
X152792709Y-61224426D01*
X152790945Y-61225100D01*
X152789406Y-61224004D01*
X152789466Y-61222116D01*
X152829999Y-61151912D01*
X152847968Y-61049999D01*
X152829999Y-60948087D01*
X152789462Y-60877877D01*
X152789402Y-60875989D01*
X152790941Y-60874893D01*
X152792705Y-60875567D01*
X152802788Y-60887203D01*
X152803096Y-60887682D01*
X152811176Y-60905376D01*
X152857464Y-60958795D01*
X152924997Y-60978625D01*
X152992531Y-60958797D01*
X153038820Y-60905379D01*
X153046903Y-60887681D01*
X153047210Y-60887202D01*
X153057293Y-60875564D01*
X153059058Y-60874890D01*
X153060597Y-60875986D01*
G37*
M02*
