G04 #@! TF.GenerationSoftware,KiCad,Pcbnew,(7.0.0-0)*
G04 #@! TF.CreationDate,2025-07-24T17:03:06+12:00*
G04 #@! TF.ProjectId,12V_light_panelized_X4,3132565f-6c69-4676-9874-5f70616e656c,rev?*
G04 #@! TF.SameCoordinates,Original*
G04 #@! TF.FileFunction,Profile,NP*
%FSLAX46Y46*%
G04 Gerber Fmt 4.6, Leading zero omitted, Abs format (unit mm)*
G04 Created by KiCad (PCBNEW (7.0.0-0)) date 2025-07-24 17:03:06*
%MOMM*%
%LPD*%
G01*
G04 APERTURE LIST*
G04 #@! TA.AperFunction,Profile*
%ADD10C,0.150000*%
G04 #@! TD*
G04 APERTURE END LIST*
D10*
X171600035Y-65900038D02*
X171600035Y-63000038D01*
X177899962Y-62000038D02*
G75*
G03*
X176900035Y-61000038I-999962J38D01*
G01*
X163300035Y-74000038D02*
X163300032Y-70500074D01*
X154300036Y-63000001D02*
X150000036Y-63000001D01*
X141700036Y-63000001D02*
X146000036Y-63000001D01*
X139700036Y-66500001D02*
X139700036Y-62000001D01*
X161299999Y-86500036D02*
X161300000Y-91000000D01*
X139700035Y-86500037D02*
X139700036Y-91000001D01*
X156300037Y-66499965D02*
X156300036Y-62000001D01*
X161300035Y-66500038D02*
X161300035Y-62000038D01*
X163300035Y-74000038D02*
X175900035Y-74000038D01*
X163300035Y-63000038D02*
X163300033Y-66500038D01*
X146000036Y-79000001D02*
X146000036Y-81900001D01*
X162300035Y-61000038D02*
X176900035Y-61000038D01*
X175900000Y-90000000D02*
X175900002Y-86500000D01*
X156300036Y-86500001D02*
X156300036Y-91000002D01*
X175900035Y-74000038D02*
X175900037Y-70500038D01*
X139700035Y-70500037D02*
X139700036Y-82500001D01*
X154300039Y-66499965D02*
X154300036Y-63000001D01*
X141700036Y-63000001D02*
X141700034Y-66500001D01*
X167600035Y-63000038D02*
X167600035Y-65900038D01*
X154300039Y-82499965D02*
X154300036Y-79000001D01*
X168600000Y-82900000D02*
X170600000Y-82900000D01*
X170600035Y-66900035D02*
G75*
G03*
X171600035Y-65900038I-35J1000035D01*
G01*
X150000036Y-81900001D02*
X150000036Y-79000001D01*
X163300000Y-90000000D02*
X163299997Y-86500036D01*
X175900035Y-63000038D02*
X171600035Y-63000038D01*
X163300000Y-79000000D02*
X167600000Y-79000000D01*
X176900000Y-92000000D02*
X162300000Y-92000000D01*
X139699999Y-91000001D02*
G75*
G03*
X140700036Y-92000001I1000001J1D01*
G01*
X141700036Y-74000001D02*
X154300036Y-74000001D01*
X141700036Y-74000001D02*
X141700033Y-70500037D01*
X167599962Y-65900038D02*
G75*
G03*
X168600035Y-66900038I1000038J38D01*
G01*
X168600035Y-66900038D02*
X170600035Y-66900038D01*
X155300036Y-92000036D02*
G75*
G03*
X156300036Y-91000002I-36J1000036D01*
G01*
X167600000Y-81900000D02*
G75*
G03*
X168600000Y-82900000I1000000J0D01*
G01*
X162300035Y-61000035D02*
G75*
G03*
X161300035Y-62000038I-35J-999965D01*
G01*
X175900038Y-66500002D02*
X175900035Y-63000038D01*
X145999999Y-81900001D02*
G75*
G03*
X147000036Y-82900001I1000001J1D01*
G01*
X155300036Y-92000001D02*
X140700036Y-92000001D01*
X170600000Y-82900000D02*
G75*
G03*
X171600000Y-81900000I0J1000000D01*
G01*
X154300036Y-90000001D02*
X154300038Y-86500001D01*
X177900036Y-66500002D02*
X177900035Y-62000038D01*
X177900035Y-70500038D02*
X177900001Y-82499964D01*
X163300000Y-90000000D02*
X175900000Y-90000000D01*
X175900003Y-82499964D02*
X175900000Y-79000000D01*
X154300036Y-79000001D02*
X150000036Y-79000001D01*
X156299999Y-62000001D02*
G75*
G03*
X155300036Y-61000001I-999999J1D01*
G01*
X161300000Y-82500000D02*
X161300034Y-70500074D01*
X176900000Y-92000000D02*
G75*
G03*
X177900000Y-91000001I0J1000000D01*
G01*
X156300036Y-70500001D02*
X156300037Y-82499965D01*
X171600000Y-81900000D02*
X171600000Y-79000000D01*
X134700000Y-56000000D02*
X182900000Y-56000000D01*
X182900000Y-56000000D02*
X182900000Y-97000000D01*
X182900000Y-97000000D02*
X134700000Y-97000000D01*
X134700000Y-97000000D02*
X134700000Y-56000000D01*
X177900000Y-86500000D02*
X177900000Y-91000001D01*
X140700036Y-61000036D02*
G75*
G03*
X139700036Y-62000001I-36J-999964D01*
G01*
X145999999Y-65900001D02*
G75*
G03*
X147000036Y-66900001I1000001J1D01*
G01*
X140700036Y-61000001D02*
X155300036Y-61000001D01*
X147000036Y-66900001D02*
X149000036Y-66900001D01*
X141700036Y-79000001D02*
X141700034Y-82500001D01*
X163300035Y-63000038D02*
X167600035Y-63000038D01*
X161300000Y-91000000D02*
G75*
G03*
X162300000Y-92000000I1000000J0D01*
G01*
X154300036Y-74000001D02*
X154300038Y-70500001D01*
X141700036Y-79000001D02*
X146000036Y-79000001D01*
X150000036Y-65900001D02*
X150000036Y-63000001D01*
X141700036Y-90000001D02*
X141700033Y-86500037D01*
X147000036Y-82900001D02*
X149000036Y-82900001D01*
X163300000Y-79000000D02*
X163299998Y-82500000D01*
X167600000Y-79000000D02*
X167600000Y-81900000D01*
X149000036Y-82900036D02*
G75*
G03*
X150000036Y-81900001I-36J1000036D01*
G01*
X175900000Y-79000000D02*
X171600000Y-79000000D01*
X141700036Y-90000001D02*
X154300036Y-90000001D01*
X149000036Y-66900036D02*
G75*
G03*
X150000036Y-65900001I-36J1000036D01*
G01*
X146000036Y-63000001D02*
X146000036Y-65900001D01*
X163300032Y-70500074D02*
G75*
G03*
X161300034Y-70500074I-999999J19D01*
G01*
X161300037Y-66500038D02*
G75*
G03*
X163300033Y-66500038I999998J-20D01*
G01*
X141700033Y-86500037D02*
G75*
G03*
X139700035Y-86500037I-999999J19D01*
G01*
X139700038Y-82500001D02*
G75*
G03*
X141700034Y-82500001I999998J-20D01*
G01*
X154300039Y-66499965D02*
G75*
G03*
X156300037Y-66499965I999999J-19D01*
G01*
X156300034Y-70500001D02*
G75*
G03*
X154300038Y-70500001I-999998J20D01*
G01*
X175900038Y-66500002D02*
G75*
G03*
X177900036Y-66500002I999999J-19D01*
G01*
X177900033Y-70500038D02*
G75*
G03*
X175900037Y-70500038I-999998J20D01*
G01*
X141700033Y-70500037D02*
G75*
G03*
X139700035Y-70500037I-999999J19D01*
G01*
X139700038Y-66500001D02*
G75*
G03*
X141700034Y-66500001I999998J-20D01*
G01*
X154300039Y-82499965D02*
G75*
G03*
X156300037Y-82499965I999999J-19D01*
G01*
X156300034Y-86500001D02*
G75*
G03*
X154300038Y-86500001I-999998J20D01*
G01*
X175900003Y-82499964D02*
G75*
G03*
X177900001Y-82499964I999999J-19D01*
G01*
X177899998Y-86500000D02*
G75*
G03*
X175900002Y-86500000I-999998J20D01*
G01*
X163299997Y-86500036D02*
G75*
G03*
X161299999Y-86500036I-999999J19D01*
G01*
X161300002Y-82500000D02*
G75*
G03*
X163299998Y-82500000I999998J-20D01*
G01*
M02*
