G04 #@! TF.GenerationSoftware,KiCad,Pcbnew,(7.0.0-0)*
G04 #@! TF.CreationDate,2025-07-24T17:03:06+12:00*
G04 #@! TF.ProjectId,12V_light_panelized_X4,3132565f-6c69-4676-9874-5f70616e656c,rev?*
G04 #@! TF.SameCoordinates,Original*
G04 #@! TF.FileFunction,Copper,L2,Bot*
G04 #@! TF.FilePolarity,Positive*
%FSLAX46Y46*%
G04 Gerber Fmt 4.6, Leading zero omitted, Abs format (unit mm)*
G04 Created by KiCad (PCBNEW (7.0.0-0)) date 2025-07-24 17:03:06*
%MOMM*%
%LPD*%
G01*
G04 APERTURE LIST*
G04 #@! TA.AperFunction,ViaPad*
%ADD10C,0.600000*%
G04 #@! TD*
G04 APERTURE END LIST*
D10*
X145450000Y-73150000D03*
X150550000Y-70050000D03*
X142900000Y-67950000D03*
X153100000Y-67950000D03*
X145450000Y-72350000D03*
X142900000Y-68750000D03*
X150550000Y-70850000D03*
X153100000Y-68750000D03*
X174700000Y-68750000D03*
X174700000Y-67950000D03*
X172150000Y-70850000D03*
X164500000Y-68750000D03*
X167050000Y-72350000D03*
X164500000Y-67950000D03*
X172150000Y-70050000D03*
X167050000Y-73150000D03*
X167050000Y-89150000D03*
X172150000Y-86050000D03*
X164500000Y-83950000D03*
X167050000Y-88350000D03*
X164500000Y-84750000D03*
X172150000Y-86850000D03*
X174700000Y-83950000D03*
X174700000Y-84750000D03*
X142900000Y-84750000D03*
X142900000Y-83950000D03*
X150550000Y-86050000D03*
X150550000Y-86850000D03*
X145450000Y-89150000D03*
X145450000Y-88350000D03*
X153100000Y-84750000D03*
X153100000Y-83950000D03*
G04 #@! TA.AperFunction,Conductor*
G36*
X145700036Y-79263764D02*
G01*
X145736273Y-79300001D01*
X145749536Y-79349501D01*
X145749536Y-81899863D01*
X145749518Y-81900001D01*
X145749499Y-81900001D01*
X145749499Y-81998420D01*
X145750107Y-82002264D01*
X145750108Y-82002265D01*
X145779683Y-82188994D01*
X145779685Y-82189003D01*
X145780292Y-82192834D01*
X145781492Y-82196527D01*
X145781493Y-82196531D01*
X145838775Y-82372823D01*
X145841120Y-82380037D01*
X145842888Y-82383507D01*
X145842889Y-82383509D01*
X145928088Y-82550719D01*
X145930484Y-82555420D01*
X145932772Y-82558569D01*
X146017242Y-82674829D01*
X146046185Y-82714663D01*
X146185372Y-82853845D01*
X146344620Y-82969540D01*
X146520006Y-83058898D01*
X146707211Y-83119719D01*
X146901626Y-83150505D01*
X147000045Y-83150501D01*
X147551000Y-83150501D01*
X147600500Y-83163764D01*
X147636737Y-83200001D01*
X147650000Y-83249501D01*
X147650000Y-85450000D01*
X147679289Y-85520711D01*
X147750000Y-85550000D01*
X150980309Y-85550000D01*
X151018192Y-85557535D01*
X151032826Y-85563596D01*
X151064941Y-85585055D01*
X151086401Y-85617170D01*
X151092463Y-85631805D01*
X151100000Y-85669691D01*
X151100000Y-87230309D01*
X151092462Y-87268197D01*
X151089458Y-87275448D01*
X151086401Y-87282830D01*
X151064943Y-87314943D01*
X151032830Y-87336401D01*
X151025448Y-87339458D01*
X151018197Y-87342462D01*
X150980309Y-87350000D01*
X144700000Y-87350000D01*
X144690990Y-87353731D01*
X144690989Y-87353732D01*
X144638297Y-87375557D01*
X144638293Y-87375559D01*
X144629289Y-87379289D01*
X144625559Y-87388293D01*
X144625557Y-87388297D01*
X144603732Y-87440989D01*
X144600000Y-87450000D01*
X144600000Y-87459752D01*
X144600000Y-89650501D01*
X144586737Y-89700001D01*
X144550500Y-89736238D01*
X144501000Y-89749501D01*
X142049536Y-89749501D01*
X142000036Y-89736238D01*
X141963800Y-89700001D01*
X141950536Y-89650501D01*
X141950533Y-86490411D01*
X141959480Y-86449285D01*
X141984698Y-86415595D01*
X142082179Y-86331129D01*
X142159989Y-86210054D01*
X142200536Y-86071962D01*
X142200536Y-85928040D01*
X142159989Y-85789948D01*
X142088379Y-85678521D01*
X142072664Y-85624999D01*
X142088378Y-85571478D01*
X142159987Y-85460054D01*
X142200534Y-85321962D01*
X142200534Y-85178040D01*
X142159987Y-85039948D01*
X142088384Y-84928532D01*
X142072669Y-84875010D01*
X142088385Y-84821487D01*
X142159987Y-84710072D01*
X142200534Y-84571980D01*
X142200534Y-84428058D01*
X142159987Y-84289966D01*
X142088372Y-84178530D01*
X142072657Y-84125010D01*
X142088372Y-84071489D01*
X142159987Y-83960054D01*
X142200534Y-83821962D01*
X142200534Y-83678040D01*
X142159987Y-83539948D01*
X142088378Y-83428522D01*
X142072663Y-83375001D01*
X142088378Y-83321479D01*
X142159987Y-83210054D01*
X142200534Y-83071962D01*
X142200534Y-82928040D01*
X142159987Y-82789948D01*
X142149303Y-82773324D01*
X142086005Y-82674829D01*
X142086003Y-82674827D01*
X142082177Y-82668873D01*
X141984702Y-82584411D01*
X141959481Y-82550719D01*
X141950534Y-82509593D01*
X141950534Y-82499501D01*
X141950536Y-79349501D01*
X141963800Y-79300001D01*
X142000036Y-79263764D01*
X142049536Y-79250501D01*
X145650536Y-79250501D01*
X145700036Y-79263764D01*
G37*
G04 #@! TD.AperFunction*
G04 #@! TA.AperFunction,Conductor*
G36*
X154000036Y-79263764D02*
G01*
X154036272Y-79300001D01*
X154049536Y-79349501D01*
X154049539Y-82499501D01*
X154049539Y-82499967D01*
X154049538Y-82509600D01*
X154040590Y-82550721D01*
X154015369Y-82584409D01*
X153923244Y-82664235D01*
X153923239Y-82664240D01*
X153917893Y-82668873D01*
X153914069Y-82674823D01*
X153914064Y-82674829D01*
X153843911Y-82783990D01*
X153843908Y-82783995D01*
X153840083Y-82789948D01*
X153838089Y-82796738D01*
X153838088Y-82796741D01*
X153816287Y-82870989D01*
X153799536Y-82928040D01*
X153799536Y-83071962D01*
X153840083Y-83210054D01*
X153843910Y-83216009D01*
X153843911Y-83216011D01*
X153911691Y-83321479D01*
X153927407Y-83375002D01*
X153911691Y-83428525D01*
X153840085Y-83539948D01*
X153838091Y-83546738D01*
X153838090Y-83546741D01*
X153802438Y-83668163D01*
X153799538Y-83678040D01*
X153799538Y-83821962D01*
X153840085Y-83960054D01*
X153843912Y-83966009D01*
X153843913Y-83966011D01*
X153911686Y-84071468D01*
X153927402Y-84124991D01*
X153911687Y-84178514D01*
X153864923Y-84251280D01*
X153840085Y-84289930D01*
X153799538Y-84428022D01*
X153799538Y-84571944D01*
X153840085Y-84710036D01*
X153843912Y-84715991D01*
X153843913Y-84715993D01*
X153911698Y-84821469D01*
X153927414Y-84874992D01*
X153911698Y-84928515D01*
X153843913Y-85033990D01*
X153843910Y-85033995D01*
X153840085Y-85039948D01*
X153838091Y-85046738D01*
X153838090Y-85046741D01*
X153801532Y-85171248D01*
X153799538Y-85178040D01*
X153799538Y-85321962D01*
X153801532Y-85328753D01*
X153824304Y-85406310D01*
X153840085Y-85460054D01*
X153843912Y-85466009D01*
X153843913Y-85466011D01*
X153911692Y-85571478D01*
X153927408Y-85625001D01*
X153911692Y-85678524D01*
X153843913Y-85783990D01*
X153843910Y-85783995D01*
X153840085Y-85789948D01*
X153799538Y-85928040D01*
X153799538Y-86071962D01*
X153840085Y-86210054D01*
X153843912Y-86216009D01*
X153843913Y-86216011D01*
X153914066Y-86325172D01*
X153914068Y-86325175D01*
X153917895Y-86331129D01*
X153963069Y-86370272D01*
X154015368Y-86415590D01*
X154040591Y-86449283D01*
X154049537Y-86490409D01*
X154049536Y-89650501D01*
X154036273Y-89700001D01*
X154000036Y-89736238D01*
X153950536Y-89749501D01*
X145004500Y-89749501D01*
X144955000Y-89736238D01*
X144918763Y-89700001D01*
X144905500Y-89650501D01*
X144905500Y-87756413D01*
X144913026Y-87718552D01*
X144913586Y-87717199D01*
X144935056Y-87685056D01*
X144967197Y-87663587D01*
X144968551Y-87663026D01*
X145006413Y-87655500D01*
X150977872Y-87655500D01*
X150980309Y-87655500D01*
X151031293Y-87650476D01*
X151041000Y-87650000D01*
X151053721Y-87650000D01*
X151058579Y-87650000D01*
X151096847Y-87642388D01*
X151104954Y-87636970D01*
X151113964Y-87633239D01*
X151114028Y-87633395D01*
X151127552Y-87626999D01*
X151128204Y-87626801D01*
X151135104Y-87624708D01*
X151149737Y-87618647D01*
X151202561Y-87590412D01*
X151234674Y-87568954D01*
X151280964Y-87530964D01*
X151318954Y-87484674D01*
X151340412Y-87452561D01*
X151368647Y-87399737D01*
X151374708Y-87385104D01*
X151376998Y-87377552D01*
X151383395Y-87364028D01*
X151383239Y-87363964D01*
X151386970Y-87354954D01*
X151392388Y-87346847D01*
X151400000Y-87308579D01*
X151400000Y-87291000D01*
X151400477Y-87281293D01*
X151405261Y-87232734D01*
X151405500Y-87230309D01*
X151405500Y-85669691D01*
X151400477Y-85618701D01*
X151400000Y-85608996D01*
X151400000Y-85596279D01*
X151400000Y-85591421D01*
X151392388Y-85553153D01*
X151386971Y-85545046D01*
X151383240Y-85536038D01*
X151383395Y-85535973D01*
X151377001Y-85522452D01*
X151375412Y-85517216D01*
X151374708Y-85514895D01*
X151368646Y-85500260D01*
X151340410Y-85447435D01*
X151318950Y-85415320D01*
X151303450Y-85396435D01*
X151284050Y-85372797D01*
X151280960Y-85369032D01*
X151277195Y-85365942D01*
X151236552Y-85332587D01*
X151236545Y-85332582D01*
X151234670Y-85331043D01*
X151207946Y-85313186D01*
X151204576Y-85310934D01*
X151204569Y-85310930D01*
X151202555Y-85309584D01*
X151200420Y-85308443D01*
X151200412Y-85308438D01*
X151151875Y-85282495D01*
X151151864Y-85282490D01*
X151149726Y-85281347D01*
X151147473Y-85280414D01*
X151147467Y-85280411D01*
X151137341Y-85276217D01*
X151137332Y-85276213D01*
X151135092Y-85275286D01*
X151127543Y-85272996D01*
X151114027Y-85266603D01*
X151113962Y-85266761D01*
X151104956Y-85263030D01*
X151096847Y-85257612D01*
X151087283Y-85255709D01*
X151087282Y-85255709D01*
X151063342Y-85250947D01*
X151063337Y-85250946D01*
X151058579Y-85250000D01*
X151053721Y-85250000D01*
X151041017Y-85250000D01*
X151031315Y-85249523D01*
X150982742Y-85244739D01*
X150982729Y-85244738D01*
X150980309Y-85244500D01*
X150977868Y-85244500D01*
X148456413Y-85244500D01*
X148418495Y-85236950D01*
X148417142Y-85236389D01*
X148385044Y-85214930D01*
X148363596Y-85182825D01*
X148357536Y-85168195D01*
X148350000Y-85130309D01*
X148350000Y-83249501D01*
X148363263Y-83200001D01*
X148399500Y-83163764D01*
X148449000Y-83150501D01*
X148955872Y-83150501D01*
X148955875Y-83150502D01*
X148999915Y-83150501D01*
X149000045Y-83150518D01*
X149000045Y-83150536D01*
X149098462Y-83150533D01*
X149292872Y-83119735D01*
X149480070Y-83058904D01*
X149655448Y-82969539D01*
X149814688Y-82853840D01*
X149953868Y-82714655D01*
X150069562Y-82555411D01*
X150158921Y-82380030D01*
X150219745Y-82192829D01*
X150250536Y-81998418D01*
X150250536Y-81900001D01*
X150250536Y-81855831D01*
X150250536Y-79349501D01*
X150263799Y-79300001D01*
X150300036Y-79263764D01*
X150349536Y-79250501D01*
X153950536Y-79250501D01*
X154000036Y-79263764D01*
G37*
G04 #@! TD.AperFunction*
G04 #@! TA.AperFunction,Conductor*
G36*
X147669577Y-85273607D02*
G01*
X147726393Y-85385114D01*
X147814886Y-85473607D01*
X147926393Y-85530423D01*
X148050000Y-85550000D01*
X147650000Y-85550000D01*
X147650000Y-85150000D01*
X147669577Y-85273607D01*
G37*
G04 #@! TD.AperFunction*
G04 #@! TA.AperFunction,Conductor*
G36*
X144996156Y-87350608D02*
G01*
X144996153Y-87350609D01*
X144884087Y-87368358D01*
X144884084Y-87368358D01*
X144876393Y-87369577D01*
X144869455Y-87373111D01*
X144869452Y-87373113D01*
X144771825Y-87422857D01*
X144771823Y-87422858D01*
X144764886Y-87426393D01*
X144759382Y-87431896D01*
X144759379Y-87431899D01*
X144681899Y-87509379D01*
X144681896Y-87509382D01*
X144676393Y-87514886D01*
X144672858Y-87521823D01*
X144672857Y-87521825D01*
X144623113Y-87619452D01*
X144623111Y-87619455D01*
X144619577Y-87626393D01*
X144600000Y-87750000D01*
X144600000Y-87350000D01*
X145000000Y-87350000D01*
X144996156Y-87350608D01*
G37*
G04 #@! TD.AperFunction*
G04 #@! TA.AperFunction,Conductor*
G36*
X169269577Y-85273607D02*
G01*
X169326393Y-85385114D01*
X169414886Y-85473607D01*
X169526393Y-85530423D01*
X169650000Y-85550000D01*
X169250000Y-85550000D01*
X169250000Y-85150000D01*
X169269577Y-85273607D01*
G37*
G04 #@! TD.AperFunction*
G04 #@! TA.AperFunction,Conductor*
G36*
X167300000Y-79263763D02*
G01*
X167336237Y-79300000D01*
X167349500Y-79349500D01*
X167349500Y-81855830D01*
X167349500Y-81900000D01*
X167349500Y-81998417D01*
X167350108Y-82002261D01*
X167350109Y-82002263D01*
X167379681Y-82188979D01*
X167379683Y-82188987D01*
X167380291Y-82192826D01*
X167381492Y-82196523D01*
X167381493Y-82196526D01*
X167439913Y-82376325D01*
X167439916Y-82376333D01*
X167441116Y-82380025D01*
X167442881Y-82383490D01*
X167442882Y-82383491D01*
X167528087Y-82550718D01*
X167530476Y-82555405D01*
X167646172Y-82714646D01*
X167785354Y-82853828D01*
X167944595Y-82969524D01*
X168119975Y-83058884D01*
X168307174Y-83119709D01*
X168501583Y-83150500D01*
X168505476Y-83150500D01*
X169151000Y-83150500D01*
X169200500Y-83163763D01*
X169236737Y-83200000D01*
X169250000Y-83249500D01*
X169250000Y-85450000D01*
X169279289Y-85520711D01*
X169350000Y-85550000D01*
X172580309Y-85550000D01*
X172618192Y-85557535D01*
X172632826Y-85563596D01*
X172664941Y-85585055D01*
X172686401Y-85617170D01*
X172692463Y-85631805D01*
X172700000Y-85669691D01*
X172700000Y-87230309D01*
X172692462Y-87268197D01*
X172689458Y-87275448D01*
X172686401Y-87282830D01*
X172664943Y-87314943D01*
X172632830Y-87336401D01*
X172625448Y-87339458D01*
X172618197Y-87342462D01*
X172580309Y-87350000D01*
X166300000Y-87350000D01*
X166290990Y-87353731D01*
X166290989Y-87353732D01*
X166238297Y-87375557D01*
X166238293Y-87375559D01*
X166229289Y-87379289D01*
X166225559Y-87388293D01*
X166225557Y-87388297D01*
X166203732Y-87440989D01*
X166200000Y-87450000D01*
X166200000Y-87459752D01*
X166200000Y-89650500D01*
X166186737Y-89700000D01*
X166150500Y-89736237D01*
X166101000Y-89749500D01*
X163649500Y-89749500D01*
X163600000Y-89736237D01*
X163563764Y-89700000D01*
X163550500Y-89650500D01*
X163550497Y-86490410D01*
X163559444Y-86449284D01*
X163584662Y-86415594D01*
X163682143Y-86331128D01*
X163759953Y-86210053D01*
X163800500Y-86071961D01*
X163800500Y-85928039D01*
X163759953Y-85789947D01*
X163688343Y-85678520D01*
X163672628Y-85624998D01*
X163688342Y-85571477D01*
X163759951Y-85460053D01*
X163800498Y-85321961D01*
X163800498Y-85178039D01*
X163759951Y-85039947D01*
X163688348Y-84928531D01*
X163672633Y-84875009D01*
X163688349Y-84821486D01*
X163759951Y-84710071D01*
X163800498Y-84571979D01*
X163800498Y-84428057D01*
X163759951Y-84289965D01*
X163688336Y-84178529D01*
X163672621Y-84125009D01*
X163688336Y-84071488D01*
X163759951Y-83960053D01*
X163800498Y-83821961D01*
X163800498Y-83678039D01*
X163759951Y-83539947D01*
X163688342Y-83428521D01*
X163672627Y-83375000D01*
X163688342Y-83321478D01*
X163759951Y-83210053D01*
X163800498Y-83071961D01*
X163800498Y-82928039D01*
X163759951Y-82789947D01*
X163682141Y-82668872D01*
X163584666Y-82584410D01*
X163559445Y-82550718D01*
X163550498Y-82509592D01*
X163550498Y-82499500D01*
X163550500Y-79349500D01*
X163563764Y-79300000D01*
X163600000Y-79263763D01*
X163649500Y-79250500D01*
X167250500Y-79250500D01*
X167300000Y-79263763D01*
G37*
G04 #@! TD.AperFunction*
G04 #@! TA.AperFunction,Conductor*
G36*
X175600000Y-79263763D02*
G01*
X175636236Y-79300000D01*
X175649500Y-79349500D01*
X175649503Y-82499500D01*
X175649503Y-82499966D01*
X175649502Y-82509599D01*
X175640554Y-82550720D01*
X175615333Y-82584408D01*
X175523208Y-82664234D01*
X175523203Y-82664239D01*
X175517857Y-82668872D01*
X175514033Y-82674822D01*
X175514028Y-82674828D01*
X175443875Y-82783989D01*
X175443872Y-82783994D01*
X175440047Y-82789947D01*
X175438053Y-82796737D01*
X175438052Y-82796740D01*
X175416251Y-82870988D01*
X175399500Y-82928039D01*
X175399500Y-83071961D01*
X175440047Y-83210053D01*
X175443874Y-83216008D01*
X175443875Y-83216010D01*
X175511655Y-83321478D01*
X175527371Y-83375001D01*
X175511655Y-83428524D01*
X175440049Y-83539947D01*
X175438055Y-83546737D01*
X175438054Y-83546740D01*
X175402402Y-83668162D01*
X175399502Y-83678039D01*
X175399502Y-83821961D01*
X175440049Y-83960053D01*
X175443876Y-83966008D01*
X175443877Y-83966010D01*
X175511650Y-84071467D01*
X175527366Y-84124990D01*
X175511651Y-84178513D01*
X175464887Y-84251279D01*
X175440049Y-84289929D01*
X175399502Y-84428021D01*
X175399502Y-84571943D01*
X175440049Y-84710035D01*
X175443876Y-84715990D01*
X175443877Y-84715992D01*
X175511662Y-84821468D01*
X175527378Y-84874991D01*
X175511662Y-84928514D01*
X175443877Y-85033989D01*
X175443874Y-85033994D01*
X175440049Y-85039947D01*
X175438055Y-85046737D01*
X175438054Y-85046740D01*
X175402402Y-85168163D01*
X175399502Y-85178039D01*
X175399502Y-85321961D01*
X175401496Y-85328752D01*
X175435751Y-85445417D01*
X175440049Y-85460053D01*
X175443876Y-85466008D01*
X175443877Y-85466010D01*
X175511656Y-85571477D01*
X175527372Y-85625000D01*
X175511656Y-85678523D01*
X175443877Y-85783989D01*
X175443874Y-85783994D01*
X175440049Y-85789947D01*
X175399502Y-85928039D01*
X175399502Y-86071961D01*
X175440049Y-86210053D01*
X175443876Y-86216008D01*
X175443877Y-86216010D01*
X175514030Y-86325171D01*
X175514032Y-86325174D01*
X175517859Y-86331128D01*
X175563033Y-86370271D01*
X175615332Y-86415589D01*
X175640555Y-86449282D01*
X175649501Y-86490408D01*
X175649500Y-89650500D01*
X175636237Y-89700000D01*
X175600000Y-89736237D01*
X175550500Y-89749500D01*
X166604500Y-89749500D01*
X166555000Y-89736237D01*
X166518763Y-89700000D01*
X166505500Y-89650500D01*
X166505500Y-87756413D01*
X166513026Y-87718552D01*
X166513586Y-87717199D01*
X166535056Y-87685056D01*
X166567197Y-87663587D01*
X166568551Y-87663026D01*
X166606413Y-87655500D01*
X172577872Y-87655500D01*
X172580309Y-87655500D01*
X172631293Y-87650476D01*
X172641000Y-87650000D01*
X172653721Y-87650000D01*
X172658579Y-87650000D01*
X172696847Y-87642388D01*
X172704954Y-87636970D01*
X172713964Y-87633239D01*
X172714028Y-87633395D01*
X172727552Y-87626999D01*
X172728204Y-87626801D01*
X172735104Y-87624708D01*
X172749737Y-87618647D01*
X172802561Y-87590412D01*
X172834674Y-87568954D01*
X172880964Y-87530964D01*
X172918954Y-87484674D01*
X172940412Y-87452561D01*
X172968647Y-87399737D01*
X172974708Y-87385104D01*
X172976998Y-87377552D01*
X172983395Y-87364028D01*
X172983239Y-87363964D01*
X172986970Y-87354954D01*
X172992388Y-87346847D01*
X173000000Y-87308579D01*
X173000000Y-87291000D01*
X173000477Y-87281293D01*
X173005261Y-87232734D01*
X173005500Y-87230309D01*
X173005500Y-85669691D01*
X173000477Y-85618701D01*
X173000000Y-85608996D01*
X173000000Y-85596279D01*
X173000000Y-85591421D01*
X172992388Y-85553153D01*
X172986971Y-85545046D01*
X172983240Y-85536038D01*
X172983395Y-85535973D01*
X172977001Y-85522452D01*
X172975412Y-85517216D01*
X172974708Y-85514895D01*
X172968646Y-85500260D01*
X172940410Y-85447435D01*
X172918950Y-85415320D01*
X172911554Y-85406309D01*
X172884050Y-85372797D01*
X172880960Y-85369032D01*
X172877195Y-85365942D01*
X172836552Y-85332587D01*
X172836545Y-85332582D01*
X172834670Y-85331043D01*
X172832644Y-85329689D01*
X172804576Y-85310934D01*
X172804569Y-85310930D01*
X172802555Y-85309584D01*
X172800420Y-85308443D01*
X172800412Y-85308438D01*
X172751875Y-85282495D01*
X172751864Y-85282490D01*
X172749726Y-85281347D01*
X172747473Y-85280414D01*
X172747467Y-85280411D01*
X172737341Y-85276217D01*
X172737332Y-85276213D01*
X172735092Y-85275286D01*
X172727543Y-85272996D01*
X172714027Y-85266603D01*
X172713962Y-85266761D01*
X172704956Y-85263030D01*
X172696847Y-85257612D01*
X172687283Y-85255709D01*
X172687282Y-85255709D01*
X172663342Y-85250947D01*
X172663337Y-85250946D01*
X172658579Y-85250000D01*
X172653721Y-85250000D01*
X172641017Y-85250000D01*
X172631315Y-85249523D01*
X172582742Y-85244739D01*
X172582729Y-85244738D01*
X172580309Y-85244500D01*
X172577868Y-85244500D01*
X170056413Y-85244500D01*
X170018495Y-85236950D01*
X170017142Y-85236389D01*
X169985044Y-85214930D01*
X169963596Y-85182825D01*
X169957535Y-85168192D01*
X169950000Y-85130309D01*
X169950000Y-83249500D01*
X169963263Y-83200000D01*
X169999500Y-83163763D01*
X170049000Y-83150500D01*
X170694524Y-83150500D01*
X170698417Y-83150500D01*
X170892826Y-83119709D01*
X171080025Y-83058884D01*
X171255405Y-82969524D01*
X171414646Y-82853828D01*
X171553828Y-82714646D01*
X171669524Y-82555405D01*
X171758884Y-82380025D01*
X171819709Y-82192826D01*
X171850500Y-81998417D01*
X171850500Y-81900000D01*
X171850500Y-81855830D01*
X171850500Y-79349500D01*
X171863763Y-79300000D01*
X171900000Y-79263763D01*
X171949500Y-79250500D01*
X175550500Y-79250500D01*
X175600000Y-79263763D01*
G37*
G04 #@! TD.AperFunction*
G04 #@! TA.AperFunction,Conductor*
G36*
X166596156Y-87350608D02*
G01*
X166596153Y-87350609D01*
X166484087Y-87368358D01*
X166484084Y-87368358D01*
X166476393Y-87369577D01*
X166469455Y-87373111D01*
X166469452Y-87373113D01*
X166371825Y-87422857D01*
X166371823Y-87422858D01*
X166364886Y-87426393D01*
X166359382Y-87431896D01*
X166359379Y-87431899D01*
X166281899Y-87509379D01*
X166281896Y-87509382D01*
X166276393Y-87514886D01*
X166272858Y-87521823D01*
X166272857Y-87521825D01*
X166223113Y-87619452D01*
X166223111Y-87619455D01*
X166219577Y-87626393D01*
X166200000Y-87750000D01*
X166200000Y-87350000D01*
X166600000Y-87350000D01*
X166596156Y-87350608D01*
G37*
G04 #@! TD.AperFunction*
G04 #@! TA.AperFunction,Conductor*
G36*
X166596156Y-71350608D02*
G01*
X166596153Y-71350609D01*
X166484087Y-71368358D01*
X166484084Y-71368358D01*
X166476393Y-71369577D01*
X166469455Y-71373111D01*
X166469452Y-71373113D01*
X166371825Y-71422857D01*
X166371823Y-71422858D01*
X166364886Y-71426393D01*
X166359382Y-71431896D01*
X166359379Y-71431899D01*
X166281899Y-71509379D01*
X166281896Y-71509382D01*
X166276393Y-71514886D01*
X166272858Y-71521823D01*
X166272857Y-71521825D01*
X166223113Y-71619452D01*
X166223111Y-71619455D01*
X166219577Y-71626393D01*
X166200000Y-71750000D01*
X166200000Y-71350000D01*
X166600000Y-71350000D01*
X166596156Y-71350608D01*
G37*
G04 #@! TD.AperFunction*
G04 #@! TA.AperFunction,Conductor*
G36*
X167300035Y-63263801D02*
G01*
X167336272Y-63300038D01*
X167349535Y-63349538D01*
X167349535Y-65855875D01*
X167349534Y-65855878D01*
X167349534Y-65855884D01*
X167349534Y-65855885D01*
X167349534Y-65899779D01*
X167349499Y-65900048D01*
X167349462Y-65900048D01*
X167349462Y-65900333D01*
X167349462Y-65900334D01*
X167349465Y-65994574D01*
X167349465Y-65994584D01*
X167349466Y-65998467D01*
X167350073Y-66002300D01*
X167350074Y-66002309D01*
X167374919Y-66159138D01*
X167380265Y-66192881D01*
X167381468Y-66196583D01*
X167381469Y-66196587D01*
X167438751Y-66372860D01*
X167441099Y-66380083D01*
X167442864Y-66383548D01*
X167442868Y-66383556D01*
X167479714Y-66455863D01*
X167530468Y-66555464D01*
X167539177Y-66567450D01*
X167612897Y-66668910D01*
X167646173Y-66714706D01*
X167785364Y-66853887D01*
X167944614Y-66969580D01*
X168120001Y-67058936D01*
X168307208Y-67119756D01*
X168501624Y-67150542D01*
X168600044Y-67150538D01*
X169151000Y-67150538D01*
X169200500Y-67163801D01*
X169236737Y-67200038D01*
X169250000Y-67249538D01*
X169250000Y-69450000D01*
X169253731Y-69459009D01*
X169253732Y-69459010D01*
X169256645Y-69466044D01*
X169279289Y-69520711D01*
X169350000Y-69550000D01*
X172580309Y-69550000D01*
X172618192Y-69557535D01*
X172632826Y-69563596D01*
X172664941Y-69585055D01*
X172686401Y-69617170D01*
X172692463Y-69631805D01*
X172700000Y-69669691D01*
X172700000Y-71230309D01*
X172692462Y-71268197D01*
X172689458Y-71275448D01*
X172686401Y-71282830D01*
X172664943Y-71314943D01*
X172632830Y-71336401D01*
X172625448Y-71339458D01*
X172618197Y-71342462D01*
X172580309Y-71350000D01*
X166300000Y-71350000D01*
X166290990Y-71353731D01*
X166290989Y-71353732D01*
X166238297Y-71375557D01*
X166238293Y-71375559D01*
X166229289Y-71379289D01*
X166225559Y-71388293D01*
X166225557Y-71388297D01*
X166203732Y-71440989D01*
X166200000Y-71450000D01*
X166200000Y-71459752D01*
X166200000Y-73650538D01*
X166186737Y-73700038D01*
X166150500Y-73736275D01*
X166101000Y-73749538D01*
X163649535Y-73749538D01*
X163600035Y-73736275D01*
X163563799Y-73700038D01*
X163550535Y-73650538D01*
X163550532Y-70490448D01*
X163559479Y-70449322D01*
X163584697Y-70415632D01*
X163682178Y-70331166D01*
X163759988Y-70210091D01*
X163800535Y-70071999D01*
X163800535Y-69928077D01*
X163759988Y-69789985D01*
X163688378Y-69678558D01*
X163672663Y-69625036D01*
X163688377Y-69571515D01*
X163759986Y-69460091D01*
X163800533Y-69321999D01*
X163800533Y-69178077D01*
X163759986Y-69039985D01*
X163688383Y-68928569D01*
X163672668Y-68875047D01*
X163688384Y-68821524D01*
X163759986Y-68710109D01*
X163800533Y-68572017D01*
X163800533Y-68428095D01*
X163759986Y-68290003D01*
X163688371Y-68178567D01*
X163672656Y-68125047D01*
X163688371Y-68071526D01*
X163759986Y-67960091D01*
X163800533Y-67821999D01*
X163800533Y-67678077D01*
X163759986Y-67539985D01*
X163688377Y-67428559D01*
X163672662Y-67375038D01*
X163688377Y-67321516D01*
X163759986Y-67210091D01*
X163800533Y-67071999D01*
X163800533Y-66928077D01*
X163759986Y-66789985D01*
X163682176Y-66668910D01*
X163584701Y-66584448D01*
X163559480Y-66550756D01*
X163550533Y-66509630D01*
X163550533Y-66499538D01*
X163550535Y-63349538D01*
X163563799Y-63300038D01*
X163600035Y-63263801D01*
X163649535Y-63250538D01*
X167250535Y-63250538D01*
X167300035Y-63263801D01*
G37*
G04 #@! TD.AperFunction*
G04 #@! TA.AperFunction,Conductor*
G36*
X169269577Y-69273607D02*
G01*
X169326393Y-69385114D01*
X169414886Y-69473607D01*
X169526393Y-69530423D01*
X169650000Y-69550000D01*
X169250000Y-69550000D01*
X169250000Y-69150000D01*
X169269577Y-69273607D01*
G37*
G04 #@! TD.AperFunction*
G04 #@! TA.AperFunction,Conductor*
G36*
X175600035Y-63263801D02*
G01*
X175636271Y-63300038D01*
X175649535Y-63349538D01*
X175649538Y-66499538D01*
X175649538Y-66500004D01*
X175649537Y-66509637D01*
X175640589Y-66550758D01*
X175615368Y-66584446D01*
X175523243Y-66664272D01*
X175523238Y-66664277D01*
X175517892Y-66668910D01*
X175514068Y-66674860D01*
X175514063Y-66674866D01*
X175443910Y-66784027D01*
X175443907Y-66784032D01*
X175440082Y-66789985D01*
X175438088Y-66796775D01*
X175438087Y-66796778D01*
X175416286Y-66871026D01*
X175399535Y-66928077D01*
X175399535Y-67071999D01*
X175440082Y-67210091D01*
X175443909Y-67216046D01*
X175443910Y-67216048D01*
X175511690Y-67321516D01*
X175527406Y-67375039D01*
X175511690Y-67428562D01*
X175440084Y-67539985D01*
X175438090Y-67546775D01*
X175438089Y-67546778D01*
X175402437Y-67668200D01*
X175399537Y-67678077D01*
X175399537Y-67821999D01*
X175440084Y-67960091D01*
X175443911Y-67966046D01*
X175443912Y-67966048D01*
X175511685Y-68071505D01*
X175527401Y-68125028D01*
X175511686Y-68178551D01*
X175464922Y-68251317D01*
X175440084Y-68289967D01*
X175399537Y-68428059D01*
X175399537Y-68571981D01*
X175440084Y-68710073D01*
X175443911Y-68716028D01*
X175443912Y-68716030D01*
X175511697Y-68821506D01*
X175527413Y-68875029D01*
X175511697Y-68928552D01*
X175443912Y-69034027D01*
X175443909Y-69034032D01*
X175440084Y-69039985D01*
X175438090Y-69046775D01*
X175438089Y-69046778D01*
X175402437Y-69168201D01*
X175399537Y-69178077D01*
X175399537Y-69321999D01*
X175401531Y-69328790D01*
X175424303Y-69406347D01*
X175440084Y-69460091D01*
X175443911Y-69466046D01*
X175443912Y-69466048D01*
X175511691Y-69571515D01*
X175527407Y-69625038D01*
X175511691Y-69678561D01*
X175443912Y-69784027D01*
X175443909Y-69784032D01*
X175440084Y-69789985D01*
X175399537Y-69928077D01*
X175399537Y-70071999D01*
X175440084Y-70210091D01*
X175443911Y-70216046D01*
X175443912Y-70216048D01*
X175514065Y-70325209D01*
X175514067Y-70325212D01*
X175517894Y-70331166D01*
X175563068Y-70370309D01*
X175615367Y-70415627D01*
X175640590Y-70449320D01*
X175649536Y-70490446D01*
X175649535Y-73650538D01*
X175636272Y-73700038D01*
X175600035Y-73736275D01*
X175550535Y-73749538D01*
X166604500Y-73749538D01*
X166555000Y-73736275D01*
X166518763Y-73700038D01*
X166505500Y-73650538D01*
X166505500Y-71781831D01*
X166506718Y-71766348D01*
X166510456Y-71742747D01*
X166525207Y-71704318D01*
X166554317Y-71675207D01*
X166592746Y-71660456D01*
X166616353Y-71656717D01*
X166631829Y-71655500D01*
X172577872Y-71655500D01*
X172580309Y-71655500D01*
X172631293Y-71650476D01*
X172641000Y-71650000D01*
X172653721Y-71650000D01*
X172658579Y-71650000D01*
X172696847Y-71642388D01*
X172704954Y-71636970D01*
X172713964Y-71633239D01*
X172714028Y-71633395D01*
X172727552Y-71626999D01*
X172728204Y-71626801D01*
X172735104Y-71624708D01*
X172749737Y-71618647D01*
X172802561Y-71590412D01*
X172834674Y-71568954D01*
X172880964Y-71530964D01*
X172918954Y-71484674D01*
X172940412Y-71452561D01*
X172968647Y-71399737D01*
X172974708Y-71385104D01*
X172976998Y-71377552D01*
X172983395Y-71364028D01*
X172983239Y-71363964D01*
X172986970Y-71354954D01*
X172992388Y-71346847D01*
X173000000Y-71308579D01*
X173000000Y-71291000D01*
X173000477Y-71281293D01*
X173005261Y-71232734D01*
X173005500Y-71230309D01*
X173005500Y-69669691D01*
X173000477Y-69618701D01*
X173000000Y-69608996D01*
X173000000Y-69596279D01*
X173000000Y-69591421D01*
X172992388Y-69553153D01*
X172986971Y-69545046D01*
X172983240Y-69536038D01*
X172983395Y-69535973D01*
X172977001Y-69522452D01*
X172975412Y-69517216D01*
X172974708Y-69514895D01*
X172968646Y-69500260D01*
X172940410Y-69447435D01*
X172918950Y-69415320D01*
X172880960Y-69369032D01*
X172867859Y-69358280D01*
X172836552Y-69332587D01*
X172836545Y-69332582D01*
X172834670Y-69331043D01*
X172832644Y-69329689D01*
X172804576Y-69310934D01*
X172804569Y-69310930D01*
X172802555Y-69309584D01*
X172800420Y-69308443D01*
X172800412Y-69308438D01*
X172751875Y-69282495D01*
X172751864Y-69282490D01*
X172749726Y-69281347D01*
X172747473Y-69280414D01*
X172747467Y-69280411D01*
X172737341Y-69276217D01*
X172737332Y-69276213D01*
X172735092Y-69275286D01*
X172727543Y-69272996D01*
X172714027Y-69266603D01*
X172713962Y-69266761D01*
X172704956Y-69263030D01*
X172696847Y-69257612D01*
X172687283Y-69255709D01*
X172687282Y-69255709D01*
X172663342Y-69250947D01*
X172663337Y-69250946D01*
X172658579Y-69250000D01*
X172653721Y-69250000D01*
X172641017Y-69250000D01*
X172631315Y-69249523D01*
X172582742Y-69244739D01*
X172582729Y-69244738D01*
X172580309Y-69244500D01*
X172577868Y-69244500D01*
X170056413Y-69244500D01*
X170018495Y-69236950D01*
X170017142Y-69236389D01*
X169985044Y-69214930D01*
X169963596Y-69182825D01*
X169957536Y-69168195D01*
X169950000Y-69130309D01*
X169950000Y-67249538D01*
X169963263Y-67200038D01*
X169999500Y-67163801D01*
X170049000Y-67150538D01*
X170555871Y-67150538D01*
X170555874Y-67150539D01*
X170600044Y-67150538D01*
X170624709Y-67150538D01*
X170624725Y-67150534D01*
X170624729Y-67150533D01*
X170698458Y-67150532D01*
X170892864Y-67119736D01*
X171080058Y-67058908D01*
X171255433Y-66969547D01*
X171414671Y-66853853D01*
X171553851Y-66714674D01*
X171669545Y-66555437D01*
X171758907Y-66380062D01*
X171819735Y-66192867D01*
X171850532Y-65998462D01*
X171850534Y-65924715D01*
X171850535Y-65924712D01*
X171850535Y-65899779D01*
X171850536Y-65855878D01*
X171850535Y-65855875D01*
X171850535Y-63349538D01*
X171863798Y-63300038D01*
X171900035Y-63263801D01*
X171949535Y-63250538D01*
X175550535Y-63250538D01*
X175600035Y-63263801D01*
G37*
G04 #@! TD.AperFunction*
G04 #@! TA.AperFunction,Conductor*
G36*
X147669577Y-69273607D02*
G01*
X147726393Y-69385114D01*
X147814886Y-69473607D01*
X147926393Y-69530423D01*
X148050000Y-69550000D01*
X147650000Y-69550000D01*
X147650000Y-69150000D01*
X147669577Y-69273607D01*
G37*
G04 #@! TD.AperFunction*
G04 #@! TA.AperFunction,Conductor*
G36*
X145700036Y-63263764D02*
G01*
X145736273Y-63300001D01*
X145749536Y-63349501D01*
X145749536Y-65899863D01*
X145749518Y-65900001D01*
X145749499Y-65900001D01*
X145749499Y-65998420D01*
X145750107Y-66002264D01*
X145750108Y-66002265D01*
X145779683Y-66188994D01*
X145779685Y-66189003D01*
X145780292Y-66192834D01*
X145781492Y-66196527D01*
X145781493Y-66196531D01*
X145838775Y-66372823D01*
X145841120Y-66380037D01*
X145842888Y-66383507D01*
X145842889Y-66383509D01*
X145928088Y-66550719D01*
X145930484Y-66555420D01*
X145932772Y-66558569D01*
X146017242Y-66674829D01*
X146046185Y-66714663D01*
X146185372Y-66853845D01*
X146344620Y-66969540D01*
X146520006Y-67058898D01*
X146707211Y-67119719D01*
X146901626Y-67150505D01*
X147000045Y-67150501D01*
X147551000Y-67150501D01*
X147600500Y-67163764D01*
X147636737Y-67200001D01*
X147650000Y-67249501D01*
X147650000Y-69450000D01*
X147679289Y-69520711D01*
X147750000Y-69550000D01*
X150980309Y-69550000D01*
X151018192Y-69557535D01*
X151032826Y-69563596D01*
X151064941Y-69585055D01*
X151086401Y-69617170D01*
X151092463Y-69631805D01*
X151100000Y-69669691D01*
X151100000Y-71230309D01*
X151092462Y-71268197D01*
X151089458Y-71275448D01*
X151086401Y-71282830D01*
X151064943Y-71314943D01*
X151032830Y-71336401D01*
X151025448Y-71339458D01*
X151018197Y-71342462D01*
X150980309Y-71350000D01*
X144700000Y-71350000D01*
X144690990Y-71353731D01*
X144690989Y-71353732D01*
X144638297Y-71375557D01*
X144638293Y-71375559D01*
X144629289Y-71379289D01*
X144625559Y-71388293D01*
X144625557Y-71388297D01*
X144603732Y-71440989D01*
X144600000Y-71450000D01*
X144600000Y-71459752D01*
X144600000Y-73650501D01*
X144586737Y-73700001D01*
X144550500Y-73736238D01*
X144501000Y-73749501D01*
X142049536Y-73749501D01*
X142000036Y-73736238D01*
X141963800Y-73700001D01*
X141950536Y-73650501D01*
X141950533Y-70490411D01*
X141959480Y-70449285D01*
X141984698Y-70415595D01*
X142082179Y-70331129D01*
X142159989Y-70210054D01*
X142200536Y-70071962D01*
X142200536Y-69928040D01*
X142159989Y-69789948D01*
X142088379Y-69678521D01*
X142072664Y-69624999D01*
X142088378Y-69571478D01*
X142159987Y-69460054D01*
X142200534Y-69321962D01*
X142200534Y-69178040D01*
X142159987Y-69039948D01*
X142088384Y-68928532D01*
X142072669Y-68875010D01*
X142088385Y-68821487D01*
X142159987Y-68710072D01*
X142200534Y-68571980D01*
X142200534Y-68428058D01*
X142159987Y-68289966D01*
X142088372Y-68178530D01*
X142072657Y-68125010D01*
X142088372Y-68071489D01*
X142159987Y-67960054D01*
X142200534Y-67821962D01*
X142200534Y-67678040D01*
X142159987Y-67539948D01*
X142088379Y-67428523D01*
X142072663Y-67375000D01*
X142088377Y-67321480D01*
X142159987Y-67210054D01*
X142200534Y-67071962D01*
X142200534Y-66928040D01*
X142159987Y-66789948D01*
X142149303Y-66773324D01*
X142086005Y-66674829D01*
X142086003Y-66674827D01*
X142082177Y-66668873D01*
X141984702Y-66584411D01*
X141959481Y-66550719D01*
X141950534Y-66509593D01*
X141950534Y-66499501D01*
X141950536Y-63349501D01*
X141963800Y-63300001D01*
X142000036Y-63263764D01*
X142049536Y-63250501D01*
X145650536Y-63250501D01*
X145700036Y-63263764D01*
G37*
G04 #@! TD.AperFunction*
G04 #@! TA.AperFunction,Conductor*
G36*
X144996156Y-71350608D02*
G01*
X144996153Y-71350609D01*
X144884087Y-71368358D01*
X144884084Y-71368358D01*
X144876393Y-71369577D01*
X144869455Y-71373111D01*
X144869452Y-71373113D01*
X144771825Y-71422857D01*
X144771823Y-71422858D01*
X144764886Y-71426393D01*
X144759382Y-71431896D01*
X144759379Y-71431899D01*
X144681899Y-71509379D01*
X144681896Y-71509382D01*
X144676393Y-71514886D01*
X144672858Y-71521823D01*
X144672857Y-71521825D01*
X144623113Y-71619452D01*
X144623111Y-71619455D01*
X144619577Y-71626393D01*
X144600000Y-71750000D01*
X144600000Y-71350000D01*
X145000000Y-71350000D01*
X144996156Y-71350608D01*
G37*
G04 #@! TD.AperFunction*
G04 #@! TA.AperFunction,Conductor*
G36*
X154000036Y-63263764D02*
G01*
X154036272Y-63300001D01*
X154049536Y-63349501D01*
X154049539Y-66499501D01*
X154049539Y-66499967D01*
X154049538Y-66509600D01*
X154040590Y-66550721D01*
X154015369Y-66584409D01*
X153923244Y-66664235D01*
X153923239Y-66664240D01*
X153917893Y-66668873D01*
X153914069Y-66674823D01*
X153914064Y-66674829D01*
X153843911Y-66783990D01*
X153843908Y-66783995D01*
X153840083Y-66789948D01*
X153838089Y-66796738D01*
X153838088Y-66796741D01*
X153816287Y-66870989D01*
X153799536Y-66928040D01*
X153799536Y-67071962D01*
X153840083Y-67210054D01*
X153843910Y-67216009D01*
X153843911Y-67216011D01*
X153911691Y-67321479D01*
X153927407Y-67375002D01*
X153911691Y-67428525D01*
X153840085Y-67539948D01*
X153838091Y-67546738D01*
X153838090Y-67546741D01*
X153801532Y-67671248D01*
X153799538Y-67678040D01*
X153799538Y-67821962D01*
X153840085Y-67960054D01*
X153843912Y-67966009D01*
X153843913Y-67966011D01*
X153911686Y-68071469D01*
X153927402Y-68124992D01*
X153911686Y-68178515D01*
X153843913Y-68283972D01*
X153843910Y-68283977D01*
X153840085Y-68289930D01*
X153799538Y-68428022D01*
X153799538Y-68571944D01*
X153840085Y-68710036D01*
X153843912Y-68715991D01*
X153843913Y-68715993D01*
X153911698Y-68821469D01*
X153927414Y-68874992D01*
X153911698Y-68928515D01*
X153843913Y-69033990D01*
X153843910Y-69033995D01*
X153840085Y-69039948D01*
X153838091Y-69046738D01*
X153838090Y-69046741D01*
X153801532Y-69171248D01*
X153799538Y-69178040D01*
X153799538Y-69321962D01*
X153801532Y-69328753D01*
X153824304Y-69406310D01*
X153840085Y-69460054D01*
X153843912Y-69466009D01*
X153843913Y-69466011D01*
X153911692Y-69571478D01*
X153927408Y-69625001D01*
X153911692Y-69678524D01*
X153843913Y-69783990D01*
X153843910Y-69783995D01*
X153840085Y-69789948D01*
X153799538Y-69928040D01*
X153799538Y-70071962D01*
X153840085Y-70210054D01*
X153843912Y-70216009D01*
X153843913Y-70216011D01*
X153914066Y-70325172D01*
X153914068Y-70325175D01*
X153917895Y-70331129D01*
X153963069Y-70370272D01*
X154015368Y-70415590D01*
X154040591Y-70449283D01*
X154049537Y-70490409D01*
X154049536Y-73650501D01*
X154036273Y-73700001D01*
X154000036Y-73736238D01*
X153950536Y-73749501D01*
X145004500Y-73749501D01*
X144955000Y-73736238D01*
X144918763Y-73700001D01*
X144905500Y-73650501D01*
X144905500Y-71781831D01*
X144906718Y-71766348D01*
X144910456Y-71742747D01*
X144925207Y-71704318D01*
X144954317Y-71675207D01*
X144992746Y-71660456D01*
X145016353Y-71656717D01*
X145031829Y-71655500D01*
X150977872Y-71655500D01*
X150980309Y-71655500D01*
X151031293Y-71650476D01*
X151041000Y-71650000D01*
X151053721Y-71650000D01*
X151058579Y-71650000D01*
X151096847Y-71642388D01*
X151104954Y-71636970D01*
X151113964Y-71633239D01*
X151114028Y-71633395D01*
X151127552Y-71626999D01*
X151128204Y-71626801D01*
X151135104Y-71624708D01*
X151149737Y-71618647D01*
X151202561Y-71590412D01*
X151234674Y-71568954D01*
X151280964Y-71530964D01*
X151318954Y-71484674D01*
X151340412Y-71452561D01*
X151368647Y-71399737D01*
X151374708Y-71385104D01*
X151376998Y-71377552D01*
X151383395Y-71364028D01*
X151383239Y-71363964D01*
X151386970Y-71354954D01*
X151392388Y-71346847D01*
X151400000Y-71308579D01*
X151400000Y-71291000D01*
X151400477Y-71281293D01*
X151405261Y-71232734D01*
X151405500Y-71230309D01*
X151405500Y-69669691D01*
X151400477Y-69618701D01*
X151400000Y-69608996D01*
X151400000Y-69596279D01*
X151400000Y-69591421D01*
X151392388Y-69553153D01*
X151386971Y-69545046D01*
X151383240Y-69536038D01*
X151383395Y-69535973D01*
X151377001Y-69522452D01*
X151375412Y-69517216D01*
X151374708Y-69514895D01*
X151368646Y-69500260D01*
X151340410Y-69447435D01*
X151318950Y-69415320D01*
X151303450Y-69396435D01*
X151284050Y-69372797D01*
X151280960Y-69369032D01*
X151277195Y-69365942D01*
X151236552Y-69332587D01*
X151236545Y-69332582D01*
X151234670Y-69331043D01*
X151207946Y-69313186D01*
X151204576Y-69310934D01*
X151204569Y-69310930D01*
X151202555Y-69309584D01*
X151200420Y-69308443D01*
X151200412Y-69308438D01*
X151151875Y-69282495D01*
X151151864Y-69282490D01*
X151149726Y-69281347D01*
X151147473Y-69280414D01*
X151147467Y-69280411D01*
X151137341Y-69276217D01*
X151137332Y-69276213D01*
X151135092Y-69275286D01*
X151127543Y-69272996D01*
X151114027Y-69266603D01*
X151113962Y-69266761D01*
X151104956Y-69263030D01*
X151096847Y-69257612D01*
X151087283Y-69255709D01*
X151087282Y-69255709D01*
X151063342Y-69250947D01*
X151063337Y-69250946D01*
X151058579Y-69250000D01*
X151053721Y-69250000D01*
X151041017Y-69250000D01*
X151031315Y-69249523D01*
X150982742Y-69244739D01*
X150982729Y-69244738D01*
X150980309Y-69244500D01*
X150977868Y-69244500D01*
X148456413Y-69244500D01*
X148418495Y-69236950D01*
X148417142Y-69236389D01*
X148385044Y-69214930D01*
X148363596Y-69182825D01*
X148357536Y-69168195D01*
X148350000Y-69130309D01*
X148350000Y-67249501D01*
X148363263Y-67200001D01*
X148399500Y-67163764D01*
X148449000Y-67150501D01*
X148955872Y-67150501D01*
X148955875Y-67150502D01*
X148999915Y-67150501D01*
X149000045Y-67150518D01*
X149000045Y-67150536D01*
X149098462Y-67150533D01*
X149292872Y-67119735D01*
X149480070Y-67058904D01*
X149655448Y-66969539D01*
X149814688Y-66853840D01*
X149953868Y-66714655D01*
X150069562Y-66555411D01*
X150158921Y-66380030D01*
X150219745Y-66192829D01*
X150250536Y-65998418D01*
X150250536Y-65900001D01*
X150250536Y-65855831D01*
X150250536Y-63349501D01*
X150263799Y-63300001D01*
X150300036Y-63263764D01*
X150349536Y-63250501D01*
X153950536Y-63250501D01*
X154000036Y-63263764D01*
G37*
G04 #@! TD.AperFunction*
M02*
