G04 #@! TF.GenerationSoftware,KiCad,Pcbnew,(7.0.0-0)*
G04 #@! TF.CreationDate,2025-07-24T17:03:06+12:00*
G04 #@! TF.ProjectId,12V_light_panelized_X4,3132565f-6c69-4676-9874-5f70616e656c,rev?*
G04 #@! TF.SameCoordinates,Original*
G04 #@! TF.FileFunction,Legend,Top*
G04 #@! TF.FilePolarity,Positive*
%FSLAX46Y46*%
G04 Gerber Fmt 4.6, Leading zero omitted, Abs format (unit mm)*
G04 Created by KiCad (PCBNEW (7.0.0-0)) date 2025-07-24 17:03:06*
%MOMM*%
%LPD*%
G01*
G04 APERTURE LIST*
G04 Aperture macros list*
%AMRoundRect*
0 Rectangle with rounded corners*
0 $1 Rounding radius*
0 $2 $3 $4 $5 $6 $7 $8 $9 X,Y pos of 4 corners*
0 Add a 4 corners polygon primitive as box body*
4,1,4,$2,$3,$4,$5,$6,$7,$8,$9,$2,$3,0*
0 Add four circle primitives for the rounded corners*
1,1,$1+$1,$2,$3*
1,1,$1+$1,$4,$5*
1,1,$1+$1,$6,$7*
1,1,$1+$1,$8,$9*
0 Add four rect primitives between the rounded corners*
20,1,$1+$1,$2,$3,$4,$5,0*
20,1,$1+$1,$4,$5,$6,$7,0*
20,1,$1+$1,$6,$7,$8,$9,0*
20,1,$1+$1,$8,$9,$2,$3,0*%
%AMFreePoly0*
4,1,31,0.382209,1.799478,0.489210,1.783888,0.503961,1.779330,0.614864,1.725113,0.628259,1.715548,0.715548,1.628259,0.725113,1.614864,0.779330,1.503961,0.783888,1.489210,0.799478,1.382209,0.800000,1.375000,0.800000,-1.750000,0.785355,-1.785355,0.750000,-1.800000,-0.750000,-1.800000,-0.785355,-1.785355,-0.800000,-1.750000,-0.800000,1.375000,-0.799478,1.382209,-0.783888,1.489210,
-0.779330,1.503961,-0.725113,1.614864,-0.715548,1.628259,-0.628259,1.715548,-0.614864,1.725113,-0.503961,1.779330,-0.489210,1.783888,-0.382209,1.799478,-0.375000,1.800000,0.375000,1.800000,0.382209,1.799478,0.382209,1.799478,$1*%
G04 Aperture macros list end*
%ADD10C,0.200000*%
%ADD11FreePoly0,180.000000*%
%ADD12RoundRect,0.050000X0.700000X1.850000X-0.700000X1.850000X-0.700000X-1.850000X0.700000X-1.850000X0*%
%ADD13RoundRect,0.050000X-0.575000X-0.900000X0.575000X-0.900000X0.575000X0.900000X-0.575000X0.900000X0*%
%ADD14C,0.600000*%
%ADD15C,1.252000*%
G04 APERTURE END LIST*
D10*
X142790476Y-93057380D02*
X143123809Y-94057380D01*
X143123809Y-94057380D02*
X143457142Y-93057380D01*
X144314285Y-94057380D02*
X143742857Y-94057380D01*
X144028571Y-94057380D02*
X144028571Y-93057380D01*
X144028571Y-93057380D02*
X143933333Y-93200238D01*
X143933333Y-93200238D02*
X143838095Y-93295476D01*
X143838095Y-93295476D02*
X143742857Y-93343095D01*
X144695238Y-93152619D02*
X144742857Y-93105000D01*
X144742857Y-93105000D02*
X144838095Y-93057380D01*
X144838095Y-93057380D02*
X145076190Y-93057380D01*
X145076190Y-93057380D02*
X145171428Y-93105000D01*
X145171428Y-93105000D02*
X145219047Y-93152619D01*
X145219047Y-93152619D02*
X145266666Y-93247857D01*
X145266666Y-93247857D02*
X145266666Y-93343095D01*
X145266666Y-93343095D02*
X145219047Y-93485952D01*
X145219047Y-93485952D02*
X144647619Y-94057380D01*
X144647619Y-94057380D02*
X145266666Y-94057380D01*
X145695238Y-93676428D02*
X146457143Y-93676428D01*
X147409523Y-94057380D02*
X146933333Y-94057380D01*
X146933333Y-94057380D02*
X146933333Y-93057380D01*
X147742857Y-94057380D02*
X147742857Y-93057380D01*
X148742856Y-93105000D02*
X148647618Y-93057380D01*
X148647618Y-93057380D02*
X148504761Y-93057380D01*
X148504761Y-93057380D02*
X148361904Y-93105000D01*
X148361904Y-93105000D02*
X148266666Y-93200238D01*
X148266666Y-93200238D02*
X148219047Y-93295476D01*
X148219047Y-93295476D02*
X148171428Y-93485952D01*
X148171428Y-93485952D02*
X148171428Y-93628809D01*
X148171428Y-93628809D02*
X148219047Y-93819285D01*
X148219047Y-93819285D02*
X148266666Y-93914523D01*
X148266666Y-93914523D02*
X148361904Y-94009761D01*
X148361904Y-94009761D02*
X148504761Y-94057380D01*
X148504761Y-94057380D02*
X148599999Y-94057380D01*
X148599999Y-94057380D02*
X148742856Y-94009761D01*
X148742856Y-94009761D02*
X148790475Y-93962142D01*
X148790475Y-93962142D02*
X148790475Y-93628809D01*
X148790475Y-93628809D02*
X148599999Y-93628809D01*
X149219047Y-94057380D02*
X149219047Y-93057380D01*
X149219047Y-93533571D02*
X149790475Y-93533571D01*
X149790475Y-94057380D02*
X149790475Y-93057380D01*
X150123809Y-93057380D02*
X150695237Y-93057380D01*
X150409523Y-94057380D02*
X150409523Y-93057380D01*
X151533333Y-93057380D02*
X152199999Y-94057380D01*
X152199999Y-93057380D02*
X151533333Y-94057380D01*
X153009523Y-93390714D02*
X153009523Y-94057380D01*
X152771428Y-93009761D02*
X152533333Y-93724047D01*
X152533333Y-93724047D02*
X153152380Y-93724047D01*
X154466666Y-93533571D02*
X154133333Y-93533571D01*
X154133333Y-94057380D02*
X154133333Y-93057380D01*
X154133333Y-93057380D02*
X154609523Y-93057380D01*
X154942857Y-93771666D02*
X155419047Y-93771666D01*
X154847619Y-94057380D02*
X155180952Y-93057380D01*
X155180952Y-93057380D02*
X155514285Y-94057380D01*
X156180952Y-93533571D02*
X156323809Y-93581190D01*
X156323809Y-93581190D02*
X156371428Y-93628809D01*
X156371428Y-93628809D02*
X156419047Y-93724047D01*
X156419047Y-93724047D02*
X156419047Y-93866904D01*
X156419047Y-93866904D02*
X156371428Y-93962142D01*
X156371428Y-93962142D02*
X156323809Y-94009761D01*
X156323809Y-94009761D02*
X156228571Y-94057380D01*
X156228571Y-94057380D02*
X155847619Y-94057380D01*
X155847619Y-94057380D02*
X155847619Y-93057380D01*
X155847619Y-93057380D02*
X156180952Y-93057380D01*
X156180952Y-93057380D02*
X156276190Y-93105000D01*
X156276190Y-93105000D02*
X156323809Y-93152619D01*
X156323809Y-93152619D02*
X156371428Y-93247857D01*
X156371428Y-93247857D02*
X156371428Y-93343095D01*
X156371428Y-93343095D02*
X156323809Y-93438333D01*
X156323809Y-93438333D02*
X156276190Y-93485952D01*
X156276190Y-93485952D02*
X156180952Y-93533571D01*
X156180952Y-93533571D02*
X155847619Y-93533571D01*
X157419047Y-94057380D02*
X157085714Y-93581190D01*
X156847619Y-94057380D02*
X156847619Y-93057380D01*
X156847619Y-93057380D02*
X157228571Y-93057380D01*
X157228571Y-93057380D02*
X157323809Y-93105000D01*
X157323809Y-93105000D02*
X157371428Y-93152619D01*
X157371428Y-93152619D02*
X157419047Y-93247857D01*
X157419047Y-93247857D02*
X157419047Y-93390714D01*
X157419047Y-93390714D02*
X157371428Y-93485952D01*
X157371428Y-93485952D02*
X157323809Y-93533571D01*
X157323809Y-93533571D02*
X157228571Y-93581190D01*
X157228571Y-93581190D02*
X156847619Y-93581190D01*
X157847619Y-94057380D02*
X157847619Y-93057380D01*
X158895237Y-93962142D02*
X158847618Y-94009761D01*
X158847618Y-94009761D02*
X158704761Y-94057380D01*
X158704761Y-94057380D02*
X158609523Y-94057380D01*
X158609523Y-94057380D02*
X158466666Y-94009761D01*
X158466666Y-94009761D02*
X158371428Y-93914523D01*
X158371428Y-93914523D02*
X158323809Y-93819285D01*
X158323809Y-93819285D02*
X158276190Y-93628809D01*
X158276190Y-93628809D02*
X158276190Y-93485952D01*
X158276190Y-93485952D02*
X158323809Y-93295476D01*
X158323809Y-93295476D02*
X158371428Y-93200238D01*
X158371428Y-93200238D02*
X158466666Y-93105000D01*
X158466666Y-93105000D02*
X158609523Y-93057380D01*
X158609523Y-93057380D02*
X158704761Y-93057380D01*
X158704761Y-93057380D02*
X158847618Y-93105000D01*
X158847618Y-93105000D02*
X158895237Y-93152619D01*
X159276190Y-93771666D02*
X159752380Y-93771666D01*
X159180952Y-94057380D02*
X159514285Y-93057380D01*
X159514285Y-93057380D02*
X159847618Y-94057380D01*
X160038095Y-93057380D02*
X160609523Y-93057380D01*
X160323809Y-94057380D02*
X160323809Y-93057380D01*
X160942857Y-94057380D02*
X160942857Y-93057380D01*
X161609523Y-93057380D02*
X161799999Y-93057380D01*
X161799999Y-93057380D02*
X161895237Y-93105000D01*
X161895237Y-93105000D02*
X161990475Y-93200238D01*
X161990475Y-93200238D02*
X162038094Y-93390714D01*
X162038094Y-93390714D02*
X162038094Y-93724047D01*
X162038094Y-93724047D02*
X161990475Y-93914523D01*
X161990475Y-93914523D02*
X161895237Y-94009761D01*
X161895237Y-94009761D02*
X161799999Y-94057380D01*
X161799999Y-94057380D02*
X161609523Y-94057380D01*
X161609523Y-94057380D02*
X161514285Y-94009761D01*
X161514285Y-94009761D02*
X161419047Y-93914523D01*
X161419047Y-93914523D02*
X161371428Y-93724047D01*
X161371428Y-93724047D02*
X161371428Y-93390714D01*
X161371428Y-93390714D02*
X161419047Y-93200238D01*
X161419047Y-93200238D02*
X161514285Y-93105000D01*
X161514285Y-93105000D02*
X161609523Y-93057380D01*
X162466666Y-94057380D02*
X162466666Y-93057380D01*
X162466666Y-93057380D02*
X163038094Y-94057380D01*
X163038094Y-94057380D02*
X163038094Y-93057380D01*
X164114285Y-94057380D02*
X164114285Y-93057380D01*
X164114285Y-93057380D02*
X164495237Y-93057380D01*
X164495237Y-93057380D02*
X164590475Y-93105000D01*
X164590475Y-93105000D02*
X164638094Y-93152619D01*
X164638094Y-93152619D02*
X164685713Y-93247857D01*
X164685713Y-93247857D02*
X164685713Y-93390714D01*
X164685713Y-93390714D02*
X164638094Y-93485952D01*
X164638094Y-93485952D02*
X164590475Y-93533571D01*
X164590475Y-93533571D02*
X164495237Y-93581190D01*
X164495237Y-93581190D02*
X164114285Y-93581190D01*
X165066666Y-93771666D02*
X165542856Y-93771666D01*
X164971428Y-94057380D02*
X165304761Y-93057380D01*
X165304761Y-93057380D02*
X165638094Y-94057380D01*
X165971428Y-94057380D02*
X165971428Y-93057380D01*
X165971428Y-93057380D02*
X166542856Y-94057380D01*
X166542856Y-94057380D02*
X166542856Y-93057380D01*
X167019047Y-93533571D02*
X167352380Y-93533571D01*
X167495237Y-94057380D02*
X167019047Y-94057380D01*
X167019047Y-94057380D02*
X167019047Y-93057380D01*
X167019047Y-93057380D02*
X167495237Y-93057380D01*
X168399999Y-94057380D02*
X167923809Y-94057380D01*
X167923809Y-94057380D02*
X167923809Y-93057380D01*
X169904761Y-94057380D02*
X169571428Y-93581190D01*
X169333333Y-94057380D02*
X169333333Y-93057380D01*
X169333333Y-93057380D02*
X169714285Y-93057380D01*
X169714285Y-93057380D02*
X169809523Y-93105000D01*
X169809523Y-93105000D02*
X169857142Y-93152619D01*
X169857142Y-93152619D02*
X169904761Y-93247857D01*
X169904761Y-93247857D02*
X169904761Y-93390714D01*
X169904761Y-93390714D02*
X169857142Y-93485952D01*
X169857142Y-93485952D02*
X169809523Y-93533571D01*
X169809523Y-93533571D02*
X169714285Y-93581190D01*
X169714285Y-93581190D02*
X169333333Y-93581190D01*
X170333333Y-93533571D02*
X170666666Y-93533571D01*
X170809523Y-94057380D02*
X170333333Y-94057380D01*
X170333333Y-94057380D02*
X170333333Y-93057380D01*
X170333333Y-93057380D02*
X170809523Y-93057380D01*
X171095238Y-93057380D02*
X171428571Y-94057380D01*
X171428571Y-94057380D02*
X171761904Y-93057380D01*
X172095238Y-93676428D02*
X172857143Y-93676428D01*
X173285714Y-93771666D02*
X173761904Y-93771666D01*
X173190476Y-94057380D02*
X173523809Y-93057380D01*
X173523809Y-93057380D02*
X173857142Y-94057380D01*
X174714285Y-94057380D02*
X174142857Y-94057380D01*
X174428571Y-94057380D02*
X174428571Y-93057380D01*
X174428571Y-93057380D02*
X174333333Y-93200238D01*
X174333333Y-93200238D02*
X174238095Y-93295476D01*
X174238095Y-93295476D02*
X174142857Y-93343095D01*
X154180951Y-94677380D02*
X154180951Y-95391666D01*
X154180951Y-95391666D02*
X154133332Y-95534523D01*
X154133332Y-95534523D02*
X154038094Y-95629761D01*
X154038094Y-95629761D02*
X153895237Y-95677380D01*
X153895237Y-95677380D02*
X153799999Y-95677380D01*
X155133332Y-95677380D02*
X154657142Y-95677380D01*
X154657142Y-95677380D02*
X154657142Y-94677380D01*
X156038094Y-95582142D02*
X155990475Y-95629761D01*
X155990475Y-95629761D02*
X155847618Y-95677380D01*
X155847618Y-95677380D02*
X155752380Y-95677380D01*
X155752380Y-95677380D02*
X155609523Y-95629761D01*
X155609523Y-95629761D02*
X155514285Y-95534523D01*
X155514285Y-95534523D02*
X155466666Y-95439285D01*
X155466666Y-95439285D02*
X155419047Y-95248809D01*
X155419047Y-95248809D02*
X155419047Y-95105952D01*
X155419047Y-95105952D02*
X155466666Y-94915476D01*
X155466666Y-94915476D02*
X155514285Y-94820238D01*
X155514285Y-94820238D02*
X155609523Y-94725000D01*
X155609523Y-94725000D02*
X155752380Y-94677380D01*
X155752380Y-94677380D02*
X155847618Y-94677380D01*
X155847618Y-94677380D02*
X155990475Y-94725000D01*
X155990475Y-94725000D02*
X156038094Y-94772619D01*
X156752380Y-94677380D02*
X156752380Y-95391666D01*
X156752380Y-95391666D02*
X156704761Y-95534523D01*
X156704761Y-95534523D02*
X156609523Y-95629761D01*
X156609523Y-95629761D02*
X156466666Y-95677380D01*
X156466666Y-95677380D02*
X156371428Y-95677380D01*
X157704761Y-95677380D02*
X157228571Y-95677380D01*
X157228571Y-95677380D02*
X157228571Y-94677380D01*
X158609523Y-95582142D02*
X158561904Y-95629761D01*
X158561904Y-95629761D02*
X158419047Y-95677380D01*
X158419047Y-95677380D02*
X158323809Y-95677380D01*
X158323809Y-95677380D02*
X158180952Y-95629761D01*
X158180952Y-95629761D02*
X158085714Y-95534523D01*
X158085714Y-95534523D02*
X158038095Y-95439285D01*
X158038095Y-95439285D02*
X157990476Y-95248809D01*
X157990476Y-95248809D02*
X157990476Y-95105952D01*
X157990476Y-95105952D02*
X158038095Y-94915476D01*
X158038095Y-94915476D02*
X158085714Y-94820238D01*
X158085714Y-94820238D02*
X158180952Y-94725000D01*
X158180952Y-94725000D02*
X158323809Y-94677380D01*
X158323809Y-94677380D02*
X158419047Y-94677380D01*
X158419047Y-94677380D02*
X158561904Y-94725000D01*
X158561904Y-94725000D02*
X158609523Y-94772619D01*
X159323809Y-94677380D02*
X159323809Y-95391666D01*
X159323809Y-95391666D02*
X159276190Y-95534523D01*
X159276190Y-95534523D02*
X159180952Y-95629761D01*
X159180952Y-95629761D02*
X159038095Y-95677380D01*
X159038095Y-95677380D02*
X158942857Y-95677380D01*
X160276190Y-95677380D02*
X159800000Y-95677380D01*
X159800000Y-95677380D02*
X159800000Y-94677380D01*
X161180952Y-95582142D02*
X161133333Y-95629761D01*
X161133333Y-95629761D02*
X160990476Y-95677380D01*
X160990476Y-95677380D02*
X160895238Y-95677380D01*
X160895238Y-95677380D02*
X160752381Y-95629761D01*
X160752381Y-95629761D02*
X160657143Y-95534523D01*
X160657143Y-95534523D02*
X160609524Y-95439285D01*
X160609524Y-95439285D02*
X160561905Y-95248809D01*
X160561905Y-95248809D02*
X160561905Y-95105952D01*
X160561905Y-95105952D02*
X160609524Y-94915476D01*
X160609524Y-94915476D02*
X160657143Y-94820238D01*
X160657143Y-94820238D02*
X160752381Y-94725000D01*
X160752381Y-94725000D02*
X160895238Y-94677380D01*
X160895238Y-94677380D02*
X160990476Y-94677380D01*
X160990476Y-94677380D02*
X161133333Y-94725000D01*
X161133333Y-94725000D02*
X161180952Y-94772619D01*
X161895238Y-94677380D02*
X161895238Y-95391666D01*
X161895238Y-95391666D02*
X161847619Y-95534523D01*
X161847619Y-95534523D02*
X161752381Y-95629761D01*
X161752381Y-95629761D02*
X161609524Y-95677380D01*
X161609524Y-95677380D02*
X161514286Y-95677380D01*
X162847619Y-95677380D02*
X162371429Y-95677380D01*
X162371429Y-95677380D02*
X162371429Y-94677380D01*
X163752381Y-95582142D02*
X163704762Y-95629761D01*
X163704762Y-95629761D02*
X163561905Y-95677380D01*
X163561905Y-95677380D02*
X163466667Y-95677380D01*
X163466667Y-95677380D02*
X163323810Y-95629761D01*
X163323810Y-95629761D02*
X163228572Y-95534523D01*
X163228572Y-95534523D02*
X163180953Y-95439285D01*
X163180953Y-95439285D02*
X163133334Y-95248809D01*
X163133334Y-95248809D02*
X163133334Y-95105952D01*
X163133334Y-95105952D02*
X163180953Y-94915476D01*
X163180953Y-94915476D02*
X163228572Y-94820238D01*
X163228572Y-94820238D02*
X163323810Y-94725000D01*
X163323810Y-94725000D02*
X163466667Y-94677380D01*
X163466667Y-94677380D02*
X163561905Y-94677380D01*
X163561905Y-94677380D02*
X163704762Y-94725000D01*
X163704762Y-94725000D02*
X163752381Y-94772619D01*
%LPC*%
D11*
X152000000Y-65000000D03*
D12*
X146950000Y-71600000D03*
X144150000Y-71600000D03*
D13*
X148975000Y-68350000D03*
X151925000Y-68350000D03*
D11*
X144000000Y-65000000D03*
D13*
X144075000Y-68350000D03*
X147025000Y-68350000D03*
D12*
X151850000Y-71600000D03*
X149050000Y-71600000D03*
D13*
X165675000Y-68350000D03*
X168625000Y-68350000D03*
D12*
X173450000Y-71600000D03*
X170650000Y-71600000D03*
X168550000Y-71600000D03*
X165750000Y-71600000D03*
D11*
X173600000Y-65000000D03*
D13*
X170575000Y-68350000D03*
X173525000Y-68350000D03*
D11*
X165600000Y-65000000D03*
X165600000Y-81000000D03*
D13*
X170575000Y-84350000D03*
X173525000Y-84350000D03*
D11*
X173600000Y-81000000D03*
D12*
X168550000Y-87600000D03*
X165750000Y-87600000D03*
X173450000Y-87600000D03*
X170650000Y-87600000D03*
D13*
X165675000Y-84350000D03*
X168625000Y-84350000D03*
X148975000Y-84350000D03*
X151925000Y-84350000D03*
X144075000Y-84350000D03*
X147025000Y-84350000D03*
D11*
X152000000Y-81000000D03*
D12*
X151850000Y-87600000D03*
X149050000Y-87600000D03*
D11*
X144000000Y-81000000D03*
D12*
X146950000Y-87600000D03*
X144150000Y-87600000D03*
D14*
X163300035Y-70000038D03*
X163300033Y-69250038D03*
X163300033Y-68500056D03*
X163300033Y-67750038D03*
X163300033Y-67000038D03*
X141700036Y-86000001D03*
X141700034Y-85250001D03*
X141700034Y-84500019D03*
X141700034Y-83750001D03*
X141700034Y-83000001D03*
X141700000Y-60750000D03*
X141700000Y-60000000D03*
X141700000Y-59250000D03*
X141700000Y-58500000D03*
X141700000Y-57750000D03*
X141700000Y-57000000D03*
X141700000Y-56250000D03*
X141700000Y-96750000D03*
X141700000Y-96000000D03*
X141700000Y-95250000D03*
X141700000Y-94500000D03*
X141700000Y-93750000D03*
X141700000Y-93000000D03*
X141700000Y-92250000D03*
X175900000Y-96750000D03*
X175900000Y-96000000D03*
X175900000Y-95250000D03*
X175900000Y-94500000D03*
X175900000Y-93750000D03*
X175900000Y-93000000D03*
X175900000Y-92250000D03*
X154300036Y-67000001D03*
X154300038Y-67750001D03*
X154300038Y-68499983D03*
X154300038Y-69250001D03*
X154300038Y-70000001D03*
X175900035Y-67000038D03*
X175900037Y-67750038D03*
X175900037Y-68500020D03*
X175900037Y-69250038D03*
X175900037Y-70000038D03*
X141700036Y-70000001D03*
X141700034Y-69250001D03*
X141700034Y-68500019D03*
X141700034Y-67750001D03*
X141700034Y-67000001D03*
D15*
X180400000Y-94500000D03*
D14*
X154300036Y-83000001D03*
X154300038Y-83750001D03*
X154300038Y-84499983D03*
X154300038Y-85250001D03*
X154300038Y-86000001D03*
D15*
X137200000Y-94500000D03*
D14*
X175900000Y-83000000D03*
X175900002Y-83750000D03*
X175900002Y-84499982D03*
X175900002Y-85250000D03*
X175900002Y-86000000D03*
X175900000Y-60750000D03*
X175900000Y-60000000D03*
X175900000Y-59250000D03*
X175900000Y-58500000D03*
X175900000Y-57750000D03*
X175900000Y-57000000D03*
X175900000Y-56250000D03*
D15*
X158800000Y-58500000D03*
D14*
X163300000Y-86000000D03*
X163299998Y-85250000D03*
X163299998Y-84500018D03*
X163299998Y-83750000D03*
X163299998Y-83000000D03*
M02*
