G04 #@! TF.GenerationSoftware,KiCad,Pcbnew,(7.0.0-0)*
G04 #@! TF.CreationDate,2025-07-24T17:03:06+12:00*
G04 #@! TF.ProjectId,12V_light_panelized_X4,3132565f-6c69-4676-9874-5f70616e656c,rev?*
G04 #@! TF.SameCoordinates,Original*
G04 #@! TF.FileFunction,Legend,Bot*
G04 #@! TF.FilePolarity,Positive*
%FSLAX46Y46*%
G04 Gerber Fmt 4.6, Leading zero omitted, Abs format (unit mm)*
G04 Created by KiCad (PCBNEW (7.0.0-0)) date 2025-07-24 17:03:06*
%MOMM*%
%LPD*%
G01*
G04 APERTURE LIST*
%ADD10C,0.100000*%
%ADD11C,0.400000*%
%ADD12C,0.600000*%
%ADD13C,1.252000*%
G04 APERTURE END LIST*
D10*
X163375000Y-94750000D02*
X163375000Y-93550000D01*
X163375000Y-93550000D02*
X162975000Y-93550000D01*
D11*
X163169975Y-93700000D02*
X163169975Y-94750000D01*
D10*
X162975000Y-94750000D02*
X162975000Y-93550000D01*
X162375000Y-94750000D02*
X162375000Y-93550000D01*
X162375000Y-93550000D02*
X161975000Y-93550000D01*
D11*
X162169975Y-93700000D02*
X162169975Y-94750000D01*
D10*
X161975000Y-94750000D02*
X161975000Y-93550000D01*
X161375000Y-94750000D02*
X161375000Y-93550000D01*
X161375000Y-93550000D02*
X160975000Y-93550000D01*
D11*
X161169975Y-93700000D02*
X161169975Y-94750000D01*
D10*
X160975000Y-94750000D02*
X160975000Y-93550000D01*
X158375000Y-95450000D02*
X158375000Y-93550000D01*
X158375000Y-95450000D02*
X157219975Y-95450000D01*
X158375000Y-93550000D02*
X157975000Y-93550000D01*
D11*
X158169975Y-93700000D02*
X158169975Y-95300000D01*
D10*
X157975000Y-95050000D02*
X157975000Y-93550000D01*
X157975000Y-95050000D02*
X157219975Y-95050000D01*
D11*
X157369975Y-95250000D02*
X158219975Y-95250000D01*
D10*
X157219975Y-95050000D02*
X157219975Y-95450000D01*
X156875000Y-95450000D02*
X156875000Y-93550000D01*
X156875000Y-95450000D02*
X156475000Y-95450000D01*
X156875000Y-93550000D02*
X155719975Y-93550000D01*
D11*
X156669975Y-95300000D02*
X156669975Y-93700000D01*
D10*
X156475000Y-94700000D02*
X156475000Y-95450000D01*
X156475000Y-94700000D02*
X155969975Y-94700000D01*
X156475000Y-94300000D02*
X155969975Y-94300000D01*
X156475000Y-93950000D02*
X156475000Y-94300000D01*
X156475000Y-93950000D02*
X155719975Y-93950000D01*
D11*
X156119975Y-94500000D02*
X156669975Y-94500000D01*
D10*
X155969975Y-94300000D02*
X155969975Y-94700000D01*
D11*
X155869975Y-93750000D02*
X156719975Y-93750000D01*
D10*
X155719975Y-93550000D02*
X155719975Y-93950000D01*
X155375000Y-95450000D02*
X155375000Y-93550000D01*
X155375000Y-95450000D02*
X154219975Y-95450000D01*
X155375000Y-93550000D02*
X154219975Y-93550000D01*
D11*
X155169975Y-95300000D02*
X155169975Y-93700000D01*
D10*
X154975000Y-95050000D02*
X154219975Y-95050000D01*
X154975000Y-94700000D02*
X154975000Y-95050000D01*
X154975000Y-94700000D02*
X154469975Y-94700000D01*
X154975000Y-94300000D02*
X154469975Y-94300000D01*
X154975000Y-93950000D02*
X154975000Y-94300000D01*
X154975000Y-93950000D02*
X154219975Y-93950000D01*
D11*
X154619975Y-94500000D02*
X155169975Y-94500000D01*
D10*
X154469975Y-94300000D02*
X154469975Y-94700000D01*
D11*
X154369975Y-95250000D02*
X155219975Y-95250000D01*
X154369975Y-93750000D02*
X155219975Y-93750000D01*
D10*
X154219975Y-95050000D02*
X154219975Y-95450000D01*
X154219975Y-93550000D02*
X154219975Y-93950000D01*
X162675000Y-95450000D02*
G75*
G03*
X163375000Y-94750000I1J699999D01*
G01*
D11*
X162675000Y-95255025D02*
G75*
G03*
X163180025Y-94750000I1J505024D01*
G01*
D10*
X162675000Y-95050000D02*
G75*
G03*
X162975000Y-94750000I0J300000D01*
G01*
X162180025Y-95244975D02*
G75*
G03*
X162675000Y-95450000I494973J494971D01*
G01*
D11*
X162169975Y-94750000D02*
G75*
G03*
X162675000Y-95255025I505024J-1D01*
G01*
D10*
X162375000Y-94750000D02*
G75*
G03*
X162675000Y-95050000I300000J0D01*
G01*
D11*
X161674999Y-95255026D02*
G75*
G03*
X162180024Y-94750001I1J505024D01*
G01*
D10*
X161675000Y-95450000D02*
G75*
G03*
X162169975Y-95244975I0J700001D01*
G01*
X161675000Y-95050000D02*
G75*
G03*
X161975000Y-94750000I0J300000D01*
G01*
X160975000Y-94750000D02*
G75*
G03*
X161675000Y-95450000I699999J-1D01*
G01*
D11*
X161169975Y-94750000D02*
G75*
G03*
X161675000Y-95255025I505024J-1D01*
G01*
D10*
X161375000Y-94750000D02*
G75*
G03*
X161675000Y-95050000I300000J0D01*
G01*
X160225000Y-94500000D02*
G75*
G03*
X160225000Y-94500000I-550000J0D01*
G01*
D11*
X160419975Y-94500000D02*
G75*
G03*
X160419975Y-94500000I-744975J0D01*
G01*
D10*
X160625000Y-94500000D02*
G75*
G03*
X160625000Y-94500000I-950000J0D01*
G01*
%LPC*%
D12*
X163300035Y-70000038D03*
X163300033Y-69250038D03*
X163300033Y-68500056D03*
X163300033Y-67750038D03*
X163300033Y-67000038D03*
X141700036Y-86000001D03*
X141700034Y-85250001D03*
X141700034Y-84500019D03*
X141700034Y-83750001D03*
X141700034Y-83000001D03*
X141700000Y-60750000D03*
X141700000Y-60000000D03*
X141700000Y-59250000D03*
X141700000Y-58500000D03*
X141700000Y-57750000D03*
X141700000Y-57000000D03*
X141700000Y-56250000D03*
X141700000Y-96750000D03*
X141700000Y-96000000D03*
X141700000Y-95250000D03*
X141700000Y-94500000D03*
X141700000Y-93750000D03*
X141700000Y-93000000D03*
X141700000Y-92250000D03*
X175900000Y-96750000D03*
X175900000Y-96000000D03*
X175900000Y-95250000D03*
X175900000Y-94500000D03*
X175900000Y-93750000D03*
X175900000Y-93000000D03*
X175900000Y-92250000D03*
X154300036Y-67000001D03*
X154300038Y-67750001D03*
X154300038Y-68499983D03*
X154300038Y-69250001D03*
X154300038Y-70000001D03*
X175900035Y-67000038D03*
X175900037Y-67750038D03*
X175900037Y-68500020D03*
X175900037Y-69250038D03*
X175900037Y-70000038D03*
X141700036Y-70000001D03*
X141700034Y-69250001D03*
X141700034Y-68500019D03*
X141700034Y-67750001D03*
X141700034Y-67000001D03*
D13*
X180400000Y-94500000D03*
D12*
X154300036Y-83000001D03*
X154300038Y-83750001D03*
X154300038Y-84499983D03*
X154300038Y-85250001D03*
X154300038Y-86000001D03*
D13*
X137200000Y-94500000D03*
D12*
X175900000Y-83000000D03*
X175900002Y-83750000D03*
X175900002Y-84499982D03*
X175900002Y-85250000D03*
X175900002Y-86000000D03*
X175900000Y-60750000D03*
X175900000Y-60000000D03*
X175900000Y-59250000D03*
X175900000Y-58500000D03*
X175900000Y-57750000D03*
X175900000Y-57000000D03*
X175900000Y-56250000D03*
D13*
X158800000Y-58500000D03*
D12*
X163300000Y-86000000D03*
X163299998Y-85250000D03*
X163299998Y-84500018D03*
X163299998Y-83750000D03*
X163299998Y-83000000D03*
M02*
