%TF.GenerationSoftware,KiCad,Pcbnew,(7.0.0-0)*%
%TF.CreationDate,2025-07-24T17:03:27+12:00*%
%TF.ProjectId,12V_light_panelized_X4,3132565f-6c69-4676-9874-5f70616e656c,rev?*%
%TF.SameCoordinates,Original*%
%TF.FileFunction,Drillmap*%
%TF.FilePolarity,Positive*%
%FSLAX45Y45*%
G04 Gerber Fmt 4.5, Leading zero omitted, Abs format (unit mm)*
G04 Created by KiCad (PCBNEW (7.0.0-0)) date 2025-07-24 17:03:27*
%MOMM*%
%LPD*%
G01*
G04 APERTURE LIST*
%ADD10C,0.150000*%
%ADD11C,0.200000*%
%ADD12C,0.030000*%
G04 APERTURE END LIST*
D10*
X17160004Y-6590004D02*
X17160004Y-6300004D01*
X17789996Y-6200004D02*
G75*
G03*
X17690004Y-6100004I-99996J4D01*
G01*
X16330003Y-7400004D02*
X16330003Y-7050007D01*
X15430004Y-6300000D02*
X15000004Y-6300000D01*
X14170004Y-6300000D02*
X14600004Y-6300000D01*
X13970004Y-6650000D02*
X13970004Y-6200000D01*
X16130000Y-8650004D02*
X16130000Y-9100000D01*
X13970003Y-8650004D02*
X13970004Y-9100000D01*
X15630004Y-6649996D02*
X15630004Y-6200000D01*
X16130003Y-6650004D02*
X16130003Y-6200004D01*
X16330003Y-7400004D02*
X17590004Y-7400004D01*
X16330003Y-6300004D02*
X16330003Y-6650004D01*
X14600004Y-7900000D02*
X14600004Y-8190000D01*
X16230003Y-6100004D02*
X17690004Y-6100004D01*
X17590000Y-9000000D02*
X17590000Y-8650000D01*
X15630004Y-8650000D02*
X15630004Y-9100000D01*
X17590004Y-7400004D02*
X17590004Y-7050004D01*
X13970003Y-7050004D02*
X13970004Y-8250000D01*
X15430004Y-6649996D02*
X15430004Y-6300000D01*
X14170004Y-6300000D02*
X14170003Y-6650000D01*
X16760003Y-6300004D02*
X16760003Y-6590004D01*
X15430004Y-8249996D02*
X15430004Y-7900000D01*
X16860000Y-8290000D02*
X17060000Y-8290000D01*
X17060004Y-6690003D02*
G75*
G03*
X17160004Y-6590004I-4J100004D01*
G01*
X15000004Y-8190000D02*
X15000004Y-7900000D01*
X16330000Y-9000000D02*
X16330000Y-8650004D01*
X17590004Y-6300004D02*
X17160004Y-6300004D01*
X16330000Y-7900000D02*
X16760000Y-7900000D01*
X17690000Y-9200000D02*
X16230000Y-9200000D01*
X13970000Y-9100000D02*
G75*
G03*
X14070004Y-9200000I100000J0D01*
G01*
X14170004Y-7400000D02*
X15430004Y-7400000D01*
X14170004Y-7400000D02*
X14170003Y-7050004D01*
X16759996Y-6590004D02*
G75*
G03*
X16860004Y-6690004I100004J4D01*
G01*
X16860004Y-6690004D02*
X17060004Y-6690004D01*
X15530004Y-9200004D02*
G75*
G03*
X15630004Y-9100000I-4J100004D01*
G01*
X16760000Y-8190000D02*
G75*
G03*
X16860000Y-8290000I100000J0D01*
G01*
X16230003Y-6100003D02*
G75*
G03*
X16130003Y-6200004I-4J-99997D01*
G01*
X17590004Y-6650000D02*
X17590004Y-6300004D01*
X14600000Y-8190000D02*
G75*
G03*
X14700004Y-8290000I100000J0D01*
G01*
X15530004Y-9200000D02*
X14070004Y-9200000D01*
X17060000Y-8290000D02*
G75*
G03*
X17160000Y-8190000I0J100000D01*
G01*
X15430004Y-9000000D02*
X15430004Y-8650000D01*
X17790004Y-6650000D02*
X17790004Y-6200004D01*
X17790004Y-7050004D02*
X17790000Y-8249996D01*
X16330000Y-9000000D02*
X17590000Y-9000000D01*
X17590000Y-8249996D02*
X17590000Y-7900000D01*
X15430004Y-7900000D02*
X15000004Y-7900000D01*
X15630000Y-6200000D02*
G75*
G03*
X15530004Y-6100000I-100000J0D01*
G01*
X16130000Y-8250000D02*
X16130003Y-7050007D01*
X17690000Y-9200000D02*
G75*
G03*
X17790000Y-9100000I0J100000D01*
G01*
X15630004Y-7050000D02*
X15630004Y-8249996D01*
X17160000Y-8190000D02*
X17160000Y-7900000D01*
X13470000Y-5600000D02*
X18290000Y-5600000D01*
X18290000Y-5600000D02*
X18290000Y-9700000D01*
X18290000Y-9700000D02*
X13470000Y-9700000D01*
X13470000Y-9700000D02*
X13470000Y-5600000D01*
X17790000Y-8650000D02*
X17790000Y-9100000D01*
X14070004Y-6100004D02*
G75*
G03*
X13970004Y-6200000I-4J-99996D01*
G01*
X14600000Y-6590000D02*
G75*
G03*
X14700004Y-6690000I100000J0D01*
G01*
X14070004Y-6100000D02*
X15530004Y-6100000D01*
X14700004Y-6690000D02*
X14900004Y-6690000D01*
X14170004Y-7900000D02*
X14170003Y-8250000D01*
X16330003Y-6300004D02*
X16760003Y-6300004D01*
X16130000Y-9100000D02*
G75*
G03*
X16230000Y-9200000I100000J0D01*
G01*
X15430004Y-7400000D02*
X15430004Y-7050000D01*
X14170004Y-7900000D02*
X14600004Y-7900000D01*
X15000004Y-6590000D02*
X15000004Y-6300000D01*
X14170004Y-9000000D02*
X14170003Y-8650004D01*
X14700004Y-8290000D02*
X14900004Y-8290000D01*
X16330000Y-7900000D02*
X16330000Y-8250000D01*
X16760000Y-7900000D02*
X16760000Y-8190000D01*
X14900004Y-8290004D02*
G75*
G03*
X15000004Y-8190000I-4J100004D01*
G01*
X17590000Y-7900000D02*
X17160000Y-7900000D01*
X14170004Y-9000000D02*
X15430004Y-9000000D01*
X14900004Y-6690004D02*
G75*
G03*
X15000004Y-6590000I-4J100004D01*
G01*
X14600004Y-6300000D02*
X14600004Y-6590000D01*
D11*
D12*
X14275000Y-6780000D02*
X14305000Y-6810000D01*
X14305000Y-6780000D02*
X14275000Y-6810000D01*
X14275000Y-6860000D02*
X14305000Y-6890000D01*
X14305000Y-6860000D02*
X14275000Y-6890000D01*
X14275000Y-8380000D02*
X14305000Y-8410000D01*
X14305000Y-8380000D02*
X14275000Y-8410000D01*
X14275000Y-8460000D02*
X14305000Y-8490000D01*
X14305000Y-8460000D02*
X14275000Y-8490000D01*
X14530000Y-7220000D02*
X14560000Y-7250000D01*
X14560000Y-7220000D02*
X14530000Y-7250000D01*
X14530000Y-7300000D02*
X14560000Y-7330000D01*
X14560000Y-7300000D02*
X14530000Y-7330000D01*
X14530000Y-8820000D02*
X14560000Y-8850000D01*
X14560000Y-8820000D02*
X14530000Y-8850000D01*
X14530000Y-8900000D02*
X14560000Y-8930000D01*
X14560000Y-8900000D02*
X14530000Y-8930000D01*
X15040000Y-6990000D02*
X15070000Y-7020000D01*
X15070000Y-6990000D02*
X15040000Y-7020000D01*
X15040000Y-7070000D02*
X15070000Y-7100000D01*
X15070000Y-7070000D02*
X15040000Y-7100000D01*
X15040000Y-8590000D02*
X15070000Y-8620000D01*
X15070000Y-8590000D02*
X15040000Y-8620000D01*
X15040000Y-8670000D02*
X15070000Y-8700000D01*
X15070000Y-8670000D02*
X15040000Y-8700000D01*
X15295000Y-6780000D02*
X15325000Y-6810000D01*
X15325000Y-6780000D02*
X15295000Y-6810000D01*
X15295000Y-6860000D02*
X15325000Y-6890000D01*
X15325000Y-6860000D02*
X15295000Y-6890000D01*
X15295000Y-8380000D02*
X15325000Y-8410000D01*
X15325000Y-8380000D02*
X15295000Y-8410000D01*
X15295000Y-8460000D02*
X15325000Y-8490000D01*
X15325000Y-8460000D02*
X15295000Y-8490000D01*
X16435000Y-6780000D02*
X16465000Y-6810000D01*
X16465000Y-6780000D02*
X16435000Y-6810000D01*
X16435000Y-6860000D02*
X16465000Y-6890000D01*
X16465000Y-6860000D02*
X16435000Y-6890000D01*
X16435000Y-8380000D02*
X16465000Y-8410000D01*
X16465000Y-8380000D02*
X16435000Y-8410000D01*
X16435000Y-8460000D02*
X16465000Y-8490000D01*
X16465000Y-8460000D02*
X16435000Y-8490000D01*
X16690000Y-7220000D02*
X16720000Y-7250000D01*
X16720000Y-7220000D02*
X16690000Y-7250000D01*
X16690000Y-7300000D02*
X16720000Y-7330000D01*
X16720000Y-7300000D02*
X16690000Y-7330000D01*
X16690000Y-8820000D02*
X16720000Y-8850000D01*
X16720000Y-8820000D02*
X16690000Y-8850000D01*
X16690000Y-8900000D02*
X16720000Y-8930000D01*
X16720000Y-8900000D02*
X16690000Y-8930000D01*
X17200000Y-6990000D02*
X17230000Y-7020000D01*
X17230000Y-6990000D02*
X17200000Y-7020000D01*
X17200000Y-7070000D02*
X17230000Y-7100000D01*
X17230000Y-7070000D02*
X17200000Y-7100000D01*
X17200000Y-8590000D02*
X17230000Y-8620000D01*
X17230000Y-8590000D02*
X17200000Y-8620000D01*
X17200000Y-8670000D02*
X17230000Y-8700000D01*
X17230000Y-8670000D02*
X17200000Y-8700000D01*
X17455000Y-6780000D02*
X17485000Y-6810000D01*
X17485000Y-6780000D02*
X17455000Y-6810000D01*
X17455000Y-6860000D02*
X17485000Y-6890000D01*
X17485000Y-6860000D02*
X17455000Y-6890000D01*
X17455000Y-8380000D02*
X17485000Y-8410000D01*
X17485000Y-8380000D02*
X17455000Y-8410000D01*
X17455000Y-8460000D02*
X17485000Y-8490000D01*
X17485000Y-8460000D02*
X17455000Y-8490000D01*
D11*
X13710119Y-10000976D02*
X13710119Y-9800976D01*
X13710119Y-9800976D02*
X13757738Y-9800976D01*
X13757738Y-9800976D02*
X13786309Y-9810500D01*
X13786309Y-9810500D02*
X13805357Y-9829548D01*
X13805357Y-9829548D02*
X13814881Y-9848595D01*
X13814881Y-9848595D02*
X13824405Y-9886690D01*
X13824405Y-9886690D02*
X13824405Y-9915262D01*
X13824405Y-9915262D02*
X13814881Y-9953357D01*
X13814881Y-9953357D02*
X13805357Y-9972405D01*
X13805357Y-9972405D02*
X13786309Y-9991452D01*
X13786309Y-9991452D02*
X13757738Y-10000976D01*
X13757738Y-10000976D02*
X13710119Y-10000976D01*
X13910119Y-10000976D02*
X13910119Y-9867643D01*
X13910119Y-9905738D02*
X13919643Y-9886690D01*
X13919643Y-9886690D02*
X13929167Y-9877167D01*
X13929167Y-9877167D02*
X13948214Y-9867643D01*
X13948214Y-9867643D02*
X13967262Y-9867643D01*
X14033928Y-10000976D02*
X14033928Y-9867643D01*
X14033928Y-9800976D02*
X14024405Y-9810500D01*
X14024405Y-9810500D02*
X14033928Y-9820024D01*
X14033928Y-9820024D02*
X14043452Y-9810500D01*
X14043452Y-9810500D02*
X14033928Y-9800976D01*
X14033928Y-9800976D02*
X14033928Y-9820024D01*
X14157738Y-10000976D02*
X14138690Y-9991452D01*
X14138690Y-9991452D02*
X14129167Y-9972405D01*
X14129167Y-9972405D02*
X14129167Y-9800976D01*
X14262500Y-10000976D02*
X14243452Y-9991452D01*
X14243452Y-9991452D02*
X14233928Y-9972405D01*
X14233928Y-9972405D02*
X14233928Y-9800976D01*
X14458690Y-10000976D02*
X14458690Y-9800976D01*
X14458690Y-9800976D02*
X14525357Y-9943833D01*
X14525357Y-9943833D02*
X14592024Y-9800976D01*
X14592024Y-9800976D02*
X14592024Y-10000976D01*
X14772976Y-10000976D02*
X14772976Y-9896214D01*
X14772976Y-9896214D02*
X14763452Y-9877167D01*
X14763452Y-9877167D02*
X14744405Y-9867643D01*
X14744405Y-9867643D02*
X14706309Y-9867643D01*
X14706309Y-9867643D02*
X14687262Y-9877167D01*
X14772976Y-9991452D02*
X14753928Y-10000976D01*
X14753928Y-10000976D02*
X14706309Y-10000976D01*
X14706309Y-10000976D02*
X14687262Y-9991452D01*
X14687262Y-9991452D02*
X14677738Y-9972405D01*
X14677738Y-9972405D02*
X14677738Y-9953357D01*
X14677738Y-9953357D02*
X14687262Y-9934310D01*
X14687262Y-9934310D02*
X14706309Y-9924786D01*
X14706309Y-9924786D02*
X14753928Y-9924786D01*
X14753928Y-9924786D02*
X14772976Y-9915262D01*
X14868214Y-9867643D02*
X14868214Y-10067643D01*
X14868214Y-9877167D02*
X14887262Y-9867643D01*
X14887262Y-9867643D02*
X14925357Y-9867643D01*
X14925357Y-9867643D02*
X14944405Y-9877167D01*
X14944405Y-9877167D02*
X14953928Y-9886690D01*
X14953928Y-9886690D02*
X14963452Y-9905738D01*
X14963452Y-9905738D02*
X14963452Y-9962881D01*
X14963452Y-9962881D02*
X14953928Y-9981929D01*
X14953928Y-9981929D02*
X14944405Y-9991452D01*
X14944405Y-9991452D02*
X14925357Y-10000976D01*
X14925357Y-10000976D02*
X14887262Y-10000976D01*
X14887262Y-10000976D02*
X14868214Y-9991452D01*
X15049167Y-9981929D02*
X15058690Y-9991452D01*
X15058690Y-9991452D02*
X15049167Y-10000976D01*
X15049167Y-10000976D02*
X15039643Y-9991452D01*
X15039643Y-9991452D02*
X15049167Y-9981929D01*
X15049167Y-9981929D02*
X15049167Y-10000976D01*
X15049167Y-9877167D02*
X15058690Y-9886690D01*
X15058690Y-9886690D02*
X15049167Y-9896214D01*
X15049167Y-9896214D02*
X15039643Y-9886690D01*
X15039643Y-9886690D02*
X15049167Y-9877167D01*
X15049167Y-9877167D02*
X15049167Y-9896214D01*
D12*
X13432500Y-10332500D02*
X13462500Y-10362500D01*
X13462500Y-10332500D02*
X13432500Y-10362500D01*
D11*
X13748214Y-10220976D02*
X13767262Y-10220976D01*
X13767262Y-10220976D02*
X13786309Y-10230500D01*
X13786309Y-10230500D02*
X13795833Y-10240024D01*
X13795833Y-10240024D02*
X13805357Y-10259071D01*
X13805357Y-10259071D02*
X13814881Y-10297167D01*
X13814881Y-10297167D02*
X13814881Y-10344786D01*
X13814881Y-10344786D02*
X13805357Y-10382881D01*
X13805357Y-10382881D02*
X13795833Y-10401929D01*
X13795833Y-10401929D02*
X13786309Y-10411452D01*
X13786309Y-10411452D02*
X13767262Y-10420976D01*
X13767262Y-10420976D02*
X13748214Y-10420976D01*
X13748214Y-10420976D02*
X13729167Y-10411452D01*
X13729167Y-10411452D02*
X13719643Y-10401929D01*
X13719643Y-10401929D02*
X13710119Y-10382881D01*
X13710119Y-10382881D02*
X13700595Y-10344786D01*
X13700595Y-10344786D02*
X13700595Y-10297167D01*
X13700595Y-10297167D02*
X13710119Y-10259071D01*
X13710119Y-10259071D02*
X13719643Y-10240024D01*
X13719643Y-10240024D02*
X13729167Y-10230500D01*
X13729167Y-10230500D02*
X13748214Y-10220976D01*
X13900595Y-10401929D02*
X13910119Y-10411452D01*
X13910119Y-10411452D02*
X13900595Y-10420976D01*
X13900595Y-10420976D02*
X13891071Y-10411452D01*
X13891071Y-10411452D02*
X13900595Y-10401929D01*
X13900595Y-10401929D02*
X13900595Y-10420976D01*
X13976786Y-10220976D02*
X14100595Y-10220976D01*
X14100595Y-10220976D02*
X14033928Y-10297167D01*
X14033928Y-10297167D02*
X14062500Y-10297167D01*
X14062500Y-10297167D02*
X14081548Y-10306690D01*
X14081548Y-10306690D02*
X14091071Y-10316214D01*
X14091071Y-10316214D02*
X14100595Y-10335262D01*
X14100595Y-10335262D02*
X14100595Y-10382881D01*
X14100595Y-10382881D02*
X14091071Y-10401929D01*
X14091071Y-10401929D02*
X14081548Y-10411452D01*
X14081548Y-10411452D02*
X14062500Y-10420976D01*
X14062500Y-10420976D02*
X14005357Y-10420976D01*
X14005357Y-10420976D02*
X13986309Y-10411452D01*
X13986309Y-10411452D02*
X13976786Y-10401929D01*
X14224405Y-10220976D02*
X14243452Y-10220976D01*
X14243452Y-10220976D02*
X14262500Y-10230500D01*
X14262500Y-10230500D02*
X14272024Y-10240024D01*
X14272024Y-10240024D02*
X14281548Y-10259071D01*
X14281548Y-10259071D02*
X14291071Y-10297167D01*
X14291071Y-10297167D02*
X14291071Y-10344786D01*
X14291071Y-10344786D02*
X14281548Y-10382881D01*
X14281548Y-10382881D02*
X14272024Y-10401929D01*
X14272024Y-10401929D02*
X14262500Y-10411452D01*
X14262500Y-10411452D02*
X14243452Y-10420976D01*
X14243452Y-10420976D02*
X14224405Y-10420976D01*
X14224405Y-10420976D02*
X14205357Y-10411452D01*
X14205357Y-10411452D02*
X14195833Y-10401929D01*
X14195833Y-10401929D02*
X14186309Y-10382881D01*
X14186309Y-10382881D02*
X14176786Y-10344786D01*
X14176786Y-10344786D02*
X14176786Y-10297167D01*
X14176786Y-10297167D02*
X14186309Y-10259071D01*
X14186309Y-10259071D02*
X14195833Y-10240024D01*
X14195833Y-10240024D02*
X14205357Y-10230500D01*
X14205357Y-10230500D02*
X14224405Y-10220976D01*
X14414881Y-10220976D02*
X14433929Y-10220976D01*
X14433929Y-10220976D02*
X14452976Y-10230500D01*
X14452976Y-10230500D02*
X14462500Y-10240024D01*
X14462500Y-10240024D02*
X14472024Y-10259071D01*
X14472024Y-10259071D02*
X14481548Y-10297167D01*
X14481548Y-10297167D02*
X14481548Y-10344786D01*
X14481548Y-10344786D02*
X14472024Y-10382881D01*
X14472024Y-10382881D02*
X14462500Y-10401929D01*
X14462500Y-10401929D02*
X14452976Y-10411452D01*
X14452976Y-10411452D02*
X14433929Y-10420976D01*
X14433929Y-10420976D02*
X14414881Y-10420976D01*
X14414881Y-10420976D02*
X14395833Y-10411452D01*
X14395833Y-10411452D02*
X14386309Y-10401929D01*
X14386309Y-10401929D02*
X14376786Y-10382881D01*
X14376786Y-10382881D02*
X14367262Y-10344786D01*
X14367262Y-10344786D02*
X14367262Y-10297167D01*
X14367262Y-10297167D02*
X14376786Y-10259071D01*
X14376786Y-10259071D02*
X14386309Y-10240024D01*
X14386309Y-10240024D02*
X14395833Y-10230500D01*
X14395833Y-10230500D02*
X14414881Y-10220976D01*
X14567262Y-10420976D02*
X14567262Y-10287643D01*
X14567262Y-10306690D02*
X14576786Y-10297167D01*
X14576786Y-10297167D02*
X14595833Y-10287643D01*
X14595833Y-10287643D02*
X14624405Y-10287643D01*
X14624405Y-10287643D02*
X14643452Y-10297167D01*
X14643452Y-10297167D02*
X14652976Y-10316214D01*
X14652976Y-10316214D02*
X14652976Y-10420976D01*
X14652976Y-10316214D02*
X14662500Y-10297167D01*
X14662500Y-10297167D02*
X14681548Y-10287643D01*
X14681548Y-10287643D02*
X14710119Y-10287643D01*
X14710119Y-10287643D02*
X14729167Y-10297167D01*
X14729167Y-10297167D02*
X14738690Y-10316214D01*
X14738690Y-10316214D02*
X14738690Y-10420976D01*
X14833929Y-10420976D02*
X14833929Y-10287643D01*
X14833929Y-10306690D02*
X14843452Y-10297167D01*
X14843452Y-10297167D02*
X14862500Y-10287643D01*
X14862500Y-10287643D02*
X14891071Y-10287643D01*
X14891071Y-10287643D02*
X14910119Y-10297167D01*
X14910119Y-10297167D02*
X14919643Y-10316214D01*
X14919643Y-10316214D02*
X14919643Y-10420976D01*
X14919643Y-10316214D02*
X14929167Y-10297167D01*
X14929167Y-10297167D02*
X14948214Y-10287643D01*
X14948214Y-10287643D02*
X14976786Y-10287643D01*
X14976786Y-10287643D02*
X14995833Y-10297167D01*
X14995833Y-10297167D02*
X15005357Y-10316214D01*
X15005357Y-10316214D02*
X15005357Y-10420976D01*
X15363452Y-10211452D02*
X15192024Y-10468595D01*
X15588214Y-10220976D02*
X15607262Y-10220976D01*
X15607262Y-10220976D02*
X15626310Y-10230500D01*
X15626310Y-10230500D02*
X15635833Y-10240024D01*
X15635833Y-10240024D02*
X15645357Y-10259071D01*
X15645357Y-10259071D02*
X15654881Y-10297167D01*
X15654881Y-10297167D02*
X15654881Y-10344786D01*
X15654881Y-10344786D02*
X15645357Y-10382881D01*
X15645357Y-10382881D02*
X15635833Y-10401929D01*
X15635833Y-10401929D02*
X15626310Y-10411452D01*
X15626310Y-10411452D02*
X15607262Y-10420976D01*
X15607262Y-10420976D02*
X15588214Y-10420976D01*
X15588214Y-10420976D02*
X15569167Y-10411452D01*
X15569167Y-10411452D02*
X15559643Y-10401929D01*
X15559643Y-10401929D02*
X15550119Y-10382881D01*
X15550119Y-10382881D02*
X15540595Y-10344786D01*
X15540595Y-10344786D02*
X15540595Y-10297167D01*
X15540595Y-10297167D02*
X15550119Y-10259071D01*
X15550119Y-10259071D02*
X15559643Y-10240024D01*
X15559643Y-10240024D02*
X15569167Y-10230500D01*
X15569167Y-10230500D02*
X15588214Y-10220976D01*
X15740595Y-10401929D02*
X15750119Y-10411452D01*
X15750119Y-10411452D02*
X15740595Y-10420976D01*
X15740595Y-10420976D02*
X15731071Y-10411452D01*
X15731071Y-10411452D02*
X15740595Y-10401929D01*
X15740595Y-10401929D02*
X15740595Y-10420976D01*
X15873929Y-10220976D02*
X15892976Y-10220976D01*
X15892976Y-10220976D02*
X15912024Y-10230500D01*
X15912024Y-10230500D02*
X15921548Y-10240024D01*
X15921548Y-10240024D02*
X15931071Y-10259071D01*
X15931071Y-10259071D02*
X15940595Y-10297167D01*
X15940595Y-10297167D02*
X15940595Y-10344786D01*
X15940595Y-10344786D02*
X15931071Y-10382881D01*
X15931071Y-10382881D02*
X15921548Y-10401929D01*
X15921548Y-10401929D02*
X15912024Y-10411452D01*
X15912024Y-10411452D02*
X15892976Y-10420976D01*
X15892976Y-10420976D02*
X15873929Y-10420976D01*
X15873929Y-10420976D02*
X15854881Y-10411452D01*
X15854881Y-10411452D02*
X15845357Y-10401929D01*
X15845357Y-10401929D02*
X15835833Y-10382881D01*
X15835833Y-10382881D02*
X15826310Y-10344786D01*
X15826310Y-10344786D02*
X15826310Y-10297167D01*
X15826310Y-10297167D02*
X15835833Y-10259071D01*
X15835833Y-10259071D02*
X15845357Y-10240024D01*
X15845357Y-10240024D02*
X15854881Y-10230500D01*
X15854881Y-10230500D02*
X15873929Y-10220976D01*
X16131071Y-10420976D02*
X16016786Y-10420976D01*
X16073929Y-10420976D02*
X16073929Y-10220976D01*
X16073929Y-10220976D02*
X16054881Y-10249548D01*
X16054881Y-10249548D02*
X16035833Y-10268595D01*
X16035833Y-10268595D02*
X16016786Y-10278119D01*
X16321548Y-10420976D02*
X16207262Y-10420976D01*
X16264405Y-10420976D02*
X16264405Y-10220976D01*
X16264405Y-10220976D02*
X16245357Y-10249548D01*
X16245357Y-10249548D02*
X16226310Y-10268595D01*
X16226310Y-10268595D02*
X16207262Y-10278119D01*
X16435833Y-10306690D02*
X16416786Y-10297167D01*
X16416786Y-10297167D02*
X16407262Y-10287643D01*
X16407262Y-10287643D02*
X16397738Y-10268595D01*
X16397738Y-10268595D02*
X16397738Y-10259071D01*
X16397738Y-10259071D02*
X16407262Y-10240024D01*
X16407262Y-10240024D02*
X16416786Y-10230500D01*
X16416786Y-10230500D02*
X16435833Y-10220976D01*
X16435833Y-10220976D02*
X16473929Y-10220976D01*
X16473929Y-10220976D02*
X16492976Y-10230500D01*
X16492976Y-10230500D02*
X16502500Y-10240024D01*
X16502500Y-10240024D02*
X16512024Y-10259071D01*
X16512024Y-10259071D02*
X16512024Y-10268595D01*
X16512024Y-10268595D02*
X16502500Y-10287643D01*
X16502500Y-10287643D02*
X16492976Y-10297167D01*
X16492976Y-10297167D02*
X16473929Y-10306690D01*
X16473929Y-10306690D02*
X16435833Y-10306690D01*
X16435833Y-10306690D02*
X16416786Y-10316214D01*
X16416786Y-10316214D02*
X16407262Y-10325738D01*
X16407262Y-10325738D02*
X16397738Y-10344786D01*
X16397738Y-10344786D02*
X16397738Y-10382881D01*
X16397738Y-10382881D02*
X16407262Y-10401929D01*
X16407262Y-10401929D02*
X16416786Y-10411452D01*
X16416786Y-10411452D02*
X16435833Y-10420976D01*
X16435833Y-10420976D02*
X16473929Y-10420976D01*
X16473929Y-10420976D02*
X16492976Y-10411452D01*
X16492976Y-10411452D02*
X16502500Y-10401929D01*
X16502500Y-10401929D02*
X16512024Y-10382881D01*
X16512024Y-10382881D02*
X16512024Y-10344786D01*
X16512024Y-10344786D02*
X16502500Y-10325738D01*
X16502500Y-10325738D02*
X16492976Y-10316214D01*
X16492976Y-10316214D02*
X16473929Y-10306690D01*
X16588214Y-10220976D02*
X16588214Y-10259071D01*
X16664405Y-10220976D02*
X16664405Y-10259071D01*
X16927262Y-10497167D02*
X16917738Y-10487643D01*
X16917738Y-10487643D02*
X16898691Y-10459071D01*
X16898691Y-10459071D02*
X16889167Y-10440024D01*
X16889167Y-10440024D02*
X16879643Y-10411452D01*
X16879643Y-10411452D02*
X16870119Y-10363833D01*
X16870119Y-10363833D02*
X16870119Y-10325738D01*
X16870119Y-10325738D02*
X16879643Y-10278119D01*
X16879643Y-10278119D02*
X16889167Y-10249548D01*
X16889167Y-10249548D02*
X16898691Y-10230500D01*
X16898691Y-10230500D02*
X16917738Y-10201929D01*
X16917738Y-10201929D02*
X16927262Y-10192405D01*
X16984405Y-10220976D02*
X17108214Y-10220976D01*
X17108214Y-10220976D02*
X17041548Y-10297167D01*
X17041548Y-10297167D02*
X17070119Y-10297167D01*
X17070119Y-10297167D02*
X17089167Y-10306690D01*
X17089167Y-10306690D02*
X17098691Y-10316214D01*
X17098691Y-10316214D02*
X17108214Y-10335262D01*
X17108214Y-10335262D02*
X17108214Y-10382881D01*
X17108214Y-10382881D02*
X17098691Y-10401929D01*
X17098691Y-10401929D02*
X17089167Y-10411452D01*
X17089167Y-10411452D02*
X17070119Y-10420976D01*
X17070119Y-10420976D02*
X17012976Y-10420976D01*
X17012976Y-10420976D02*
X16993929Y-10411452D01*
X16993929Y-10411452D02*
X16984405Y-10401929D01*
X17184405Y-10240024D02*
X17193929Y-10230500D01*
X17193929Y-10230500D02*
X17212976Y-10220976D01*
X17212976Y-10220976D02*
X17260595Y-10220976D01*
X17260595Y-10220976D02*
X17279643Y-10230500D01*
X17279643Y-10230500D02*
X17289167Y-10240024D01*
X17289167Y-10240024D02*
X17298691Y-10259071D01*
X17298691Y-10259071D02*
X17298691Y-10278119D01*
X17298691Y-10278119D02*
X17289167Y-10306690D01*
X17289167Y-10306690D02*
X17174881Y-10420976D01*
X17174881Y-10420976D02*
X17298691Y-10420976D01*
X17504405Y-10420976D02*
X17504405Y-10220976D01*
X17590119Y-10420976D02*
X17590119Y-10316214D01*
X17590119Y-10316214D02*
X17580595Y-10297167D01*
X17580595Y-10297167D02*
X17561548Y-10287643D01*
X17561548Y-10287643D02*
X17532976Y-10287643D01*
X17532976Y-10287643D02*
X17513929Y-10297167D01*
X17513929Y-10297167D02*
X17504405Y-10306690D01*
X17713929Y-10420976D02*
X17694881Y-10411452D01*
X17694881Y-10411452D02*
X17685357Y-10401929D01*
X17685357Y-10401929D02*
X17675834Y-10382881D01*
X17675834Y-10382881D02*
X17675834Y-10325738D01*
X17675834Y-10325738D02*
X17685357Y-10306690D01*
X17685357Y-10306690D02*
X17694881Y-10297167D01*
X17694881Y-10297167D02*
X17713929Y-10287643D01*
X17713929Y-10287643D02*
X17742500Y-10287643D01*
X17742500Y-10287643D02*
X17761548Y-10297167D01*
X17761548Y-10297167D02*
X17771072Y-10306690D01*
X17771072Y-10306690D02*
X17780595Y-10325738D01*
X17780595Y-10325738D02*
X17780595Y-10382881D01*
X17780595Y-10382881D02*
X17771072Y-10401929D01*
X17771072Y-10401929D02*
X17761548Y-10411452D01*
X17761548Y-10411452D02*
X17742500Y-10420976D01*
X17742500Y-10420976D02*
X17713929Y-10420976D01*
X17894881Y-10420976D02*
X17875834Y-10411452D01*
X17875834Y-10411452D02*
X17866310Y-10392405D01*
X17866310Y-10392405D02*
X17866310Y-10220976D01*
X18047262Y-10411452D02*
X18028215Y-10420976D01*
X18028215Y-10420976D02*
X17990119Y-10420976D01*
X17990119Y-10420976D02*
X17971072Y-10411452D01*
X17971072Y-10411452D02*
X17961548Y-10392405D01*
X17961548Y-10392405D02*
X17961548Y-10316214D01*
X17961548Y-10316214D02*
X17971072Y-10297167D01*
X17971072Y-10297167D02*
X17990119Y-10287643D01*
X17990119Y-10287643D02*
X18028215Y-10287643D01*
X18028215Y-10287643D02*
X18047262Y-10297167D01*
X18047262Y-10297167D02*
X18056786Y-10316214D01*
X18056786Y-10316214D02*
X18056786Y-10335262D01*
X18056786Y-10335262D02*
X17961548Y-10354310D01*
X18132976Y-10411452D02*
X18152024Y-10420976D01*
X18152024Y-10420976D02*
X18190119Y-10420976D01*
X18190119Y-10420976D02*
X18209167Y-10411452D01*
X18209167Y-10411452D02*
X18218691Y-10392405D01*
X18218691Y-10392405D02*
X18218691Y-10382881D01*
X18218691Y-10382881D02*
X18209167Y-10363833D01*
X18209167Y-10363833D02*
X18190119Y-10354310D01*
X18190119Y-10354310D02*
X18161548Y-10354310D01*
X18161548Y-10354310D02*
X18142500Y-10344786D01*
X18142500Y-10344786D02*
X18132976Y-10325738D01*
X18132976Y-10325738D02*
X18132976Y-10316214D01*
X18132976Y-10316214D02*
X18142500Y-10297167D01*
X18142500Y-10297167D02*
X18161548Y-10287643D01*
X18161548Y-10287643D02*
X18190119Y-10287643D01*
X18190119Y-10287643D02*
X18209167Y-10297167D01*
X18285357Y-10497167D02*
X18294881Y-10487643D01*
X18294881Y-10487643D02*
X18313929Y-10459071D01*
X18313929Y-10459071D02*
X18323453Y-10440024D01*
X18323453Y-10440024D02*
X18332976Y-10411452D01*
X18332976Y-10411452D02*
X18342500Y-10363833D01*
X18342500Y-10363833D02*
X18342500Y-10325738D01*
X18342500Y-10325738D02*
X18332976Y-10278119D01*
X18332976Y-10278119D02*
X18323453Y-10249548D01*
X18323453Y-10249548D02*
X18313929Y-10230500D01*
X18313929Y-10230500D02*
X18294881Y-10201929D01*
X18294881Y-10201929D02*
X18285357Y-10192405D01*
M02*
