G04 #@! TF.GenerationSoftware,KiCad,Pcbnew,(7.0.0-0)*
G04 #@! TF.CreationDate,2025-09-03T19:42:49+12:00*
G04 #@! TF.ProjectId,polar_light_panelized_X4,706f6c61-725f-46c6-9967-68745f70616e,rev?*
G04 #@! TF.SameCoordinates,Original*
G04 #@! TF.FileFunction,Legend,Bot*
G04 #@! TF.FilePolarity,Positive*
%FSLAX46Y46*%
G04 Gerber Fmt 4.6, Leading zero omitted, Abs format (unit mm)*
G04 Created by KiCad (PCBNEW (7.0.0-0)) date 2025-09-03 19:42:49*
%MOMM*%
%LPD*%
G01*
G04 APERTURE LIST*
%ADD10C,0.100000*%
%ADD11C,0.400000*%
%ADD12C,1.252000*%
%ADD13C,0.600000*%
G04 APERTURE END LIST*
D10*
X154275000Y-112200000D02*
X154275000Y-111000000D01*
X154275000Y-111000000D02*
X153875000Y-111000000D01*
D11*
X154069975Y-111150000D02*
X154069975Y-112200000D01*
D10*
X153875000Y-112200000D02*
X153875000Y-111000000D01*
X153275000Y-112200000D02*
X153275000Y-111000000D01*
X153275000Y-111000000D02*
X152875000Y-111000000D01*
D11*
X153069975Y-111150000D02*
X153069975Y-112200000D01*
D10*
X152875000Y-112200000D02*
X152875000Y-111000000D01*
X152275000Y-112200000D02*
X152275000Y-111000000D01*
X152275000Y-111000000D02*
X151875000Y-111000000D01*
D11*
X152069975Y-111150000D02*
X152069975Y-112200000D01*
D10*
X151875000Y-112200000D02*
X151875000Y-111000000D01*
X149275000Y-112900000D02*
X149275000Y-111000000D01*
X149275000Y-112900000D02*
X148119975Y-112900000D01*
X149275000Y-111000000D02*
X148875000Y-111000000D01*
D11*
X149069975Y-111150000D02*
X149069975Y-112750000D01*
D10*
X148875000Y-112500000D02*
X148875000Y-111000000D01*
X148875000Y-112500000D02*
X148119975Y-112500000D01*
D11*
X148269975Y-112700000D02*
X149119975Y-112700000D01*
D10*
X148119975Y-112500000D02*
X148119975Y-112900000D01*
X147775000Y-112900000D02*
X147775000Y-111000000D01*
X147775000Y-112900000D02*
X147375000Y-112900000D01*
X147775000Y-111000000D02*
X146619975Y-111000000D01*
D11*
X147569975Y-112750000D02*
X147569975Y-111150000D01*
D10*
X147375000Y-112150000D02*
X147375000Y-112900000D01*
X147375000Y-112150000D02*
X146869975Y-112150000D01*
X147375000Y-111750000D02*
X146869975Y-111750000D01*
X147375000Y-111400000D02*
X147375000Y-111750000D01*
X147375000Y-111400000D02*
X146619975Y-111400000D01*
D11*
X147019975Y-111950000D02*
X147569975Y-111950000D01*
D10*
X146869975Y-111750000D02*
X146869975Y-112150000D01*
D11*
X146769975Y-111200000D02*
X147619975Y-111200000D01*
D10*
X146619975Y-111000000D02*
X146619975Y-111400000D01*
X146275000Y-112900000D02*
X146275000Y-111000000D01*
X146275000Y-112900000D02*
X145119975Y-112900000D01*
X146275000Y-111000000D02*
X145119975Y-111000000D01*
D11*
X146069975Y-112750000D02*
X146069975Y-111150000D01*
D10*
X145875000Y-112500000D02*
X145119975Y-112500000D01*
X145875000Y-112150000D02*
X145875000Y-112500000D01*
X145875000Y-112150000D02*
X145369975Y-112150000D01*
X145875000Y-111750000D02*
X145369975Y-111750000D01*
X145875000Y-111400000D02*
X145875000Y-111750000D01*
X145875000Y-111400000D02*
X145119975Y-111400000D01*
D11*
X145519975Y-111950000D02*
X146069975Y-111950000D01*
D10*
X145369975Y-111750000D02*
X145369975Y-112150000D01*
D11*
X145269975Y-112700000D02*
X146119975Y-112700000D01*
X145269975Y-111200000D02*
X146119975Y-111200000D01*
D10*
X145119975Y-112500000D02*
X145119975Y-112900000D01*
X145119975Y-111000000D02*
X145119975Y-111400000D01*
X153575000Y-112900000D02*
G75*
G03*
X154275000Y-112200000I1J699999D01*
G01*
D11*
X153575000Y-112705025D02*
G75*
G03*
X154080025Y-112200000I1J505024D01*
G01*
D10*
X153575000Y-112500000D02*
G75*
G03*
X153875000Y-112200000I0J300000D01*
G01*
X153080025Y-112694975D02*
G75*
G03*
X153575000Y-112900000I494973J494971D01*
G01*
D11*
X153069975Y-112200000D02*
G75*
G03*
X153575000Y-112705025I505024J-1D01*
G01*
D10*
X153275000Y-112200000D02*
G75*
G03*
X153575000Y-112500000I300000J0D01*
G01*
D11*
X152574999Y-112705026D02*
G75*
G03*
X153080024Y-112200001I1J505024D01*
G01*
D10*
X152575000Y-112900000D02*
G75*
G03*
X153069975Y-112694975I0J700001D01*
G01*
X152575000Y-112500000D02*
G75*
G03*
X152875000Y-112200000I0J300000D01*
G01*
X151875000Y-112200000D02*
G75*
G03*
X152575000Y-112900000I699999J-1D01*
G01*
D11*
X152069975Y-112200000D02*
G75*
G03*
X152575000Y-112705025I505024J-1D01*
G01*
D10*
X152275000Y-112200000D02*
G75*
G03*
X152575000Y-112500000I300000J0D01*
G01*
X151125000Y-111950000D02*
G75*
G03*
X151125000Y-111950000I-550000J0D01*
G01*
D11*
X151319975Y-111950000D02*
G75*
G03*
X151319975Y-111950000I-744975J0D01*
G01*
D10*
X151525000Y-111950000D02*
G75*
G03*
X151525000Y-111950000I-950000J0D01*
G01*
%LPC*%
D12*
X128100000Y-111950000D03*
D13*
X132600036Y-103450001D03*
X132600034Y-102700001D03*
X132600034Y-101950019D03*
X132600034Y-101200001D03*
X132600034Y-100450001D03*
X166800000Y-78200000D03*
X166800000Y-77450000D03*
X166800000Y-76700000D03*
X166800000Y-75950000D03*
X166800000Y-75200000D03*
X166800000Y-74450000D03*
X166800000Y-73700000D03*
D12*
X171300000Y-111950000D03*
D13*
X154200035Y-87450038D03*
X154200033Y-86700038D03*
X154200033Y-85950056D03*
X154200033Y-85200038D03*
X154200033Y-84450038D03*
X166800000Y-100450000D03*
X166800002Y-101200000D03*
X166800002Y-101949982D03*
X166800002Y-102700000D03*
X166800002Y-103450000D03*
X132600000Y-114200000D03*
X132600000Y-113450000D03*
X132600000Y-112700000D03*
X132600000Y-111950000D03*
X132600000Y-111200000D03*
X132600000Y-110450000D03*
X132600000Y-109700000D03*
X166800035Y-84450038D03*
X166800037Y-85200038D03*
X166800037Y-85950020D03*
X166800037Y-86700038D03*
X166800037Y-87450038D03*
X145200036Y-84450001D03*
X145200038Y-85200001D03*
X145200038Y-85949983D03*
X145200038Y-86700001D03*
X145200038Y-87450001D03*
X132600036Y-87450001D03*
X132600034Y-86700001D03*
X132600034Y-85950019D03*
X132600034Y-85200001D03*
X132600034Y-84450001D03*
X166800000Y-114200000D03*
X166800000Y-113450000D03*
X166800000Y-112700000D03*
X166800000Y-111950000D03*
X166800000Y-111200000D03*
X166800000Y-110450000D03*
X166800000Y-109700000D03*
D12*
X149700000Y-75950000D03*
D13*
X145200036Y-100450001D03*
X145200038Y-101200001D03*
X145200038Y-101949983D03*
X145200038Y-102700001D03*
X145200038Y-103450001D03*
X154200000Y-103450000D03*
X154199998Y-102700000D03*
X154199998Y-101950018D03*
X154199998Y-101200000D03*
X154199998Y-100450000D03*
X132600000Y-78200000D03*
X132600000Y-77450000D03*
X132600000Y-76700000D03*
X132600000Y-75950000D03*
X132600000Y-75200000D03*
X132600000Y-74450000D03*
X132600000Y-73700000D03*
M02*
