G04 #@! TF.GenerationSoftware,KiCad,Pcbnew,(7.0.0-0)*
G04 #@! TF.CreationDate,2025-09-03T19:42:49+12:00*
G04 #@! TF.ProjectId,polar_light_panelized_X4,706f6c61-725f-46c6-9967-68745f70616e,rev?*
G04 #@! TF.SameCoordinates,Original*
G04 #@! TF.FileFunction,Copper,L2,Bot*
G04 #@! TF.FilePolarity,Positive*
%FSLAX46Y46*%
G04 Gerber Fmt 4.6, Leading zero omitted, Abs format (unit mm)*
G04 Created by KiCad (PCBNEW (7.0.0-0)) date 2025-09-03 19:42:49*
%MOMM*%
%LPD*%
G01*
G04 APERTURE LIST*
G04 #@! TA.AperFunction,ViaPad*
%ADD10C,0.600000*%
G04 #@! TD*
G04 APERTURE END LIST*
D10*
X138800000Y-105400000D03*
X138800000Y-88600000D03*
X141050000Y-86200000D03*
X138800000Y-104600000D03*
X160400000Y-104600000D03*
X162650000Y-102200000D03*
X141050000Y-85400000D03*
X162650000Y-86200000D03*
X162650000Y-101400000D03*
X160400000Y-88600000D03*
X162650000Y-85400000D03*
X141050000Y-101400000D03*
X138800000Y-89400000D03*
X141050000Y-102200000D03*
X160400000Y-105400000D03*
X160400000Y-89400000D03*
X165150000Y-105850000D03*
X155850000Y-90650000D03*
X143550000Y-105850000D03*
X134250000Y-105850000D03*
X143550000Y-106650000D03*
X134250000Y-90650000D03*
X165150000Y-106650000D03*
X155850000Y-89850000D03*
X143550000Y-89850000D03*
X155850000Y-106650000D03*
X165150000Y-90650000D03*
X134250000Y-106650000D03*
X165150000Y-89850000D03*
X143550000Y-90650000D03*
X155850000Y-105850000D03*
X134250000Y-89850000D03*
G04 #@! TA.AperFunction,Conductor*
G36*
X136560642Y-80711462D02*
G01*
X136607359Y-80742678D01*
X136638575Y-80789395D01*
X136649536Y-80844501D01*
X136649536Y-83374675D01*
X136649574Y-83374870D01*
X136649595Y-83375300D01*
X136649590Y-83442734D01*
X136649590Y-83448393D01*
X136650473Y-83453973D01*
X136650474Y-83453981D01*
X136657164Y-83496241D01*
X136680365Y-83642807D01*
X136741177Y-83830012D01*
X136743743Y-83835049D01*
X136743744Y-83835051D01*
X136814099Y-83973150D01*
X136830528Y-84005397D01*
X136946217Y-84164645D01*
X137085395Y-84303832D01*
X137244635Y-84419531D01*
X137420015Y-84508893D01*
X137607216Y-84569716D01*
X137801628Y-84600503D01*
X137850836Y-84600502D01*
X137855997Y-84600502D01*
X137911105Y-84611463D01*
X137957822Y-84642678D01*
X137989038Y-84689395D01*
X138000000Y-84744502D01*
X138000000Y-85400000D01*
X138002272Y-85400000D01*
X138004500Y-85422624D01*
X138004500Y-89756000D01*
X138004845Y-89759510D01*
X138004846Y-89759515D01*
X138009832Y-89810144D01*
X138009834Y-89810161D01*
X138010178Y-89813648D01*
X138010865Y-89817103D01*
X138010866Y-89817108D01*
X138020448Y-89865284D01*
X138020451Y-89865299D01*
X138021139Y-89868754D01*
X138037955Y-89924190D01*
X138065263Y-89975280D01*
X138067218Y-89978206D01*
X138067220Y-89978209D01*
X138094516Y-90019060D01*
X138094521Y-90019067D01*
X138096479Y-90021997D01*
X138133227Y-90066773D01*
X138178003Y-90103521D01*
X138224720Y-90134737D01*
X138275810Y-90162045D01*
X138331246Y-90178861D01*
X138386352Y-90189822D01*
X138444000Y-90195500D01*
X139152463Y-90195500D01*
X139156000Y-90195500D01*
X139213648Y-90189822D01*
X139268754Y-90178861D01*
X139324190Y-90162045D01*
X139375280Y-90134737D01*
X139421997Y-90103521D01*
X139466773Y-90066773D01*
X139503521Y-90021997D01*
X139534737Y-89975280D01*
X139562045Y-89924190D01*
X139578861Y-89868754D01*
X139589822Y-89813648D01*
X139595500Y-89756000D01*
X139595500Y-88885912D01*
X139596730Y-88867128D01*
X139602457Y-88823624D01*
X139612183Y-88787326D01*
X139617852Y-88773639D01*
X139636642Y-88741096D01*
X139663356Y-88706281D01*
X139675762Y-88692136D01*
X141605824Y-86762075D01*
X141619042Y-86747963D01*
X141631461Y-86733802D01*
X141643728Y-86718854D01*
X141705906Y-86637823D01*
X141727379Y-86605688D01*
X141746176Y-86573132D01*
X141763275Y-86538459D01*
X141798715Y-86452898D01*
X141811139Y-86416297D01*
X141820868Y-86379988D01*
X141828409Y-86342079D01*
X141841740Y-86240824D01*
X141843635Y-86221578D01*
X141844867Y-86202781D01*
X141845500Y-86183455D01*
X141845500Y-85416545D01*
X141844867Y-85397218D01*
X141843635Y-85378422D01*
X141841740Y-85359177D01*
X141828409Y-85257921D01*
X141820869Y-85220014D01*
X141811140Y-85183704D01*
X141798715Y-85147101D01*
X141763275Y-85061540D01*
X141759325Y-85053531D01*
X141747228Y-85029000D01*
X141747226Y-85028997D01*
X141746176Y-85026867D01*
X141727379Y-84994311D01*
X141705906Y-84962176D01*
X141643728Y-84881145D01*
X141631461Y-84866197D01*
X141619042Y-84852036D01*
X141605824Y-84837924D01*
X140975330Y-84207430D01*
X140976291Y-84206468D01*
X140940580Y-84154128D01*
X140933046Y-84084560D01*
X140959192Y-84019657D01*
X140969554Y-84005396D01*
X141058917Y-83830020D01*
X141119743Y-83642824D01*
X141150536Y-83448417D01*
X141150536Y-83350001D01*
X141150536Y-83305831D01*
X141150536Y-80844501D01*
X141161497Y-80789395D01*
X141192713Y-80742678D01*
X141239430Y-80711462D01*
X141294536Y-80700501D01*
X144805536Y-80700501D01*
X144877536Y-80719793D01*
X144930244Y-80772501D01*
X144949536Y-80844501D01*
X144949538Y-83939038D01*
X144936525Y-83998857D01*
X144899839Y-84047865D01*
X144825677Y-84112127D01*
X144825672Y-84112131D01*
X144817893Y-84118873D01*
X144812327Y-84127533D01*
X144812325Y-84127536D01*
X144745651Y-84231283D01*
X144745649Y-84231286D01*
X144740083Y-84239948D01*
X144737181Y-84249830D01*
X144737181Y-84249831D01*
X144702437Y-84368158D01*
X144702436Y-84368161D01*
X144699536Y-84378040D01*
X144699536Y-84521962D01*
X144740083Y-84660054D01*
X144745650Y-84668717D01*
X144745651Y-84668718D01*
X144796056Y-84747150D01*
X144816313Y-84797750D01*
X144816313Y-84852254D01*
X144796056Y-84902853D01*
X144745654Y-84981280D01*
X144745650Y-84981288D01*
X144740085Y-84989948D01*
X144737183Y-84999830D01*
X144737183Y-84999831D01*
X144702439Y-85118158D01*
X144702438Y-85118161D01*
X144699538Y-85128040D01*
X144699538Y-85271962D01*
X144740085Y-85410054D01*
X144745652Y-85418717D01*
X144745653Y-85418718D01*
X144796051Y-85497140D01*
X144816308Y-85547740D01*
X144816308Y-85602244D01*
X144796051Y-85652844D01*
X144745653Y-85731265D01*
X144745651Y-85731268D01*
X144740085Y-85739930D01*
X144737183Y-85749812D01*
X144737183Y-85749813D01*
X144702439Y-85868140D01*
X144702438Y-85868143D01*
X144699538Y-85878022D01*
X144699538Y-86021944D01*
X144740085Y-86160036D01*
X144745652Y-86168699D01*
X144745653Y-86168700D01*
X144796063Y-86247140D01*
X144816320Y-86297740D01*
X144816320Y-86352244D01*
X144796063Y-86402844D01*
X144745653Y-86481283D01*
X144745651Y-86481286D01*
X144740085Y-86489948D01*
X144737183Y-86499830D01*
X144737183Y-86499831D01*
X144702439Y-86618158D01*
X144702438Y-86618161D01*
X144699538Y-86628040D01*
X144699538Y-86771962D01*
X144740085Y-86910054D01*
X144745652Y-86918717D01*
X144745653Y-86918718D01*
X144796057Y-86997149D01*
X144816314Y-87047749D01*
X144816314Y-87102253D01*
X144796057Y-87152853D01*
X144745653Y-87231283D01*
X144745651Y-87231286D01*
X144740085Y-87239948D01*
X144737183Y-87249830D01*
X144737183Y-87249831D01*
X144702439Y-87368158D01*
X144702438Y-87368161D01*
X144699538Y-87378040D01*
X144699538Y-87521962D01*
X144740085Y-87660054D01*
X144817895Y-87781129D01*
X144825677Y-87787872D01*
X144825678Y-87787873D01*
X144899837Y-87852132D01*
X144936524Y-87901140D01*
X144949537Y-87960960D01*
X144949536Y-91055501D01*
X144930244Y-91127501D01*
X144877536Y-91180209D01*
X144805536Y-91199501D01*
X132994536Y-91199501D01*
X132922536Y-91180209D01*
X132869828Y-91127501D01*
X132850536Y-91055501D01*
X132850533Y-87960963D01*
X132863546Y-87901143D01*
X132900234Y-87852135D01*
X132967094Y-87794200D01*
X132982179Y-87781129D01*
X133059989Y-87660054D01*
X133100536Y-87521962D01*
X133100536Y-87378040D01*
X133059989Y-87239948D01*
X133054420Y-87231282D01*
X133054418Y-87231278D01*
X133004016Y-87152851D01*
X132983758Y-87102251D01*
X132983758Y-87047746D01*
X133004016Y-86997146D01*
X133054418Y-86918719D01*
X133059987Y-86910054D01*
X133100534Y-86771962D01*
X133100534Y-86628040D01*
X133059987Y-86489948D01*
X133036176Y-86452898D01*
X133004021Y-86402863D01*
X132983763Y-86352262D01*
X132983763Y-86297758D01*
X133004021Y-86247157D01*
X133019697Y-86222765D01*
X133059987Y-86160072D01*
X133100534Y-86021980D01*
X133100534Y-85878058D01*
X133059987Y-85739966D01*
X133054418Y-85731300D01*
X133054416Y-85731296D01*
X133004009Y-85652861D01*
X132983751Y-85602261D01*
X132983751Y-85547756D01*
X133004006Y-85497162D01*
X133059987Y-85410054D01*
X133100534Y-85271962D01*
X133100534Y-85128040D01*
X133059987Y-84989948D01*
X133054416Y-84981280D01*
X133004015Y-84902854D01*
X132983757Y-84852253D01*
X132983757Y-84797749D01*
X133004015Y-84747148D01*
X133059987Y-84660054D01*
X133100534Y-84521962D01*
X133100534Y-84378040D01*
X133059987Y-84239948D01*
X132982177Y-84118873D01*
X132967092Y-84105802D01*
X132900234Y-84047869D01*
X132863547Y-83998861D01*
X132850534Y-83939041D01*
X132850536Y-80844501D01*
X132869828Y-80772501D01*
X132922536Y-80719793D01*
X132994536Y-80700501D01*
X136505536Y-80700501D01*
X136560642Y-80711462D01*
G37*
G04 #@! TD.AperFunction*
G04 #@! TA.AperFunction,Conductor*
G36*
X162309085Y-84381281D02*
G01*
X162366411Y-84416411D01*
X162996874Y-85046874D01*
X163009293Y-85061035D01*
X163071471Y-85142066D01*
X163090268Y-85174622D01*
X163125708Y-85260183D01*
X163135437Y-85296493D01*
X163148768Y-85397749D01*
X163150000Y-85416545D01*
X163150000Y-86183455D01*
X163148768Y-86202252D01*
X163135437Y-86303507D01*
X163125708Y-86339816D01*
X163090268Y-86425377D01*
X163071471Y-86457933D01*
X163009293Y-86538964D01*
X162996874Y-86553125D01*
X161049788Y-88500211D01*
X161049780Y-88500219D01*
X161046447Y-88503553D01*
X161043581Y-88507286D01*
X161043573Y-88507297D01*
X160972730Y-88599621D01*
X160972726Y-88599627D01*
X160966987Y-88607107D01*
X160963377Y-88615822D01*
X160963376Y-88615824D01*
X160920649Y-88718975D01*
X160920647Y-88718980D01*
X160917037Y-88727697D01*
X160915805Y-88737051D01*
X160915804Y-88737057D01*
X160900616Y-88852427D01*
X160900000Y-88857107D01*
X160900000Y-88861826D01*
X160900000Y-89756000D01*
X160889039Y-89811106D01*
X160857823Y-89857823D01*
X160811106Y-89889039D01*
X160756000Y-89900000D01*
X160044000Y-89900000D01*
X159988894Y-89889039D01*
X159942177Y-89857823D01*
X159910961Y-89811106D01*
X159900000Y-89756000D01*
X159900000Y-84859476D01*
X159901232Y-84840681D01*
X159914562Y-84739426D01*
X159924292Y-84703112D01*
X159929960Y-84689429D01*
X159961176Y-84642713D01*
X160007892Y-84611499D01*
X160062998Y-84600538D01*
X161455871Y-84600538D01*
X161455874Y-84600539D01*
X161500044Y-84600538D01*
X161524709Y-84600538D01*
X161524726Y-84600534D01*
X161524728Y-84600533D01*
X161598458Y-84600532D01*
X161792864Y-84569736D01*
X161980058Y-84508908D01*
X162155433Y-84419547D01*
X162179947Y-84401736D01*
X162242058Y-84376007D01*
X162309085Y-84381281D01*
G37*
G04 #@! TD.AperFunction*
G04 #@! TA.AperFunction,Conductor*
G36*
X136560642Y-96711462D02*
G01*
X136607359Y-96742678D01*
X136638575Y-96789395D01*
X136649536Y-96844501D01*
X136649536Y-99374675D01*
X136649574Y-99374870D01*
X136649595Y-99375300D01*
X136649590Y-99442734D01*
X136649590Y-99448393D01*
X136650473Y-99453973D01*
X136650474Y-99453981D01*
X136657164Y-99496241D01*
X136680365Y-99642807D01*
X136741177Y-99830012D01*
X136743743Y-99835049D01*
X136743744Y-99835051D01*
X136814099Y-99973150D01*
X136830528Y-100005397D01*
X136946217Y-100164645D01*
X137085395Y-100303832D01*
X137244635Y-100419531D01*
X137420015Y-100508893D01*
X137607216Y-100569716D01*
X137801628Y-100600503D01*
X137850836Y-100600502D01*
X137855997Y-100600502D01*
X137911105Y-100611463D01*
X137957822Y-100642678D01*
X137989038Y-100689395D01*
X138000000Y-100744502D01*
X138000000Y-101400000D01*
X138002272Y-101400000D01*
X138004500Y-101422624D01*
X138004500Y-105756000D01*
X138004845Y-105759510D01*
X138004846Y-105759515D01*
X138009832Y-105810144D01*
X138009834Y-105810161D01*
X138010178Y-105813648D01*
X138010865Y-105817103D01*
X138010866Y-105817108D01*
X138020448Y-105865284D01*
X138020451Y-105865299D01*
X138021139Y-105868754D01*
X138037955Y-105924190D01*
X138065263Y-105975280D01*
X138067218Y-105978206D01*
X138067220Y-105978209D01*
X138094516Y-106019060D01*
X138094521Y-106019067D01*
X138096479Y-106021997D01*
X138133227Y-106066773D01*
X138178003Y-106103521D01*
X138224720Y-106134737D01*
X138275810Y-106162045D01*
X138331246Y-106178861D01*
X138386352Y-106189822D01*
X138444000Y-106195500D01*
X139152463Y-106195500D01*
X139156000Y-106195500D01*
X139213648Y-106189822D01*
X139268754Y-106178861D01*
X139324190Y-106162045D01*
X139375280Y-106134737D01*
X139421997Y-106103521D01*
X139466773Y-106066773D01*
X139503521Y-106021997D01*
X139534737Y-105975280D01*
X139562045Y-105924190D01*
X139578861Y-105868754D01*
X139589822Y-105813648D01*
X139595500Y-105756000D01*
X139595500Y-104885912D01*
X139596730Y-104867128D01*
X139602457Y-104823624D01*
X139612183Y-104787326D01*
X139617852Y-104773639D01*
X139636642Y-104741096D01*
X139663356Y-104706281D01*
X139675762Y-104692136D01*
X141605824Y-102762075D01*
X141619042Y-102747963D01*
X141631461Y-102733802D01*
X141643728Y-102718854D01*
X141705906Y-102637823D01*
X141727379Y-102605688D01*
X141746176Y-102573132D01*
X141763275Y-102538459D01*
X141798715Y-102452898D01*
X141811139Y-102416297D01*
X141820868Y-102379988D01*
X141828409Y-102342079D01*
X141841740Y-102240824D01*
X141843635Y-102221578D01*
X141844867Y-102202781D01*
X141845500Y-102183455D01*
X141845500Y-101416545D01*
X141844867Y-101397218D01*
X141843635Y-101378422D01*
X141841740Y-101359177D01*
X141828409Y-101257921D01*
X141820869Y-101220014D01*
X141811140Y-101183704D01*
X141798715Y-101147101D01*
X141763275Y-101061540D01*
X141759325Y-101053531D01*
X141747228Y-101029000D01*
X141747226Y-101028997D01*
X141746176Y-101026867D01*
X141727379Y-100994311D01*
X141705906Y-100962176D01*
X141643728Y-100881145D01*
X141631461Y-100866197D01*
X141619042Y-100852036D01*
X141605824Y-100837924D01*
X140975330Y-100207430D01*
X140976291Y-100206468D01*
X140940580Y-100154128D01*
X140933046Y-100084560D01*
X140959192Y-100019657D01*
X140969554Y-100005396D01*
X141058917Y-99830020D01*
X141119743Y-99642824D01*
X141150536Y-99448417D01*
X141150536Y-99350001D01*
X141150536Y-99305831D01*
X141150536Y-96844501D01*
X141161497Y-96789395D01*
X141192713Y-96742678D01*
X141239430Y-96711462D01*
X141294536Y-96700501D01*
X144805536Y-96700501D01*
X144877536Y-96719793D01*
X144930244Y-96772501D01*
X144949536Y-96844501D01*
X144949538Y-99939038D01*
X144936525Y-99998857D01*
X144899839Y-100047865D01*
X144825677Y-100112127D01*
X144825672Y-100112131D01*
X144817893Y-100118873D01*
X144812327Y-100127533D01*
X144812325Y-100127536D01*
X144745651Y-100231283D01*
X144745649Y-100231286D01*
X144740083Y-100239948D01*
X144737181Y-100249830D01*
X144737181Y-100249831D01*
X144702437Y-100368158D01*
X144702436Y-100368161D01*
X144699536Y-100378040D01*
X144699536Y-100521962D01*
X144740083Y-100660054D01*
X144745650Y-100668717D01*
X144745651Y-100668718D01*
X144796056Y-100747150D01*
X144816313Y-100797750D01*
X144816313Y-100852254D01*
X144796056Y-100902853D01*
X144745654Y-100981280D01*
X144745650Y-100981288D01*
X144740085Y-100989948D01*
X144737183Y-100999830D01*
X144737183Y-100999831D01*
X144702439Y-101118158D01*
X144702438Y-101118161D01*
X144699538Y-101128040D01*
X144699538Y-101271962D01*
X144740085Y-101410054D01*
X144745652Y-101418717D01*
X144745653Y-101418718D01*
X144796051Y-101497140D01*
X144816308Y-101547740D01*
X144816308Y-101602244D01*
X144796051Y-101652844D01*
X144745653Y-101731265D01*
X144745651Y-101731268D01*
X144740085Y-101739930D01*
X144737183Y-101749812D01*
X144737183Y-101749813D01*
X144702439Y-101868140D01*
X144702438Y-101868143D01*
X144699538Y-101878022D01*
X144699538Y-102021944D01*
X144740085Y-102160036D01*
X144745652Y-102168699D01*
X144745653Y-102168700D01*
X144796063Y-102247140D01*
X144816320Y-102297740D01*
X144816320Y-102352244D01*
X144796063Y-102402844D01*
X144745653Y-102481283D01*
X144745651Y-102481286D01*
X144740085Y-102489948D01*
X144737183Y-102499830D01*
X144737183Y-102499831D01*
X144702439Y-102618158D01*
X144702438Y-102618161D01*
X144699538Y-102628040D01*
X144699538Y-102771962D01*
X144740085Y-102910054D01*
X144745652Y-102918716D01*
X144745655Y-102918723D01*
X144796056Y-102997148D01*
X144816314Y-103047747D01*
X144816314Y-103102251D01*
X144796057Y-103152851D01*
X144745654Y-103231279D01*
X144745648Y-103231290D01*
X144740085Y-103239948D01*
X144737183Y-103249830D01*
X144737183Y-103249831D01*
X144702439Y-103368158D01*
X144702438Y-103368161D01*
X144699538Y-103378040D01*
X144699538Y-103521962D01*
X144740085Y-103660054D01*
X144817895Y-103781129D01*
X144825677Y-103787872D01*
X144825678Y-103787873D01*
X144899837Y-103852132D01*
X144936524Y-103901140D01*
X144949537Y-103960960D01*
X144949536Y-107055501D01*
X144930244Y-107127501D01*
X144877536Y-107180209D01*
X144805536Y-107199501D01*
X132994536Y-107199501D01*
X132922536Y-107180209D01*
X132869828Y-107127501D01*
X132850536Y-107055501D01*
X132850533Y-103960963D01*
X132863546Y-103901143D01*
X132900234Y-103852135D01*
X132967094Y-103794200D01*
X132982179Y-103781129D01*
X133059989Y-103660054D01*
X133100536Y-103521962D01*
X133100536Y-103378040D01*
X133059989Y-103239948D01*
X133054418Y-103231279D01*
X133054418Y-103231278D01*
X133004016Y-103152851D01*
X132983758Y-103102251D01*
X132983758Y-103047746D01*
X133004016Y-102997146D01*
X133054416Y-102918723D01*
X133059987Y-102910054D01*
X133100534Y-102771962D01*
X133100534Y-102628040D01*
X133059987Y-102489948D01*
X133036176Y-102452898D01*
X133004021Y-102402863D01*
X132983763Y-102352262D01*
X132983763Y-102297758D01*
X133004021Y-102247157D01*
X133019697Y-102222765D01*
X133059987Y-102160072D01*
X133100534Y-102021980D01*
X133100534Y-101878058D01*
X133059987Y-101739966D01*
X133054395Y-101731265D01*
X133004009Y-101652863D01*
X132983751Y-101602262D01*
X132983751Y-101547758D01*
X133004009Y-101497157D01*
X133051909Y-101422624D01*
X133059987Y-101410054D01*
X133100534Y-101271962D01*
X133100534Y-101128040D01*
X133059987Y-100989948D01*
X133004014Y-100902852D01*
X132983757Y-100852252D01*
X132983757Y-100797747D01*
X133004013Y-100747150D01*
X133059987Y-100660054D01*
X133100534Y-100521962D01*
X133100534Y-100378040D01*
X133059987Y-100239948D01*
X132982177Y-100118873D01*
X132967092Y-100105802D01*
X132900234Y-100047869D01*
X132863547Y-99998861D01*
X132850534Y-99939041D01*
X132850536Y-96844501D01*
X132869828Y-96772501D01*
X132922536Y-96719793D01*
X132994536Y-96700501D01*
X136505536Y-96700501D01*
X136560642Y-96711462D01*
G37*
G04 #@! TD.AperFunction*
G04 #@! TA.AperFunction,Conductor*
G36*
X140709055Y-84381251D02*
G01*
X140766380Y-84416380D01*
X141396874Y-85046874D01*
X141409293Y-85061035D01*
X141471471Y-85142066D01*
X141490268Y-85174622D01*
X141525708Y-85260183D01*
X141535437Y-85296493D01*
X141548768Y-85397749D01*
X141550000Y-85416545D01*
X141550000Y-86183455D01*
X141548768Y-86202252D01*
X141535437Y-86303507D01*
X141525708Y-86339816D01*
X141490268Y-86425377D01*
X141471471Y-86457933D01*
X141409293Y-86538964D01*
X141396874Y-86553125D01*
X139449788Y-88500211D01*
X139449780Y-88500219D01*
X139446447Y-88503553D01*
X139443581Y-88507286D01*
X139443573Y-88507297D01*
X139372730Y-88599621D01*
X139372726Y-88599627D01*
X139366987Y-88607107D01*
X139363377Y-88615822D01*
X139363376Y-88615824D01*
X139320649Y-88718975D01*
X139320647Y-88718980D01*
X139317037Y-88727697D01*
X139315805Y-88737051D01*
X139315804Y-88737057D01*
X139300616Y-88852427D01*
X139300000Y-88857107D01*
X139300000Y-88861826D01*
X139300000Y-89756000D01*
X139289039Y-89811106D01*
X139257823Y-89857823D01*
X139211106Y-89889039D01*
X139156000Y-89900000D01*
X138444000Y-89900000D01*
X138388894Y-89889039D01*
X138342177Y-89857823D01*
X138310961Y-89811106D01*
X138300000Y-89756000D01*
X138300000Y-84859439D01*
X138301232Y-84840644D01*
X138314562Y-84739389D01*
X138324292Y-84703075D01*
X138329960Y-84689392D01*
X138361176Y-84642676D01*
X138407892Y-84611462D01*
X138462998Y-84600501D01*
X139924072Y-84600501D01*
X139924710Y-84600501D01*
X139924919Y-84600459D01*
X139925363Y-84600437D01*
X139998435Y-84600442D01*
X140192845Y-84569662D01*
X140380045Y-84508848D01*
X140555427Y-84419497D01*
X140579919Y-84401703D01*
X140642029Y-84375976D01*
X140709055Y-84381251D01*
G37*
G04 #@! TD.AperFunction*
G04 #@! TA.AperFunction,Conductor*
G36*
X158160606Y-96711461D02*
G01*
X158207323Y-96742677D01*
X158238539Y-96789394D01*
X158249500Y-96844500D01*
X158249500Y-99305830D01*
X158249500Y-99350000D01*
X158249500Y-99448417D01*
X158250384Y-99454003D01*
X158250385Y-99454006D01*
X158279404Y-99637230D01*
X158279406Y-99637238D01*
X158280291Y-99642826D01*
X158282040Y-99648211D01*
X158282041Y-99648212D01*
X158339367Y-99824644D01*
X158339369Y-99824650D01*
X158341116Y-99830025D01*
X158343684Y-99835066D01*
X158343685Y-99835067D01*
X158427902Y-100000355D01*
X158427907Y-100000363D01*
X158430476Y-100005405D01*
X158433805Y-100009988D01*
X158433807Y-100009990D01*
X158512915Y-100118872D01*
X158546172Y-100164646D01*
X158685354Y-100303828D01*
X158844595Y-100419524D01*
X158849639Y-100422094D01*
X158849644Y-100422097D01*
X158912274Y-100454008D01*
X159019975Y-100508884D01*
X159207174Y-100569709D01*
X159401583Y-100600500D01*
X159456000Y-100600500D01*
X159511106Y-100611461D01*
X159557823Y-100642677D01*
X159589039Y-100689394D01*
X159600000Y-100744500D01*
X159600000Y-101400000D01*
X159602272Y-101400000D01*
X159604500Y-101422624D01*
X159604500Y-105756000D01*
X159604845Y-105759510D01*
X159604846Y-105759515D01*
X159609832Y-105810144D01*
X159609834Y-105810161D01*
X159610178Y-105813648D01*
X159610865Y-105817103D01*
X159610866Y-105817108D01*
X159620448Y-105865284D01*
X159620451Y-105865299D01*
X159621139Y-105868754D01*
X159637955Y-105924190D01*
X159665263Y-105975280D01*
X159667218Y-105978206D01*
X159667220Y-105978209D01*
X159694516Y-106019060D01*
X159694521Y-106019067D01*
X159696479Y-106021997D01*
X159733227Y-106066773D01*
X159778003Y-106103521D01*
X159824720Y-106134737D01*
X159875810Y-106162045D01*
X159931246Y-106178861D01*
X159986352Y-106189822D01*
X160044000Y-106195500D01*
X160752463Y-106195500D01*
X160756000Y-106195500D01*
X160813648Y-106189822D01*
X160868754Y-106178861D01*
X160924190Y-106162045D01*
X160975280Y-106134737D01*
X161021997Y-106103521D01*
X161066773Y-106066773D01*
X161103521Y-106021997D01*
X161134737Y-105975280D01*
X161162045Y-105924190D01*
X161178861Y-105868754D01*
X161189822Y-105813648D01*
X161195500Y-105756000D01*
X161195500Y-104885912D01*
X161196730Y-104867128D01*
X161202457Y-104823624D01*
X161212183Y-104787326D01*
X161217852Y-104773639D01*
X161236642Y-104741096D01*
X161263356Y-104706281D01*
X161275762Y-104692136D01*
X163205824Y-102762075D01*
X163219042Y-102747963D01*
X163231461Y-102733802D01*
X163243728Y-102718854D01*
X163305906Y-102637823D01*
X163327379Y-102605688D01*
X163346176Y-102573132D01*
X163363275Y-102538459D01*
X163398715Y-102452898D01*
X163411139Y-102416297D01*
X163420868Y-102379988D01*
X163428409Y-102342079D01*
X163441740Y-102240824D01*
X163443635Y-102221578D01*
X163444867Y-102202781D01*
X163445500Y-102183455D01*
X163445500Y-101416545D01*
X163444867Y-101397218D01*
X163443635Y-101378422D01*
X163441740Y-101359177D01*
X163428409Y-101257921D01*
X163420869Y-101220014D01*
X163411140Y-101183704D01*
X163398715Y-101147101D01*
X163395085Y-101138337D01*
X163364180Y-101063724D01*
X163364175Y-101063714D01*
X163363275Y-101061540D01*
X163346176Y-101026867D01*
X163327379Y-100994311D01*
X163305906Y-100962176D01*
X163243728Y-100881145D01*
X163231461Y-100866197D01*
X163219042Y-100852036D01*
X163205824Y-100837924D01*
X162575336Y-100207436D01*
X162575336Y-100207435D01*
X162576291Y-100206480D01*
X162540564Y-100154109D01*
X162533032Y-100084545D01*
X162559177Y-100019645D01*
X162569524Y-100005405D01*
X162658884Y-99830025D01*
X162719709Y-99642826D01*
X162750500Y-99448417D01*
X162750500Y-99350000D01*
X162750500Y-99305830D01*
X162750500Y-96844500D01*
X162761461Y-96789394D01*
X162792677Y-96742677D01*
X162839394Y-96711461D01*
X162894500Y-96700500D01*
X166405500Y-96700500D01*
X166477500Y-96719792D01*
X166530208Y-96772500D01*
X166549500Y-96844500D01*
X166549502Y-99939037D01*
X166536489Y-99998856D01*
X166499803Y-100047864D01*
X166425641Y-100112126D01*
X166425636Y-100112130D01*
X166417857Y-100118872D01*
X166412291Y-100127532D01*
X166412289Y-100127535D01*
X166345615Y-100231282D01*
X166345613Y-100231285D01*
X166340047Y-100239947D01*
X166337145Y-100249829D01*
X166337145Y-100249830D01*
X166302401Y-100368157D01*
X166302400Y-100368160D01*
X166299500Y-100378039D01*
X166299500Y-100521961D01*
X166340047Y-100660053D01*
X166345614Y-100668716D01*
X166345615Y-100668717D01*
X166396020Y-100747149D01*
X166416277Y-100797749D01*
X166416277Y-100852253D01*
X166396020Y-100902852D01*
X166345618Y-100981279D01*
X166345614Y-100981287D01*
X166340049Y-100989947D01*
X166337147Y-100999829D01*
X166337147Y-100999830D01*
X166302403Y-101118157D01*
X166302402Y-101118160D01*
X166299502Y-101128039D01*
X166299502Y-101271961D01*
X166340049Y-101410053D01*
X166345616Y-101418716D01*
X166345617Y-101418717D01*
X166396015Y-101497139D01*
X166416272Y-101547739D01*
X166416272Y-101602243D01*
X166396015Y-101652843D01*
X166345617Y-101731264D01*
X166345615Y-101731267D01*
X166340049Y-101739929D01*
X166337147Y-101749811D01*
X166337147Y-101749812D01*
X166302403Y-101868139D01*
X166302402Y-101868142D01*
X166299502Y-101878021D01*
X166299502Y-102021943D01*
X166340049Y-102160035D01*
X166345616Y-102168698D01*
X166345617Y-102168699D01*
X166396027Y-102247139D01*
X166416284Y-102297739D01*
X166416284Y-102352243D01*
X166396027Y-102402843D01*
X166345617Y-102481282D01*
X166345615Y-102481285D01*
X166340049Y-102489947D01*
X166337147Y-102499829D01*
X166337147Y-102499830D01*
X166302403Y-102618157D01*
X166302402Y-102618160D01*
X166299502Y-102628039D01*
X166299502Y-102771961D01*
X166340049Y-102910053D01*
X166345616Y-102918716D01*
X166345617Y-102918717D01*
X166396021Y-102997148D01*
X166416278Y-103047748D01*
X166416278Y-103102252D01*
X166396021Y-103152852D01*
X166345617Y-103231282D01*
X166345615Y-103231285D01*
X166340049Y-103239947D01*
X166337147Y-103249829D01*
X166337147Y-103249830D01*
X166302403Y-103368157D01*
X166302402Y-103368160D01*
X166299502Y-103378039D01*
X166299502Y-103521961D01*
X166340049Y-103660053D01*
X166417859Y-103781128D01*
X166425641Y-103787871D01*
X166425642Y-103787872D01*
X166499801Y-103852131D01*
X166536488Y-103901139D01*
X166549501Y-103960959D01*
X166549500Y-107055500D01*
X166530208Y-107127500D01*
X166477500Y-107180208D01*
X166405500Y-107199500D01*
X154594500Y-107199500D01*
X154522500Y-107180208D01*
X154469792Y-107127500D01*
X154450500Y-107055500D01*
X154450497Y-103960962D01*
X154463510Y-103901142D01*
X154500198Y-103852134D01*
X154567058Y-103794199D01*
X154582143Y-103781128D01*
X154659953Y-103660053D01*
X154700500Y-103521961D01*
X154700500Y-103378039D01*
X154659953Y-103239947D01*
X154654384Y-103231281D01*
X154654382Y-103231277D01*
X154603980Y-103152850D01*
X154583722Y-103102250D01*
X154583722Y-103047745D01*
X154603980Y-102997145D01*
X154654382Y-102918718D01*
X154659951Y-102910053D01*
X154700498Y-102771961D01*
X154700498Y-102628039D01*
X154659951Y-102489947D01*
X154603985Y-102402862D01*
X154583727Y-102352261D01*
X154583727Y-102297757D01*
X154603985Y-102247156D01*
X154621182Y-102220397D01*
X154659951Y-102160071D01*
X154700498Y-102021979D01*
X154700498Y-101878057D01*
X154659951Y-101739965D01*
X154654359Y-101731264D01*
X154603973Y-101652862D01*
X154583715Y-101602261D01*
X154583715Y-101547757D01*
X154603973Y-101497156D01*
X154654382Y-101418718D01*
X154659951Y-101410053D01*
X154700498Y-101271961D01*
X154700498Y-101128039D01*
X154659951Y-100989947D01*
X154654380Y-100981279D01*
X154603979Y-100902853D01*
X154583721Y-100852252D01*
X154583721Y-100797748D01*
X154603979Y-100747147D01*
X154637250Y-100695376D01*
X154659951Y-100660053D01*
X154700498Y-100521961D01*
X154700498Y-100378039D01*
X154659951Y-100239947D01*
X154582141Y-100118872D01*
X154567056Y-100105801D01*
X154500198Y-100047868D01*
X154463511Y-99998860D01*
X154450498Y-99939040D01*
X154450500Y-96844500D01*
X154469792Y-96772500D01*
X154522500Y-96719792D01*
X154594500Y-96700500D01*
X158105500Y-96700500D01*
X158160606Y-96711461D01*
G37*
G04 #@! TD.AperFunction*
G04 #@! TA.AperFunction,Conductor*
G36*
X140709055Y-100381251D02*
G01*
X140766380Y-100416380D01*
X141396874Y-101046874D01*
X141409293Y-101061035D01*
X141471471Y-101142066D01*
X141490268Y-101174622D01*
X141525708Y-101260183D01*
X141535437Y-101296493D01*
X141548768Y-101397749D01*
X141550000Y-101416545D01*
X141550000Y-102183455D01*
X141548768Y-102202252D01*
X141535437Y-102303507D01*
X141525708Y-102339816D01*
X141490268Y-102425377D01*
X141471471Y-102457933D01*
X141409293Y-102538964D01*
X141396874Y-102553125D01*
X139449788Y-104500211D01*
X139449780Y-104500219D01*
X139446447Y-104503553D01*
X139443581Y-104507286D01*
X139443573Y-104507297D01*
X139372730Y-104599621D01*
X139372726Y-104599627D01*
X139366987Y-104607107D01*
X139363377Y-104615822D01*
X139363376Y-104615824D01*
X139320649Y-104718975D01*
X139320647Y-104718980D01*
X139317037Y-104727697D01*
X139315805Y-104737051D01*
X139315804Y-104737057D01*
X139300616Y-104852427D01*
X139300000Y-104857107D01*
X139300000Y-104861826D01*
X139300000Y-105756000D01*
X139289039Y-105811106D01*
X139257823Y-105857823D01*
X139211106Y-105889039D01*
X139156000Y-105900000D01*
X138444000Y-105900000D01*
X138388894Y-105889039D01*
X138342177Y-105857823D01*
X138310961Y-105811106D01*
X138300000Y-105756000D01*
X138300000Y-100859439D01*
X138301232Y-100840644D01*
X138314562Y-100739389D01*
X138324292Y-100703075D01*
X138329960Y-100689392D01*
X138361176Y-100642676D01*
X138407892Y-100611462D01*
X138462998Y-100600501D01*
X139924072Y-100600501D01*
X139924710Y-100600501D01*
X139924919Y-100600459D01*
X139925363Y-100600437D01*
X139998435Y-100600442D01*
X140192845Y-100569662D01*
X140380045Y-100508848D01*
X140555427Y-100419497D01*
X140579919Y-100401703D01*
X140642029Y-100375976D01*
X140709055Y-100381251D01*
G37*
G04 #@! TD.AperFunction*
G04 #@! TA.AperFunction,Conductor*
G36*
X162309060Y-100381256D02*
G01*
X162366386Y-100416386D01*
X162996874Y-101046874D01*
X163009293Y-101061035D01*
X163071471Y-101142066D01*
X163090268Y-101174622D01*
X163125708Y-101260183D01*
X163135437Y-101296493D01*
X163148768Y-101397749D01*
X163150000Y-101416545D01*
X163150000Y-102183455D01*
X163148768Y-102202252D01*
X163135437Y-102303507D01*
X163125708Y-102339816D01*
X163090268Y-102425377D01*
X163071471Y-102457933D01*
X163009293Y-102538964D01*
X162996874Y-102553125D01*
X161049788Y-104500211D01*
X161049780Y-104500219D01*
X161046447Y-104503553D01*
X161043581Y-104507286D01*
X161043573Y-104507297D01*
X160972730Y-104599621D01*
X160972726Y-104599627D01*
X160966987Y-104607107D01*
X160963377Y-104615822D01*
X160963376Y-104615824D01*
X160920649Y-104718975D01*
X160920647Y-104718980D01*
X160917037Y-104727697D01*
X160915805Y-104737051D01*
X160915804Y-104737057D01*
X160900616Y-104852427D01*
X160900000Y-104857107D01*
X160900000Y-104861826D01*
X160900000Y-105756000D01*
X160889039Y-105811106D01*
X160857823Y-105857823D01*
X160811106Y-105889039D01*
X160756000Y-105900000D01*
X160044000Y-105900000D01*
X159988894Y-105889039D01*
X159942177Y-105857823D01*
X159910961Y-105811106D01*
X159900000Y-105756000D01*
X159900000Y-100859438D01*
X159901232Y-100840643D01*
X159914562Y-100739388D01*
X159924292Y-100703074D01*
X159929960Y-100689391D01*
X159961176Y-100642675D01*
X160007892Y-100611461D01*
X160062998Y-100600500D01*
X161592759Y-100600500D01*
X161598417Y-100600500D01*
X161792826Y-100569709D01*
X161980025Y-100508884D01*
X162155405Y-100419524D01*
X162179920Y-100401712D01*
X162242034Y-100375982D01*
X162309060Y-100381256D01*
G37*
G04 #@! TD.AperFunction*
G04 #@! TA.AperFunction,Conductor*
G36*
X158160641Y-80711499D02*
G01*
X158207358Y-80742715D01*
X158238574Y-80789432D01*
X158249535Y-80844538D01*
X158249535Y-83349741D01*
X158249497Y-83350022D01*
X158249462Y-83350022D01*
X158249461Y-83350286D01*
X158249461Y-83350294D01*
X158249460Y-83374712D01*
X158249456Y-83448446D01*
X158250340Y-83454031D01*
X158250341Y-83454039D01*
X158257025Y-83496248D01*
X158280242Y-83642872D01*
X158281990Y-83648251D01*
X158281991Y-83648255D01*
X158338704Y-83822816D01*
X158341067Y-83830087D01*
X158343630Y-83835117D01*
X158343632Y-83835122D01*
X158401930Y-83949538D01*
X158430434Y-84005480D01*
X158433758Y-84010055D01*
X158433760Y-84010058D01*
X158461257Y-84047902D01*
X158546141Y-84164731D01*
X158550137Y-84168727D01*
X158550139Y-84168729D01*
X158681341Y-84299923D01*
X158681346Y-84299927D01*
X158685338Y-84303919D01*
X158844598Y-84419614D01*
X159019998Y-84508968D01*
X159207217Y-84569779D01*
X159401645Y-84600551D01*
X159435925Y-84600546D01*
X159455981Y-84600544D01*
X159511094Y-84611500D01*
X159557817Y-84642714D01*
X159589037Y-84689433D01*
X159600000Y-84744544D01*
X159600000Y-85400000D01*
X159602272Y-85400000D01*
X159604500Y-85422624D01*
X159604500Y-89756000D01*
X159604845Y-89759510D01*
X159604846Y-89759515D01*
X159609832Y-89810144D01*
X159609834Y-89810161D01*
X159610178Y-89813648D01*
X159610865Y-89817103D01*
X159610866Y-89817108D01*
X159620448Y-89865284D01*
X159620451Y-89865299D01*
X159621139Y-89868754D01*
X159637955Y-89924190D01*
X159665263Y-89975280D01*
X159667218Y-89978206D01*
X159667220Y-89978209D01*
X159694516Y-90019060D01*
X159694521Y-90019067D01*
X159696479Y-90021997D01*
X159733227Y-90066773D01*
X159778003Y-90103521D01*
X159824720Y-90134737D01*
X159875810Y-90162045D01*
X159931246Y-90178861D01*
X159986352Y-90189822D01*
X160044000Y-90195500D01*
X160752463Y-90195500D01*
X160756000Y-90195500D01*
X160813648Y-90189822D01*
X160868754Y-90178861D01*
X160924190Y-90162045D01*
X160975280Y-90134737D01*
X161021997Y-90103521D01*
X161066773Y-90066773D01*
X161103521Y-90021997D01*
X161134737Y-89975280D01*
X161162045Y-89924190D01*
X161178861Y-89868754D01*
X161189822Y-89813648D01*
X161195500Y-89756000D01*
X161195500Y-88885912D01*
X161196730Y-88867128D01*
X161202457Y-88823624D01*
X161212183Y-88787326D01*
X161217852Y-88773639D01*
X161236642Y-88741096D01*
X161263356Y-88706281D01*
X161275762Y-88692136D01*
X163205824Y-86762075D01*
X163219042Y-86747963D01*
X163231461Y-86733802D01*
X163243728Y-86718854D01*
X163305906Y-86637823D01*
X163327379Y-86605688D01*
X163346176Y-86573132D01*
X163363275Y-86538459D01*
X163398715Y-86452898D01*
X163411139Y-86416297D01*
X163420868Y-86379988D01*
X163428409Y-86342079D01*
X163441740Y-86240824D01*
X163443635Y-86221578D01*
X163444867Y-86202781D01*
X163445500Y-86183455D01*
X163445500Y-85416545D01*
X163444867Y-85397218D01*
X163443635Y-85378422D01*
X163441740Y-85359177D01*
X163428409Y-85257921D01*
X163420869Y-85220014D01*
X163411140Y-85183704D01*
X163398715Y-85147101D01*
X163375807Y-85091795D01*
X163364180Y-85063724D01*
X163364175Y-85063714D01*
X163363275Y-85061540D01*
X163359361Y-85053604D01*
X163347228Y-85029000D01*
X163347226Y-85028997D01*
X163346176Y-85026867D01*
X163342235Y-85020042D01*
X163328557Y-84996351D01*
X163328554Y-84996347D01*
X163327379Y-84994311D01*
X163305906Y-84962176D01*
X163273918Y-84920488D01*
X163244451Y-84882087D01*
X163244445Y-84882080D01*
X163243728Y-84881145D01*
X163231461Y-84866197D01*
X163219042Y-84852036D01*
X163205824Y-84837924D01*
X162575361Y-84207461D01*
X162576316Y-84206505D01*
X162540589Y-84154133D01*
X162533057Y-84084570D01*
X162559200Y-84019675D01*
X162569545Y-84005437D01*
X162658907Y-83830062D01*
X162719735Y-83642867D01*
X162750532Y-83448462D01*
X162750534Y-83374715D01*
X162751634Y-83374715D01*
X162751635Y-83374712D01*
X162750535Y-83374712D01*
X162750535Y-83349741D01*
X162750536Y-83305878D01*
X162750535Y-83305875D01*
X162750535Y-80844538D01*
X162761496Y-80789432D01*
X162792712Y-80742715D01*
X162839429Y-80711499D01*
X162894535Y-80700538D01*
X166405535Y-80700538D01*
X166477535Y-80719830D01*
X166530243Y-80772538D01*
X166549535Y-80844538D01*
X166549537Y-83939075D01*
X166536524Y-83998894D01*
X166499838Y-84047902D01*
X166425676Y-84112164D01*
X166425671Y-84112168D01*
X166417892Y-84118910D01*
X166412326Y-84127570D01*
X166412324Y-84127573D01*
X166345650Y-84231320D01*
X166345648Y-84231323D01*
X166340082Y-84239985D01*
X166337180Y-84249867D01*
X166337180Y-84249868D01*
X166302436Y-84368195D01*
X166302435Y-84368198D01*
X166299535Y-84378077D01*
X166299535Y-84521999D01*
X166302435Y-84531878D01*
X166302436Y-84531880D01*
X166322175Y-84599104D01*
X166340082Y-84660091D01*
X166345649Y-84668754D01*
X166345650Y-84668755D01*
X166396055Y-84747187D01*
X166416312Y-84797787D01*
X166416312Y-84852291D01*
X166396055Y-84902890D01*
X166345653Y-84981317D01*
X166345649Y-84981325D01*
X166340084Y-84989985D01*
X166337182Y-84999867D01*
X166337182Y-84999868D01*
X166302438Y-85118195D01*
X166302437Y-85118198D01*
X166299537Y-85128077D01*
X166299537Y-85271999D01*
X166340084Y-85410091D01*
X166345651Y-85418754D01*
X166345652Y-85418755D01*
X166396050Y-85497176D01*
X166416307Y-85547775D01*
X166416307Y-85602279D01*
X166396050Y-85652879D01*
X166345653Y-85731298D01*
X166345647Y-85731309D01*
X166340084Y-85739967D01*
X166337182Y-85749849D01*
X166337182Y-85749850D01*
X166302438Y-85868177D01*
X166302437Y-85868180D01*
X166299537Y-85878059D01*
X166299537Y-86021981D01*
X166340084Y-86160073D01*
X166345651Y-86168736D01*
X166345652Y-86168737D01*
X166396062Y-86247177D01*
X166416319Y-86297777D01*
X166416319Y-86352281D01*
X166396062Y-86402881D01*
X166345652Y-86481320D01*
X166345650Y-86481323D01*
X166340084Y-86489985D01*
X166337182Y-86499867D01*
X166337182Y-86499868D01*
X166302438Y-86618195D01*
X166302437Y-86618198D01*
X166299537Y-86628077D01*
X166299537Y-86771999D01*
X166340084Y-86910091D01*
X166345651Y-86918754D01*
X166345652Y-86918755D01*
X166396056Y-86997186D01*
X166416313Y-87047786D01*
X166416313Y-87102290D01*
X166396056Y-87152890D01*
X166345652Y-87231320D01*
X166345650Y-87231323D01*
X166340084Y-87239985D01*
X166337182Y-87249867D01*
X166337182Y-87249868D01*
X166302438Y-87368195D01*
X166302437Y-87368198D01*
X166299537Y-87378077D01*
X166299537Y-87521999D01*
X166340084Y-87660091D01*
X166417894Y-87781166D01*
X166425676Y-87787909D01*
X166425677Y-87787910D01*
X166499836Y-87852169D01*
X166536523Y-87901177D01*
X166549536Y-87960997D01*
X166549535Y-91055538D01*
X166530243Y-91127538D01*
X166477535Y-91180246D01*
X166405535Y-91199538D01*
X154594535Y-91199538D01*
X154522535Y-91180246D01*
X154469827Y-91127538D01*
X154450535Y-91055538D01*
X154450532Y-87961000D01*
X154463545Y-87901180D01*
X154500233Y-87852172D01*
X154567093Y-87794237D01*
X154582178Y-87781166D01*
X154659988Y-87660091D01*
X154700535Y-87521999D01*
X154700535Y-87378077D01*
X154659988Y-87239985D01*
X154654419Y-87231319D01*
X154654417Y-87231315D01*
X154604015Y-87152888D01*
X154583757Y-87102288D01*
X154583757Y-87047783D01*
X154604015Y-86997183D01*
X154654417Y-86918756D01*
X154659986Y-86910091D01*
X154700533Y-86771999D01*
X154700533Y-86628077D01*
X154659986Y-86489985D01*
X154604020Y-86402900D01*
X154583762Y-86352299D01*
X154583762Y-86297795D01*
X154604020Y-86247194D01*
X154608114Y-86240824D01*
X154659986Y-86160109D01*
X154700533Y-86022017D01*
X154700533Y-85878095D01*
X154659986Y-85740003D01*
X154654417Y-85731337D01*
X154654415Y-85731333D01*
X154604008Y-85652898D01*
X154583750Y-85602298D01*
X154583750Y-85547793D01*
X154604005Y-85497199D01*
X154659986Y-85410091D01*
X154700533Y-85271999D01*
X154700533Y-85128077D01*
X154659986Y-84989985D01*
X154654415Y-84981317D01*
X154604014Y-84902891D01*
X154583756Y-84852290D01*
X154583756Y-84797786D01*
X154604014Y-84747185D01*
X154654417Y-84668756D01*
X154659986Y-84660091D01*
X154700533Y-84521999D01*
X154700533Y-84378077D01*
X154659986Y-84239985D01*
X154582176Y-84118910D01*
X154567091Y-84105839D01*
X154500233Y-84047906D01*
X154463546Y-83998898D01*
X154450533Y-83939078D01*
X154450535Y-80844538D01*
X154469827Y-80772538D01*
X154522535Y-80719830D01*
X154594535Y-80700538D01*
X158105535Y-80700538D01*
X158160641Y-80711499D01*
G37*
G04 #@! TD.AperFunction*
M02*
