G04 #@! TF.GenerationSoftware,KiCad,Pcbnew,(7.0.0-0)*
G04 #@! TF.CreationDate,2025-09-03T19:42:49+12:00*
G04 #@! TF.ProjectId,polar_light_panelized_X4,706f6c61-725f-46c6-9967-68745f70616e,rev?*
G04 #@! TF.SameCoordinates,Original*
G04 #@! TF.FileFunction,Legend,Top*
G04 #@! TF.FilePolarity,Positive*
%FSLAX46Y46*%
G04 Gerber Fmt 4.6, Leading zero omitted, Abs format (unit mm)*
G04 Created by KiCad (PCBNEW (7.0.0-0)) date 2025-09-03 19:42:49*
%MOMM*%
%LPD*%
G01*
G04 APERTURE LIST*
G04 Aperture macros list*
%AMRoundRect*
0 Rectangle with rounded corners*
0 $1 Rounding radius*
0 $2 $3 $4 $5 $6 $7 $8 $9 X,Y pos of 4 corners*
0 Add a 4 corners polygon primitive as box body*
4,1,4,$2,$3,$4,$5,$6,$7,$8,$9,$2,$3,0*
0 Add four circle primitives for the rounded corners*
1,1,$1+$1,$2,$3*
1,1,$1+$1,$4,$5*
1,1,$1+$1,$6,$7*
1,1,$1+$1,$8,$9*
0 Add four rect primitives between the rounded corners*
20,1,$1+$1,$2,$3,$4,$5,0*
20,1,$1+$1,$4,$5,$6,$7,0*
20,1,$1+$1,$6,$7,$8,$9,0*
20,1,$1+$1,$8,$9,$2,$3,0*%
%AMFreePoly0*
4,1,31,0.382209,1.799478,0.489210,1.783888,0.503961,1.779330,0.614864,1.725113,0.628259,1.715548,0.715548,1.628259,0.725113,1.614864,0.779330,1.503961,0.783888,1.489210,0.799478,1.382209,0.800000,1.375000,0.800000,-1.750000,0.785355,-1.785355,0.750000,-1.800000,-0.750000,-1.800000,-0.785355,-1.785355,-0.800000,-1.750000,-0.800000,1.375000,-0.799478,1.382209,-0.783888,1.489210,
-0.779330,1.503961,-0.725113,1.614864,-0.715548,1.628259,-0.628259,1.715548,-0.614864,1.725113,-0.503961,1.779330,-0.489210,1.783888,-0.382209,1.799478,-0.375000,1.800000,0.375000,1.800000,0.382209,1.799478,0.382209,1.799478,$1*%
G04 Aperture macros list end*
%ADD10C,0.200000*%
%ADD11C,0.120000*%
%ADD12C,1.252000*%
%ADD13RoundRect,0.050000X0.550000X-0.550000X0.550000X0.550000X-0.550000X0.550000X-0.550000X-0.550000X0*%
%ADD14C,0.600000*%
%ADD15RoundRect,0.050000X-0.575000X-0.900000X0.575000X-0.900000X0.575000X0.900000X-0.575000X0.900000X0*%
%ADD16FreePoly0,180.000000*%
%ADD17RoundRect,0.050000X0.700000X1.850000X-0.700000X1.850000X-0.700000X-1.850000X0.700000X-1.850000X0*%
%ADD18RoundRect,0.050000X-0.550000X0.550000X-0.550000X-0.550000X0.550000X-0.550000X0.550000X0.550000X0*%
G04 APERTURE END LIST*
D10*
X133690476Y-110507380D02*
X134023809Y-111507380D01*
X134023809Y-111507380D02*
X134357142Y-110507380D01*
X135214285Y-111507380D02*
X134642857Y-111507380D01*
X134928571Y-111507380D02*
X134928571Y-110507380D01*
X134928571Y-110507380D02*
X134833333Y-110650238D01*
X134833333Y-110650238D02*
X134738095Y-110745476D01*
X134738095Y-110745476D02*
X134642857Y-110793095D01*
X135595238Y-110602619D02*
X135642857Y-110555000D01*
X135642857Y-110555000D02*
X135738095Y-110507380D01*
X135738095Y-110507380D02*
X135976190Y-110507380D01*
X135976190Y-110507380D02*
X136071428Y-110555000D01*
X136071428Y-110555000D02*
X136119047Y-110602619D01*
X136119047Y-110602619D02*
X136166666Y-110697857D01*
X136166666Y-110697857D02*
X136166666Y-110793095D01*
X136166666Y-110793095D02*
X136119047Y-110935952D01*
X136119047Y-110935952D02*
X135547619Y-111507380D01*
X135547619Y-111507380D02*
X136166666Y-111507380D01*
X136595238Y-111126428D02*
X137357143Y-111126428D01*
X138309523Y-111507380D02*
X137833333Y-111507380D01*
X137833333Y-111507380D02*
X137833333Y-110507380D01*
X138642857Y-111507380D02*
X138642857Y-110507380D01*
X139642856Y-110555000D02*
X139547618Y-110507380D01*
X139547618Y-110507380D02*
X139404761Y-110507380D01*
X139404761Y-110507380D02*
X139261904Y-110555000D01*
X139261904Y-110555000D02*
X139166666Y-110650238D01*
X139166666Y-110650238D02*
X139119047Y-110745476D01*
X139119047Y-110745476D02*
X139071428Y-110935952D01*
X139071428Y-110935952D02*
X139071428Y-111078809D01*
X139071428Y-111078809D02*
X139119047Y-111269285D01*
X139119047Y-111269285D02*
X139166666Y-111364523D01*
X139166666Y-111364523D02*
X139261904Y-111459761D01*
X139261904Y-111459761D02*
X139404761Y-111507380D01*
X139404761Y-111507380D02*
X139499999Y-111507380D01*
X139499999Y-111507380D02*
X139642856Y-111459761D01*
X139642856Y-111459761D02*
X139690475Y-111412142D01*
X139690475Y-111412142D02*
X139690475Y-111078809D01*
X139690475Y-111078809D02*
X139499999Y-111078809D01*
X140119047Y-111507380D02*
X140119047Y-110507380D01*
X140119047Y-110983571D02*
X140690475Y-110983571D01*
X140690475Y-111507380D02*
X140690475Y-110507380D01*
X141023809Y-110507380D02*
X141595237Y-110507380D01*
X141309523Y-111507380D02*
X141309523Y-110507380D01*
X142433333Y-110507380D02*
X143099999Y-111507380D01*
X143099999Y-110507380D02*
X142433333Y-111507380D01*
X143909523Y-110840714D02*
X143909523Y-111507380D01*
X143671428Y-110459761D02*
X143433333Y-111174047D01*
X143433333Y-111174047D02*
X144052380Y-111174047D01*
X145366666Y-110983571D02*
X145033333Y-110983571D01*
X145033333Y-111507380D02*
X145033333Y-110507380D01*
X145033333Y-110507380D02*
X145509523Y-110507380D01*
X145842857Y-111221666D02*
X146319047Y-111221666D01*
X145747619Y-111507380D02*
X146080952Y-110507380D01*
X146080952Y-110507380D02*
X146414285Y-111507380D01*
X147080952Y-110983571D02*
X147223809Y-111031190D01*
X147223809Y-111031190D02*
X147271428Y-111078809D01*
X147271428Y-111078809D02*
X147319047Y-111174047D01*
X147319047Y-111174047D02*
X147319047Y-111316904D01*
X147319047Y-111316904D02*
X147271428Y-111412142D01*
X147271428Y-111412142D02*
X147223809Y-111459761D01*
X147223809Y-111459761D02*
X147128571Y-111507380D01*
X147128571Y-111507380D02*
X146747619Y-111507380D01*
X146747619Y-111507380D02*
X146747619Y-110507380D01*
X146747619Y-110507380D02*
X147080952Y-110507380D01*
X147080952Y-110507380D02*
X147176190Y-110555000D01*
X147176190Y-110555000D02*
X147223809Y-110602619D01*
X147223809Y-110602619D02*
X147271428Y-110697857D01*
X147271428Y-110697857D02*
X147271428Y-110793095D01*
X147271428Y-110793095D02*
X147223809Y-110888333D01*
X147223809Y-110888333D02*
X147176190Y-110935952D01*
X147176190Y-110935952D02*
X147080952Y-110983571D01*
X147080952Y-110983571D02*
X146747619Y-110983571D01*
X148319047Y-111507380D02*
X147985714Y-111031190D01*
X147747619Y-111507380D02*
X147747619Y-110507380D01*
X147747619Y-110507380D02*
X148128571Y-110507380D01*
X148128571Y-110507380D02*
X148223809Y-110555000D01*
X148223809Y-110555000D02*
X148271428Y-110602619D01*
X148271428Y-110602619D02*
X148319047Y-110697857D01*
X148319047Y-110697857D02*
X148319047Y-110840714D01*
X148319047Y-110840714D02*
X148271428Y-110935952D01*
X148271428Y-110935952D02*
X148223809Y-110983571D01*
X148223809Y-110983571D02*
X148128571Y-111031190D01*
X148128571Y-111031190D02*
X147747619Y-111031190D01*
X148747619Y-111507380D02*
X148747619Y-110507380D01*
X149795237Y-111412142D02*
X149747618Y-111459761D01*
X149747618Y-111459761D02*
X149604761Y-111507380D01*
X149604761Y-111507380D02*
X149509523Y-111507380D01*
X149509523Y-111507380D02*
X149366666Y-111459761D01*
X149366666Y-111459761D02*
X149271428Y-111364523D01*
X149271428Y-111364523D02*
X149223809Y-111269285D01*
X149223809Y-111269285D02*
X149176190Y-111078809D01*
X149176190Y-111078809D02*
X149176190Y-110935952D01*
X149176190Y-110935952D02*
X149223809Y-110745476D01*
X149223809Y-110745476D02*
X149271428Y-110650238D01*
X149271428Y-110650238D02*
X149366666Y-110555000D01*
X149366666Y-110555000D02*
X149509523Y-110507380D01*
X149509523Y-110507380D02*
X149604761Y-110507380D01*
X149604761Y-110507380D02*
X149747618Y-110555000D01*
X149747618Y-110555000D02*
X149795237Y-110602619D01*
X150176190Y-111221666D02*
X150652380Y-111221666D01*
X150080952Y-111507380D02*
X150414285Y-110507380D01*
X150414285Y-110507380D02*
X150747618Y-111507380D01*
X150938095Y-110507380D02*
X151509523Y-110507380D01*
X151223809Y-111507380D02*
X151223809Y-110507380D01*
X151842857Y-111507380D02*
X151842857Y-110507380D01*
X152509523Y-110507380D02*
X152699999Y-110507380D01*
X152699999Y-110507380D02*
X152795237Y-110555000D01*
X152795237Y-110555000D02*
X152890475Y-110650238D01*
X152890475Y-110650238D02*
X152938094Y-110840714D01*
X152938094Y-110840714D02*
X152938094Y-111174047D01*
X152938094Y-111174047D02*
X152890475Y-111364523D01*
X152890475Y-111364523D02*
X152795237Y-111459761D01*
X152795237Y-111459761D02*
X152699999Y-111507380D01*
X152699999Y-111507380D02*
X152509523Y-111507380D01*
X152509523Y-111507380D02*
X152414285Y-111459761D01*
X152414285Y-111459761D02*
X152319047Y-111364523D01*
X152319047Y-111364523D02*
X152271428Y-111174047D01*
X152271428Y-111174047D02*
X152271428Y-110840714D01*
X152271428Y-110840714D02*
X152319047Y-110650238D01*
X152319047Y-110650238D02*
X152414285Y-110555000D01*
X152414285Y-110555000D02*
X152509523Y-110507380D01*
X153366666Y-111507380D02*
X153366666Y-110507380D01*
X153366666Y-110507380D02*
X153938094Y-111507380D01*
X153938094Y-111507380D02*
X153938094Y-110507380D01*
X155014285Y-111507380D02*
X155014285Y-110507380D01*
X155014285Y-110507380D02*
X155395237Y-110507380D01*
X155395237Y-110507380D02*
X155490475Y-110555000D01*
X155490475Y-110555000D02*
X155538094Y-110602619D01*
X155538094Y-110602619D02*
X155585713Y-110697857D01*
X155585713Y-110697857D02*
X155585713Y-110840714D01*
X155585713Y-110840714D02*
X155538094Y-110935952D01*
X155538094Y-110935952D02*
X155490475Y-110983571D01*
X155490475Y-110983571D02*
X155395237Y-111031190D01*
X155395237Y-111031190D02*
X155014285Y-111031190D01*
X155966666Y-111221666D02*
X156442856Y-111221666D01*
X155871428Y-111507380D02*
X156204761Y-110507380D01*
X156204761Y-110507380D02*
X156538094Y-111507380D01*
X156871428Y-111507380D02*
X156871428Y-110507380D01*
X156871428Y-110507380D02*
X157442856Y-111507380D01*
X157442856Y-111507380D02*
X157442856Y-110507380D01*
X157919047Y-110983571D02*
X158252380Y-110983571D01*
X158395237Y-111507380D02*
X157919047Y-111507380D01*
X157919047Y-111507380D02*
X157919047Y-110507380D01*
X157919047Y-110507380D02*
X158395237Y-110507380D01*
X159299999Y-111507380D02*
X158823809Y-111507380D01*
X158823809Y-111507380D02*
X158823809Y-110507380D01*
X160804761Y-111507380D02*
X160471428Y-111031190D01*
X160233333Y-111507380D02*
X160233333Y-110507380D01*
X160233333Y-110507380D02*
X160614285Y-110507380D01*
X160614285Y-110507380D02*
X160709523Y-110555000D01*
X160709523Y-110555000D02*
X160757142Y-110602619D01*
X160757142Y-110602619D02*
X160804761Y-110697857D01*
X160804761Y-110697857D02*
X160804761Y-110840714D01*
X160804761Y-110840714D02*
X160757142Y-110935952D01*
X160757142Y-110935952D02*
X160709523Y-110983571D01*
X160709523Y-110983571D02*
X160614285Y-111031190D01*
X160614285Y-111031190D02*
X160233333Y-111031190D01*
X161233333Y-110983571D02*
X161566666Y-110983571D01*
X161709523Y-111507380D02*
X161233333Y-111507380D01*
X161233333Y-111507380D02*
X161233333Y-110507380D01*
X161233333Y-110507380D02*
X161709523Y-110507380D01*
X161995238Y-110507380D02*
X162328571Y-111507380D01*
X162328571Y-111507380D02*
X162661904Y-110507380D01*
X162995238Y-111126428D02*
X163757143Y-111126428D01*
X164185714Y-111221666D02*
X164661904Y-111221666D01*
X164090476Y-111507380D02*
X164423809Y-110507380D01*
X164423809Y-110507380D02*
X164757142Y-111507380D01*
X165614285Y-111507380D02*
X165042857Y-111507380D01*
X165328571Y-111507380D02*
X165328571Y-110507380D01*
X165328571Y-110507380D02*
X165233333Y-110650238D01*
X165233333Y-110650238D02*
X165138095Y-110745476D01*
X165138095Y-110745476D02*
X165042857Y-110793095D01*
X145080951Y-112127380D02*
X145080951Y-112841666D01*
X145080951Y-112841666D02*
X145033332Y-112984523D01*
X145033332Y-112984523D02*
X144938094Y-113079761D01*
X144938094Y-113079761D02*
X144795237Y-113127380D01*
X144795237Y-113127380D02*
X144699999Y-113127380D01*
X146033332Y-113127380D02*
X145557142Y-113127380D01*
X145557142Y-113127380D02*
X145557142Y-112127380D01*
X146938094Y-113032142D02*
X146890475Y-113079761D01*
X146890475Y-113079761D02*
X146747618Y-113127380D01*
X146747618Y-113127380D02*
X146652380Y-113127380D01*
X146652380Y-113127380D02*
X146509523Y-113079761D01*
X146509523Y-113079761D02*
X146414285Y-112984523D01*
X146414285Y-112984523D02*
X146366666Y-112889285D01*
X146366666Y-112889285D02*
X146319047Y-112698809D01*
X146319047Y-112698809D02*
X146319047Y-112555952D01*
X146319047Y-112555952D02*
X146366666Y-112365476D01*
X146366666Y-112365476D02*
X146414285Y-112270238D01*
X146414285Y-112270238D02*
X146509523Y-112175000D01*
X146509523Y-112175000D02*
X146652380Y-112127380D01*
X146652380Y-112127380D02*
X146747618Y-112127380D01*
X146747618Y-112127380D02*
X146890475Y-112175000D01*
X146890475Y-112175000D02*
X146938094Y-112222619D01*
X147652380Y-112127380D02*
X147652380Y-112841666D01*
X147652380Y-112841666D02*
X147604761Y-112984523D01*
X147604761Y-112984523D02*
X147509523Y-113079761D01*
X147509523Y-113079761D02*
X147366666Y-113127380D01*
X147366666Y-113127380D02*
X147271428Y-113127380D01*
X148604761Y-113127380D02*
X148128571Y-113127380D01*
X148128571Y-113127380D02*
X148128571Y-112127380D01*
X149509523Y-113032142D02*
X149461904Y-113079761D01*
X149461904Y-113079761D02*
X149319047Y-113127380D01*
X149319047Y-113127380D02*
X149223809Y-113127380D01*
X149223809Y-113127380D02*
X149080952Y-113079761D01*
X149080952Y-113079761D02*
X148985714Y-112984523D01*
X148985714Y-112984523D02*
X148938095Y-112889285D01*
X148938095Y-112889285D02*
X148890476Y-112698809D01*
X148890476Y-112698809D02*
X148890476Y-112555952D01*
X148890476Y-112555952D02*
X148938095Y-112365476D01*
X148938095Y-112365476D02*
X148985714Y-112270238D01*
X148985714Y-112270238D02*
X149080952Y-112175000D01*
X149080952Y-112175000D02*
X149223809Y-112127380D01*
X149223809Y-112127380D02*
X149319047Y-112127380D01*
X149319047Y-112127380D02*
X149461904Y-112175000D01*
X149461904Y-112175000D02*
X149509523Y-112222619D01*
X150223809Y-112127380D02*
X150223809Y-112841666D01*
X150223809Y-112841666D02*
X150176190Y-112984523D01*
X150176190Y-112984523D02*
X150080952Y-113079761D01*
X150080952Y-113079761D02*
X149938095Y-113127380D01*
X149938095Y-113127380D02*
X149842857Y-113127380D01*
X151176190Y-113127380D02*
X150700000Y-113127380D01*
X150700000Y-113127380D02*
X150700000Y-112127380D01*
X152080952Y-113032142D02*
X152033333Y-113079761D01*
X152033333Y-113079761D02*
X151890476Y-113127380D01*
X151890476Y-113127380D02*
X151795238Y-113127380D01*
X151795238Y-113127380D02*
X151652381Y-113079761D01*
X151652381Y-113079761D02*
X151557143Y-112984523D01*
X151557143Y-112984523D02*
X151509524Y-112889285D01*
X151509524Y-112889285D02*
X151461905Y-112698809D01*
X151461905Y-112698809D02*
X151461905Y-112555952D01*
X151461905Y-112555952D02*
X151509524Y-112365476D01*
X151509524Y-112365476D02*
X151557143Y-112270238D01*
X151557143Y-112270238D02*
X151652381Y-112175000D01*
X151652381Y-112175000D02*
X151795238Y-112127380D01*
X151795238Y-112127380D02*
X151890476Y-112127380D01*
X151890476Y-112127380D02*
X152033333Y-112175000D01*
X152033333Y-112175000D02*
X152080952Y-112222619D01*
X152795238Y-112127380D02*
X152795238Y-112841666D01*
X152795238Y-112841666D02*
X152747619Y-112984523D01*
X152747619Y-112984523D02*
X152652381Y-113079761D01*
X152652381Y-113079761D02*
X152509524Y-113127380D01*
X152509524Y-113127380D02*
X152414286Y-113127380D01*
X153747619Y-113127380D02*
X153271429Y-113127380D01*
X153271429Y-113127380D02*
X153271429Y-112127380D01*
X154652381Y-113032142D02*
X154604762Y-113079761D01*
X154604762Y-113079761D02*
X154461905Y-113127380D01*
X154461905Y-113127380D02*
X154366667Y-113127380D01*
X154366667Y-113127380D02*
X154223810Y-113079761D01*
X154223810Y-113079761D02*
X154128572Y-112984523D01*
X154128572Y-112984523D02*
X154080953Y-112889285D01*
X154080953Y-112889285D02*
X154033334Y-112698809D01*
X154033334Y-112698809D02*
X154033334Y-112555952D01*
X154033334Y-112555952D02*
X154080953Y-112365476D01*
X154080953Y-112365476D02*
X154128572Y-112270238D01*
X154128572Y-112270238D02*
X154223810Y-112175000D01*
X154223810Y-112175000D02*
X154366667Y-112127380D01*
X154366667Y-112127380D02*
X154461905Y-112127380D01*
X154461905Y-112127380D02*
X154604762Y-112175000D01*
X154604762Y-112175000D02*
X154652381Y-112222619D01*
D11*
X164750000Y-91050000D02*
X164750000Y-90050000D01*
X136850000Y-103000000D02*
X138150000Y-103000000D01*
X156250000Y-87250000D02*
X156250000Y-88250000D01*
X156250000Y-103250000D02*
X156250000Y-104250000D01*
X158450000Y-87000000D02*
X159750000Y-87000000D01*
X136850000Y-87000000D02*
X138150000Y-87000000D01*
X143150000Y-107050000D02*
X143150000Y-106050000D01*
X143150000Y-91050000D02*
X143150000Y-90050000D01*
X158450000Y-103000000D02*
X159750000Y-103000000D01*
X134650000Y-103250000D02*
X134650000Y-104250000D01*
X134650000Y-87250000D02*
X134650000Y-88250000D01*
X164750000Y-107050000D02*
X164750000Y-106050000D01*
%LPC*%
D12*
X128100000Y-111950000D03*
D13*
X164000000Y-90550000D03*
X164000000Y-87750000D03*
D14*
X132600036Y-103450001D03*
X132600034Y-102700001D03*
X132600034Y-101950019D03*
X132600034Y-101200001D03*
X132600034Y-100450001D03*
D15*
X134975000Y-85800000D03*
X137925000Y-85800000D03*
X134975000Y-101800000D03*
X137925000Y-101800000D03*
D16*
X164500000Y-98450000D03*
D17*
X137500000Y-105050000D03*
X140300000Y-105050000D03*
D14*
X166800000Y-78200000D03*
X166800000Y-77450000D03*
X166800000Y-76700000D03*
X166800000Y-75950000D03*
X166800000Y-75200000D03*
X166800000Y-74450000D03*
X166800000Y-73700000D03*
D16*
X156500000Y-82450000D03*
D15*
X156575000Y-85800000D03*
X159525000Y-85800000D03*
D12*
X171300000Y-111950000D03*
D14*
X154200035Y-87450038D03*
X154200033Y-86700038D03*
X154200033Y-85950056D03*
X154200033Y-85200038D03*
X154200033Y-84450038D03*
D18*
X157000000Y-87750000D03*
X157000000Y-90550000D03*
D15*
X156575000Y-101800000D03*
X159525000Y-101800000D03*
D18*
X157000000Y-103750000D03*
X157000000Y-106550000D03*
D16*
X156500000Y-98450000D03*
D14*
X166800000Y-100450000D03*
X166800002Y-101200000D03*
X166800002Y-101949982D03*
X166800002Y-102700000D03*
X166800002Y-103450000D03*
X132600000Y-114200000D03*
X132600000Y-113450000D03*
X132600000Y-112700000D03*
X132600000Y-111950000D03*
X132600000Y-111200000D03*
X132600000Y-110450000D03*
X132600000Y-109700000D03*
D16*
X142900000Y-82450000D03*
D15*
X161475000Y-85800000D03*
X164425000Y-85800000D03*
D17*
X159100000Y-89050000D03*
X161900000Y-89050000D03*
D16*
X142900000Y-98450000D03*
D17*
X137500000Y-89050000D03*
X140300000Y-89050000D03*
D15*
X161475000Y-101800000D03*
X164425000Y-101800000D03*
D14*
X166800035Y-84450038D03*
X166800037Y-85200038D03*
X166800037Y-85950020D03*
X166800037Y-86700038D03*
X166800037Y-87450038D03*
D16*
X164500000Y-82450000D03*
D13*
X142400000Y-106550000D03*
X142400000Y-103750000D03*
D16*
X134900000Y-82450000D03*
D13*
X142400000Y-90550000D03*
X142400000Y-87750000D03*
D17*
X159100000Y-105050000D03*
X161900000Y-105050000D03*
D15*
X139875000Y-85800000D03*
X142825000Y-85800000D03*
D16*
X134900000Y-98450000D03*
D18*
X135400000Y-103750000D03*
X135400000Y-106550000D03*
D14*
X145200036Y-84450001D03*
X145200038Y-85200001D03*
X145200038Y-85949983D03*
X145200038Y-86700001D03*
X145200038Y-87450001D03*
D15*
X139875000Y-101800000D03*
X142825000Y-101800000D03*
D14*
X132600036Y-87450001D03*
X132600034Y-86700001D03*
X132600034Y-85950019D03*
X132600034Y-85200001D03*
X132600034Y-84450001D03*
X166800000Y-114200000D03*
X166800000Y-113450000D03*
X166800000Y-112700000D03*
X166800000Y-111950000D03*
X166800000Y-111200000D03*
X166800000Y-110450000D03*
X166800000Y-109700000D03*
D12*
X149700000Y-75950000D03*
D18*
X135400000Y-87750000D03*
X135400000Y-90550000D03*
D14*
X145200036Y-100450001D03*
X145200038Y-101200001D03*
X145200038Y-101949983D03*
X145200038Y-102700001D03*
X145200038Y-103450001D03*
D13*
X164000000Y-106550000D03*
X164000000Y-103750000D03*
D14*
X154200000Y-103450000D03*
X154199998Y-102700000D03*
X154199998Y-101950018D03*
X154199998Y-101200000D03*
X154199998Y-100450000D03*
X132600000Y-78200000D03*
X132600000Y-77450000D03*
X132600000Y-76700000D03*
X132600000Y-75950000D03*
X132600000Y-75200000D03*
X132600000Y-74450000D03*
X132600000Y-73700000D03*
M02*
