%TF.GenerationSoftware,KiCad,Pcbnew,(7.0.0-0)*%
%TF.CreationDate,2025-09-03T19:43:01+12:00*%
%TF.ProjectId,polar_light_panelized_X4,706f6c61-725f-46c6-9967-68745f70616e,rev?*%
%TF.SameCoordinates,Original*%
%TF.FileFunction,Drillmap*%
%TF.FilePolarity,Positive*%
%FSLAX45Y45*%
G04 Gerber Fmt 4.5, Leading zero omitted, Abs format (unit mm)*
G04 Created by KiCad (PCBNEW (7.0.0-0)) date 2025-09-03 19:43:01*
%MOMM*%
%LPD*%
G01*
G04 APERTURE LIST*
%ADD10C,0.150000*%
%ADD11C,0.200000*%
%ADD12C,0.050000*%
%ADD13C,0.115200*%
G04 APERTURE END LIST*
D10*
X13260004Y-8045000D02*
X13260003Y-8395000D01*
X15420003Y-9145004D02*
X15420003Y-8795007D01*
X13690010Y-9935000D02*
G75*
G03*
X13790004Y-10035000I99990J-10D01*
G01*
X16680000Y-9645000D02*
X16250000Y-9645000D01*
X13690004Y-8045000D02*
X13690004Y-8335000D01*
X15220000Y-9995000D02*
X15220003Y-8795007D01*
X15420003Y-8045004D02*
X15420003Y-8395004D01*
X13060003Y-10395004D02*
X13060004Y-10845000D01*
X15420000Y-9645000D02*
X15850000Y-9645000D01*
X16880000Y-10395000D02*
X16880000Y-10845000D01*
X16680004Y-8395000D02*
X16680003Y-8045004D01*
X15220000Y-10845000D02*
G75*
G03*
X15320000Y-10945000I100000J0D01*
G01*
X16680003Y-8045004D02*
X16250003Y-8045004D01*
X16680000Y-10745000D02*
X16680000Y-10395000D01*
X13260004Y-9645000D02*
X13690004Y-9645000D01*
X15420003Y-9145004D02*
X16680003Y-9145004D01*
X13060004Y-8395000D02*
X13060004Y-7945000D01*
X15950003Y-8435004D02*
X16150003Y-8435004D01*
X14720010Y-7945000D02*
G75*
G03*
X14620004Y-7845000I-100010J-10D01*
G01*
X15850000Y-9935000D02*
G75*
G03*
X15950000Y-10035000I100000J0D01*
G01*
X14520004Y-8045000D02*
X14090004Y-8045000D01*
X15850003Y-8045004D02*
X15850003Y-8335004D01*
X13060010Y-10845000D02*
G75*
G03*
X13160004Y-10945000I99990J-10D01*
G01*
X13260004Y-8045000D02*
X13690004Y-8045000D01*
X15850000Y-9645000D02*
X15850000Y-9935000D01*
X15849996Y-8335004D02*
G75*
G03*
X15950003Y-8435004I99994J-6D01*
G01*
X16680000Y-9994996D02*
X16680000Y-9645000D01*
X13260004Y-9145000D02*
X13260003Y-8795004D01*
X13690010Y-8335000D02*
G75*
G03*
X13790004Y-8435000I99990J-10D01*
G01*
X14620004Y-10944994D02*
G75*
G03*
X14720004Y-10845000I6J99994D01*
G01*
X16250000Y-9935000D02*
X16250000Y-9645000D01*
X14090004Y-8335000D02*
X14090004Y-8045000D01*
X13160004Y-7844994D02*
G75*
G03*
X13060004Y-7945000I6J-100006D01*
G01*
X15420000Y-10745000D02*
X15420000Y-10395004D01*
X16150000Y-10035000D02*
G75*
G03*
X16250000Y-9935000I0J100000D01*
G01*
X14520004Y-9994997D02*
X14520004Y-9645000D01*
X13260004Y-10745000D02*
X14520004Y-10745000D01*
X16880004Y-8795004D02*
X16880000Y-9994996D01*
X16780000Y-10945000D02*
X15320000Y-10945000D01*
X13790004Y-10035000D02*
X13990004Y-10035000D01*
X13990004Y-8434994D02*
G75*
G03*
X14090004Y-8335000I6J99994D01*
G01*
X14520004Y-9145000D02*
X14520004Y-8795000D01*
X15420003Y-8045004D02*
X15850003Y-8045004D01*
X15320003Y-7845004D02*
X16780004Y-7845004D01*
X14090004Y-9935000D02*
X14090004Y-9645000D01*
X16880006Y-7945004D02*
G75*
G03*
X16780004Y-7845004I-100006J-6D01*
G01*
X16150003Y-8435004D02*
G75*
G03*
X16250003Y-8335004I-4J100004D01*
G01*
X13790004Y-8435000D02*
X13990004Y-8435000D01*
X14520004Y-10745000D02*
X14520004Y-10395000D01*
X15420000Y-10745000D02*
X16680000Y-10745000D01*
X15220000Y-10395004D02*
X15220000Y-10845000D01*
X15320003Y-7845003D02*
G75*
G03*
X15220003Y-7945004I-4J-99997D01*
G01*
X16250003Y-8335004D02*
X16250003Y-8045004D01*
X13690004Y-9645000D02*
X13690004Y-9935000D01*
X14520004Y-9645000D02*
X14090004Y-9645000D01*
X13160004Y-7845000D02*
X14620004Y-7845000D01*
X12560000Y-7345000D02*
X17380000Y-7345000D01*
X17380000Y-7345000D02*
X17380000Y-11445000D01*
X17380000Y-11445000D02*
X12560000Y-11445000D01*
X12560000Y-11445000D02*
X12560000Y-7345000D01*
X13060003Y-8795004D02*
X13060004Y-9995000D01*
X15950000Y-10035000D02*
X16150000Y-10035000D01*
X14720004Y-10395000D02*
X14720004Y-10845000D01*
X13260004Y-10745000D02*
X13260003Y-10395004D01*
X13260004Y-9645000D02*
X13260003Y-9995000D01*
X14720004Y-8795000D02*
X14720004Y-9994997D01*
X16880004Y-8395000D02*
X16880004Y-7945004D01*
X13260004Y-9145000D02*
X14520004Y-9145000D01*
X14720004Y-8394997D02*
X14720004Y-7945000D01*
X15420000Y-9645000D02*
X15420000Y-9995000D01*
X13990004Y-10034994D02*
G75*
G03*
X14090004Y-9935000I6J99994D01*
G01*
X14520004Y-8394997D02*
X14520004Y-8045000D01*
X16680003Y-9145004D02*
X16680004Y-8795004D01*
X14620004Y-10945000D02*
X13160004Y-10945000D01*
X16780000Y-10945000D02*
G75*
G03*
X16880000Y-10845000I0J100000D01*
G01*
X15220003Y-8395004D02*
X15220003Y-7945004D01*
D11*
D12*
X13235000Y-7345000D02*
X13285000Y-7395000D01*
X13285000Y-7345000D02*
X13235000Y-7395000D01*
X13235000Y-7420000D02*
X13285000Y-7470000D01*
X13285000Y-7420000D02*
X13235000Y-7470000D01*
X13235000Y-7495000D02*
X13285000Y-7545000D01*
X13285000Y-7495000D02*
X13235000Y-7545000D01*
X13235000Y-7570000D02*
X13285000Y-7620000D01*
X13285000Y-7570000D02*
X13235000Y-7620000D01*
X13235000Y-7645000D02*
X13285000Y-7695000D01*
X13285000Y-7645000D02*
X13235000Y-7695000D01*
X13235000Y-7720000D02*
X13285000Y-7770000D01*
X13285000Y-7720000D02*
X13235000Y-7770000D01*
X13235000Y-7795000D02*
X13285000Y-7845000D01*
X13285000Y-7795000D02*
X13235000Y-7845000D01*
X13235000Y-10945000D02*
X13285000Y-10995000D01*
X13285000Y-10945000D02*
X13235000Y-10995000D01*
X13235000Y-11020000D02*
X13285000Y-11070000D01*
X13285000Y-11020000D02*
X13235000Y-11070000D01*
X13235000Y-11095000D02*
X13285000Y-11145000D01*
X13285000Y-11095000D02*
X13235000Y-11145000D01*
X13235000Y-11170000D02*
X13285000Y-11220000D01*
X13285000Y-11170000D02*
X13235000Y-11220000D01*
X13235000Y-11245000D02*
X13285000Y-11295000D01*
X13285000Y-11245000D02*
X13235000Y-11295000D01*
X13235000Y-11320000D02*
X13285000Y-11370000D01*
X13285000Y-11320000D02*
X13235000Y-11370000D01*
X13235000Y-11395000D02*
X13285000Y-11445000D01*
X13285000Y-11395000D02*
X13235000Y-11445000D01*
X13235003Y-8420000D02*
X13285003Y-8470000D01*
X13285003Y-8420000D02*
X13235003Y-8470000D01*
X13235003Y-8495000D02*
X13285003Y-8545000D01*
X13285003Y-8495000D02*
X13235003Y-8545000D01*
X13235003Y-8570002D02*
X13285003Y-8620002D01*
X13285003Y-8570002D02*
X13235003Y-8620002D01*
X13235003Y-8645000D02*
X13285003Y-8695000D01*
X13285003Y-8645000D02*
X13235003Y-8695000D01*
X13235003Y-10020000D02*
X13285003Y-10070000D01*
X13285003Y-10020000D02*
X13235003Y-10070000D01*
X13235003Y-10095000D02*
X13285003Y-10145000D01*
X13285003Y-10095000D02*
X13235003Y-10145000D01*
X13235003Y-10170002D02*
X13285003Y-10220002D01*
X13285003Y-10170002D02*
X13235003Y-10220002D01*
X13235003Y-10245000D02*
X13285003Y-10295000D01*
X13285003Y-10245000D02*
X13235003Y-10295000D01*
X13235004Y-8720000D02*
X13285004Y-8770000D01*
X13285004Y-8720000D02*
X13235004Y-8770000D01*
X13235004Y-10320000D02*
X13285004Y-10370000D01*
X13285004Y-10320000D02*
X13235004Y-10370000D01*
X14495004Y-8420000D02*
X14545004Y-8470000D01*
X14545004Y-8420000D02*
X14495004Y-8470000D01*
X14495004Y-10020000D02*
X14545004Y-10070000D01*
X14545004Y-10020000D02*
X14495004Y-10070000D01*
X14495004Y-8495000D02*
X14545004Y-8545000D01*
X14545004Y-8495000D02*
X14495004Y-8545000D01*
X14495004Y-8569998D02*
X14545004Y-8619998D01*
X14545004Y-8569998D02*
X14495004Y-8619998D01*
X14495004Y-8645000D02*
X14545004Y-8695000D01*
X14545004Y-8645000D02*
X14495004Y-8695000D01*
X14495004Y-8720000D02*
X14545004Y-8770000D01*
X14545004Y-8720000D02*
X14495004Y-8770000D01*
X14495004Y-10095000D02*
X14545004Y-10145000D01*
X14545004Y-10095000D02*
X14495004Y-10145000D01*
X14495004Y-10169998D02*
X14545004Y-10219998D01*
X14545004Y-10169998D02*
X14495004Y-10219998D01*
X14495004Y-10245000D02*
X14545004Y-10295000D01*
X14545004Y-10245000D02*
X14495004Y-10295000D01*
X14495004Y-10320000D02*
X14545004Y-10370000D01*
X14545004Y-10320000D02*
X14495004Y-10370000D01*
X15395000Y-10020000D02*
X15445000Y-10070000D01*
X15445000Y-10020000D02*
X15395000Y-10070000D01*
X15395000Y-10095000D02*
X15445000Y-10145000D01*
X15445000Y-10095000D02*
X15395000Y-10145000D01*
X15395000Y-10170002D02*
X15445000Y-10220002D01*
X15445000Y-10170002D02*
X15395000Y-10220002D01*
X15395000Y-10245000D02*
X15445000Y-10295000D01*
X15445000Y-10245000D02*
X15395000Y-10295000D01*
X15395000Y-10320000D02*
X15445000Y-10370000D01*
X15445000Y-10320000D02*
X15395000Y-10370000D01*
X15395003Y-8420004D02*
X15445003Y-8470004D01*
X15445003Y-8420004D02*
X15395003Y-8470004D01*
X15395003Y-8495004D02*
X15445003Y-8545004D01*
X15445003Y-8495004D02*
X15395003Y-8545004D01*
X15395003Y-8570006D02*
X15445003Y-8620006D01*
X15445003Y-8570006D02*
X15395003Y-8620006D01*
X15395003Y-8645004D02*
X15445003Y-8695004D01*
X15445003Y-8645004D02*
X15395003Y-8695004D01*
X15395003Y-8720004D02*
X15445003Y-8770004D01*
X15445003Y-8720004D02*
X15395003Y-8770004D01*
X16655000Y-7345000D02*
X16705000Y-7395000D01*
X16705000Y-7345000D02*
X16655000Y-7395000D01*
X16655000Y-7420000D02*
X16705000Y-7470000D01*
X16705000Y-7420000D02*
X16655000Y-7470000D01*
X16655000Y-7495000D02*
X16705000Y-7545000D01*
X16705000Y-7495000D02*
X16655000Y-7545000D01*
X16655000Y-7570000D02*
X16705000Y-7620000D01*
X16705000Y-7570000D02*
X16655000Y-7620000D01*
X16655000Y-7645000D02*
X16705000Y-7695000D01*
X16705000Y-7645000D02*
X16655000Y-7695000D01*
X16655000Y-7720000D02*
X16705000Y-7770000D01*
X16705000Y-7720000D02*
X16655000Y-7770000D01*
X16655000Y-7795000D02*
X16705000Y-7845000D01*
X16705000Y-7795000D02*
X16655000Y-7845000D01*
X16655000Y-10020000D02*
X16705000Y-10070000D01*
X16705000Y-10020000D02*
X16655000Y-10070000D01*
X16655000Y-10945000D02*
X16705000Y-10995000D01*
X16705000Y-10945000D02*
X16655000Y-10995000D01*
X16655000Y-11020000D02*
X16705000Y-11070000D01*
X16705000Y-11020000D02*
X16655000Y-11070000D01*
X16655000Y-11095000D02*
X16705000Y-11145000D01*
X16705000Y-11095000D02*
X16655000Y-11145000D01*
X16655000Y-11170000D02*
X16705000Y-11220000D01*
X16705000Y-11170000D02*
X16655000Y-11220000D01*
X16655000Y-11245000D02*
X16705000Y-11295000D01*
X16705000Y-11245000D02*
X16655000Y-11295000D01*
X16655000Y-11320000D02*
X16705000Y-11370000D01*
X16705000Y-11320000D02*
X16655000Y-11370000D01*
X16655000Y-11395000D02*
X16705000Y-11445000D01*
X16705000Y-11395000D02*
X16655000Y-11445000D01*
X16655000Y-10095000D02*
X16705000Y-10145000D01*
X16705000Y-10095000D02*
X16655000Y-10145000D01*
X16655000Y-10169998D02*
X16705000Y-10219998D01*
X16705000Y-10169998D02*
X16655000Y-10219998D01*
X16655000Y-10245000D02*
X16705000Y-10295000D01*
X16705000Y-10245000D02*
X16655000Y-10295000D01*
X16655000Y-10320000D02*
X16705000Y-10370000D01*
X16705000Y-10320000D02*
X16655000Y-10370000D01*
X16655003Y-8420004D02*
X16705003Y-8470004D01*
X16705003Y-8420004D02*
X16655003Y-8470004D01*
X16655004Y-8495004D02*
X16705004Y-8545004D01*
X16705004Y-8495004D02*
X16655004Y-8545004D01*
X16655004Y-8570002D02*
X16705004Y-8620002D01*
X16705004Y-8570002D02*
X16655004Y-8620002D01*
X16655004Y-8645004D02*
X16705004Y-8695004D01*
X16705004Y-8645004D02*
X16655004Y-8695004D01*
X16655004Y-8720004D02*
X16705004Y-8770004D01*
X16705004Y-8720004D02*
X16655004Y-8770004D01*
D13*
X12867600Y-11195000D02*
G75*
G03*
X12867600Y-11195000I-57600J0D01*
G01*
X15027600Y-7595000D02*
G75*
G03*
X15027600Y-7595000I-57600J0D01*
G01*
X17187600Y-11195000D02*
G75*
G03*
X17187600Y-11195000I-57600J0D01*
G01*
D11*
X12800119Y-11745976D02*
X12800119Y-11545976D01*
X12800119Y-11545976D02*
X12847738Y-11545976D01*
X12847738Y-11545976D02*
X12876309Y-11555500D01*
X12876309Y-11555500D02*
X12895357Y-11574548D01*
X12895357Y-11574548D02*
X12904881Y-11593595D01*
X12904881Y-11593595D02*
X12914405Y-11631690D01*
X12914405Y-11631690D02*
X12914405Y-11660262D01*
X12914405Y-11660262D02*
X12904881Y-11698357D01*
X12904881Y-11698357D02*
X12895357Y-11717405D01*
X12895357Y-11717405D02*
X12876309Y-11736452D01*
X12876309Y-11736452D02*
X12847738Y-11745976D01*
X12847738Y-11745976D02*
X12800119Y-11745976D01*
X13000119Y-11745976D02*
X13000119Y-11612643D01*
X13000119Y-11650738D02*
X13009643Y-11631690D01*
X13009643Y-11631690D02*
X13019167Y-11622167D01*
X13019167Y-11622167D02*
X13038214Y-11612643D01*
X13038214Y-11612643D02*
X13057262Y-11612643D01*
X13123928Y-11745976D02*
X13123928Y-11612643D01*
X13123928Y-11545976D02*
X13114405Y-11555500D01*
X13114405Y-11555500D02*
X13123928Y-11565024D01*
X13123928Y-11565024D02*
X13133452Y-11555500D01*
X13133452Y-11555500D02*
X13123928Y-11545976D01*
X13123928Y-11545976D02*
X13123928Y-11565024D01*
X13247738Y-11745976D02*
X13228690Y-11736452D01*
X13228690Y-11736452D02*
X13219167Y-11717405D01*
X13219167Y-11717405D02*
X13219167Y-11545976D01*
X13352500Y-11745976D02*
X13333452Y-11736452D01*
X13333452Y-11736452D02*
X13323928Y-11717405D01*
X13323928Y-11717405D02*
X13323928Y-11545976D01*
X13548690Y-11745976D02*
X13548690Y-11545976D01*
X13548690Y-11545976D02*
X13615357Y-11688833D01*
X13615357Y-11688833D02*
X13682024Y-11545976D01*
X13682024Y-11545976D02*
X13682024Y-11745976D01*
X13862976Y-11745976D02*
X13862976Y-11641214D01*
X13862976Y-11641214D02*
X13853452Y-11622167D01*
X13853452Y-11622167D02*
X13834405Y-11612643D01*
X13834405Y-11612643D02*
X13796309Y-11612643D01*
X13796309Y-11612643D02*
X13777262Y-11622167D01*
X13862976Y-11736452D02*
X13843928Y-11745976D01*
X13843928Y-11745976D02*
X13796309Y-11745976D01*
X13796309Y-11745976D02*
X13777262Y-11736452D01*
X13777262Y-11736452D02*
X13767738Y-11717405D01*
X13767738Y-11717405D02*
X13767738Y-11698357D01*
X13767738Y-11698357D02*
X13777262Y-11679309D01*
X13777262Y-11679309D02*
X13796309Y-11669786D01*
X13796309Y-11669786D02*
X13843928Y-11669786D01*
X13843928Y-11669786D02*
X13862976Y-11660262D01*
X13958214Y-11612643D02*
X13958214Y-11812643D01*
X13958214Y-11622167D02*
X13977262Y-11612643D01*
X13977262Y-11612643D02*
X14015357Y-11612643D01*
X14015357Y-11612643D02*
X14034405Y-11622167D01*
X14034405Y-11622167D02*
X14043928Y-11631690D01*
X14043928Y-11631690D02*
X14053452Y-11650738D01*
X14053452Y-11650738D02*
X14053452Y-11707881D01*
X14053452Y-11707881D02*
X14043928Y-11726928D01*
X14043928Y-11726928D02*
X14034405Y-11736452D01*
X14034405Y-11736452D02*
X14015357Y-11745976D01*
X14015357Y-11745976D02*
X13977262Y-11745976D01*
X13977262Y-11745976D02*
X13958214Y-11736452D01*
X14139167Y-11726928D02*
X14148690Y-11736452D01*
X14148690Y-11736452D02*
X14139167Y-11745976D01*
X14139167Y-11745976D02*
X14129643Y-11736452D01*
X14129643Y-11736452D02*
X14139167Y-11726928D01*
X14139167Y-11726928D02*
X14139167Y-11745976D01*
X14139167Y-11622167D02*
X14148690Y-11631690D01*
X14148690Y-11631690D02*
X14139167Y-11641214D01*
X14139167Y-11641214D02*
X14129643Y-11631690D01*
X14129643Y-11631690D02*
X14139167Y-11622167D01*
X14139167Y-11622167D02*
X14139167Y-11641214D01*
D12*
X12502500Y-12067500D02*
X12552500Y-12117500D01*
X12552500Y-12067500D02*
X12502500Y-12117500D01*
D11*
X12838214Y-11965976D02*
X12857262Y-11965976D01*
X12857262Y-11965976D02*
X12876309Y-11975500D01*
X12876309Y-11975500D02*
X12885833Y-11985024D01*
X12885833Y-11985024D02*
X12895357Y-12004071D01*
X12895357Y-12004071D02*
X12904881Y-12042167D01*
X12904881Y-12042167D02*
X12904881Y-12089786D01*
X12904881Y-12089786D02*
X12895357Y-12127881D01*
X12895357Y-12127881D02*
X12885833Y-12146928D01*
X12885833Y-12146928D02*
X12876309Y-12156452D01*
X12876309Y-12156452D02*
X12857262Y-12165976D01*
X12857262Y-12165976D02*
X12838214Y-12165976D01*
X12838214Y-12165976D02*
X12819167Y-12156452D01*
X12819167Y-12156452D02*
X12809643Y-12146928D01*
X12809643Y-12146928D02*
X12800119Y-12127881D01*
X12800119Y-12127881D02*
X12790595Y-12089786D01*
X12790595Y-12089786D02*
X12790595Y-12042167D01*
X12790595Y-12042167D02*
X12800119Y-12004071D01*
X12800119Y-12004071D02*
X12809643Y-11985024D01*
X12809643Y-11985024D02*
X12819167Y-11975500D01*
X12819167Y-11975500D02*
X12838214Y-11965976D01*
X12990595Y-12146928D02*
X13000119Y-12156452D01*
X13000119Y-12156452D02*
X12990595Y-12165976D01*
X12990595Y-12165976D02*
X12981071Y-12156452D01*
X12981071Y-12156452D02*
X12990595Y-12146928D01*
X12990595Y-12146928D02*
X12990595Y-12165976D01*
X13181071Y-11965976D02*
X13085833Y-11965976D01*
X13085833Y-11965976D02*
X13076309Y-12061214D01*
X13076309Y-12061214D02*
X13085833Y-12051690D01*
X13085833Y-12051690D02*
X13104881Y-12042167D01*
X13104881Y-12042167D02*
X13152500Y-12042167D01*
X13152500Y-12042167D02*
X13171548Y-12051690D01*
X13171548Y-12051690D02*
X13181071Y-12061214D01*
X13181071Y-12061214D02*
X13190595Y-12080262D01*
X13190595Y-12080262D02*
X13190595Y-12127881D01*
X13190595Y-12127881D02*
X13181071Y-12146928D01*
X13181071Y-12146928D02*
X13171548Y-12156452D01*
X13171548Y-12156452D02*
X13152500Y-12165976D01*
X13152500Y-12165976D02*
X13104881Y-12165976D01*
X13104881Y-12165976D02*
X13085833Y-12156452D01*
X13085833Y-12156452D02*
X13076309Y-12146928D01*
X13314405Y-11965976D02*
X13333452Y-11965976D01*
X13333452Y-11965976D02*
X13352500Y-11975500D01*
X13352500Y-11975500D02*
X13362024Y-11985024D01*
X13362024Y-11985024D02*
X13371548Y-12004071D01*
X13371548Y-12004071D02*
X13381071Y-12042167D01*
X13381071Y-12042167D02*
X13381071Y-12089786D01*
X13381071Y-12089786D02*
X13371548Y-12127881D01*
X13371548Y-12127881D02*
X13362024Y-12146928D01*
X13362024Y-12146928D02*
X13352500Y-12156452D01*
X13352500Y-12156452D02*
X13333452Y-12165976D01*
X13333452Y-12165976D02*
X13314405Y-12165976D01*
X13314405Y-12165976D02*
X13295357Y-12156452D01*
X13295357Y-12156452D02*
X13285833Y-12146928D01*
X13285833Y-12146928D02*
X13276309Y-12127881D01*
X13276309Y-12127881D02*
X13266786Y-12089786D01*
X13266786Y-12089786D02*
X13266786Y-12042167D01*
X13266786Y-12042167D02*
X13276309Y-12004071D01*
X13276309Y-12004071D02*
X13285833Y-11985024D01*
X13285833Y-11985024D02*
X13295357Y-11975500D01*
X13295357Y-11975500D02*
X13314405Y-11965976D01*
X13504881Y-11965976D02*
X13523929Y-11965976D01*
X13523929Y-11965976D02*
X13542976Y-11975500D01*
X13542976Y-11975500D02*
X13552500Y-11985024D01*
X13552500Y-11985024D02*
X13562024Y-12004071D01*
X13562024Y-12004071D02*
X13571548Y-12042167D01*
X13571548Y-12042167D02*
X13571548Y-12089786D01*
X13571548Y-12089786D02*
X13562024Y-12127881D01*
X13562024Y-12127881D02*
X13552500Y-12146928D01*
X13552500Y-12146928D02*
X13542976Y-12156452D01*
X13542976Y-12156452D02*
X13523929Y-12165976D01*
X13523929Y-12165976D02*
X13504881Y-12165976D01*
X13504881Y-12165976D02*
X13485833Y-12156452D01*
X13485833Y-12156452D02*
X13476309Y-12146928D01*
X13476309Y-12146928D02*
X13466786Y-12127881D01*
X13466786Y-12127881D02*
X13457262Y-12089786D01*
X13457262Y-12089786D02*
X13457262Y-12042167D01*
X13457262Y-12042167D02*
X13466786Y-12004071D01*
X13466786Y-12004071D02*
X13476309Y-11985024D01*
X13476309Y-11985024D02*
X13485833Y-11975500D01*
X13485833Y-11975500D02*
X13504881Y-11965976D01*
X13657262Y-12165976D02*
X13657262Y-12032643D01*
X13657262Y-12051690D02*
X13666786Y-12042167D01*
X13666786Y-12042167D02*
X13685833Y-12032643D01*
X13685833Y-12032643D02*
X13714405Y-12032643D01*
X13714405Y-12032643D02*
X13733452Y-12042167D01*
X13733452Y-12042167D02*
X13742976Y-12061214D01*
X13742976Y-12061214D02*
X13742976Y-12165976D01*
X13742976Y-12061214D02*
X13752500Y-12042167D01*
X13752500Y-12042167D02*
X13771548Y-12032643D01*
X13771548Y-12032643D02*
X13800119Y-12032643D01*
X13800119Y-12032643D02*
X13819167Y-12042167D01*
X13819167Y-12042167D02*
X13828690Y-12061214D01*
X13828690Y-12061214D02*
X13828690Y-12165976D01*
X13923929Y-12165976D02*
X13923929Y-12032643D01*
X13923929Y-12051690D02*
X13933452Y-12042167D01*
X13933452Y-12042167D02*
X13952500Y-12032643D01*
X13952500Y-12032643D02*
X13981071Y-12032643D01*
X13981071Y-12032643D02*
X14000119Y-12042167D01*
X14000119Y-12042167D02*
X14009643Y-12061214D01*
X14009643Y-12061214D02*
X14009643Y-12165976D01*
X14009643Y-12061214D02*
X14019167Y-12042167D01*
X14019167Y-12042167D02*
X14038214Y-12032643D01*
X14038214Y-12032643D02*
X14066786Y-12032643D01*
X14066786Y-12032643D02*
X14085833Y-12042167D01*
X14085833Y-12042167D02*
X14095357Y-12061214D01*
X14095357Y-12061214D02*
X14095357Y-12165976D01*
X14453452Y-11956452D02*
X14282024Y-12213595D01*
X14678214Y-11965976D02*
X14697262Y-11965976D01*
X14697262Y-11965976D02*
X14716310Y-11975500D01*
X14716310Y-11975500D02*
X14725833Y-11985024D01*
X14725833Y-11985024D02*
X14735357Y-12004071D01*
X14735357Y-12004071D02*
X14744881Y-12042167D01*
X14744881Y-12042167D02*
X14744881Y-12089786D01*
X14744881Y-12089786D02*
X14735357Y-12127881D01*
X14735357Y-12127881D02*
X14725833Y-12146928D01*
X14725833Y-12146928D02*
X14716310Y-12156452D01*
X14716310Y-12156452D02*
X14697262Y-12165976D01*
X14697262Y-12165976D02*
X14678214Y-12165976D01*
X14678214Y-12165976D02*
X14659167Y-12156452D01*
X14659167Y-12156452D02*
X14649643Y-12146928D01*
X14649643Y-12146928D02*
X14640119Y-12127881D01*
X14640119Y-12127881D02*
X14630595Y-12089786D01*
X14630595Y-12089786D02*
X14630595Y-12042167D01*
X14630595Y-12042167D02*
X14640119Y-12004071D01*
X14640119Y-12004071D02*
X14649643Y-11985024D01*
X14649643Y-11985024D02*
X14659167Y-11975500D01*
X14659167Y-11975500D02*
X14678214Y-11965976D01*
X14830595Y-12146928D02*
X14840119Y-12156452D01*
X14840119Y-12156452D02*
X14830595Y-12165976D01*
X14830595Y-12165976D02*
X14821071Y-12156452D01*
X14821071Y-12156452D02*
X14830595Y-12146928D01*
X14830595Y-12146928D02*
X14830595Y-12165976D01*
X14963929Y-11965976D02*
X14982976Y-11965976D01*
X14982976Y-11965976D02*
X15002024Y-11975500D01*
X15002024Y-11975500D02*
X15011548Y-11985024D01*
X15011548Y-11985024D02*
X15021071Y-12004071D01*
X15021071Y-12004071D02*
X15030595Y-12042167D01*
X15030595Y-12042167D02*
X15030595Y-12089786D01*
X15030595Y-12089786D02*
X15021071Y-12127881D01*
X15021071Y-12127881D02*
X15011548Y-12146928D01*
X15011548Y-12146928D02*
X15002024Y-12156452D01*
X15002024Y-12156452D02*
X14982976Y-12165976D01*
X14982976Y-12165976D02*
X14963929Y-12165976D01*
X14963929Y-12165976D02*
X14944881Y-12156452D01*
X14944881Y-12156452D02*
X14935357Y-12146928D01*
X14935357Y-12146928D02*
X14925833Y-12127881D01*
X14925833Y-12127881D02*
X14916310Y-12089786D01*
X14916310Y-12089786D02*
X14916310Y-12042167D01*
X14916310Y-12042167D02*
X14925833Y-12004071D01*
X14925833Y-12004071D02*
X14935357Y-11985024D01*
X14935357Y-11985024D02*
X14944881Y-11975500D01*
X14944881Y-11975500D02*
X14963929Y-11965976D01*
X15221071Y-12165976D02*
X15106786Y-12165976D01*
X15163929Y-12165976D02*
X15163929Y-11965976D01*
X15163929Y-11965976D02*
X15144881Y-11994548D01*
X15144881Y-11994548D02*
X15125833Y-12013595D01*
X15125833Y-12013595D02*
X15106786Y-12023119D01*
X15316310Y-12165976D02*
X15354405Y-12165976D01*
X15354405Y-12165976D02*
X15373452Y-12156452D01*
X15373452Y-12156452D02*
X15382976Y-12146928D01*
X15382976Y-12146928D02*
X15402024Y-12118357D01*
X15402024Y-12118357D02*
X15411548Y-12080262D01*
X15411548Y-12080262D02*
X15411548Y-12004071D01*
X15411548Y-12004071D02*
X15402024Y-11985024D01*
X15402024Y-11985024D02*
X15392500Y-11975500D01*
X15392500Y-11975500D02*
X15373452Y-11965976D01*
X15373452Y-11965976D02*
X15335357Y-11965976D01*
X15335357Y-11965976D02*
X15316310Y-11975500D01*
X15316310Y-11975500D02*
X15306786Y-11985024D01*
X15306786Y-11985024D02*
X15297262Y-12004071D01*
X15297262Y-12004071D02*
X15297262Y-12051690D01*
X15297262Y-12051690D02*
X15306786Y-12070738D01*
X15306786Y-12070738D02*
X15316310Y-12080262D01*
X15316310Y-12080262D02*
X15335357Y-12089786D01*
X15335357Y-12089786D02*
X15373452Y-12089786D01*
X15373452Y-12089786D02*
X15392500Y-12080262D01*
X15392500Y-12080262D02*
X15402024Y-12070738D01*
X15402024Y-12070738D02*
X15411548Y-12051690D01*
X15478214Y-11965976D02*
X15611548Y-11965976D01*
X15611548Y-11965976D02*
X15525833Y-12165976D01*
X15678214Y-11965976D02*
X15678214Y-12004071D01*
X15754405Y-11965976D02*
X15754405Y-12004071D01*
X16017262Y-12242167D02*
X16007738Y-12232643D01*
X16007738Y-12232643D02*
X15988691Y-12204071D01*
X15988691Y-12204071D02*
X15979167Y-12185024D01*
X15979167Y-12185024D02*
X15969643Y-12156452D01*
X15969643Y-12156452D02*
X15960119Y-12108833D01*
X15960119Y-12108833D02*
X15960119Y-12070738D01*
X15960119Y-12070738D02*
X15969643Y-12023119D01*
X15969643Y-12023119D02*
X15979167Y-11994548D01*
X15979167Y-11994548D02*
X15988691Y-11975500D01*
X15988691Y-11975500D02*
X16007738Y-11946928D01*
X16007738Y-11946928D02*
X16017262Y-11937405D01*
X16179167Y-11965976D02*
X16141071Y-11965976D01*
X16141071Y-11965976D02*
X16122024Y-11975500D01*
X16122024Y-11975500D02*
X16112500Y-11985024D01*
X16112500Y-11985024D02*
X16093452Y-12013595D01*
X16093452Y-12013595D02*
X16083929Y-12051690D01*
X16083929Y-12051690D02*
X16083929Y-12127881D01*
X16083929Y-12127881D02*
X16093452Y-12146928D01*
X16093452Y-12146928D02*
X16102976Y-12156452D01*
X16102976Y-12156452D02*
X16122024Y-12165976D01*
X16122024Y-12165976D02*
X16160119Y-12165976D01*
X16160119Y-12165976D02*
X16179167Y-12156452D01*
X16179167Y-12156452D02*
X16188691Y-12146928D01*
X16188691Y-12146928D02*
X16198214Y-12127881D01*
X16198214Y-12127881D02*
X16198214Y-12080262D01*
X16198214Y-12080262D02*
X16188691Y-12061214D01*
X16188691Y-12061214D02*
X16179167Y-12051690D01*
X16179167Y-12051690D02*
X16160119Y-12042167D01*
X16160119Y-12042167D02*
X16122024Y-12042167D01*
X16122024Y-12042167D02*
X16102976Y-12051690D01*
X16102976Y-12051690D02*
X16093452Y-12061214D01*
X16093452Y-12061214D02*
X16083929Y-12080262D01*
X16312500Y-12051690D02*
X16293452Y-12042167D01*
X16293452Y-12042167D02*
X16283929Y-12032643D01*
X16283929Y-12032643D02*
X16274405Y-12013595D01*
X16274405Y-12013595D02*
X16274405Y-12004071D01*
X16274405Y-12004071D02*
X16283929Y-11985024D01*
X16283929Y-11985024D02*
X16293452Y-11975500D01*
X16293452Y-11975500D02*
X16312500Y-11965976D01*
X16312500Y-11965976D02*
X16350595Y-11965976D01*
X16350595Y-11965976D02*
X16369643Y-11975500D01*
X16369643Y-11975500D02*
X16379167Y-11985024D01*
X16379167Y-11985024D02*
X16388691Y-12004071D01*
X16388691Y-12004071D02*
X16388691Y-12013595D01*
X16388691Y-12013595D02*
X16379167Y-12032643D01*
X16379167Y-12032643D02*
X16369643Y-12042167D01*
X16369643Y-12042167D02*
X16350595Y-12051690D01*
X16350595Y-12051690D02*
X16312500Y-12051690D01*
X16312500Y-12051690D02*
X16293452Y-12061214D01*
X16293452Y-12061214D02*
X16283929Y-12070738D01*
X16283929Y-12070738D02*
X16274405Y-12089786D01*
X16274405Y-12089786D02*
X16274405Y-12127881D01*
X16274405Y-12127881D02*
X16283929Y-12146928D01*
X16283929Y-12146928D02*
X16293452Y-12156452D01*
X16293452Y-12156452D02*
X16312500Y-12165976D01*
X16312500Y-12165976D02*
X16350595Y-12165976D01*
X16350595Y-12165976D02*
X16369643Y-12156452D01*
X16369643Y-12156452D02*
X16379167Y-12146928D01*
X16379167Y-12146928D02*
X16388691Y-12127881D01*
X16388691Y-12127881D02*
X16388691Y-12089786D01*
X16388691Y-12089786D02*
X16379167Y-12070738D01*
X16379167Y-12070738D02*
X16369643Y-12061214D01*
X16369643Y-12061214D02*
X16350595Y-12051690D01*
X16594405Y-12165976D02*
X16594405Y-11965976D01*
X16680119Y-12165976D02*
X16680119Y-12061214D01*
X16680119Y-12061214D02*
X16670595Y-12042167D01*
X16670595Y-12042167D02*
X16651548Y-12032643D01*
X16651548Y-12032643D02*
X16622976Y-12032643D01*
X16622976Y-12032643D02*
X16603929Y-12042167D01*
X16603929Y-12042167D02*
X16594405Y-12051690D01*
X16803929Y-12165976D02*
X16784881Y-12156452D01*
X16784881Y-12156452D02*
X16775357Y-12146928D01*
X16775357Y-12146928D02*
X16765833Y-12127881D01*
X16765833Y-12127881D02*
X16765833Y-12070738D01*
X16765833Y-12070738D02*
X16775357Y-12051690D01*
X16775357Y-12051690D02*
X16784881Y-12042167D01*
X16784881Y-12042167D02*
X16803929Y-12032643D01*
X16803929Y-12032643D02*
X16832500Y-12032643D01*
X16832500Y-12032643D02*
X16851548Y-12042167D01*
X16851548Y-12042167D02*
X16861072Y-12051690D01*
X16861072Y-12051690D02*
X16870595Y-12070738D01*
X16870595Y-12070738D02*
X16870595Y-12127881D01*
X16870595Y-12127881D02*
X16861072Y-12146928D01*
X16861072Y-12146928D02*
X16851548Y-12156452D01*
X16851548Y-12156452D02*
X16832500Y-12165976D01*
X16832500Y-12165976D02*
X16803929Y-12165976D01*
X16984881Y-12165976D02*
X16965834Y-12156452D01*
X16965834Y-12156452D02*
X16956310Y-12137405D01*
X16956310Y-12137405D02*
X16956310Y-11965976D01*
X17137262Y-12156452D02*
X17118215Y-12165976D01*
X17118215Y-12165976D02*
X17080119Y-12165976D01*
X17080119Y-12165976D02*
X17061072Y-12156452D01*
X17061072Y-12156452D02*
X17051548Y-12137405D01*
X17051548Y-12137405D02*
X17051548Y-12061214D01*
X17051548Y-12061214D02*
X17061072Y-12042167D01*
X17061072Y-12042167D02*
X17080119Y-12032643D01*
X17080119Y-12032643D02*
X17118215Y-12032643D01*
X17118215Y-12032643D02*
X17137262Y-12042167D01*
X17137262Y-12042167D02*
X17146786Y-12061214D01*
X17146786Y-12061214D02*
X17146786Y-12080262D01*
X17146786Y-12080262D02*
X17051548Y-12099309D01*
X17222976Y-12156452D02*
X17242024Y-12165976D01*
X17242024Y-12165976D02*
X17280119Y-12165976D01*
X17280119Y-12165976D02*
X17299167Y-12156452D01*
X17299167Y-12156452D02*
X17308691Y-12137405D01*
X17308691Y-12137405D02*
X17308691Y-12127881D01*
X17308691Y-12127881D02*
X17299167Y-12108833D01*
X17299167Y-12108833D02*
X17280119Y-12099309D01*
X17280119Y-12099309D02*
X17251548Y-12099309D01*
X17251548Y-12099309D02*
X17232500Y-12089786D01*
X17232500Y-12089786D02*
X17222976Y-12070738D01*
X17222976Y-12070738D02*
X17222976Y-12061214D01*
X17222976Y-12061214D02*
X17232500Y-12042167D01*
X17232500Y-12042167D02*
X17251548Y-12032643D01*
X17251548Y-12032643D02*
X17280119Y-12032643D01*
X17280119Y-12032643D02*
X17299167Y-12042167D01*
X17375357Y-12242167D02*
X17384881Y-12232643D01*
X17384881Y-12232643D02*
X17403929Y-12204071D01*
X17403929Y-12204071D02*
X17413453Y-12185024D01*
X17413453Y-12185024D02*
X17422976Y-12156452D01*
X17422976Y-12156452D02*
X17432500Y-12108833D01*
X17432500Y-12108833D02*
X17432500Y-12070738D01*
X17432500Y-12070738D02*
X17422976Y-12023119D01*
X17422976Y-12023119D02*
X17413453Y-11994548D01*
X17413453Y-11994548D02*
X17403929Y-11975500D01*
X17403929Y-11975500D02*
X17384881Y-11946928D01*
X17384881Y-11946928D02*
X17375357Y-11937405D01*
X17704881Y-12242167D02*
X17695357Y-12232643D01*
X17695357Y-12232643D02*
X17676310Y-12204071D01*
X17676310Y-12204071D02*
X17666786Y-12185024D01*
X17666786Y-12185024D02*
X17657262Y-12156452D01*
X17657262Y-12156452D02*
X17647738Y-12108833D01*
X17647738Y-12108833D02*
X17647738Y-12070738D01*
X17647738Y-12070738D02*
X17657262Y-12023119D01*
X17657262Y-12023119D02*
X17666786Y-11994548D01*
X17666786Y-11994548D02*
X17676310Y-11975500D01*
X17676310Y-11975500D02*
X17695357Y-11946928D01*
X17695357Y-11946928D02*
X17704881Y-11937405D01*
X17781072Y-12032643D02*
X17781072Y-12165976D01*
X17781072Y-12051690D02*
X17790595Y-12042167D01*
X17790595Y-12042167D02*
X17809643Y-12032643D01*
X17809643Y-12032643D02*
X17838215Y-12032643D01*
X17838215Y-12032643D02*
X17857262Y-12042167D01*
X17857262Y-12042167D02*
X17866786Y-12061214D01*
X17866786Y-12061214D02*
X17866786Y-12165976D01*
X17990595Y-12165976D02*
X17971548Y-12156452D01*
X17971548Y-12156452D02*
X17962024Y-12146928D01*
X17962024Y-12146928D02*
X17952500Y-12127881D01*
X17952500Y-12127881D02*
X17952500Y-12070738D01*
X17952500Y-12070738D02*
X17962024Y-12051690D01*
X17962024Y-12051690D02*
X17971548Y-12042167D01*
X17971548Y-12042167D02*
X17990595Y-12032643D01*
X17990595Y-12032643D02*
X18019167Y-12032643D01*
X18019167Y-12032643D02*
X18038215Y-12042167D01*
X18038215Y-12042167D02*
X18047738Y-12051690D01*
X18047738Y-12051690D02*
X18057262Y-12070738D01*
X18057262Y-12070738D02*
X18057262Y-12127881D01*
X18057262Y-12127881D02*
X18047738Y-12146928D01*
X18047738Y-12146928D02*
X18038215Y-12156452D01*
X18038215Y-12156452D02*
X18019167Y-12165976D01*
X18019167Y-12165976D02*
X17990595Y-12165976D01*
X18114405Y-12032643D02*
X18190595Y-12032643D01*
X18142976Y-11965976D02*
X18142976Y-12137405D01*
X18142976Y-12137405D02*
X18152500Y-12156452D01*
X18152500Y-12156452D02*
X18171548Y-12165976D01*
X18171548Y-12165976D02*
X18190595Y-12165976D01*
X18377262Y-12032643D02*
X18377262Y-12232643D01*
X18377262Y-12042167D02*
X18396310Y-12032643D01*
X18396310Y-12032643D02*
X18434405Y-12032643D01*
X18434405Y-12032643D02*
X18453453Y-12042167D01*
X18453453Y-12042167D02*
X18462976Y-12051690D01*
X18462976Y-12051690D02*
X18472500Y-12070738D01*
X18472500Y-12070738D02*
X18472500Y-12127881D01*
X18472500Y-12127881D02*
X18462976Y-12146928D01*
X18462976Y-12146928D02*
X18453453Y-12156452D01*
X18453453Y-12156452D02*
X18434405Y-12165976D01*
X18434405Y-12165976D02*
X18396310Y-12165976D01*
X18396310Y-12165976D02*
X18377262Y-12156452D01*
X18586786Y-12165976D02*
X18567738Y-12156452D01*
X18567738Y-12156452D02*
X18558215Y-12137405D01*
X18558215Y-12137405D02*
X18558215Y-11965976D01*
X18748691Y-12165976D02*
X18748691Y-12061214D01*
X18748691Y-12061214D02*
X18739167Y-12042167D01*
X18739167Y-12042167D02*
X18720119Y-12032643D01*
X18720119Y-12032643D02*
X18682024Y-12032643D01*
X18682024Y-12032643D02*
X18662976Y-12042167D01*
X18748691Y-12156452D02*
X18729643Y-12165976D01*
X18729643Y-12165976D02*
X18682024Y-12165976D01*
X18682024Y-12165976D02*
X18662976Y-12156452D01*
X18662976Y-12156452D02*
X18653453Y-12137405D01*
X18653453Y-12137405D02*
X18653453Y-12118357D01*
X18653453Y-12118357D02*
X18662976Y-12099309D01*
X18662976Y-12099309D02*
X18682024Y-12089786D01*
X18682024Y-12089786D02*
X18729643Y-12089786D01*
X18729643Y-12089786D02*
X18748691Y-12080262D01*
X18815357Y-12032643D02*
X18891548Y-12032643D01*
X18843929Y-11965976D02*
X18843929Y-12137405D01*
X18843929Y-12137405D02*
X18853453Y-12156452D01*
X18853453Y-12156452D02*
X18872500Y-12165976D01*
X18872500Y-12165976D02*
X18891548Y-12165976D01*
X19034405Y-12156452D02*
X19015357Y-12165976D01*
X19015357Y-12165976D02*
X18977262Y-12165976D01*
X18977262Y-12165976D02*
X18958215Y-12156452D01*
X18958215Y-12156452D02*
X18948691Y-12137405D01*
X18948691Y-12137405D02*
X18948691Y-12061214D01*
X18948691Y-12061214D02*
X18958215Y-12042167D01*
X18958215Y-12042167D02*
X18977262Y-12032643D01*
X18977262Y-12032643D02*
X19015357Y-12032643D01*
X19015357Y-12032643D02*
X19034405Y-12042167D01*
X19034405Y-12042167D02*
X19043929Y-12061214D01*
X19043929Y-12061214D02*
X19043929Y-12080262D01*
X19043929Y-12080262D02*
X18948691Y-12099309D01*
X19215357Y-12165976D02*
X19215357Y-11965976D01*
X19215357Y-12156452D02*
X19196310Y-12165976D01*
X19196310Y-12165976D02*
X19158215Y-12165976D01*
X19158215Y-12165976D02*
X19139167Y-12156452D01*
X19139167Y-12156452D02*
X19129643Y-12146928D01*
X19129643Y-12146928D02*
X19120119Y-12127881D01*
X19120119Y-12127881D02*
X19120119Y-12070738D01*
X19120119Y-12070738D02*
X19129643Y-12051690D01*
X19129643Y-12051690D02*
X19139167Y-12042167D01*
X19139167Y-12042167D02*
X19158215Y-12032643D01*
X19158215Y-12032643D02*
X19196310Y-12032643D01*
X19196310Y-12032643D02*
X19215357Y-12042167D01*
X19291548Y-12242167D02*
X19301072Y-12232643D01*
X19301072Y-12232643D02*
X19320119Y-12204071D01*
X19320119Y-12204071D02*
X19329643Y-12185024D01*
X19329643Y-12185024D02*
X19339167Y-12156452D01*
X19339167Y-12156452D02*
X19348691Y-12108833D01*
X19348691Y-12108833D02*
X19348691Y-12070738D01*
X19348691Y-12070738D02*
X19339167Y-12023119D01*
X19339167Y-12023119D02*
X19329643Y-11994548D01*
X19329643Y-11994548D02*
X19320119Y-11975500D01*
X19320119Y-11975500D02*
X19301072Y-11946928D01*
X19301072Y-11946928D02*
X19291548Y-11937405D01*
D13*
X12552500Y-12356500D02*
G75*
G03*
X12552500Y-12356500I-57600J0D01*
G01*
D11*
X12904881Y-12429976D02*
X12790595Y-12429976D01*
X12847738Y-12429976D02*
X12847738Y-12229976D01*
X12847738Y-12229976D02*
X12828690Y-12258548D01*
X12828690Y-12258548D02*
X12809643Y-12277595D01*
X12809643Y-12277595D02*
X12790595Y-12287119D01*
X12990595Y-12410928D02*
X13000119Y-12420452D01*
X13000119Y-12420452D02*
X12990595Y-12429976D01*
X12990595Y-12429976D02*
X12981071Y-12420452D01*
X12981071Y-12420452D02*
X12990595Y-12410928D01*
X12990595Y-12410928D02*
X12990595Y-12429976D01*
X13190595Y-12429976D02*
X13076309Y-12429976D01*
X13133452Y-12429976D02*
X13133452Y-12229976D01*
X13133452Y-12229976D02*
X13114405Y-12258548D01*
X13114405Y-12258548D02*
X13095357Y-12277595D01*
X13095357Y-12277595D02*
X13076309Y-12287119D01*
X13371548Y-12229976D02*
X13276309Y-12229976D01*
X13276309Y-12229976D02*
X13266786Y-12325214D01*
X13266786Y-12325214D02*
X13276309Y-12315690D01*
X13276309Y-12315690D02*
X13295357Y-12306167D01*
X13295357Y-12306167D02*
X13342976Y-12306167D01*
X13342976Y-12306167D02*
X13362024Y-12315690D01*
X13362024Y-12315690D02*
X13371548Y-12325214D01*
X13371548Y-12325214D02*
X13381071Y-12344262D01*
X13381071Y-12344262D02*
X13381071Y-12391881D01*
X13381071Y-12391881D02*
X13371548Y-12410928D01*
X13371548Y-12410928D02*
X13362024Y-12420452D01*
X13362024Y-12420452D02*
X13342976Y-12429976D01*
X13342976Y-12429976D02*
X13295357Y-12429976D01*
X13295357Y-12429976D02*
X13276309Y-12420452D01*
X13276309Y-12420452D02*
X13266786Y-12410928D01*
X13457262Y-12249024D02*
X13466786Y-12239500D01*
X13466786Y-12239500D02*
X13485833Y-12229976D01*
X13485833Y-12229976D02*
X13533452Y-12229976D01*
X13533452Y-12229976D02*
X13552500Y-12239500D01*
X13552500Y-12239500D02*
X13562024Y-12249024D01*
X13562024Y-12249024D02*
X13571548Y-12268071D01*
X13571548Y-12268071D02*
X13571548Y-12287119D01*
X13571548Y-12287119D02*
X13562024Y-12315690D01*
X13562024Y-12315690D02*
X13447738Y-12429976D01*
X13447738Y-12429976D02*
X13571548Y-12429976D01*
X13657262Y-12429976D02*
X13657262Y-12296643D01*
X13657262Y-12315690D02*
X13666786Y-12306167D01*
X13666786Y-12306167D02*
X13685833Y-12296643D01*
X13685833Y-12296643D02*
X13714405Y-12296643D01*
X13714405Y-12296643D02*
X13733452Y-12306167D01*
X13733452Y-12306167D02*
X13742976Y-12325214D01*
X13742976Y-12325214D02*
X13742976Y-12429976D01*
X13742976Y-12325214D02*
X13752500Y-12306167D01*
X13752500Y-12306167D02*
X13771548Y-12296643D01*
X13771548Y-12296643D02*
X13800119Y-12296643D01*
X13800119Y-12296643D02*
X13819167Y-12306167D01*
X13819167Y-12306167D02*
X13828690Y-12325214D01*
X13828690Y-12325214D02*
X13828690Y-12429976D01*
X13923929Y-12429976D02*
X13923929Y-12296643D01*
X13923929Y-12315690D02*
X13933452Y-12306167D01*
X13933452Y-12306167D02*
X13952500Y-12296643D01*
X13952500Y-12296643D02*
X13981071Y-12296643D01*
X13981071Y-12296643D02*
X14000119Y-12306167D01*
X14000119Y-12306167D02*
X14009643Y-12325214D01*
X14009643Y-12325214D02*
X14009643Y-12429976D01*
X14009643Y-12325214D02*
X14019167Y-12306167D01*
X14019167Y-12306167D02*
X14038214Y-12296643D01*
X14038214Y-12296643D02*
X14066786Y-12296643D01*
X14066786Y-12296643D02*
X14085833Y-12306167D01*
X14085833Y-12306167D02*
X14095357Y-12325214D01*
X14095357Y-12325214D02*
X14095357Y-12429976D01*
X14453452Y-12220452D02*
X14282024Y-12477595D01*
X14678214Y-12229976D02*
X14697262Y-12229976D01*
X14697262Y-12229976D02*
X14716310Y-12239500D01*
X14716310Y-12239500D02*
X14725833Y-12249024D01*
X14725833Y-12249024D02*
X14735357Y-12268071D01*
X14735357Y-12268071D02*
X14744881Y-12306167D01*
X14744881Y-12306167D02*
X14744881Y-12353786D01*
X14744881Y-12353786D02*
X14735357Y-12391881D01*
X14735357Y-12391881D02*
X14725833Y-12410928D01*
X14725833Y-12410928D02*
X14716310Y-12420452D01*
X14716310Y-12420452D02*
X14697262Y-12429976D01*
X14697262Y-12429976D02*
X14678214Y-12429976D01*
X14678214Y-12429976D02*
X14659167Y-12420452D01*
X14659167Y-12420452D02*
X14649643Y-12410928D01*
X14649643Y-12410928D02*
X14640119Y-12391881D01*
X14640119Y-12391881D02*
X14630595Y-12353786D01*
X14630595Y-12353786D02*
X14630595Y-12306167D01*
X14630595Y-12306167D02*
X14640119Y-12268071D01*
X14640119Y-12268071D02*
X14649643Y-12249024D01*
X14649643Y-12249024D02*
X14659167Y-12239500D01*
X14659167Y-12239500D02*
X14678214Y-12229976D01*
X14830595Y-12410928D02*
X14840119Y-12420452D01*
X14840119Y-12420452D02*
X14830595Y-12429976D01*
X14830595Y-12429976D02*
X14821071Y-12420452D01*
X14821071Y-12420452D02*
X14830595Y-12410928D01*
X14830595Y-12410928D02*
X14830595Y-12429976D01*
X14963929Y-12229976D02*
X14982976Y-12229976D01*
X14982976Y-12229976D02*
X15002024Y-12239500D01*
X15002024Y-12239500D02*
X15011548Y-12249024D01*
X15011548Y-12249024D02*
X15021071Y-12268071D01*
X15021071Y-12268071D02*
X15030595Y-12306167D01*
X15030595Y-12306167D02*
X15030595Y-12353786D01*
X15030595Y-12353786D02*
X15021071Y-12391881D01*
X15021071Y-12391881D02*
X15011548Y-12410928D01*
X15011548Y-12410928D02*
X15002024Y-12420452D01*
X15002024Y-12420452D02*
X14982976Y-12429976D01*
X14982976Y-12429976D02*
X14963929Y-12429976D01*
X14963929Y-12429976D02*
X14944881Y-12420452D01*
X14944881Y-12420452D02*
X14935357Y-12410928D01*
X14935357Y-12410928D02*
X14925833Y-12391881D01*
X14925833Y-12391881D02*
X14916310Y-12353786D01*
X14916310Y-12353786D02*
X14916310Y-12306167D01*
X14916310Y-12306167D02*
X14925833Y-12268071D01*
X14925833Y-12268071D02*
X14935357Y-12249024D01*
X14935357Y-12249024D02*
X14944881Y-12239500D01*
X14944881Y-12239500D02*
X14963929Y-12229976D01*
X15202024Y-12296643D02*
X15202024Y-12429976D01*
X15154405Y-12220452D02*
X15106786Y-12363309D01*
X15106786Y-12363309D02*
X15230595Y-12363309D01*
X15402024Y-12229976D02*
X15306786Y-12229976D01*
X15306786Y-12229976D02*
X15297262Y-12325214D01*
X15297262Y-12325214D02*
X15306786Y-12315690D01*
X15306786Y-12315690D02*
X15325833Y-12306167D01*
X15325833Y-12306167D02*
X15373452Y-12306167D01*
X15373452Y-12306167D02*
X15392500Y-12315690D01*
X15392500Y-12315690D02*
X15402024Y-12325214D01*
X15402024Y-12325214D02*
X15411548Y-12344262D01*
X15411548Y-12344262D02*
X15411548Y-12391881D01*
X15411548Y-12391881D02*
X15402024Y-12410928D01*
X15402024Y-12410928D02*
X15392500Y-12420452D01*
X15392500Y-12420452D02*
X15373452Y-12429976D01*
X15373452Y-12429976D02*
X15325833Y-12429976D01*
X15325833Y-12429976D02*
X15306786Y-12420452D01*
X15306786Y-12420452D02*
X15297262Y-12410928D01*
X15582976Y-12296643D02*
X15582976Y-12429976D01*
X15535357Y-12220452D02*
X15487738Y-12363309D01*
X15487738Y-12363309D02*
X15611548Y-12363309D01*
X15678214Y-12229976D02*
X15678214Y-12268071D01*
X15754405Y-12229976D02*
X15754405Y-12268071D01*
X16017262Y-12506167D02*
X16007738Y-12496643D01*
X16007738Y-12496643D02*
X15988691Y-12468071D01*
X15988691Y-12468071D02*
X15979167Y-12449024D01*
X15979167Y-12449024D02*
X15969643Y-12420452D01*
X15969643Y-12420452D02*
X15960119Y-12372833D01*
X15960119Y-12372833D02*
X15960119Y-12334738D01*
X15960119Y-12334738D02*
X15969643Y-12287119D01*
X15969643Y-12287119D02*
X15979167Y-12258548D01*
X15979167Y-12258548D02*
X15988691Y-12239500D01*
X15988691Y-12239500D02*
X16007738Y-12210928D01*
X16007738Y-12210928D02*
X16017262Y-12201405D01*
X16074405Y-12229976D02*
X16198214Y-12229976D01*
X16198214Y-12229976D02*
X16131548Y-12306167D01*
X16131548Y-12306167D02*
X16160119Y-12306167D01*
X16160119Y-12306167D02*
X16179167Y-12315690D01*
X16179167Y-12315690D02*
X16188691Y-12325214D01*
X16188691Y-12325214D02*
X16198214Y-12344262D01*
X16198214Y-12344262D02*
X16198214Y-12391881D01*
X16198214Y-12391881D02*
X16188691Y-12410928D01*
X16188691Y-12410928D02*
X16179167Y-12420452D01*
X16179167Y-12420452D02*
X16160119Y-12429976D01*
X16160119Y-12429976D02*
X16102976Y-12429976D01*
X16102976Y-12429976D02*
X16083929Y-12420452D01*
X16083929Y-12420452D02*
X16074405Y-12410928D01*
X16403929Y-12429976D02*
X16403929Y-12229976D01*
X16489643Y-12429976D02*
X16489643Y-12325214D01*
X16489643Y-12325214D02*
X16480119Y-12306167D01*
X16480119Y-12306167D02*
X16461072Y-12296643D01*
X16461072Y-12296643D02*
X16432500Y-12296643D01*
X16432500Y-12296643D02*
X16413452Y-12306167D01*
X16413452Y-12306167D02*
X16403929Y-12315690D01*
X16613452Y-12429976D02*
X16594405Y-12420452D01*
X16594405Y-12420452D02*
X16584881Y-12410928D01*
X16584881Y-12410928D02*
X16575357Y-12391881D01*
X16575357Y-12391881D02*
X16575357Y-12334738D01*
X16575357Y-12334738D02*
X16584881Y-12315690D01*
X16584881Y-12315690D02*
X16594405Y-12306167D01*
X16594405Y-12306167D02*
X16613452Y-12296643D01*
X16613452Y-12296643D02*
X16642024Y-12296643D01*
X16642024Y-12296643D02*
X16661072Y-12306167D01*
X16661072Y-12306167D02*
X16670595Y-12315690D01*
X16670595Y-12315690D02*
X16680119Y-12334738D01*
X16680119Y-12334738D02*
X16680119Y-12391881D01*
X16680119Y-12391881D02*
X16670595Y-12410928D01*
X16670595Y-12410928D02*
X16661072Y-12420452D01*
X16661072Y-12420452D02*
X16642024Y-12429976D01*
X16642024Y-12429976D02*
X16613452Y-12429976D01*
X16794405Y-12429976D02*
X16775357Y-12420452D01*
X16775357Y-12420452D02*
X16765833Y-12401405D01*
X16765833Y-12401405D02*
X16765833Y-12229976D01*
X16946786Y-12420452D02*
X16927738Y-12429976D01*
X16927738Y-12429976D02*
X16889643Y-12429976D01*
X16889643Y-12429976D02*
X16870595Y-12420452D01*
X16870595Y-12420452D02*
X16861072Y-12401405D01*
X16861072Y-12401405D02*
X16861072Y-12325214D01*
X16861072Y-12325214D02*
X16870595Y-12306167D01*
X16870595Y-12306167D02*
X16889643Y-12296643D01*
X16889643Y-12296643D02*
X16927738Y-12296643D01*
X16927738Y-12296643D02*
X16946786Y-12306167D01*
X16946786Y-12306167D02*
X16956310Y-12325214D01*
X16956310Y-12325214D02*
X16956310Y-12344262D01*
X16956310Y-12344262D02*
X16861072Y-12363309D01*
X17032500Y-12420452D02*
X17051548Y-12429976D01*
X17051548Y-12429976D02*
X17089643Y-12429976D01*
X17089643Y-12429976D02*
X17108691Y-12420452D01*
X17108691Y-12420452D02*
X17118215Y-12401405D01*
X17118215Y-12401405D02*
X17118215Y-12391881D01*
X17118215Y-12391881D02*
X17108691Y-12372833D01*
X17108691Y-12372833D02*
X17089643Y-12363309D01*
X17089643Y-12363309D02*
X17061072Y-12363309D01*
X17061072Y-12363309D02*
X17042024Y-12353786D01*
X17042024Y-12353786D02*
X17032500Y-12334738D01*
X17032500Y-12334738D02*
X17032500Y-12325214D01*
X17032500Y-12325214D02*
X17042024Y-12306167D01*
X17042024Y-12306167D02*
X17061072Y-12296643D01*
X17061072Y-12296643D02*
X17089643Y-12296643D01*
X17089643Y-12296643D02*
X17108691Y-12306167D01*
X17184881Y-12506167D02*
X17194405Y-12496643D01*
X17194405Y-12496643D02*
X17213453Y-12468071D01*
X17213453Y-12468071D02*
X17222976Y-12449024D01*
X17222976Y-12449024D02*
X17232500Y-12420452D01*
X17232500Y-12420452D02*
X17242024Y-12372833D01*
X17242024Y-12372833D02*
X17242024Y-12334738D01*
X17242024Y-12334738D02*
X17232500Y-12287119D01*
X17232500Y-12287119D02*
X17222976Y-12258548D01*
X17222976Y-12258548D02*
X17213453Y-12239500D01*
X17213453Y-12239500D02*
X17194405Y-12210928D01*
X17194405Y-12210928D02*
X17184881Y-12201405D01*
X17514405Y-12506167D02*
X17504881Y-12496643D01*
X17504881Y-12496643D02*
X17485834Y-12468071D01*
X17485834Y-12468071D02*
X17476310Y-12449024D01*
X17476310Y-12449024D02*
X17466786Y-12420452D01*
X17466786Y-12420452D02*
X17457262Y-12372833D01*
X17457262Y-12372833D02*
X17457262Y-12334738D01*
X17457262Y-12334738D02*
X17466786Y-12287119D01*
X17466786Y-12287119D02*
X17476310Y-12258548D01*
X17476310Y-12258548D02*
X17485834Y-12239500D01*
X17485834Y-12239500D02*
X17504881Y-12210928D01*
X17504881Y-12210928D02*
X17514405Y-12201405D01*
X17590595Y-12296643D02*
X17590595Y-12429976D01*
X17590595Y-12315690D02*
X17600119Y-12306167D01*
X17600119Y-12306167D02*
X17619167Y-12296643D01*
X17619167Y-12296643D02*
X17647738Y-12296643D01*
X17647738Y-12296643D02*
X17666786Y-12306167D01*
X17666786Y-12306167D02*
X17676310Y-12325214D01*
X17676310Y-12325214D02*
X17676310Y-12429976D01*
X17800119Y-12429976D02*
X17781072Y-12420452D01*
X17781072Y-12420452D02*
X17771548Y-12410928D01*
X17771548Y-12410928D02*
X17762024Y-12391881D01*
X17762024Y-12391881D02*
X17762024Y-12334738D01*
X17762024Y-12334738D02*
X17771548Y-12315690D01*
X17771548Y-12315690D02*
X17781072Y-12306167D01*
X17781072Y-12306167D02*
X17800119Y-12296643D01*
X17800119Y-12296643D02*
X17828691Y-12296643D01*
X17828691Y-12296643D02*
X17847738Y-12306167D01*
X17847738Y-12306167D02*
X17857262Y-12315690D01*
X17857262Y-12315690D02*
X17866786Y-12334738D01*
X17866786Y-12334738D02*
X17866786Y-12391881D01*
X17866786Y-12391881D02*
X17857262Y-12410928D01*
X17857262Y-12410928D02*
X17847738Y-12420452D01*
X17847738Y-12420452D02*
X17828691Y-12429976D01*
X17828691Y-12429976D02*
X17800119Y-12429976D01*
X17923929Y-12296643D02*
X18000119Y-12296643D01*
X17952500Y-12229976D02*
X17952500Y-12401405D01*
X17952500Y-12401405D02*
X17962024Y-12420452D01*
X17962024Y-12420452D02*
X17981072Y-12429976D01*
X17981072Y-12429976D02*
X18000119Y-12429976D01*
X18186786Y-12296643D02*
X18186786Y-12496643D01*
X18186786Y-12306167D02*
X18205834Y-12296643D01*
X18205834Y-12296643D02*
X18243929Y-12296643D01*
X18243929Y-12296643D02*
X18262976Y-12306167D01*
X18262976Y-12306167D02*
X18272500Y-12315690D01*
X18272500Y-12315690D02*
X18282024Y-12334738D01*
X18282024Y-12334738D02*
X18282024Y-12391881D01*
X18282024Y-12391881D02*
X18272500Y-12410928D01*
X18272500Y-12410928D02*
X18262976Y-12420452D01*
X18262976Y-12420452D02*
X18243929Y-12429976D01*
X18243929Y-12429976D02*
X18205834Y-12429976D01*
X18205834Y-12429976D02*
X18186786Y-12420452D01*
X18396310Y-12429976D02*
X18377262Y-12420452D01*
X18377262Y-12420452D02*
X18367738Y-12401405D01*
X18367738Y-12401405D02*
X18367738Y-12229976D01*
X18558215Y-12429976D02*
X18558215Y-12325214D01*
X18558215Y-12325214D02*
X18548691Y-12306167D01*
X18548691Y-12306167D02*
X18529643Y-12296643D01*
X18529643Y-12296643D02*
X18491548Y-12296643D01*
X18491548Y-12296643D02*
X18472500Y-12306167D01*
X18558215Y-12420452D02*
X18539167Y-12429976D01*
X18539167Y-12429976D02*
X18491548Y-12429976D01*
X18491548Y-12429976D02*
X18472500Y-12420452D01*
X18472500Y-12420452D02*
X18462976Y-12401405D01*
X18462976Y-12401405D02*
X18462976Y-12382357D01*
X18462976Y-12382357D02*
X18472500Y-12363309D01*
X18472500Y-12363309D02*
X18491548Y-12353786D01*
X18491548Y-12353786D02*
X18539167Y-12353786D01*
X18539167Y-12353786D02*
X18558215Y-12344262D01*
X18624881Y-12296643D02*
X18701072Y-12296643D01*
X18653453Y-12229976D02*
X18653453Y-12401405D01*
X18653453Y-12401405D02*
X18662976Y-12420452D01*
X18662976Y-12420452D02*
X18682024Y-12429976D01*
X18682024Y-12429976D02*
X18701072Y-12429976D01*
X18843929Y-12420452D02*
X18824881Y-12429976D01*
X18824881Y-12429976D02*
X18786786Y-12429976D01*
X18786786Y-12429976D02*
X18767738Y-12420452D01*
X18767738Y-12420452D02*
X18758215Y-12401405D01*
X18758215Y-12401405D02*
X18758215Y-12325214D01*
X18758215Y-12325214D02*
X18767738Y-12306167D01*
X18767738Y-12306167D02*
X18786786Y-12296643D01*
X18786786Y-12296643D02*
X18824881Y-12296643D01*
X18824881Y-12296643D02*
X18843929Y-12306167D01*
X18843929Y-12306167D02*
X18853453Y-12325214D01*
X18853453Y-12325214D02*
X18853453Y-12344262D01*
X18853453Y-12344262D02*
X18758215Y-12363309D01*
X19024881Y-12429976D02*
X19024881Y-12229976D01*
X19024881Y-12420452D02*
X19005834Y-12429976D01*
X19005834Y-12429976D02*
X18967738Y-12429976D01*
X18967738Y-12429976D02*
X18948691Y-12420452D01*
X18948691Y-12420452D02*
X18939167Y-12410928D01*
X18939167Y-12410928D02*
X18929643Y-12391881D01*
X18929643Y-12391881D02*
X18929643Y-12334738D01*
X18929643Y-12334738D02*
X18939167Y-12315690D01*
X18939167Y-12315690D02*
X18948691Y-12306167D01*
X18948691Y-12306167D02*
X18967738Y-12296643D01*
X18967738Y-12296643D02*
X19005834Y-12296643D01*
X19005834Y-12296643D02*
X19024881Y-12306167D01*
X19101072Y-12506167D02*
X19110596Y-12496643D01*
X19110596Y-12496643D02*
X19129643Y-12468071D01*
X19129643Y-12468071D02*
X19139167Y-12449024D01*
X19139167Y-12449024D02*
X19148691Y-12420452D01*
X19148691Y-12420452D02*
X19158215Y-12372833D01*
X19158215Y-12372833D02*
X19158215Y-12334738D01*
X19158215Y-12334738D02*
X19148691Y-12287119D01*
X19148691Y-12287119D02*
X19139167Y-12258548D01*
X19139167Y-12258548D02*
X19129643Y-12239500D01*
X19129643Y-12239500D02*
X19110596Y-12210928D01*
X19110596Y-12210928D02*
X19101072Y-12201405D01*
M02*
