G04 #@! TF.GenerationSoftware,KiCad,Pcbnew,(7.0.0-0)*
G04 #@! TF.CreationDate,2025-09-03T19:42:49+12:00*
G04 #@! TF.ProjectId,polar_light_panelized_X4,706f6c61-725f-46c6-9967-68745f70616e,rev?*
G04 #@! TF.SameCoordinates,Original*
G04 #@! TF.FileFunction,Paste,Top*
G04 #@! TF.FilePolarity,Positive*
%FSLAX46Y46*%
G04 Gerber Fmt 4.6, Leading zero omitted, Abs format (unit mm)*
G04 Created by KiCad (PCBNEW (7.0.0-0)) date 2025-09-03 19:42:49*
%MOMM*%
%LPD*%
G01*
G04 APERTURE LIST*
%ADD10R,1.100000X1.100000*%
%ADD11R,1.150000X1.800000*%
%ADD12R,1.400000X3.700000*%
G04 APERTURE END LIST*
D10*
X163999999Y-90549999D03*
X163999999Y-87749999D03*
D11*
X134974999Y-85799999D03*
X137924999Y-85799999D03*
X134974999Y-101799999D03*
X137924999Y-101799999D03*
D12*
X137499999Y-105049999D03*
X140299999Y-105049999D03*
D11*
X156574999Y-85799999D03*
X159524999Y-85799999D03*
D10*
X156999999Y-87749999D03*
X156999999Y-90549999D03*
D11*
X156574999Y-101799999D03*
X159524999Y-101799999D03*
D10*
X156999999Y-103749999D03*
X156999999Y-106549999D03*
D11*
X161474999Y-85799999D03*
X164424999Y-85799999D03*
D12*
X159099999Y-89049999D03*
X161899999Y-89049999D03*
X137499999Y-89049999D03*
X140299999Y-89049999D03*
D11*
X161474999Y-101799999D03*
X164424999Y-101799999D03*
D10*
X142399999Y-106549999D03*
X142399999Y-103749999D03*
X142399999Y-90549999D03*
X142399999Y-87749999D03*
D12*
X159099999Y-105049999D03*
X161899999Y-105049999D03*
D11*
X139874999Y-85799999D03*
X142824999Y-85799999D03*
D10*
X135399999Y-103749999D03*
X135399999Y-106549999D03*
D11*
X139874999Y-101799999D03*
X142824999Y-101799999D03*
D10*
X135399999Y-87749999D03*
X135399999Y-90549999D03*
X163999999Y-106549999D03*
X163999999Y-103749999D03*
M02*
