G04 #@! TF.GenerationSoftware,KiCad,Pcbnew,(7.0.0-0)*
G04 #@! TF.CreationDate,2025-09-03T19:42:49+12:00*
G04 #@! TF.ProjectId,polar_light_panelized_X4,706f6c61-725f-46c6-9967-68745f70616e,rev?*
G04 #@! TF.SameCoordinates,Original*
G04 #@! TF.FileFunction,Copper,L1,Top*
G04 #@! TF.FilePolarity,Positive*
%FSLAX46Y46*%
G04 Gerber Fmt 4.6, Leading zero omitted, Abs format (unit mm)*
G04 Created by KiCad (PCBNEW (7.0.0-0)) date 2025-09-03 19:42:49*
%MOMM*%
%LPD*%
G01*
G04 APERTURE LIST*
G04 Aperture macros list*
%AMFreePoly0*
4,1,15,-0.750000,1.375000,-0.734410,1.482001,-0.680193,1.592904,-0.592904,1.680193,-0.482001,1.734410,-0.375000,1.750000,0.375000,1.750000,0.482001,1.734410,0.592904,1.680193,0.680193,1.592904,0.734410,1.482001,0.750000,1.375000,0.750000,-1.750000,-0.750000,-1.750000,-0.750000,1.375000,-0.750000,1.375000,$1*%
G04 Aperture macros list end*
G04 #@! TA.AperFunction,SMDPad,CuDef*
%ADD10R,1.100000X1.100000*%
G04 #@! TD*
G04 #@! TA.AperFunction,SMDPad,CuDef*
%ADD11R,1.150000X1.800000*%
G04 #@! TD*
G04 #@! TA.AperFunction,SMDPad,CuDef*
%ADD12FreePoly0,180.000000*%
G04 #@! TD*
G04 #@! TA.AperFunction,SMDPad,CuDef*
%ADD13R,1.400000X3.700000*%
G04 #@! TD*
G04 #@! TA.AperFunction,ViaPad*
%ADD14C,0.600000*%
G04 #@! TD*
G04 #@! TA.AperFunction,Conductor*
%ADD15C,0.400000*%
G04 #@! TD*
G04 APERTURE END LIST*
D10*
X163999999Y-90549999D03*
X163999999Y-87749999D03*
D11*
X134974999Y-85799999D03*
X137924999Y-85799999D03*
X134974999Y-101799999D03*
X137924999Y-101799999D03*
D12*
X164499999Y-98449999D03*
D13*
X137499999Y-105049999D03*
X140299999Y-105049999D03*
D12*
X156499999Y-82449999D03*
D11*
X156574999Y-85799999D03*
X159524999Y-85799999D03*
D10*
X156999999Y-87749999D03*
X156999999Y-90549999D03*
D11*
X156574999Y-101799999D03*
X159524999Y-101799999D03*
D10*
X156999999Y-103749999D03*
X156999999Y-106549999D03*
D12*
X156499999Y-98449999D03*
X142899999Y-82449999D03*
D11*
X161474999Y-85799999D03*
X164424999Y-85799999D03*
D13*
X159099999Y-89049999D03*
X161899999Y-89049999D03*
D12*
X142899999Y-98449999D03*
D13*
X137499999Y-89049999D03*
X140299999Y-89049999D03*
D11*
X161474999Y-101799999D03*
X164424999Y-101799999D03*
D12*
X164499999Y-82449999D03*
D10*
X142399999Y-106549999D03*
X142399999Y-103749999D03*
D12*
X134899999Y-82449999D03*
D10*
X142399999Y-90549999D03*
X142399999Y-87749999D03*
D13*
X159099999Y-105049999D03*
X161899999Y-105049999D03*
D11*
X139874999Y-85799999D03*
X142824999Y-85799999D03*
D12*
X134899999Y-98449999D03*
D10*
X135399999Y-103749999D03*
X135399999Y-106549999D03*
D11*
X139874999Y-101799999D03*
X142824999Y-101799999D03*
D10*
X135399999Y-87749999D03*
X135399999Y-90549999D03*
X163999999Y-106549999D03*
X163999999Y-103749999D03*
D14*
X138800000Y-105400000D03*
X138800000Y-88600000D03*
X141050000Y-86200000D03*
X138800000Y-104600000D03*
X160400000Y-104600000D03*
X162650000Y-102200000D03*
X141050000Y-85400000D03*
X162650000Y-86200000D03*
X162650000Y-101400000D03*
X160400000Y-88600000D03*
X162650000Y-85400000D03*
X141050000Y-101400000D03*
X138800000Y-89400000D03*
X141050000Y-102200000D03*
X160400000Y-105400000D03*
X160400000Y-89400000D03*
X165150000Y-105850000D03*
X155850000Y-90650000D03*
X143550000Y-105850000D03*
X134250000Y-105850000D03*
X143550000Y-106650000D03*
X134250000Y-90650000D03*
X165150000Y-106650000D03*
X155850000Y-89850000D03*
X143550000Y-89850000D03*
X155850000Y-106650000D03*
X165150000Y-90650000D03*
X134250000Y-106650000D03*
X165150000Y-89850000D03*
X143550000Y-90650000D03*
X155850000Y-105850000D03*
X134250000Y-89850000D03*
D15*
X135950000Y-100100000D02*
G75*
G03*
X135350000Y-100700000I0J-600000D01*
G01*
X135950000Y-84100000D02*
G75*
G03*
X135350000Y-84700000I0J-600000D01*
G01*
X157550000Y-100100000D02*
G75*
G03*
X156950000Y-100700000I0J-600000D01*
G01*
X157550000Y-84100000D02*
G75*
G03*
X156950000Y-84700000I0J-600000D01*
G01*
X135550000Y-87200000D02*
G75*
G03*
X136050000Y-86700000I0J500000D01*
G01*
X157150000Y-103200000D02*
G75*
G03*
X157650000Y-102700000I0J500000D01*
G01*
X138800000Y-86700000D02*
G75*
G03*
X139300000Y-87200000I500000J0D01*
G01*
X157150000Y-87200000D02*
G75*
G03*
X157650000Y-86700000I0J500000D01*
G01*
X161400000Y-104200000D02*
G75*
G03*
X160800000Y-103600000I-600000J0D01*
G01*
X161400000Y-88200000D02*
G75*
G03*
X160800000Y-87600000I-600000J0D01*
G01*
X138800000Y-102700000D02*
G75*
G03*
X139300000Y-103200000I500000J0D01*
G01*
X136900000Y-102500000D02*
G75*
G03*
X136300000Y-103100000I0J-600000D01*
G01*
X158500000Y-102500000D02*
G75*
G03*
X157900000Y-103100000I0J-600000D01*
G01*
X160400000Y-86700000D02*
G75*
G03*
X160900000Y-87200000I500000J0D01*
G01*
X139800000Y-88200000D02*
G75*
G03*
X139200000Y-87600000I-600000J0D01*
G01*
X158500000Y-86500000D02*
G75*
G03*
X157900000Y-87100000I0J-600000D01*
G01*
X139800000Y-104200000D02*
G75*
G03*
X139200000Y-103600000I-600000J0D01*
G01*
X135550000Y-103200000D02*
G75*
G03*
X136050000Y-102700000I0J500000D01*
G01*
X136900000Y-86500000D02*
G75*
G03*
X136300000Y-87100000I0J-600000D01*
G01*
X160400000Y-102700000D02*
G75*
G03*
X160900000Y-103200000I500000J0D01*
G01*
X163350000Y-102700000D02*
G75*
G03*
X163850000Y-103200000I500000J0D01*
G01*
X159600000Y-103700000D02*
G75*
G03*
X160200000Y-104300000I600000J0D01*
G01*
X163100000Y-87100000D02*
G75*
G03*
X162500000Y-86500000I-600000J0D01*
G01*
X138000000Y-103700000D02*
G75*
G03*
X138600000Y-104300000I600000J0D01*
G01*
X141750000Y-86700000D02*
G75*
G03*
X142250000Y-87200000I500000J0D01*
G01*
X163100000Y-103100000D02*
G75*
G03*
X162500000Y-102500000I-600000J0D01*
G01*
X141500000Y-103100000D02*
G75*
G03*
X140900000Y-102500000I-600000J0D01*
G01*
X138000000Y-87700000D02*
G75*
G03*
X138600000Y-88300000I600000J0D01*
G01*
X141750000Y-102700000D02*
G75*
G03*
X142250000Y-103200000I500000J0D01*
G01*
X141500000Y-87100000D02*
G75*
G03*
X140900000Y-86500000I-600000J0D01*
G01*
X159600000Y-87700000D02*
G75*
G03*
X160200000Y-88300000I600000J0D01*
G01*
X163350000Y-86700000D02*
G75*
G03*
X163850000Y-87200000I500000J0D01*
G01*
X164050000Y-100700000D02*
G75*
G03*
X163450000Y-100100000I-600000J0D01*
G01*
X142450000Y-100700000D02*
G75*
G03*
X141850000Y-100100000I-600000J0D01*
G01*
X164050000Y-84700000D02*
G75*
G03*
X163450000Y-84100000I-600000J0D01*
G01*
X142450000Y-84700000D02*
G75*
G03*
X141850000Y-84100000I-600000J0D01*
G01*
G04 #@! TA.AperFunction,Conductor*
G36*
X159399480Y-100600167D02*
G01*
X159401583Y-100600500D01*
X159407240Y-100600500D01*
X160100000Y-100600500D01*
X160100000Y-102700000D01*
X160000000Y-102700000D01*
X158200000Y-102700000D01*
X158186902Y-102705425D01*
X158186898Y-102705426D01*
X158142392Y-102723861D01*
X158142389Y-102723862D01*
X158129289Y-102729289D01*
X158123862Y-102742389D01*
X158123861Y-102742392D01*
X158105426Y-102786898D01*
X158105425Y-102786902D01*
X158100000Y-102800000D01*
X158100000Y-102814181D01*
X158100000Y-104856000D01*
X158089039Y-104911106D01*
X158057823Y-104957823D01*
X158011106Y-104989039D01*
X157956000Y-105000000D01*
X154594498Y-105000000D01*
X154522498Y-104980708D01*
X154469790Y-104928000D01*
X154450498Y-104856000D01*
X154450497Y-103960962D01*
X154463510Y-103901142D01*
X154500198Y-103852134D01*
X154574356Y-103787875D01*
X154582143Y-103781128D01*
X154659953Y-103660053D01*
X154700500Y-103521961D01*
X154700500Y-103378039D01*
X154659953Y-103239947D01*
X154648325Y-103221853D01*
X154626931Y-103164494D01*
X154631298Y-103103431D01*
X154660637Y-103049700D01*
X154709645Y-103013013D01*
X154769465Y-103000000D01*
X157335819Y-103000000D01*
X157350000Y-103000000D01*
X157420711Y-102970711D01*
X157450000Y-102900000D01*
X157450000Y-100744000D01*
X157460961Y-100688894D01*
X157492177Y-100642177D01*
X157538894Y-100610961D01*
X157594000Y-100600000D01*
X159395230Y-100600000D01*
X159399480Y-100600167D01*
G37*
G04 #@! TD.AperFunction*
G04 #@! TA.AperFunction,Conductor*
G36*
X158160641Y-80711499D02*
G01*
X158207358Y-80742715D01*
X158238574Y-80789432D01*
X158249535Y-80844538D01*
X158249535Y-83349741D01*
X158249497Y-83350022D01*
X158249462Y-83350022D01*
X158249461Y-83350286D01*
X158249461Y-83350294D01*
X158249456Y-83442782D01*
X158249456Y-83448446D01*
X158250340Y-83454031D01*
X158250341Y-83454039D01*
X158257030Y-83496281D01*
X158280242Y-83642872D01*
X158281991Y-83648255D01*
X158316730Y-83755181D01*
X158341067Y-83830087D01*
X158343630Y-83835117D01*
X158343632Y-83835122D01*
X158401930Y-83949538D01*
X158430434Y-84005480D01*
X158433758Y-84010055D01*
X158433760Y-84010058D01*
X158478298Y-84071357D01*
X158503250Y-84129015D01*
X158501277Y-84191810D01*
X158472755Y-84247788D01*
X158423114Y-84286295D01*
X158361801Y-84300000D01*
X157250000Y-84300000D01*
X157236902Y-84305425D01*
X157236898Y-84305426D01*
X157192392Y-84323861D01*
X157192389Y-84323862D01*
X157179289Y-84329289D01*
X157173862Y-84342389D01*
X157173861Y-84342392D01*
X157155426Y-84386898D01*
X157155425Y-84386902D01*
X157150000Y-84400000D01*
X157150000Y-84414181D01*
X157150000Y-86556000D01*
X157139039Y-86611106D01*
X157107823Y-86657823D01*
X157061106Y-86689039D01*
X157006000Y-86700000D01*
X154829449Y-86700000D01*
X154769629Y-86686987D01*
X154720621Y-86650300D01*
X154691282Y-86596570D01*
X154662887Y-86499866D01*
X154659986Y-86489985D01*
X154604020Y-86402900D01*
X154583762Y-86352299D01*
X154583762Y-86297795D01*
X154604020Y-86247194D01*
X154628244Y-86209500D01*
X154659986Y-86160109D01*
X154700533Y-86022017D01*
X154700533Y-85878095D01*
X154659986Y-85740003D01*
X154654417Y-85731337D01*
X154654415Y-85731333D01*
X154604008Y-85652898D01*
X154583750Y-85602298D01*
X154583750Y-85547793D01*
X154604005Y-85497199D01*
X154659986Y-85410091D01*
X154700533Y-85271999D01*
X154700533Y-85128077D01*
X154659986Y-84989985D01*
X154604013Y-84902890D01*
X154583756Y-84852290D01*
X154583756Y-84797786D01*
X154604014Y-84747185D01*
X154659986Y-84660091D01*
X154700533Y-84521999D01*
X154700533Y-84378077D01*
X154659986Y-84239985D01*
X154582176Y-84118910D01*
X154567133Y-84105875D01*
X154500233Y-84047906D01*
X154463546Y-83998898D01*
X154450533Y-83939078D01*
X154450535Y-80844538D01*
X154469827Y-80772538D01*
X154522535Y-80719830D01*
X154594535Y-80700538D01*
X158105535Y-80700538D01*
X158160641Y-80711499D01*
G37*
G04 #@! TD.AperFunction*
G04 #@! TA.AperFunction,Conductor*
G36*
X158160606Y-96711461D02*
G01*
X158207323Y-96742677D01*
X158238539Y-96789394D01*
X158249500Y-96844500D01*
X158249500Y-99305830D01*
X158249500Y-99350000D01*
X158249500Y-99448417D01*
X158250384Y-99454003D01*
X158250385Y-99454006D01*
X158279404Y-99637230D01*
X158279406Y-99637238D01*
X158280291Y-99642826D01*
X158282040Y-99648211D01*
X158282041Y-99648212D01*
X158339367Y-99824644D01*
X158339369Y-99824650D01*
X158341116Y-99830025D01*
X158343684Y-99835066D01*
X158343685Y-99835067D01*
X158427902Y-100000355D01*
X158427907Y-100000363D01*
X158430476Y-100005405D01*
X158478396Y-100071361D01*
X158503346Y-100129016D01*
X158501373Y-100191811D01*
X158472851Y-100247789D01*
X158423209Y-100286295D01*
X158361897Y-100300000D01*
X157250000Y-100300000D01*
X157236902Y-100305425D01*
X157236898Y-100305426D01*
X157192392Y-100323861D01*
X157192389Y-100323862D01*
X157179289Y-100329289D01*
X157173862Y-100342389D01*
X157173861Y-100342392D01*
X157155426Y-100386898D01*
X157155425Y-100386902D01*
X157150000Y-100400000D01*
X157150000Y-100414181D01*
X157150000Y-102556000D01*
X157139039Y-102611106D01*
X157107823Y-102657823D01*
X157061106Y-102689039D01*
X157006000Y-102700000D01*
X154829425Y-102700000D01*
X154769605Y-102686987D01*
X154720597Y-102650300D01*
X154691258Y-102596569D01*
X154662853Y-102499830D01*
X154662852Y-102499829D01*
X154659951Y-102489947D01*
X154603985Y-102402862D01*
X154583727Y-102352261D01*
X154583727Y-102297757D01*
X154603985Y-102247156D01*
X154654382Y-102168736D01*
X154659951Y-102160071D01*
X154700498Y-102021979D01*
X154700498Y-101878057D01*
X154659951Y-101739965D01*
X154603972Y-101652860D01*
X154583715Y-101602261D01*
X154583715Y-101547757D01*
X154603973Y-101497156D01*
X154654382Y-101418718D01*
X154659951Y-101410053D01*
X154700498Y-101271961D01*
X154700498Y-101128039D01*
X154659951Y-100989947D01*
X154603978Y-100902852D01*
X154583721Y-100852252D01*
X154583721Y-100797748D01*
X154603979Y-100747147D01*
X154654382Y-100668718D01*
X154659951Y-100660053D01*
X154700498Y-100521961D01*
X154700498Y-100378039D01*
X154659951Y-100239947D01*
X154582141Y-100118872D01*
X154567098Y-100105837D01*
X154500198Y-100047868D01*
X154463511Y-99998860D01*
X154450498Y-99939040D01*
X154450500Y-96844500D01*
X154469792Y-96772500D01*
X154522500Y-96719792D01*
X154594500Y-96700500D01*
X158105500Y-96700500D01*
X158160606Y-96711461D01*
G37*
G04 #@! TD.AperFunction*
G04 #@! TA.AperFunction,Conductor*
G36*
X163461106Y-100610961D02*
G01*
X163507823Y-100642177D01*
X163539039Y-100688894D01*
X163550000Y-100744000D01*
X163550000Y-102900000D01*
X163555425Y-102913098D01*
X163555426Y-102913101D01*
X163573861Y-102957607D01*
X163579289Y-102970711D01*
X163650000Y-103000000D01*
X166230537Y-103000000D01*
X166290357Y-103013013D01*
X166339365Y-103049700D01*
X166368704Y-103103431D01*
X166373071Y-103164494D01*
X166351677Y-103221853D01*
X166345617Y-103231281D01*
X166345613Y-103231287D01*
X166340049Y-103239947D01*
X166337147Y-103249829D01*
X166337147Y-103249830D01*
X166302403Y-103368157D01*
X166302402Y-103368160D01*
X166299502Y-103378039D01*
X166299502Y-103521961D01*
X166340049Y-103660053D01*
X166417859Y-103781128D01*
X166425641Y-103787871D01*
X166425642Y-103787872D01*
X166499801Y-103852131D01*
X166536488Y-103901139D01*
X166549501Y-103960959D01*
X166549501Y-104856000D01*
X166538540Y-104911106D01*
X166507324Y-104957823D01*
X166460607Y-104989039D01*
X166405501Y-105000000D01*
X163044000Y-105000000D01*
X162988894Y-104989039D01*
X162942177Y-104957823D01*
X162910961Y-104911106D01*
X162900000Y-104856000D01*
X162900000Y-102814181D01*
X162900000Y-102800000D01*
X162870711Y-102729289D01*
X162857607Y-102723861D01*
X162813101Y-102705426D01*
X162813098Y-102705425D01*
X162800000Y-102700000D01*
X162785819Y-102700000D01*
X161044000Y-102700000D01*
X160988894Y-102689039D01*
X160942177Y-102657823D01*
X160910961Y-102611106D01*
X160900000Y-102556000D01*
X160900000Y-100744500D01*
X160910961Y-100689394D01*
X160942177Y-100642677D01*
X160988894Y-100611461D01*
X161044000Y-100600500D01*
X161592760Y-100600500D01*
X161598417Y-100600500D01*
X161600519Y-100600167D01*
X161604770Y-100600000D01*
X163406000Y-100600000D01*
X163461106Y-100610961D01*
G37*
G04 #@! TD.AperFunction*
G04 #@! TA.AperFunction,Conductor*
G36*
X166477500Y-96719792D02*
G01*
X166530208Y-96772500D01*
X166549500Y-96844500D01*
X166549502Y-99939037D01*
X166536489Y-99998856D01*
X166499803Y-100047864D01*
X166425641Y-100112126D01*
X166425636Y-100112130D01*
X166417857Y-100118872D01*
X166412291Y-100127532D01*
X166412289Y-100127535D01*
X166345615Y-100231282D01*
X166345613Y-100231285D01*
X166340047Y-100239947D01*
X166337145Y-100249829D01*
X166337145Y-100249830D01*
X166302401Y-100368157D01*
X166302400Y-100368160D01*
X166299500Y-100378039D01*
X166299500Y-100521961D01*
X166340047Y-100660053D01*
X166345614Y-100668716D01*
X166345615Y-100668717D01*
X166396020Y-100747149D01*
X166416277Y-100797749D01*
X166416277Y-100852253D01*
X166396020Y-100902852D01*
X166345618Y-100981279D01*
X166345614Y-100981287D01*
X166340049Y-100989947D01*
X166337147Y-100999829D01*
X166337147Y-100999830D01*
X166302403Y-101118157D01*
X166302402Y-101118160D01*
X166299502Y-101128039D01*
X166299502Y-101271961D01*
X166340049Y-101410053D01*
X166345616Y-101418716D01*
X166345617Y-101418717D01*
X166396015Y-101497139D01*
X166416272Y-101547739D01*
X166416272Y-101602243D01*
X166396015Y-101652843D01*
X166345617Y-101731264D01*
X166345615Y-101731267D01*
X166340049Y-101739929D01*
X166337147Y-101749811D01*
X166337147Y-101749812D01*
X166302403Y-101868139D01*
X166302402Y-101868142D01*
X166299502Y-101878021D01*
X166299502Y-102021943D01*
X166340049Y-102160035D01*
X166345616Y-102168698D01*
X166345617Y-102168699D01*
X166396027Y-102247139D01*
X166416284Y-102297739D01*
X166416284Y-102352243D01*
X166396027Y-102402843D01*
X166345617Y-102481282D01*
X166345615Y-102481285D01*
X166340049Y-102489947D01*
X166337149Y-102499823D01*
X166337146Y-102499830D01*
X166308742Y-102596569D01*
X166279403Y-102650300D01*
X166230395Y-102686987D01*
X166170575Y-102700000D01*
X163994000Y-102700000D01*
X163938894Y-102689039D01*
X163892177Y-102657823D01*
X163860961Y-102611106D01*
X163850000Y-102556000D01*
X163850000Y-100414181D01*
X163850000Y-100400000D01*
X163820711Y-100329289D01*
X163807607Y-100323861D01*
X163763101Y-100305426D01*
X163763098Y-100305425D01*
X163750000Y-100300000D01*
X163735819Y-100300000D01*
X162638103Y-100300000D01*
X162576791Y-100286295D01*
X162527149Y-100247789D01*
X162498627Y-100191811D01*
X162496654Y-100129016D01*
X162521603Y-100071361D01*
X162569524Y-100005405D01*
X162658884Y-99830025D01*
X162719709Y-99642826D01*
X162750500Y-99448417D01*
X162750500Y-99350000D01*
X162750500Y-99305830D01*
X162750500Y-96844500D01*
X162761461Y-96789394D01*
X162792677Y-96742677D01*
X162839394Y-96711461D01*
X162894500Y-96700500D01*
X166405500Y-96700500D01*
X166477500Y-96719792D01*
G37*
G04 #@! TD.AperFunction*
G04 #@! TA.AperFunction,Conductor*
G36*
X138111106Y-87010961D02*
G01*
X138157823Y-87042177D01*
X138189039Y-87088894D01*
X138200000Y-87144000D01*
X138200000Y-88000000D01*
X138205425Y-88013098D01*
X138205426Y-88013101D01*
X138223861Y-88057607D01*
X138229289Y-88070711D01*
X138300000Y-88100000D01*
X139156000Y-88100000D01*
X139211106Y-88110961D01*
X139257823Y-88142177D01*
X139289039Y-88188894D01*
X139300000Y-88244000D01*
X139300000Y-91055501D01*
X139289039Y-91110607D01*
X139257823Y-91157324D01*
X139211106Y-91188540D01*
X139156000Y-91199501D01*
X136944000Y-91199501D01*
X136888894Y-91188540D01*
X136842177Y-91157324D01*
X136810961Y-91110607D01*
X136800000Y-91055501D01*
X136800000Y-87144000D01*
X136810961Y-87088894D01*
X136842177Y-87042177D01*
X136888894Y-87010961D01*
X136944000Y-87000000D01*
X138056000Y-87000000D01*
X138111106Y-87010961D01*
G37*
G04 #@! TD.AperFunction*
G04 #@! TA.AperFunction,Conductor*
G36*
X144877536Y-96719793D02*
G01*
X144930244Y-96772501D01*
X144949536Y-96844501D01*
X144949538Y-99939038D01*
X144936525Y-99998857D01*
X144899839Y-100047865D01*
X144825677Y-100112127D01*
X144825672Y-100112131D01*
X144817893Y-100118873D01*
X144812327Y-100127533D01*
X144812325Y-100127536D01*
X144745651Y-100231283D01*
X144745649Y-100231286D01*
X144740083Y-100239948D01*
X144737181Y-100249830D01*
X144737181Y-100249831D01*
X144702437Y-100368158D01*
X144702436Y-100368161D01*
X144699536Y-100378040D01*
X144699536Y-100521962D01*
X144740083Y-100660054D01*
X144745650Y-100668717D01*
X144745651Y-100668718D01*
X144796056Y-100747150D01*
X144816313Y-100797750D01*
X144816313Y-100852254D01*
X144796056Y-100902853D01*
X144745654Y-100981280D01*
X144745650Y-100981288D01*
X144740085Y-100989948D01*
X144737183Y-100999830D01*
X144737183Y-100999831D01*
X144702439Y-101118158D01*
X144702438Y-101118161D01*
X144699538Y-101128040D01*
X144699538Y-101271962D01*
X144740085Y-101410054D01*
X144745652Y-101418717D01*
X144745653Y-101418718D01*
X144796051Y-101497140D01*
X144816308Y-101547740D01*
X144816308Y-101602244D01*
X144796051Y-101652844D01*
X144745653Y-101731265D01*
X144745651Y-101731268D01*
X144740085Y-101739930D01*
X144737183Y-101749812D01*
X144737183Y-101749813D01*
X144702439Y-101868140D01*
X144702438Y-101868143D01*
X144699538Y-101878022D01*
X144699538Y-102021944D01*
X144740085Y-102160036D01*
X144745652Y-102168699D01*
X144745653Y-102168700D01*
X144796063Y-102247140D01*
X144816320Y-102297740D01*
X144816320Y-102352244D01*
X144796063Y-102402844D01*
X144745653Y-102481283D01*
X144745651Y-102481286D01*
X144740085Y-102489948D01*
X144737183Y-102499830D01*
X144737183Y-102499831D01*
X144708779Y-102596569D01*
X144679440Y-102650299D01*
X144630432Y-102686987D01*
X144570612Y-102700000D01*
X142394000Y-102700000D01*
X142338894Y-102689039D01*
X142292177Y-102657823D01*
X142260961Y-102611106D01*
X142250000Y-102556000D01*
X142250000Y-100414181D01*
X142250000Y-100400000D01*
X142220711Y-100329289D01*
X142207607Y-100323861D01*
X142163101Y-100305426D01*
X142163098Y-100305425D01*
X142150000Y-100300000D01*
X142135819Y-100300000D01*
X141038126Y-100300000D01*
X140976813Y-100286295D01*
X140927171Y-100247788D01*
X140898650Y-100191809D01*
X140896677Y-100129015D01*
X140921629Y-100071356D01*
X140955583Y-100024624D01*
X140969554Y-100005396D01*
X141058917Y-99830020D01*
X141119743Y-99642824D01*
X141150536Y-99448417D01*
X141150536Y-99350001D01*
X141150536Y-99305831D01*
X141150536Y-96844501D01*
X141161497Y-96789395D01*
X141192713Y-96742678D01*
X141239430Y-96711462D01*
X141294536Y-96700501D01*
X144805536Y-96700501D01*
X144877536Y-96719793D01*
G37*
G04 #@! TD.AperFunction*
G04 #@! TA.AperFunction,Conductor*
G36*
X136560642Y-96711462D02*
G01*
X136607359Y-96742678D01*
X136638575Y-96789395D01*
X136649536Y-96844501D01*
X136649536Y-99374675D01*
X136649574Y-99374870D01*
X136649595Y-99375300D01*
X136649590Y-99442734D01*
X136649590Y-99448393D01*
X136650473Y-99453973D01*
X136650474Y-99453981D01*
X136657164Y-99496241D01*
X136680365Y-99642807D01*
X136741177Y-99830012D01*
X136743743Y-99835049D01*
X136743744Y-99835051D01*
X136802308Y-99950006D01*
X136830528Y-100005397D01*
X136833846Y-100009965D01*
X136833849Y-100009969D01*
X136878452Y-100071365D01*
X136903399Y-100129023D01*
X136901424Y-100191815D01*
X136872901Y-100247791D01*
X136823260Y-100286296D01*
X136761949Y-100300000D01*
X135650000Y-100300000D01*
X135636902Y-100305425D01*
X135636898Y-100305426D01*
X135592392Y-100323861D01*
X135592389Y-100323862D01*
X135579289Y-100329289D01*
X135573862Y-100342389D01*
X135573861Y-100342392D01*
X135555426Y-100386898D01*
X135555425Y-100386902D01*
X135550000Y-100400000D01*
X135550000Y-100414181D01*
X135550000Y-102556000D01*
X135539039Y-102611106D01*
X135507823Y-102657823D01*
X135461106Y-102689039D01*
X135406000Y-102700000D01*
X133229460Y-102700000D01*
X133169640Y-102686987D01*
X133120632Y-102650299D01*
X133091293Y-102596569D01*
X133079381Y-102556000D01*
X133059987Y-102489948D01*
X133004021Y-102402863D01*
X132983763Y-102352262D01*
X132983763Y-102297758D01*
X133004021Y-102247157D01*
X133008623Y-102239996D01*
X133059987Y-102160072D01*
X133100534Y-102021980D01*
X133100534Y-101878058D01*
X133059987Y-101739966D01*
X133004008Y-101652861D01*
X132983751Y-101602262D01*
X132983751Y-101547758D01*
X133004009Y-101497157D01*
X133054418Y-101418719D01*
X133059987Y-101410054D01*
X133100534Y-101271962D01*
X133100534Y-101128040D01*
X133059987Y-100989948D01*
X133004014Y-100902852D01*
X132983757Y-100852252D01*
X132983757Y-100797747D01*
X133004013Y-100747150D01*
X133059987Y-100660054D01*
X133100534Y-100521962D01*
X133100534Y-100378040D01*
X133059987Y-100239948D01*
X132982177Y-100118873D01*
X132967134Y-100105838D01*
X132900234Y-100047869D01*
X132863547Y-99998861D01*
X132850534Y-99939041D01*
X132850536Y-96844501D01*
X132869828Y-96772501D01*
X132922536Y-96719793D01*
X132994536Y-96700501D01*
X136505536Y-96700501D01*
X136560642Y-96711462D01*
G37*
G04 #@! TD.AperFunction*
G04 #@! TA.AperFunction,Conductor*
G36*
X137799511Y-84600167D02*
G01*
X137801628Y-84600503D01*
X137900045Y-84600501D01*
X138856000Y-84600501D01*
X138911106Y-84611462D01*
X138957823Y-84642678D01*
X138989039Y-84689395D01*
X139000000Y-84744501D01*
X139000000Y-86900000D01*
X139005425Y-86913098D01*
X139005426Y-86913101D01*
X139023861Y-86957607D01*
X139029289Y-86970711D01*
X139100000Y-87000000D01*
X140856000Y-87000000D01*
X140911106Y-87010961D01*
X140957823Y-87042177D01*
X140989039Y-87088894D01*
X141000000Y-87144000D01*
X141000000Y-91055501D01*
X140989039Y-91110607D01*
X140957823Y-91157324D01*
X140911106Y-91188540D01*
X140856000Y-91199501D01*
X139744000Y-91199501D01*
X139688894Y-91188540D01*
X139642177Y-91157324D01*
X139610961Y-91110607D01*
X139600000Y-91055501D01*
X139600000Y-87914181D01*
X139600000Y-87900000D01*
X139570711Y-87829289D01*
X139557607Y-87823861D01*
X139513101Y-87805426D01*
X139513098Y-87805425D01*
X139500000Y-87800000D01*
X139485819Y-87800000D01*
X138644000Y-87800000D01*
X138588894Y-87789039D01*
X138542177Y-87757823D01*
X138510961Y-87711106D01*
X138500000Y-87656000D01*
X138500000Y-86814181D01*
X138500000Y-86800000D01*
X138470711Y-86729289D01*
X138457607Y-86723861D01*
X138413101Y-86705426D01*
X138413098Y-86705425D01*
X138400000Y-86700000D01*
X138385819Y-86700000D01*
X137350000Y-86700000D01*
X137350000Y-84600000D01*
X137795240Y-84600000D01*
X137799511Y-84600167D01*
G37*
G04 #@! TD.AperFunction*
G04 #@! TA.AperFunction,Conductor*
G36*
X138111106Y-103010961D02*
G01*
X138157823Y-103042177D01*
X138189039Y-103088894D01*
X138200000Y-103144000D01*
X138200000Y-104000000D01*
X138205425Y-104013098D01*
X138205426Y-104013101D01*
X138223861Y-104057607D01*
X138229289Y-104070711D01*
X138300000Y-104100000D01*
X139156000Y-104100000D01*
X139211106Y-104110961D01*
X139257823Y-104142177D01*
X139289039Y-104188894D01*
X139300000Y-104244000D01*
X139300000Y-107055501D01*
X139289039Y-107110607D01*
X139257823Y-107157324D01*
X139211106Y-107188540D01*
X139156000Y-107199501D01*
X136944000Y-107199501D01*
X136888894Y-107188540D01*
X136842177Y-107157324D01*
X136810961Y-107110607D01*
X136800000Y-107055501D01*
X136800000Y-103144000D01*
X136810961Y-103088894D01*
X136842177Y-103042177D01*
X136888894Y-103010961D01*
X136944000Y-103000000D01*
X138056000Y-103000000D01*
X138111106Y-103010961D01*
G37*
G04 #@! TD.AperFunction*
G04 #@! TA.AperFunction,Conductor*
G36*
X137799511Y-84600167D02*
G01*
X137801628Y-84600503D01*
X137900045Y-84600501D01*
X138500000Y-84600501D01*
X138500000Y-86700000D01*
X138400000Y-86700000D01*
X136600000Y-86700000D01*
X136586902Y-86705425D01*
X136586898Y-86705426D01*
X136542392Y-86723861D01*
X136542389Y-86723862D01*
X136529289Y-86729289D01*
X136523862Y-86742389D01*
X136523861Y-86742392D01*
X136505426Y-86786898D01*
X136505425Y-86786902D01*
X136500000Y-86800000D01*
X136500000Y-86814181D01*
X136500000Y-88856000D01*
X136489039Y-88911106D01*
X136457823Y-88957823D01*
X136411106Y-88989039D01*
X136356000Y-89000000D01*
X132994534Y-89000000D01*
X132922534Y-88980708D01*
X132869826Y-88928000D01*
X132850534Y-88856000D01*
X132850533Y-87960963D01*
X132863546Y-87901143D01*
X132900234Y-87852135D01*
X132974392Y-87787876D01*
X132982179Y-87781129D01*
X133059989Y-87660054D01*
X133100536Y-87521962D01*
X133100536Y-87378040D01*
X133059989Y-87239948D01*
X133048361Y-87221854D01*
X133026966Y-87164495D01*
X133031333Y-87103432D01*
X133060671Y-87049701D01*
X133109680Y-87013013D01*
X133169500Y-87000000D01*
X135735819Y-87000000D01*
X135750000Y-87000000D01*
X135820711Y-86970711D01*
X135850000Y-86900000D01*
X135850000Y-84744000D01*
X135860961Y-84688894D01*
X135892177Y-84642177D01*
X135938894Y-84610961D01*
X135994000Y-84600000D01*
X137795240Y-84600000D01*
X137799511Y-84600167D01*
G37*
G04 #@! TD.AperFunction*
G04 #@! TA.AperFunction,Conductor*
G36*
X136560642Y-80711462D02*
G01*
X136607359Y-80742678D01*
X136638575Y-80789395D01*
X136649536Y-80844501D01*
X136649536Y-83374675D01*
X136649574Y-83374870D01*
X136649595Y-83375300D01*
X136649590Y-83442734D01*
X136649590Y-83448393D01*
X136650473Y-83453973D01*
X136650474Y-83453981D01*
X136657164Y-83496241D01*
X136680365Y-83642807D01*
X136741177Y-83830012D01*
X136743743Y-83835049D01*
X136743744Y-83835051D01*
X136802308Y-83950006D01*
X136830528Y-84005397D01*
X136833846Y-84009965D01*
X136833849Y-84009969D01*
X136878452Y-84071365D01*
X136903399Y-84129023D01*
X136901424Y-84191815D01*
X136872901Y-84247791D01*
X136823260Y-84286296D01*
X136761949Y-84300000D01*
X135650000Y-84300000D01*
X135636902Y-84305425D01*
X135636898Y-84305426D01*
X135592392Y-84323861D01*
X135592389Y-84323862D01*
X135579289Y-84329289D01*
X135573862Y-84342389D01*
X135573861Y-84342392D01*
X135555426Y-84386898D01*
X135555425Y-84386902D01*
X135550000Y-84400000D01*
X135550000Y-84414181D01*
X135550000Y-86556000D01*
X135539039Y-86611106D01*
X135507823Y-86657823D01*
X135461106Y-86689039D01*
X135406000Y-86700000D01*
X133229460Y-86700000D01*
X133169640Y-86686987D01*
X133120632Y-86650299D01*
X133091293Y-86596569D01*
X133079381Y-86556000D01*
X133059987Y-86489948D01*
X133004021Y-86402863D01*
X132983763Y-86352262D01*
X132983763Y-86297758D01*
X133004021Y-86247157D01*
X133008623Y-86239996D01*
X133059987Y-86160072D01*
X133100534Y-86021980D01*
X133100534Y-85878058D01*
X133059987Y-85739966D01*
X133054418Y-85731300D01*
X133054416Y-85731296D01*
X133004009Y-85652861D01*
X132983751Y-85602261D01*
X132983751Y-85547756D01*
X133004006Y-85497162D01*
X133059987Y-85410054D01*
X133100534Y-85271962D01*
X133100534Y-85128040D01*
X133059987Y-84989948D01*
X133004014Y-84902853D01*
X132983757Y-84852253D01*
X132983757Y-84797749D01*
X133004015Y-84747148D01*
X133054418Y-84668719D01*
X133059987Y-84660054D01*
X133100534Y-84521962D01*
X133100534Y-84378040D01*
X133059987Y-84239948D01*
X132982177Y-84118873D01*
X132967134Y-84105838D01*
X132900234Y-84047869D01*
X132863547Y-83998861D01*
X132850534Y-83939041D01*
X132850536Y-80844501D01*
X132869828Y-80772501D01*
X132922536Y-80719793D01*
X132994536Y-80700501D01*
X136505536Y-80700501D01*
X136560642Y-80711462D01*
G37*
G04 #@! TD.AperFunction*
G04 #@! TA.AperFunction,Conductor*
G36*
X159711106Y-87010961D02*
G01*
X159757823Y-87042177D01*
X159789039Y-87088894D01*
X159800000Y-87144000D01*
X159800000Y-88000000D01*
X159805425Y-88013098D01*
X159805426Y-88013101D01*
X159823861Y-88057607D01*
X159829289Y-88070711D01*
X159900000Y-88100000D01*
X160756000Y-88100000D01*
X160811106Y-88110961D01*
X160857823Y-88142177D01*
X160889039Y-88188894D01*
X160900000Y-88244000D01*
X160900000Y-91055538D01*
X160889039Y-91110644D01*
X160857823Y-91157361D01*
X160811106Y-91188577D01*
X160756000Y-91199538D01*
X158544000Y-91199538D01*
X158488894Y-91188577D01*
X158442177Y-91157361D01*
X158410961Y-91110644D01*
X158400000Y-91055538D01*
X158400000Y-87144000D01*
X158410961Y-87088894D01*
X158442177Y-87042177D01*
X158488894Y-87010961D01*
X158544000Y-87000000D01*
X159656000Y-87000000D01*
X159711106Y-87010961D01*
G37*
G04 #@! TD.AperFunction*
G04 #@! TA.AperFunction,Conductor*
G36*
X159711106Y-103010961D02*
G01*
X159757823Y-103042177D01*
X159789039Y-103088894D01*
X159800000Y-103144000D01*
X159800000Y-104000000D01*
X159805425Y-104013098D01*
X159805426Y-104013101D01*
X159823861Y-104057607D01*
X159829289Y-104070711D01*
X159900000Y-104100000D01*
X160756000Y-104100000D01*
X160811106Y-104110961D01*
X160857823Y-104142177D01*
X160889039Y-104188894D01*
X160900000Y-104244000D01*
X160900000Y-107055500D01*
X160889039Y-107110606D01*
X160857823Y-107157323D01*
X160811106Y-107188539D01*
X160756000Y-107199500D01*
X158544000Y-107199500D01*
X158488894Y-107188539D01*
X158442177Y-107157323D01*
X158410961Y-107110606D01*
X158400000Y-107055500D01*
X158400000Y-103144000D01*
X158410961Y-103088894D01*
X158442177Y-103042177D01*
X158488894Y-103010961D01*
X158544000Y-103000000D01*
X159656000Y-103000000D01*
X159711106Y-103010961D01*
G37*
G04 #@! TD.AperFunction*
G04 #@! TA.AperFunction,Conductor*
G36*
X136411106Y-105310961D02*
G01*
X136457823Y-105342177D01*
X136489039Y-105388894D01*
X136500000Y-105444000D01*
X136500000Y-107055501D01*
X136489039Y-107110607D01*
X136457823Y-107157324D01*
X136411106Y-107188540D01*
X136356000Y-107199501D01*
X132994536Y-107199501D01*
X132922536Y-107180209D01*
X132869828Y-107127501D01*
X132850536Y-107055501D01*
X132850534Y-105444000D01*
X132861495Y-105388894D01*
X132892711Y-105342177D01*
X132939428Y-105310961D01*
X132994534Y-105300000D01*
X136356000Y-105300000D01*
X136411106Y-105310961D01*
G37*
G04 #@! TD.AperFunction*
G04 #@! TA.AperFunction,Conductor*
G36*
X144877536Y-80719793D02*
G01*
X144930244Y-80772501D01*
X144949536Y-80844501D01*
X144949538Y-83939038D01*
X144936525Y-83998857D01*
X144899839Y-84047865D01*
X144825677Y-84112127D01*
X144825672Y-84112131D01*
X144817893Y-84118873D01*
X144812327Y-84127533D01*
X144812325Y-84127536D01*
X144745651Y-84231283D01*
X144745649Y-84231286D01*
X144740083Y-84239948D01*
X144737181Y-84249830D01*
X144737181Y-84249831D01*
X144702437Y-84368158D01*
X144702436Y-84368161D01*
X144699536Y-84378040D01*
X144699536Y-84521962D01*
X144740083Y-84660054D01*
X144745650Y-84668717D01*
X144745651Y-84668718D01*
X144796056Y-84747150D01*
X144816313Y-84797750D01*
X144816313Y-84852254D01*
X144796056Y-84902853D01*
X144745654Y-84981280D01*
X144745650Y-84981288D01*
X144740085Y-84989948D01*
X144737183Y-84999830D01*
X144737183Y-84999831D01*
X144702439Y-85118158D01*
X144702438Y-85118161D01*
X144699538Y-85128040D01*
X144699538Y-85271962D01*
X144740085Y-85410054D01*
X144745652Y-85418717D01*
X144745653Y-85418718D01*
X144796051Y-85497140D01*
X144816308Y-85547740D01*
X144816308Y-85602244D01*
X144796051Y-85652844D01*
X144745653Y-85731265D01*
X144745651Y-85731268D01*
X144740085Y-85739930D01*
X144737183Y-85749812D01*
X144737183Y-85749813D01*
X144702439Y-85868140D01*
X144702438Y-85868143D01*
X144699538Y-85878022D01*
X144699538Y-86021944D01*
X144740085Y-86160036D01*
X144745652Y-86168699D01*
X144745653Y-86168700D01*
X144796063Y-86247140D01*
X144816320Y-86297740D01*
X144816320Y-86352244D01*
X144796063Y-86402844D01*
X144745653Y-86481283D01*
X144745651Y-86481286D01*
X144740085Y-86489948D01*
X144737183Y-86499830D01*
X144737183Y-86499831D01*
X144708779Y-86596569D01*
X144679440Y-86650299D01*
X144630432Y-86686987D01*
X144570612Y-86700000D01*
X142394000Y-86700000D01*
X142338894Y-86689039D01*
X142292177Y-86657823D01*
X142260961Y-86611106D01*
X142250000Y-86556000D01*
X142250000Y-84414181D01*
X142250000Y-84400000D01*
X142220711Y-84329289D01*
X142207607Y-84323861D01*
X142163101Y-84305426D01*
X142163098Y-84305425D01*
X142150000Y-84300000D01*
X142135819Y-84300000D01*
X141038126Y-84300000D01*
X140976813Y-84286295D01*
X140927171Y-84247788D01*
X140898650Y-84191809D01*
X140896677Y-84129015D01*
X140921629Y-84071356D01*
X140955583Y-84024624D01*
X140969554Y-84005396D01*
X141058917Y-83830020D01*
X141119743Y-83642824D01*
X141150536Y-83448417D01*
X141150536Y-83350001D01*
X141150536Y-83305831D01*
X141150536Y-80844501D01*
X141161497Y-80789395D01*
X141192713Y-80742678D01*
X141239430Y-80711462D01*
X141294536Y-80700501D01*
X144805536Y-80700501D01*
X144877536Y-80719793D01*
G37*
G04 #@! TD.AperFunction*
G04 #@! TA.AperFunction,Conductor*
G36*
X166460607Y-105310961D02*
G01*
X166507324Y-105342177D01*
X166538540Y-105388894D01*
X166549501Y-105444000D01*
X166549500Y-107055500D01*
X166530208Y-107127500D01*
X166477500Y-107180208D01*
X166405500Y-107199500D01*
X163044000Y-107199500D01*
X162988894Y-107188539D01*
X162942177Y-107157323D01*
X162910961Y-107110606D01*
X162900000Y-107055500D01*
X162900000Y-105444000D01*
X162910961Y-105388894D01*
X162942177Y-105342177D01*
X162988894Y-105310961D01*
X163044000Y-105300000D01*
X166405501Y-105300000D01*
X166460607Y-105310961D01*
G37*
G04 #@! TD.AperFunction*
G04 #@! TA.AperFunction,Conductor*
G36*
X136411106Y-89310961D02*
G01*
X136457823Y-89342177D01*
X136489039Y-89388894D01*
X136500000Y-89444000D01*
X136500000Y-91055501D01*
X136489039Y-91110607D01*
X136457823Y-91157324D01*
X136411106Y-91188540D01*
X136356000Y-91199501D01*
X132994536Y-91199501D01*
X132922536Y-91180209D01*
X132869828Y-91127501D01*
X132850536Y-91055501D01*
X132850534Y-89444000D01*
X132861495Y-89388894D01*
X132892711Y-89342177D01*
X132939428Y-89310961D01*
X132994534Y-89300000D01*
X136356000Y-89300000D01*
X136411106Y-89310961D01*
G37*
G04 #@! TD.AperFunction*
G04 #@! TA.AperFunction,Conductor*
G36*
X141861106Y-100610961D02*
G01*
X141907823Y-100642177D01*
X141939039Y-100688894D01*
X141950000Y-100744000D01*
X141950000Y-102900000D01*
X141955425Y-102913098D01*
X141955426Y-102913101D01*
X141973861Y-102957607D01*
X141979289Y-102970711D01*
X142050000Y-103000000D01*
X144630574Y-103000000D01*
X144690394Y-103013013D01*
X144739403Y-103049701D01*
X144768741Y-103103432D01*
X144773108Y-103164495D01*
X144751713Y-103221854D01*
X144745654Y-103231281D01*
X144745651Y-103231285D01*
X144740085Y-103239948D01*
X144737183Y-103249830D01*
X144737183Y-103249831D01*
X144702439Y-103368158D01*
X144702438Y-103368161D01*
X144699538Y-103378040D01*
X144699538Y-103521962D01*
X144740085Y-103660054D01*
X144817895Y-103781129D01*
X144825677Y-103787872D01*
X144825678Y-103787873D01*
X144899837Y-103852132D01*
X144936524Y-103901140D01*
X144949537Y-103960960D01*
X144949537Y-104856000D01*
X144938576Y-104911106D01*
X144907360Y-104957823D01*
X144860643Y-104989039D01*
X144805537Y-105000000D01*
X141444000Y-105000000D01*
X141388894Y-104989039D01*
X141342177Y-104957823D01*
X141310961Y-104911106D01*
X141300000Y-104856000D01*
X141300000Y-102814181D01*
X141300000Y-102800000D01*
X141270711Y-102729289D01*
X141257607Y-102723861D01*
X141213101Y-102705426D01*
X141213098Y-102705425D01*
X141200000Y-102700000D01*
X141185819Y-102700000D01*
X139444000Y-102700000D01*
X139388894Y-102689039D01*
X139342177Y-102657823D01*
X139310961Y-102611106D01*
X139300000Y-102556000D01*
X139300000Y-100744501D01*
X139310961Y-100689395D01*
X139342177Y-100642678D01*
X139388894Y-100611462D01*
X139444000Y-100600501D01*
X139924072Y-100600501D01*
X139924710Y-100600501D01*
X139924919Y-100600459D01*
X139925363Y-100600437D01*
X139998435Y-100600442D01*
X140000298Y-100600146D01*
X140004047Y-100600000D01*
X141806000Y-100600000D01*
X141861106Y-100610961D01*
G37*
G04 #@! TD.AperFunction*
G04 #@! TA.AperFunction,Conductor*
G36*
X159399480Y-100600167D02*
G01*
X159401583Y-100600500D01*
X159407240Y-100600500D01*
X160456000Y-100600500D01*
X160511106Y-100611461D01*
X160557823Y-100642677D01*
X160589039Y-100689394D01*
X160600000Y-100744500D01*
X160600000Y-102900000D01*
X160605425Y-102913098D01*
X160605426Y-102913101D01*
X160623861Y-102957607D01*
X160629289Y-102970711D01*
X160700000Y-103000000D01*
X162456000Y-103000000D01*
X162511106Y-103010961D01*
X162557823Y-103042177D01*
X162589039Y-103088894D01*
X162600000Y-103144000D01*
X162600000Y-107055500D01*
X162589039Y-107110606D01*
X162557823Y-107157323D01*
X162511106Y-107188539D01*
X162456000Y-107199500D01*
X161344000Y-107199500D01*
X161288894Y-107188539D01*
X161242177Y-107157323D01*
X161210961Y-107110606D01*
X161200000Y-107055500D01*
X161200000Y-103914181D01*
X161200000Y-103900000D01*
X161170711Y-103829289D01*
X161157607Y-103823861D01*
X161113101Y-103805426D01*
X161113098Y-103805425D01*
X161100000Y-103800000D01*
X161085819Y-103800000D01*
X160244000Y-103800000D01*
X160188894Y-103789039D01*
X160142177Y-103757823D01*
X160110961Y-103711106D01*
X160100000Y-103656000D01*
X160100000Y-102814181D01*
X160100000Y-102800000D01*
X160070711Y-102729289D01*
X160057607Y-102723861D01*
X160013101Y-102705426D01*
X160013098Y-102705425D01*
X160000000Y-102700000D01*
X159985819Y-102700000D01*
X158950000Y-102700000D01*
X158950000Y-100600000D01*
X159395230Y-100600000D01*
X159399480Y-100600167D01*
G37*
G04 #@! TD.AperFunction*
G04 #@! TA.AperFunction,Conductor*
G36*
X158011106Y-105310961D02*
G01*
X158057823Y-105342177D01*
X158089039Y-105388894D01*
X158100000Y-105444000D01*
X158100000Y-107055500D01*
X158089039Y-107110606D01*
X158057823Y-107157323D01*
X158011106Y-107188539D01*
X157956000Y-107199500D01*
X154594500Y-107199500D01*
X154522500Y-107180208D01*
X154469792Y-107127500D01*
X154450500Y-107055500D01*
X154450498Y-105444000D01*
X154461459Y-105388894D01*
X154492675Y-105342177D01*
X154539392Y-105310961D01*
X154594498Y-105300000D01*
X157956000Y-105300000D01*
X158011106Y-105310961D01*
G37*
G04 #@! TD.AperFunction*
G04 #@! TA.AperFunction,Conductor*
G36*
X144860643Y-89310961D02*
G01*
X144907360Y-89342177D01*
X144938576Y-89388894D01*
X144949537Y-89444000D01*
X144949536Y-91055501D01*
X144930244Y-91127501D01*
X144877536Y-91180209D01*
X144805536Y-91199501D01*
X141444000Y-91199501D01*
X141388894Y-91188540D01*
X141342177Y-91157324D01*
X141310961Y-91110607D01*
X141300000Y-91055501D01*
X141300000Y-89444000D01*
X141310961Y-89388894D01*
X141342177Y-89342177D01*
X141388894Y-89310961D01*
X141444000Y-89300000D01*
X144805537Y-89300000D01*
X144860643Y-89310961D01*
G37*
G04 #@! TD.AperFunction*
G04 #@! TA.AperFunction,Conductor*
G36*
X159399321Y-84600183D02*
G01*
X159401645Y-84600551D01*
X159500069Y-84600538D01*
X160456000Y-84600538D01*
X160511106Y-84611499D01*
X160557823Y-84642715D01*
X160589039Y-84689432D01*
X160600000Y-84744538D01*
X160600000Y-86900000D01*
X160605425Y-86913098D01*
X160605426Y-86913101D01*
X160623861Y-86957607D01*
X160629289Y-86970711D01*
X160700000Y-87000000D01*
X162456000Y-87000000D01*
X162511106Y-87010961D01*
X162557823Y-87042177D01*
X162589039Y-87088894D01*
X162600000Y-87144000D01*
X162600000Y-91055538D01*
X162589039Y-91110644D01*
X162557823Y-91157361D01*
X162511106Y-91188577D01*
X162456000Y-91199538D01*
X161344000Y-91199538D01*
X161288894Y-91188577D01*
X161242177Y-91157361D01*
X161210961Y-91110644D01*
X161200000Y-91055538D01*
X161200000Y-87914181D01*
X161200000Y-87900000D01*
X161170711Y-87829289D01*
X161157607Y-87823861D01*
X161113101Y-87805426D01*
X161113098Y-87805425D01*
X161100000Y-87800000D01*
X161085819Y-87800000D01*
X160244000Y-87800000D01*
X160188894Y-87789039D01*
X160142177Y-87757823D01*
X160110961Y-87711106D01*
X160100000Y-87656000D01*
X160100000Y-86814181D01*
X160100000Y-86800000D01*
X160070711Y-86729289D01*
X160057607Y-86723861D01*
X160013101Y-86705426D01*
X160013098Y-86705425D01*
X160000000Y-86700000D01*
X159985819Y-86700000D01*
X158950000Y-86700000D01*
X158950000Y-84600000D01*
X159394654Y-84600000D01*
X159399321Y-84600183D01*
G37*
G04 #@! TD.AperFunction*
G04 #@! TA.AperFunction,Conductor*
G36*
X141861106Y-84610961D02*
G01*
X141907823Y-84642177D01*
X141939039Y-84688894D01*
X141950000Y-84744000D01*
X141950000Y-86900000D01*
X141955425Y-86913098D01*
X141955426Y-86913101D01*
X141973861Y-86957607D01*
X141979289Y-86970711D01*
X142050000Y-87000000D01*
X144630574Y-87000000D01*
X144690394Y-87013013D01*
X144739403Y-87049701D01*
X144768741Y-87103432D01*
X144773108Y-87164495D01*
X144751713Y-87221854D01*
X144745654Y-87231281D01*
X144745651Y-87231285D01*
X144740085Y-87239948D01*
X144737183Y-87249830D01*
X144737183Y-87249831D01*
X144702439Y-87368158D01*
X144702438Y-87368161D01*
X144699538Y-87378040D01*
X144699538Y-87521962D01*
X144702438Y-87531841D01*
X144702439Y-87531843D01*
X144724305Y-87606314D01*
X144740085Y-87660054D01*
X144817895Y-87781129D01*
X144825677Y-87787872D01*
X144825678Y-87787873D01*
X144899837Y-87852132D01*
X144936524Y-87901140D01*
X144949537Y-87960960D01*
X144949537Y-88856000D01*
X144938576Y-88911106D01*
X144907360Y-88957823D01*
X144860643Y-88989039D01*
X144805537Y-89000000D01*
X141444000Y-89000000D01*
X141388894Y-88989039D01*
X141342177Y-88957823D01*
X141310961Y-88911106D01*
X141300000Y-88856000D01*
X141300000Y-86814181D01*
X141300000Y-86800000D01*
X141270711Y-86729289D01*
X141257607Y-86723861D01*
X141213101Y-86705426D01*
X141213098Y-86705425D01*
X141200000Y-86700000D01*
X141185819Y-86700000D01*
X139444000Y-86700000D01*
X139388894Y-86689039D01*
X139342177Y-86657823D01*
X139310961Y-86611106D01*
X139300000Y-86556000D01*
X139300000Y-84744501D01*
X139310961Y-84689395D01*
X139342177Y-84642678D01*
X139388894Y-84611462D01*
X139444000Y-84600501D01*
X139924072Y-84600501D01*
X139924710Y-84600501D01*
X139924919Y-84600459D01*
X139925363Y-84600437D01*
X139998435Y-84600442D01*
X140000298Y-84600146D01*
X140004047Y-84600000D01*
X141806000Y-84600000D01*
X141861106Y-84610961D01*
G37*
G04 #@! TD.AperFunction*
G04 #@! TA.AperFunction,Conductor*
G36*
X144860643Y-105310961D02*
G01*
X144907360Y-105342177D01*
X144938576Y-105388894D01*
X144949537Y-105444000D01*
X144949536Y-107055501D01*
X144930244Y-107127501D01*
X144877536Y-107180209D01*
X144805536Y-107199501D01*
X141444000Y-107199501D01*
X141388894Y-107188540D01*
X141342177Y-107157324D01*
X141310961Y-107110607D01*
X141300000Y-107055501D01*
X141300000Y-105444000D01*
X141310961Y-105388894D01*
X141342177Y-105342177D01*
X141388894Y-105310961D01*
X141444000Y-105300000D01*
X144805537Y-105300000D01*
X144860643Y-105310961D01*
G37*
G04 #@! TD.AperFunction*
G04 #@! TA.AperFunction,Conductor*
G36*
X163461106Y-84610961D02*
G01*
X163507823Y-84642177D01*
X163539039Y-84688894D01*
X163550000Y-84744000D01*
X163550000Y-86900000D01*
X163555425Y-86913098D01*
X163555426Y-86913101D01*
X163573861Y-86957607D01*
X163579289Y-86970711D01*
X163650000Y-87000000D01*
X166230596Y-87000000D01*
X166290415Y-87013013D01*
X166339423Y-87049699D01*
X166368763Y-87103429D01*
X166373131Y-87164492D01*
X166351738Y-87221851D01*
X166345651Y-87231321D01*
X166345648Y-87231326D01*
X166340084Y-87239985D01*
X166337182Y-87249867D01*
X166337182Y-87249868D01*
X166302438Y-87368195D01*
X166302437Y-87368198D01*
X166299537Y-87378077D01*
X166299537Y-87521999D01*
X166340084Y-87660091D01*
X166417894Y-87781166D01*
X166425676Y-87787909D01*
X166425677Y-87787910D01*
X166499836Y-87852169D01*
X166536523Y-87901177D01*
X166549536Y-87960997D01*
X166549536Y-88856000D01*
X166538575Y-88911106D01*
X166507359Y-88957823D01*
X166460642Y-88989039D01*
X166405536Y-89000000D01*
X163044000Y-89000000D01*
X162988894Y-88989039D01*
X162942177Y-88957823D01*
X162910961Y-88911106D01*
X162900000Y-88856000D01*
X162900000Y-86814181D01*
X162900000Y-86800000D01*
X162870711Y-86729289D01*
X162857607Y-86723861D01*
X162813101Y-86705426D01*
X162813098Y-86705425D01*
X162800000Y-86700000D01*
X162785819Y-86700000D01*
X161044000Y-86700000D01*
X160988894Y-86689039D01*
X160942177Y-86657823D01*
X160910961Y-86611106D01*
X160900000Y-86556000D01*
X160900000Y-84744538D01*
X160910961Y-84689432D01*
X160942177Y-84642715D01*
X160988894Y-84611499D01*
X161044000Y-84600538D01*
X161455871Y-84600538D01*
X161455874Y-84600539D01*
X161500044Y-84600538D01*
X161524709Y-84600538D01*
X161524726Y-84600534D01*
X161524728Y-84600533D01*
X161598458Y-84600532D01*
X161600694Y-84600177D01*
X161605218Y-84600000D01*
X163406000Y-84600000D01*
X163461106Y-84610961D01*
G37*
G04 #@! TD.AperFunction*
G04 #@! TA.AperFunction,Conductor*
G36*
X159399321Y-84600183D02*
G01*
X159401645Y-84600551D01*
X159500069Y-84600538D01*
X160100000Y-84600538D01*
X160100000Y-86700000D01*
X160000000Y-86700000D01*
X158200000Y-86700000D01*
X158186902Y-86705425D01*
X158186898Y-86705426D01*
X158142392Y-86723861D01*
X158142389Y-86723862D01*
X158129289Y-86729289D01*
X158123862Y-86742389D01*
X158123861Y-86742392D01*
X158105426Y-86786898D01*
X158105425Y-86786902D01*
X158100000Y-86800000D01*
X158100000Y-86814181D01*
X158100000Y-88856000D01*
X158089039Y-88911106D01*
X158057823Y-88957823D01*
X158011106Y-88989039D01*
X157956000Y-89000000D01*
X154594533Y-89000000D01*
X154522533Y-88980708D01*
X154469825Y-88928000D01*
X154450533Y-88856000D01*
X154450532Y-87961000D01*
X154463545Y-87901180D01*
X154500233Y-87852172D01*
X154574391Y-87787913D01*
X154582178Y-87781166D01*
X154659988Y-87660091D01*
X154700535Y-87521999D01*
X154700535Y-87378077D01*
X154659988Y-87239985D01*
X154648333Y-87221850D01*
X154626941Y-87164492D01*
X154631309Y-87103429D01*
X154660649Y-87049699D01*
X154709657Y-87013013D01*
X154769476Y-87000000D01*
X157335819Y-87000000D01*
X157350000Y-87000000D01*
X157420711Y-86970711D01*
X157450000Y-86900000D01*
X157450000Y-84744000D01*
X157460961Y-84688894D01*
X157492177Y-84642177D01*
X157538894Y-84610961D01*
X157594000Y-84600000D01*
X159394654Y-84600000D01*
X159399321Y-84600183D01*
G37*
G04 #@! TD.AperFunction*
G04 #@! TA.AperFunction,Conductor*
G36*
X166460642Y-89310961D02*
G01*
X166507359Y-89342177D01*
X166538575Y-89388894D01*
X166549536Y-89444000D01*
X166549535Y-91055538D01*
X166530243Y-91127538D01*
X166477535Y-91180246D01*
X166405535Y-91199538D01*
X163044000Y-91199538D01*
X162988894Y-91188577D01*
X162942177Y-91157361D01*
X162910961Y-91110644D01*
X162900000Y-91055538D01*
X162900000Y-89444000D01*
X162910961Y-89388894D01*
X162942177Y-89342177D01*
X162988894Y-89310961D01*
X163044000Y-89300000D01*
X166405536Y-89300000D01*
X166460642Y-89310961D01*
G37*
G04 #@! TD.AperFunction*
G04 #@! TA.AperFunction,Conductor*
G36*
X166477535Y-80719830D02*
G01*
X166530243Y-80772538D01*
X166549535Y-80844538D01*
X166549537Y-83939075D01*
X166536524Y-83998894D01*
X166499838Y-84047902D01*
X166425676Y-84112164D01*
X166425671Y-84112168D01*
X166417892Y-84118910D01*
X166412326Y-84127570D01*
X166412324Y-84127573D01*
X166345650Y-84231320D01*
X166345648Y-84231323D01*
X166340082Y-84239985D01*
X166337180Y-84249867D01*
X166337180Y-84249868D01*
X166302436Y-84368195D01*
X166302435Y-84368198D01*
X166299535Y-84378077D01*
X166299535Y-84521999D01*
X166340082Y-84660091D01*
X166345649Y-84668754D01*
X166345650Y-84668755D01*
X166396055Y-84747187D01*
X166416312Y-84797787D01*
X166416312Y-84852291D01*
X166396055Y-84902890D01*
X166345653Y-84981317D01*
X166345649Y-84981325D01*
X166340084Y-84989985D01*
X166337182Y-84999867D01*
X166337182Y-84999868D01*
X166302438Y-85118195D01*
X166302437Y-85118198D01*
X166299537Y-85128077D01*
X166299537Y-85271999D01*
X166340084Y-85410091D01*
X166345651Y-85418754D01*
X166345652Y-85418755D01*
X166396050Y-85497176D01*
X166416307Y-85547775D01*
X166416307Y-85602279D01*
X166396050Y-85652879D01*
X166345653Y-85731298D01*
X166345647Y-85731309D01*
X166340084Y-85739967D01*
X166337182Y-85749849D01*
X166337182Y-85749850D01*
X166302438Y-85868177D01*
X166302437Y-85868180D01*
X166299537Y-85878059D01*
X166299537Y-86021981D01*
X166340084Y-86160073D01*
X166345651Y-86168736D01*
X166345652Y-86168737D01*
X166396062Y-86247177D01*
X166416319Y-86297777D01*
X166416319Y-86352281D01*
X166396062Y-86402881D01*
X166345652Y-86481320D01*
X166345650Y-86481323D01*
X166340084Y-86489985D01*
X166337183Y-86499861D01*
X166337182Y-86499866D01*
X166308788Y-86596570D01*
X166279449Y-86650300D01*
X166230441Y-86686987D01*
X166170621Y-86700000D01*
X163994000Y-86700000D01*
X163938894Y-86689039D01*
X163892177Y-86657823D01*
X163860961Y-86611106D01*
X163850000Y-86556000D01*
X163850000Y-84414181D01*
X163850000Y-84400000D01*
X163820711Y-84329289D01*
X163807607Y-84323861D01*
X163763101Y-84305426D01*
X163763098Y-84305425D01*
X163750000Y-84300000D01*
X163735819Y-84300000D01*
X162638148Y-84300000D01*
X162576836Y-84286295D01*
X162527194Y-84247789D01*
X162498672Y-84191811D01*
X162496699Y-84129016D01*
X162521650Y-84071358D01*
X162534539Y-84053618D01*
X162569545Y-84005437D01*
X162658907Y-83830062D01*
X162719735Y-83642867D01*
X162750532Y-83448462D01*
X162750534Y-83374715D01*
X162751634Y-83374715D01*
X162751635Y-83374712D01*
X162750535Y-83374712D01*
X162750535Y-83350028D01*
X162750536Y-83305878D01*
X162750535Y-83305875D01*
X162750535Y-80844538D01*
X162761496Y-80789432D01*
X162792712Y-80742715D01*
X162839429Y-80711499D01*
X162894535Y-80700538D01*
X166405535Y-80700538D01*
X166477535Y-80719830D01*
G37*
G04 #@! TD.AperFunction*
G04 #@! TA.AperFunction,Conductor*
G36*
X137799511Y-100600167D02*
G01*
X137801628Y-100600503D01*
X137900045Y-100600501D01*
X138500000Y-100600501D01*
X138500000Y-102700000D01*
X138400000Y-102700000D01*
X136600000Y-102700000D01*
X136586902Y-102705425D01*
X136586898Y-102705426D01*
X136542392Y-102723861D01*
X136542389Y-102723862D01*
X136529289Y-102729289D01*
X136523862Y-102742389D01*
X136523861Y-102742392D01*
X136505426Y-102786898D01*
X136505425Y-102786902D01*
X136500000Y-102800000D01*
X136500000Y-102814181D01*
X136500000Y-104856000D01*
X136489039Y-104911106D01*
X136457823Y-104957823D01*
X136411106Y-104989039D01*
X136356000Y-105000000D01*
X132994534Y-105000000D01*
X132922534Y-104980708D01*
X132869826Y-104928000D01*
X132850534Y-104856000D01*
X132850533Y-103960963D01*
X132863546Y-103901143D01*
X132900234Y-103852135D01*
X132974392Y-103787876D01*
X132982179Y-103781129D01*
X133059989Y-103660054D01*
X133100536Y-103521962D01*
X133100536Y-103378040D01*
X133059989Y-103239948D01*
X133048361Y-103221854D01*
X133026966Y-103164495D01*
X133031333Y-103103432D01*
X133060671Y-103049701D01*
X133109680Y-103013013D01*
X133169500Y-103000000D01*
X135735819Y-103000000D01*
X135750000Y-103000000D01*
X135820711Y-102970711D01*
X135850000Y-102900000D01*
X135850000Y-100744000D01*
X135860961Y-100688894D01*
X135892177Y-100642177D01*
X135938894Y-100610961D01*
X135994000Y-100600000D01*
X137795240Y-100600000D01*
X137799511Y-100600167D01*
G37*
G04 #@! TD.AperFunction*
G04 #@! TA.AperFunction,Conductor*
G36*
X137799511Y-100600167D02*
G01*
X137801628Y-100600503D01*
X137900045Y-100600501D01*
X138856000Y-100600501D01*
X138911106Y-100611462D01*
X138957823Y-100642678D01*
X138989039Y-100689395D01*
X139000000Y-100744501D01*
X139000000Y-102900000D01*
X139005425Y-102913098D01*
X139005426Y-102913101D01*
X139023861Y-102957607D01*
X139029289Y-102970711D01*
X139100000Y-103000000D01*
X140856000Y-103000000D01*
X140911106Y-103010961D01*
X140957823Y-103042177D01*
X140989039Y-103088894D01*
X141000000Y-103144000D01*
X141000000Y-107055501D01*
X140989039Y-107110607D01*
X140957823Y-107157324D01*
X140911106Y-107188540D01*
X140856000Y-107199501D01*
X139744000Y-107199501D01*
X139688894Y-107188540D01*
X139642177Y-107157324D01*
X139610961Y-107110607D01*
X139600000Y-107055501D01*
X139600000Y-103914181D01*
X139600000Y-103900000D01*
X139570711Y-103829289D01*
X139557607Y-103823861D01*
X139513101Y-103805426D01*
X139513098Y-103805425D01*
X139500000Y-103800000D01*
X139485819Y-103800000D01*
X138644000Y-103800000D01*
X138588894Y-103789039D01*
X138542177Y-103757823D01*
X138510961Y-103711106D01*
X138500000Y-103656000D01*
X138500000Y-102814181D01*
X138500000Y-102800000D01*
X138470711Y-102729289D01*
X138457607Y-102723861D01*
X138413101Y-102705426D01*
X138413098Y-102705425D01*
X138400000Y-102700000D01*
X138385819Y-102700000D01*
X137350000Y-102700000D01*
X137350000Y-100600000D01*
X137795240Y-100600000D01*
X137799511Y-100600167D01*
G37*
G04 #@! TD.AperFunction*
G04 #@! TA.AperFunction,Conductor*
G36*
X158011106Y-89310961D02*
G01*
X158057823Y-89342177D01*
X158089039Y-89388894D01*
X158100000Y-89444000D01*
X158100000Y-91055538D01*
X158089039Y-91110644D01*
X158057823Y-91157361D01*
X158011106Y-91188577D01*
X157956000Y-91199538D01*
X154594535Y-91199538D01*
X154522535Y-91180246D01*
X154469827Y-91127538D01*
X154450535Y-91055538D01*
X154450533Y-89444000D01*
X154461494Y-89388894D01*
X154492710Y-89342177D01*
X154539427Y-89310961D01*
X154594533Y-89300000D01*
X157956000Y-89300000D01*
X158011106Y-89310961D01*
G37*
G04 #@! TD.AperFunction*
M02*
