G04 #@! TF.GenerationSoftware,KiCad,Pcbnew,(7.0.0-0)*
G04 #@! TF.CreationDate,2025-09-03T19:42:49+12:00*
G04 #@! TF.ProjectId,polar_light_panelized_X4,706f6c61-725f-46c6-9967-68745f70616e,rev?*
G04 #@! TF.SameCoordinates,Original*
G04 #@! TF.FileFunction,Profile,NP*
%FSLAX46Y46*%
G04 Gerber Fmt 4.6, Leading zero omitted, Abs format (unit mm)*
G04 Created by KiCad (PCBNEW (7.0.0-0)) date 2025-09-03 19:42:49*
%MOMM*%
%LPD*%
G01*
G04 APERTURE LIST*
G04 #@! TA.AperFunction,Profile*
%ADD10C,0.150000*%
G04 #@! TD*
G04 APERTURE END LIST*
D10*
X132600036Y-80450001D02*
X132600034Y-83950001D01*
X154200035Y-91450038D02*
X154200032Y-87950074D01*
X136900099Y-99350001D02*
G75*
G03*
X137900036Y-100350001I999901J-99D01*
G01*
X166800000Y-96450000D02*
X162500000Y-96450000D01*
X136900036Y-80450001D02*
X136900036Y-83350001D01*
X152200000Y-99950000D02*
X152200034Y-87950074D01*
X154200035Y-80450038D02*
X154200033Y-83950038D01*
X130600035Y-103950037D02*
X130600036Y-108450001D01*
X154200000Y-96450000D02*
X158500000Y-96450000D01*
X168800000Y-103950000D02*
X168800000Y-108450001D01*
X166800038Y-83950002D02*
X166800035Y-80450038D01*
X152200000Y-108450000D02*
G75*
G03*
X153200000Y-109450000I1000000J0D01*
G01*
X166800035Y-80450038D02*
X162500035Y-80450038D01*
X166800000Y-107450000D02*
X166800002Y-103950000D01*
X132600036Y-96450001D02*
X136900036Y-96450001D01*
X154200035Y-91450038D02*
X166800035Y-91450038D01*
X130600036Y-83950001D02*
X130600036Y-79450001D01*
X159500035Y-84350038D02*
X161500035Y-84350038D01*
X147200099Y-79450001D02*
G75*
G03*
X146200036Y-78450001I-1000099J-99D01*
G01*
X158500000Y-99350000D02*
G75*
G03*
X159500000Y-100350000I1000000J0D01*
G01*
X145200036Y-80450001D02*
X140900036Y-80450001D01*
X158500035Y-80450038D02*
X158500035Y-83350038D01*
X130600099Y-108450001D02*
G75*
G03*
X131600036Y-109450001I999901J-99D01*
G01*
X132600036Y-80450001D02*
X136900036Y-80450001D01*
X158500000Y-96450000D02*
X158500000Y-99350000D01*
X158499962Y-83350038D02*
G75*
G03*
X159500035Y-84350038I999938J-62D01*
G01*
X166800003Y-99949964D02*
X166800000Y-96450000D01*
X132600036Y-91450001D02*
X132600033Y-87950037D01*
X136900099Y-83350001D02*
G75*
G03*
X137900036Y-84350001I999901J-99D01*
G01*
X146200036Y-109449936D02*
G75*
G03*
X147200036Y-108450002I64J999936D01*
G01*
X162500000Y-99350000D02*
X162500000Y-96450000D01*
X140900036Y-83350001D02*
X140900036Y-80450001D01*
X131600036Y-78449936D02*
G75*
G03*
X130600036Y-79450001I64J-1000064D01*
G01*
X154200000Y-107450000D02*
X154199997Y-103950036D01*
X161500000Y-100350000D02*
G75*
G03*
X162500000Y-99350000I0J1000000D01*
G01*
X145200039Y-99949965D02*
X145200036Y-96450001D01*
X132600036Y-107450001D02*
X145200036Y-107450001D01*
X168800035Y-87950038D02*
X168800001Y-99949964D01*
X167800000Y-109450000D02*
X153200000Y-109450000D01*
X137900036Y-100350001D02*
X139900036Y-100350001D01*
X139900036Y-84349936D02*
G75*
G03*
X140900036Y-83350001I64J999936D01*
G01*
X145200036Y-91450001D02*
X145200038Y-87950001D01*
X154200035Y-80450038D02*
X158500035Y-80450038D01*
X153200035Y-78450038D02*
X167800035Y-78450038D01*
X140900036Y-99350001D02*
X140900036Y-96450001D01*
X168800062Y-79450038D02*
G75*
G03*
X167800035Y-78450038I-1000062J-62D01*
G01*
X161500035Y-84350035D02*
G75*
G03*
X162500035Y-83350038I-35J1000035D01*
G01*
X137900036Y-84350001D02*
X139900036Y-84350001D01*
X145200036Y-107450001D02*
X145200038Y-103950001D01*
X154200000Y-107450000D02*
X166800000Y-107450000D01*
X152199999Y-103950036D02*
X152200000Y-108450000D01*
X153200035Y-78450035D02*
G75*
G03*
X152200035Y-79450038I-35J-999965D01*
G01*
X162500035Y-83350038D02*
X162500035Y-80450038D01*
X136900036Y-96450001D02*
X136900036Y-99350001D01*
X145200036Y-96450001D02*
X140900036Y-96450001D01*
X131600036Y-78450001D02*
X146200036Y-78450001D01*
X125600000Y-73450000D02*
X173800000Y-73450000D01*
X173800000Y-73450000D02*
X173800000Y-114450000D01*
X173800000Y-114450000D02*
X125600000Y-114450000D01*
X125600000Y-114450000D02*
X125600000Y-73450000D01*
X130600035Y-87950037D02*
X130600036Y-99950001D01*
X159500000Y-100350000D02*
X161500000Y-100350000D01*
X147200036Y-103950001D02*
X147200036Y-108450002D01*
X132600036Y-107450001D02*
X132600033Y-103950037D01*
X132600036Y-96450001D02*
X132600034Y-99950001D01*
X147200036Y-87950001D02*
X147200037Y-99949965D01*
X168800036Y-83950002D02*
X168800035Y-79450038D01*
X132600036Y-91450001D02*
X145200036Y-91450001D01*
X147200037Y-83949965D02*
X147200036Y-79450001D01*
X154200000Y-96450000D02*
X154199998Y-99950000D01*
X139900036Y-100349936D02*
G75*
G03*
X140900036Y-99350001I64J999936D01*
G01*
X145200039Y-83949965D02*
X145200036Y-80450001D01*
X166800035Y-91450038D02*
X166800037Y-87950038D01*
X146200036Y-109450001D02*
X131600036Y-109450001D01*
X167800000Y-109450000D02*
G75*
G03*
X168800000Y-108450001I0J1000000D01*
G01*
X152200035Y-83950038D02*
X152200035Y-79450038D01*
X132600033Y-103950037D02*
G75*
G03*
X130600035Y-103950037I-999999J19D01*
G01*
X130600038Y-99950001D02*
G75*
G03*
X132600034Y-99950001I999998J-20D01*
G01*
X154200032Y-87950074D02*
G75*
G03*
X152200034Y-87950074I-999999J19D01*
G01*
X152200037Y-83950038D02*
G75*
G03*
X154200033Y-83950038I999998J-20D01*
G01*
X166800003Y-99949964D02*
G75*
G03*
X168800001Y-99949964I999999J-19D01*
G01*
X168799998Y-103950000D02*
G75*
G03*
X166800002Y-103950000I-999998J20D01*
G01*
X166800038Y-83950002D02*
G75*
G03*
X168800036Y-83950002I999999J-19D01*
G01*
X168800033Y-87950038D02*
G75*
G03*
X166800037Y-87950038I-999998J20D01*
G01*
X145200039Y-83949965D02*
G75*
G03*
X147200037Y-83949965I999999J-19D01*
G01*
X147200034Y-87950001D02*
G75*
G03*
X145200038Y-87950001I-999998J20D01*
G01*
X132600033Y-87950037D02*
G75*
G03*
X130600035Y-87950037I-999999J19D01*
G01*
X130600038Y-83950001D02*
G75*
G03*
X132600034Y-83950001I999998J-20D01*
G01*
X145200039Y-99949965D02*
G75*
G03*
X147200037Y-99949965I999999J-19D01*
G01*
X147200034Y-103950001D02*
G75*
G03*
X145200038Y-103950001I-999998J20D01*
G01*
X154199997Y-103950036D02*
G75*
G03*
X152199999Y-103950036I-999999J19D01*
G01*
X152200002Y-99950000D02*
G75*
G03*
X154199998Y-99950000I999998J-20D01*
G01*
M02*
